<svg id="Layer_1" height="512" viewBox="0 0 512 512" width="512" xmlns="http://www.w3.org/2000/svg" data-name="Layer 1"><path d="m229.58 57.29-47.65 19.19s-114.77 93.53-68.29 209.27l-4.72 37.06-21.52-38.78s-90.94-155.42 51.67-212.47l43.95-9.38 42.97-13.05c1.24 2.68 2.44 5.41 3.59 8.16z" fill="#5d8430"/><path d="m107.4 284.03s-90.94-155.42 51.67-212.47l43.95-9.38 25.355-7.7c-.779-1.8-1.569-3.587-2.385-5.35l-42.97 13.05-43.95 9.38c-142.61 57.05-51.67 212.47-51.67 212.47l21.52 38.78 3.733-29.313z" fill="#4e6b28"/><path d="m238.083 91.371a6 6 0 0 1 -5.928-5.121 94.67 94.67 0 0 0 -4.184-16.3c-.643-1.882-1.34-3.8-2.069-5.688-.6-1.568-1.226-3.124-1.868-4.681-1.115-2.665-2.292-5.342-3.49-7.929a344.387 344.387 0 0 0 -20.4-37.4 6 6 0 0 1 10.082-6.507 349.772 349.772 0 0 1 21.214 38.875c1.255 2.713 2.493 5.527 3.676 8.356.689 1.67 1.346 3.314 1.983 4.967.784 2.034 1.534 4.095 2.229 6.126a106.5 106.5 0 0 1 4.7 18.421 6.007 6.007 0 0 1 -5.942 6.881z" fill="#bf7a47"/><path d="m430.04 399.17c21.67-66.08 31.96-134.04 13.74-203.84-12.43-47.59-53.95-98.69-104.83-112.65l-.01.01s-28.389-6.5-57.2-4.54c-29.317 1.99-59.092 12.44-61.856 13.56-65.59 26.62-105.34 119.21-79.12 212.51 31.536 112.23 110.536 176.28 181.746 192.25 51.17 11.48 114.41-.08 123.73-20.91 11.55-25.83-34.45-20.76-16.2-76.39z" fill="#fad44c"/><path d="m338.94 82.69c35.63 36.24 18.94 102.07 18.94 102.07l-6.5 28.39-9.73-22.52c6.59-65.19-49.26-100.84-71.84-112.48-5.64-2.91-9.21-4.32-9.21-4.32l-26.95-5.82c-.67-1.96-1.39-3.94-2.15-5.91l25.64.13 29.43-2.09c24.3 2.42 41.02 10.97 52.37 22.55z" fill="#5d8430"/><path d="m338.94 82.69c-11.35-11.58-28.07-20.13-52.37-22.55l-7.87.56c21.329 3.095 36.377 11.183 46.842 21.861 35.63 36.24 18.94 102.07 18.94 102.07l-1.88 8.21 8.775 20.31 6.5-28.39s16.693-65.831-18.937-102.071z" fill="#4e6b28"/><path d="m429.029 402.433c-67.915-11.493-144.3-60.89-189.739-155.246-26.31-54.637-27.135-113.491-9.378-159.11-3.53 1.157-6.913 2.37-10.032 3.633-65.59 26.62-105.34 119.21-79.12 212.51 31.54 112.23 110.54 176.28 181.75 192.25 51.17 11.48 114.41-.08 123.73-20.91 11.319-25.312-32.621-20.96-17.211-73.127z" fill="#f5b142"/><g opacity=".6"><path d="m195.166 365.271a6 6 0 0 1 -5.191-2.982c-3.45-5.926-6.726-12.036-9.739-18.161a311.89 311.89 0 0 1 -15.111-36.44 339.129 339.129 0 0 1 -11.1-40.522 6 6 0 1 1 11.747-2.452 327.011 327.011 0 0 0 10.7 39.08 299.879 299.879 0 0 0 14.528 35.035c2.891 5.878 6.034 11.738 9.343 17.422a6 6 0 0 1 -5.18 9.02z" fill="#e9e9e9"/></g><g opacity=".6"><path d="m228.722 411.24a5.981 5.981 0 0 1 -4.441-1.964c-5.45-5.994-10.74-12.384-15.722-19a6 6 0 1 1 9.583-7.222c4.761 6.317 9.814 12.422 15.018 18.145a6 6 0 0 1 -4.438 10.036z" fill="#e9e9e9"/></g></svg>