<svg width="242" height="242" viewBox="0 0 242 242" fill="none" xmlns="http://www.w3.org/2000/svg">
<g clip-path="url(#clip0)">
<path opacity="0.71" d="M28.8831 134.781C29.8915 135.341 30.9222 135.879 31.9978 136.371C32.1098 136.416 32.2218 136.484 32.3115 136.528C36.5465 138.5 41.252 140.046 46.1144 141.144C46.5178 141.234 46.9435 141.324 47.3468 141.413C52.8367 142.578 58.5057 143.228 63.9955 143.34C64.6454 143.363 65.2952 143.363 65.945 143.363C66.4828 143.363 67.0205 143.363 67.5359 143.34C67.8944 143.34 68.253 143.318 68.6115 143.295C70.8074 143.206 72.9361 143.004 74.9752 142.69C75.8715 142.556 76.7454 142.399 77.5968 142.22C78.7172 141.996 79.8152 141.727 80.8907 141.413C81.1596 141.346 81.4509 141.256 81.7198 141.167C82.5041 140.943 83.2659 140.674 84.0278 140.405C84.3639 140.293 84.7 140.158 85.0361 140.024C85.2602 139.934 85.5067 139.845 85.7307 139.755C85.8652 139.71 85.9996 139.643 86.1341 139.598C86.9183 139.262 87.6802 138.926 88.442 138.545C88.935 138.299 89.4279 138.052 89.9209 137.783C90.5483 137.447 91.1757 137.089 91.7807 136.708C92.072 136.528 92.3409 136.349 92.6098 136.17C93.17 135.811 93.7302 135.43 94.2679 135.049C94.4024 134.96 94.5368 134.87 94.6713 134.758C95.4331 134.198 96.1502 133.615 96.8672 133.01C97.0016 132.898 97.1361 132.786 97.2705 132.674C97.405 132.562 97.5394 132.428 97.6739 132.316C97.8979 132.114 98.1444 131.89 98.3685 131.666C98.5029 131.532 98.6374 131.419 98.7718 131.285C99.0855 130.971 99.3992 130.658 99.7129 130.344C99.8474 130.209 99.9818 130.075 100.116 129.941C100.408 129.627 100.699 129.313 100.99 128.977C101.125 128.82 101.259 128.686 101.394 128.529C101.416 128.507 101.438 128.484 101.438 128.462L101.461 128.439C101.55 128.327 101.662 128.215 101.752 128.103C101.886 127.946 102.021 127.789 102.155 127.633C102.29 127.453 102.424 127.297 102.581 127.117C102.716 126.96 102.85 126.781 102.984 126.624C103.052 126.535 103.119 126.445 103.208 126.355C103.343 126.176 103.477 125.997 103.612 125.84C103.657 125.773 103.724 125.706 103.769 125.638C103.903 125.459 104.038 125.28 104.172 125.101L104.194 125.078C104.262 124.966 104.351 124.877 104.418 124.764C104.553 124.585 104.687 124.384 104.822 124.182C104.889 124.07 104.956 123.958 105.046 123.868C105.18 123.666 105.315 123.465 105.449 123.263C105.494 123.174 105.561 123.106 105.606 123.017C105.741 122.815 105.875 122.591 106.009 122.389C106.054 122.322 106.099 122.232 106.144 122.143C106.39 121.739 106.637 121.314 106.883 120.888C107.018 120.642 107.152 120.395 107.287 120.149C107.421 119.902 107.556 119.656 107.69 119.409C107.757 119.275 107.824 119.14 107.914 119.006C108.049 118.759 108.183 118.49 108.317 118.221C108.362 118.109 108.429 118.02 108.474 117.908C108.586 117.706 108.676 117.504 108.766 117.28C110.917 112.732 112.597 107.645 113.762 102.066C119.499 74.7063 110.917 49.4307 73.205 57.363C47.3917 62.808 18.5085 84.9241 13.7133 105.606C10.6435 118.894 17.7018 128.551 28.8831 134.781Z" fill="#CEEBD3"/>
<path d="M165.322 125.795C166.263 126.602 166.98 127.072 166.98 127.072C168.862 128.17 173.59 123.51 176.279 120.104C176.682 119.611 177.019 119.118 177.31 118.692C177.713 118.087 178.004 117.594 178.139 117.236C178.161 117.191 178.184 117.124 178.206 117.079C176.593 116.16 174.621 113.359 172.425 112.508C169.759 111.455 167.428 114.995 166.285 115.084C165.165 115.174 165.949 114.435 165.031 113.314C164.112 112.194 163.036 114.121 162.745 115.577C162.543 116.608 161.266 117.348 160.527 117.706C160.325 121 163.35 124.137 165.322 125.795Z" fill="#FFB27D"/>
<path d="M179.147 117.639C179.214 117.908 179.214 118.154 179.17 118.334C178.789 119.566 178.654 119.656 178.184 119.544C178.049 119.521 177.892 119.297 177.736 119.006C177.444 119.431 177.086 119.902 176.705 120.417C176.772 121.381 176.907 122.322 177.108 122.703C177.355 123.174 177.198 124.832 177.019 126.288C178.184 126.199 179.416 126.557 180.268 126.893C180.268 126.311 180.335 125.594 180.537 124.966C181.007 123.487 182.934 119.544 182.307 118.177C182.15 117.818 181.881 117.303 181.545 116.743C180.828 117.303 180.111 117.639 179.685 117.661C179.506 117.706 179.327 117.684 179.147 117.639Z" fill="#ED975D"/>
<path d="M161.759 128.999C161.871 128.91 161.961 128.82 162.073 128.753C158.734 123.958 160.235 118.602 160.504 117.729C160.37 117.796 160.235 117.841 160.146 117.885C158.667 118.939 157.21 119.633 155.866 120.126C155.888 120.104 155.373 126.714 161.759 128.999Z" fill="#FFB27D"/>
<path d="M165.322 125.795C163.35 124.115 160.325 121 160.549 117.684C160.549 117.684 160.527 117.684 160.527 117.706C160.235 118.602 158.734 123.935 162.095 128.731C164.067 127.095 165.143 125.974 165.322 125.795Z" fill="#ED975D"/>
<path d="M160.549 117.684C161.289 117.325 162.566 116.563 162.767 115.555C163.059 114.099 164.134 112.171 165.053 113.292C165.972 114.412 165.165 115.152 166.308 115.062C167.428 114.972 169.759 111.432 172.447 112.485C174.621 113.337 176.593 116.138 178.229 117.056C178.408 117.168 178.587 117.236 178.744 117.28C178.923 117.325 179.102 117.348 179.259 117.348C179.685 117.303 180.424 116.989 181.119 116.429C183.36 114.659 185.489 110.536 177.713 105.92C169.96 101.304 166.532 100.923 164.47 101.662C164.919 100.968 165.703 100.923 165.703 100.923C164.381 100.654 163.417 101.685 162.969 102.335C162.431 102.088 161.916 102.155 161.916 102.155C162.386 102.424 162.566 102.626 162.611 102.783C162.476 102.895 162.342 103.007 162.207 103.119C160.661 104.374 158.488 112.709 159.249 115.309C160.011 117.908 160.011 117.908 160.011 117.908C160.011 117.908 160.056 117.885 160.146 117.841C160.235 117.796 160.347 117.751 160.504 117.684C160.527 117.706 160.549 117.684 160.549 117.684Z" fill="#333333"/>
<path opacity="0.71" d="M65.1831 200.389C65.4744 200.233 65.452 199.74 65.2727 199.09C64.8694 199.179 64.4661 199.247 64.0627 199.314C64.4661 200.076 64.8694 200.546 65.1831 200.389Z" fill="#3B5E41"/>
<path d="M70.4265 195.975C70.4265 195.975 70.5386 195.818 70.6282 195.527C70.561 195.661 70.4937 195.818 70.4265 195.975Z" fill="#FFCC00"/>
<g opacity="0.71">
<g opacity="0.71">
<path opacity="0.71" d="M193.981 225.015C193.197 224.881 192.547 224.679 192.076 224.388C192.076 224.388 187.864 216.411 182.912 208.501C179.192 202.585 175.159 196.356 172.828 190.732C169.647 202.563 166.039 216.187 164.358 223.85C164.358 223.85 163.753 223.962 162.857 224.097C164.403 226.853 168.392 228.152 170.812 228.533C172.784 228.847 173.366 229.967 173.523 230.595H162.655H194.205C193.645 229.25 193.869 226.203 193.981 225.015Z" fill="#3B5E41"/>
</g>
</g>
<path opacity="0.71" d="M74.3926 202.675C74.3254 202.518 74.2357 202.316 74.1013 202.048C73.81 201.465 73.6083 201.017 73.4739 200.703C72.5776 198.866 71.278 196.468 70.4265 195.953C70.2024 196.401 69.8887 196.827 69.4854 197.185C71.1211 200.233 67.9617 203.907 67.9617 203.907C67.9617 203.907 68.7907 206.372 71.3228 208.635C71.3228 208.635 72.9809 209.868 74.1237 212.131H75.3113C75.4681 209.756 75.513 205.521 74.3926 202.675Z" fill="#3B5E41"/>
<path d="M157.367 194.72H156.045L156.852 199.067C157.009 197.611 157.188 196.177 157.367 194.72Z" fill="#FFCC00"/>
<g opacity="0.71">
<g opacity="0.71">
<path opacity="0.71" d="M162.118 159.474C160.392 157.367 158.622 154.858 157.076 152.281C156.135 154.051 155.463 155.149 155.306 155.395C154.902 156.068 154.477 156.717 154.051 157.367C156.538 157.995 159.339 158.734 162.118 159.474Z" fill="#3B5E41"/>
</g>
</g>
<path d="M84.2071 200.367C84.1623 200.255 84.095 200.143 84.0502 200.031C84.1399 200.255 84.2071 200.367 84.2071 200.367Z" fill="#FFCC00"/>
<g opacity="0.71">
<g opacity="0.71">
<path opacity="0.71" d="M175.674 126.131C175.965 126.042 176.279 125.997 176.57 125.974C176.772 124.518 176.906 122.86 176.66 122.389C176.458 121.986 176.324 121.067 176.257 120.104C173.568 123.532 168.84 128.17 166.958 127.072C166.958 127.072 166.263 126.602 165.299 125.795C165.12 125.974 164.045 127.072 162.05 128.731C161.938 128.82 161.849 128.91 161.737 128.977C161.737 128.977 161.781 129.268 161.849 129.784C163.171 134.377 165.456 141.794 168.481 149.233C171.058 139.441 175.674 126.131 175.674 126.131Z" fill="#3B5E41"/>
</g>
</g>
<g opacity="0.71">
<g opacity="0.71">
<g opacity="0.71">
<path opacity="0.71" d="M156.202 230.595C156.18 230.572 156.135 230.572 156.112 230.55C154.97 229.99 155.328 225.62 155.463 224.276C155.485 224.029 155.507 223.872 155.507 223.872C155.507 223.872 155.552 223.828 155.642 223.76C155.216 223.536 154.88 223.245 154.678 222.886C154.678 222.886 155.082 216.388 155.866 208.098L155.575 207.022L154.163 201.667L152.326 194.72H126.579L124.742 201.667L117.101 230.572H161.826H156.202V230.595ZM150.219 203.818C150.197 203.795 150.197 203.795 150.219 203.818C150.219 203.84 150.219 203.818 150.219 203.818Z" fill="#3B5E41"/>
</g>
</g>
</g>
<path d="M67.7824 206.148C67.7824 206.26 67.76 206.35 67.76 206.462C67.7376 206.462 67.7824 206.35 67.7824 206.148Z" fill="#FFCC00"/>
<path opacity="0.71" d="M58.1024 193.578C60.6793 192.861 63.7939 192.995 64.9143 192.39C66.4828 191.561 64.1972 190.709 61.0826 190.956C58.9763 191.113 57.587 192.569 55.3687 193.667C56.2426 193.578 57.1837 193.555 58.1024 193.578Z" fill="#3B5E41"/>
<path d="M162.633 230.595H173.501C173.344 229.99 172.783 228.847 170.789 228.533C168.369 228.152 164.381 226.853 162.835 224.096C162.431 224.164 161.961 224.208 161.445 224.253L162.633 230.595Z" fill="#2C3A64"/>
<path d="M155.664 223.783C155.575 223.85 155.53 223.895 155.53 223.895C155.53 223.895 155.507 224.052 155.485 224.298C155.351 225.643 154.992 229.99 156.135 230.572C156.157 230.595 156.18 230.595 156.224 230.617H161.849L160.191 224.365C158.532 224.41 156.785 224.321 155.664 223.783Z" fill="#2C3A64"/>
<path d="M155.664 223.783C156.762 224.343 158.532 224.433 160.168 224.343L155.888 208.12C155.104 216.411 154.701 222.909 154.701 222.909C154.902 223.267 155.238 223.559 155.664 223.783Z" fill="#2C3A64"/>
<path d="M157.278 201.443L158.219 206.529C158.219 206.551 158.219 206.574 158.241 206.596L161.49 224.231C161.983 224.186 162.454 224.119 162.879 224.074C163.798 223.94 164.381 223.828 164.381 223.828C166.061 216.187 169.646 202.541 172.873 190.709C171.439 187.236 170.677 184.01 171.058 181.209C170.789 181.298 170.498 181.388 170.229 181.455C168.1 182.06 165.187 182.71 161.826 183.315C162.364 183.786 162.678 184.48 162.678 185.242V190.866V192.121C162.678 193.533 161.513 194.698 160.101 194.698H157.412C157.233 196.132 157.054 197.588 156.874 199.045L157.278 201.443Z" fill="#353535"/>
<g opacity="0.56">
<g opacity="0.56">
<path opacity="0.56" d="M176.57 125.974C176.257 125.997 175.965 126.042 175.674 126.131C175.674 126.131 171.058 139.441 168.504 149.233C165.501 141.794 163.193 134.377 161.871 129.784C162.185 132.204 162.879 139.553 161.064 143.833C159.563 147.396 158.129 150.264 157.053 152.258C158.6 154.835 160.37 157.345 162.095 159.451C167.271 160.818 172.403 162.23 175.338 163.059C176.324 161.692 179.259 155.373 181.007 127.117C181.007 127.117 180.536 126.848 179.819 126.579C178.968 126.243 177.758 125.885 176.57 125.974Z" fill="#606060"/>
</g>
</g>
<path d="M193.981 225.015C193.869 226.203 193.622 229.273 194.183 230.595H211.772C211.436 230.034 210.742 229.385 209.33 229.161C207.045 228.78 203.347 227.614 201.644 225.15C199.807 225.284 196.379 225.441 193.981 225.015Z" fill="#2C3A64"/>
<path d="M160.056 182.688C160.706 182.688 161.311 182.934 161.781 183.36C165.143 182.755 168.056 182.105 170.184 181.5C170.476 181.41 170.744 181.343 171.013 181.254C170.632 184.032 171.417 187.281 172.828 190.754C175.136 196.379 179.192 202.608 182.912 208.523C187.864 216.411 192.076 224.41 192.076 224.41C192.547 224.702 193.197 224.903 193.981 225.038C196.356 225.463 199.784 225.307 201.622 225.172C202.406 225.105 202.921 225.06 202.921 225.06C199.135 214.349 190.172 189.343 185.421 176.077C184.794 176.122 182.307 174.128 181.702 172.223C181.029 170.117 179.326 169.557 179.394 169.669C179.461 169.781 180.335 172.47 180.156 172.582C179.976 172.694 179.17 172.896 178.453 171.394C177.825 170.072 176.638 169.064 176.548 167.787C176.01 168.168 175.293 168.549 175.293 168.549C170.453 168.84 145.491 168.324 144.505 168.302C142.825 169.96 139.509 171.91 135.117 173.052C128.081 174.845 120.014 175.809 116.922 173.971C116.877 175.383 117.011 176.974 117.37 178.789C117.706 180.402 118.737 181.702 120.328 182.688H160.056Z" fill="#515151"/>
<path d="M135.139 173.03C131.285 165.367 135.184 150.847 137.94 142.668C137.402 133.817 137.694 126.198 137.694 126.198C151.093 115.667 151.989 134.781 151.407 148.27C152.975 150.667 154.477 153.244 155.328 155.418C155.485 155.149 156.135 154.073 157.098 152.303C158.174 150.309 159.608 147.418 161.109 143.878C162.924 139.598 162.207 132.226 161.916 129.828C161.849 129.313 161.804 129.044 161.804 129.022C155.418 126.736 155.933 120.148 155.933 120.148C155.933 120.148 129.896 120.148 120.798 147.665C120.798 147.665 115.488 164.672 115.309 168.885C115.219 170.879 115.488 172.492 116.227 173.388C116.429 173.613 116.675 173.814 116.989 173.993C120.036 175.786 128.103 174.845 135.139 173.03Z" fill="#61AE71"/>
<path d="M177.108 167.294C176.996 167.451 176.794 167.63 176.548 167.787C176.638 169.064 177.825 170.072 178.453 171.394C179.17 172.896 179.976 172.694 180.156 172.582C180.335 172.47 179.461 169.781 179.394 169.669C179.326 169.557 181.029 170.117 181.702 172.223C182.307 174.128 184.794 176.122 185.421 176.077C185.489 176.077 185.533 176.033 185.556 175.988C185.757 175.405 185.421 171.932 185.152 170.744C184.884 169.557 182.396 166.173 181.343 165.501C180.716 165.098 179.102 164.47 177.892 164C177.96 164.538 178.027 166.016 177.108 167.294Z" fill="#FFB27D"/>
<g opacity="0.56">
<g opacity="0.56">
<path opacity="0.56" d="M137.94 142.668C135.184 150.847 131.285 165.367 135.139 173.03C139.531 171.91 142.847 169.938 144.528 168.28C144.505 168.28 144.505 168.28 144.505 168.28C140.203 164.515 138.545 152.796 137.94 142.668Z" fill="#606060"/>
</g>
</g>
<g opacity="0.56">
<g opacity="0.56">
<path opacity="0.56" d="M154.073 157.367C154.499 156.74 154.925 156.068 155.328 155.395C154.477 153.222 152.975 150.645 151.407 148.247C151.272 151.519 151.048 154.454 150.891 156.583C151.855 156.829 152.931 157.098 154.073 157.367Z" fill="#606060"/>
</g>
</g>
<g opacity="0.56">
<g opacity="0.56">
<path opacity="0.56" d="M154.073 157.367C152.931 157.076 151.855 156.807 150.891 156.583C151.048 154.477 151.272 151.519 151.407 148.247C151.989 134.758 151.093 115.667 137.694 126.176C137.694 126.176 137.425 133.795 137.94 142.646C138.545 152.774 140.181 164.493 144.483 168.28C144.483 168.28 144.483 168.28 144.505 168.28C145.469 168.302 170.453 168.817 175.293 168.526C175.293 168.526 175.988 168.168 176.548 167.764C176.794 167.585 176.996 167.428 177.108 167.271C178.027 165.994 177.96 164.515 177.915 163.977C177.892 163.843 177.892 163.753 177.892 163.753C177.892 163.753 176.951 163.484 175.383 163.059C172.447 162.252 167.316 160.84 162.14 159.451C159.339 158.734 156.538 157.995 154.073 157.367Z" fill="#606060"/>
</g>
</g>
<path d="M71.3228 208.815C68.7907 206.574 67.9617 204.087 67.9617 204.087C67.9617 204.087 71.1211 200.412 69.4854 197.364C68.4995 198.238 66.9982 198.866 65.2728 199.247C65.452 199.896 65.4744 200.389 65.1832 200.546C64.8694 200.703 64.4661 200.233 64.0404 199.493C61.1722 199.941 57.968 199.852 55.6824 199.381C52.8143 198.799 52.4782 198.081 53.2176 197.118C51.6043 196.042 50.1702 194.967 50.1702 194.967C50.1702 194.967 43.9409 196.02 44.277 199.829C44.6132 203.616 46.7419 204.804 47.683 204.692C48.6241 204.58 54.1363 202.496 54.2483 203.258C54.3604 204.019 51.0441 206.551 48.7361 206.664C48.7361 206.664 53.128 211.504 56.0409 210.114C58.9539 208.725 59.2004 206.507 61.0154 205.678C62.8304 204.849 64.3765 204.849 63.637 205.7C62.8976 206.551 59.6037 207.358 58.5506 209.218C57.5198 211.055 56.5787 212.288 59.6037 211.84C62.6287 211.391 67.5135 209.173 67.7376 206.664C67.7376 206.551 67.76 206.439 67.76 206.35C67.76 206.551 67.7376 206.664 67.7376 206.664C68.365 206.776 69.6646 207.941 70.6282 208.837C70.7626 208.994 70.9867 209.218 71.3004 209.487C71.4124 209.599 71.502 209.711 71.5917 209.778C72.2191 210.45 72.7345 211.391 73.1826 212.333H74.1461C72.9809 210.047 71.3228 208.815 71.3228 208.815Z" fill="#82B378"/>
<path d="M58.1024 193.578C57.2061 193.555 56.2426 193.578 55.3911 193.667C54.7861 193.959 54.1363 194.227 53.3745 194.429C53.6657 194.676 54.1587 195.079 54.6965 195.572C54.9878 195.325 55.2791 195.079 55.5928 194.81C56.2426 194.205 57.1389 193.824 58.1024 193.578Z" fill="#82B378"/>
<path d="M104.217 184.547C83.3108 192.995 83.5797 198.619 84.0726 200.031C84.1175 200.143 84.1847 200.255 84.2295 200.367C85.5067 203.101 91.8704 203.549 95.4108 202.832C98.9512 202.115 97.4051 201.106 95.5004 199.493C93.5958 197.88 89.5849 198.306 88.4197 197.656C87.2321 197.028 88.9575 196.378 91.3326 196.558C93.6854 196.737 94.873 199.112 98.7047 199.471C102.514 199.829 105.427 192.659 105.427 192.659C102.783 193.488 98.0549 192.031 97.8756 191.113C97.6963 190.194 104.687 190.284 105.785 190.015C106.883 189.746 108.788 187.55 107.6 183.203C106.413 178.856 99.0408 180.2 99.0408 180.2C99.0408 180.2 94.0439 187.841 92.5875 188.021C91.131 188.2 95.59 180.649 95.59 180.649C92.7667 180.38 85.5963 183.83 85.5963 183.83C85.5963 183.83 86.0445 192.726 84.588 192.547C83.1315 192.368 84.588 184.637 84.588 184.637C81.8543 185.466 79.3223 188.626 79.3223 188.626C76.1404 193.802 82.9523 197.633 82.9523 197.633C85.1258 190.732 104.217 184.547 104.217 184.547Z" fill="#89B57F"/>
<path d="M81.2044 205.454C81.2492 205.342 81.3389 205.162 81.4285 204.961C81.6526 204.512 81.8094 204.199 81.8991 203.952C82.5713 202.563 83.5572 200.726 84.207 200.345C84.207 200.345 84.1174 200.233 84.0502 200.009C83.5796 198.619 83.3107 192.995 104.194 184.525C104.194 184.525 85.1033 190.709 82.9298 197.611C82.9298 197.611 83.0194 200.703 81.1148 204.244C81.1148 204.244 78.8741 207.627 79.4118 212.109H80.465C80.3978 210.294 80.4202 207.425 81.2044 205.454Z" fill="#82B378"/>
<path d="M55.6824 199.202C57.9904 199.672 61.1946 199.762 64.0404 199.314C64.4661 199.247 64.8694 199.179 65.2504 199.09C66.9533 198.709 68.4546 198.081 69.463 197.208C69.8663 196.849 70.2024 196.423 70.4041 195.975C70.4713 195.818 70.5385 195.661 70.6057 195.527C71.2331 193.69 71.5917 186.273 44.0305 175.136C44.0305 175.136 69.1941 183.293 72.0622 192.39C72.0622 192.39 81.0476 187.348 76.8574 180.537C76.8574 180.537 73.4963 176.346 69.9111 175.271C69.9111 175.271 71.8381 185.444 69.9111 185.69C67.9841 185.937 68.5891 174.195 68.5891 174.195C68.5891 174.195 59.1555 169.624 55.4359 169.983C55.4359 169.983 61.3067 179.932 59.3796 179.685C57.4526 179.439 50.8648 169.378 50.8648 169.378C50.8648 169.378 41.1624 167.585 39.5939 173.321C38.0254 179.08 40.5574 181.948 41.9915 182.307C43.4255 182.665 52.6574 182.553 52.4109 183.741C52.1644 184.928 45.9352 186.855 42.462 185.78C42.462 185.78 46.2937 195.236 51.3354 194.765C52.0524 194.698 52.7246 194.564 53.3072 194.407C54.0691 194.205 54.7189 193.936 55.3239 193.645C57.5422 192.569 58.9315 191.09 61.0378 190.934C64.1524 190.687 66.438 191.539 64.8694 192.368C63.7267 192.973 60.6344 192.838 58.0576 193.555C57.0941 193.824 56.2202 194.205 55.5255 194.788C55.2118 195.056 54.9205 195.303 54.6292 195.549C54.0242 196.065 53.5089 196.513 53.1728 196.939C52.4781 197.902 52.8142 198.619 55.6824 199.202Z" fill="#88B87E"/>
<path d="M44.0754 175.136C71.6141 186.273 71.278 193.69 70.6506 195.527C70.5385 195.818 70.4489 195.975 70.4489 195.975C71.3004 196.468 72.6 198.866 73.4963 200.726C73.6307 201.039 73.8324 201.465 74.1237 202.07C74.2357 202.339 74.3478 202.563 74.415 202.697C75.5578 205.521 75.4906 209.778 75.3337 212.153H76.6557C77.6641 205.946 74.5046 201.129 74.5046 201.129C71.995 196.446 72.107 192.39 72.107 192.39C69.2165 183.27 44.0754 175.136 44.0754 175.136Z" fill="#82B378"/>
<path d="M66.3932 212.691H54.8085C55.0326 219.839 59.5141 225.934 65.8106 228.466H73.3395C68.1185 225.531 66.4828 219.1 66.3932 212.691Z" fill="#ED7D2B"/>
<path d="M76.835 228.466H78.9861C85.2826 225.912 89.764 219.839 89.9881 212.691H87.837C87.6353 219.839 83.1539 225.912 76.835 228.466Z" fill="#F99746"/>
<path d="M83.49 212.691H66.3931C66.4828 219.1 68.1185 225.553 73.3394 228.466H73.4515H76.7005C81.787 225.822 83.4004 219.727 83.49 212.691Z" fill="#F99746"/>
<path d="M76.7006 228.466H76.8574C83.1539 225.912 87.6354 219.839 87.8595 212.691H83.49C83.4004 219.727 81.787 225.822 76.7006 228.466Z" fill="#FFB176"/>
<path d="M73.4515 228.466H73.3394H65.8105H56.7355C55.5479 228.466 54.5844 229.407 54.562 230.595H71.2779C71.3003 229.407 72.2639 228.466 73.4515 228.466Z" fill="#ED7D2B"/>
<path d="M76.7005 228.466H73.4515C72.2639 228.466 71.3004 229.407 71.278 230.595H90.2346C90.2122 230.012 89.9881 229.497 89.6072 229.116C89.2039 228.712 88.6661 228.488 88.0611 228.488H78.9861H76.835H76.7005V228.466Z" fill="#F99746"/>
<path d="M83.49 212.691H87.837H89.9882H90.5708V212.131H87.8595H83.49H80.465H79.4343H76.6334H75.3113H74.1237H73.1602H54.4052V212.691H54.8085H66.3932H83.49Z" fill="#DB6A1F"/>
<path d="M161.894 190.799C162.14 190.799 162.409 190.844 162.633 190.911V185.287C162.633 184.525 162.297 183.83 161.781 183.36C161.333 182.956 160.728 182.688 160.056 182.688H120.35H119.364C117.953 182.688 116.787 183.853 116.787 185.264V190.799H161.894Z" fill="#F99746"/>
<path d="M126.579 194.72H152.37L156.045 194.653L156.068 194.72H157.39H160.079C161.49 194.72 162.655 193.555 162.655 192.144V190.889C162.431 190.821 162.162 190.777 161.916 190.777H116.787V192.144C116.787 193.555 117.953 194.72 119.364 194.72H122.905L122.927 194.653L126.579 194.72Z" fill="#ED7D2B"/>
<path d="M124.742 201.689C124.63 201.734 121.291 203.459 120.731 206.552C120.731 206.574 120.731 206.596 120.709 206.619L116.294 230.595H117.101L124.742 201.689Z" fill="#E8C6A7"/>
<path d="M124.742 201.689C124.742 201.667 124.742 201.667 124.742 201.689L126.579 194.743L122.905 194.676L122.882 194.743L120.709 206.551C121.291 203.459 124.63 201.734 124.742 201.689Z" fill="#C69D7B"/>
<path d="M161.468 224.253L158.219 206.596C158.219 206.574 158.219 206.552 158.196 206.529L157.255 201.443C156.583 202.429 155.642 204.266 155.597 207.022L155.888 208.098L160.168 224.321L161.826 230.572H162.633L161.468 224.253Z" fill="#E8C6A7"/>
<path d="M150.219 203.818C150.219 203.818 150.219 203.84 150.219 203.818C150.197 203.795 150.197 203.795 150.219 203.818Z" fill="#E8C6A7"/>
<path d="M154.185 201.689L155.597 207.044C155.642 204.288 156.583 202.451 157.255 201.465L156.807 199.09L156 194.743L155.978 194.676L152.37 194.72L154.185 201.689C154.185 201.667 154.185 201.667 154.185 201.689Z" fill="#C69D7B"/>
<path d="M177.736 119.028C177.892 119.297 178.049 119.521 178.184 119.566C178.654 119.678 178.789 119.566 179.17 118.356C179.237 118.177 179.214 117.93 179.147 117.661C178.968 117.616 178.811 117.527 178.632 117.437C178.609 117.482 178.587 117.549 178.565 117.594C178.43 117.908 178.139 118.423 177.736 119.028Z" fill="#FFCC00"/>
<path opacity="0.71" d="M228.511 163.574C235.054 138.186 228.443 132.114 227.39 129.111C225.956 125.033 223.043 118.916 216.456 112.485C213.677 110.603 211.84 108.967 210.63 107.78C209.845 107.018 209.375 106.458 208.389 105.987C206.507 105.068 205.185 105.629 204.131 104.643C203.258 103.814 203.28 102.559 203.235 102.178C203.123 101.125 201.846 99.7354 197.925 97.9428C193.421 98.9959 189.118 99.6681 185.018 99.937C184.794 99.9594 184.57 99.9594 184.346 99.9819C184.234 99.9819 184.122 100.004 184.01 100.004C183.718 100.027 183.449 100.027 183.158 100.049C183.001 100.049 182.867 100.049 182.71 100.071C182.441 100.071 182.172 100.094 181.903 100.094C181.634 100.094 181.366 100.094 181.097 100.094C180.626 100.094 180.178 100.094 179.707 100.071C179.618 100.071 179.528 100.071 179.438 100.071C179.192 100.071 178.968 100.049 178.721 100.049C178.632 100.049 178.542 100.049 178.453 100.027C178.228 100.027 178.004 100.004 177.78 99.9819C177.668 99.9819 177.534 99.9594 177.422 99.9594C177.198 99.937 176.974 99.937 176.772 99.9146C176.66 99.9146 176.526 99.8922 176.413 99.8922C176.391 99.8922 176.391 99.8922 176.369 99.8922C176.167 99.8698 175.943 99.8474 175.741 99.825C175.652 99.825 175.584 99.8026 175.495 99.8026C175.293 99.7802 175.091 99.7578 174.89 99.7354C174.778 99.713 174.666 99.713 174.554 99.6906C174.352 99.6681 174.15 99.6457 173.971 99.6009C173.769 99.5785 173.568 99.5337 173.366 99.5113C173.187 99.4889 172.985 99.4441 172.806 99.4217C172.671 99.3993 172.537 99.3769 172.403 99.3544H172.38C172.358 99.3544 172.335 99.3544 172.313 99.332C172.134 99.3096 171.954 99.2648 171.775 99.22C171.394 99.1528 170.991 99.0632 170.61 98.9735C170.431 98.9287 170.274 98.9063 170.095 98.8615C169.714 98.7719 169.31 98.6598 168.929 98.5702C168.773 98.5254 168.616 98.4806 168.459 98.4357C168.19 98.3685 167.921 98.2789 167.652 98.1893C167.495 98.1444 167.338 98.0996 167.182 98.0324C167.025 97.9876 166.89 97.9428 166.733 97.8756C165.949 97.6067 165.165 97.3154 164.403 97.0017C164.269 96.9569 164.134 96.8896 164 96.8224C163.462 96.5983 162.947 96.3519 162.431 96.083C162.185 95.9485 161.916 95.8141 161.669 95.702C161.132 95.4107 160.594 95.1194 160.078 94.7833C159.675 94.5369 159.272 94.2904 158.891 94.0215C158.308 93.6182 157.726 93.2148 157.166 92.7667C157.076 92.6994 156.986 92.6322 156.874 92.5426C156.717 92.4081 156.561 92.2737 156.404 92.1617C156.18 91.96 155.956 91.7807 155.731 91.5791C155.687 91.5343 155.642 91.5119 155.619 91.467C141.503 93.5957 128.798 100.43 121.179 112.552C100.654 145.222 84.9913 153.132 68.2529 149.659C49.9685 145.872 32.5804 130.792 9.63518 162.902C-14.5872 196.782 23.9535 226.696 27.337 230.572L54.5844 230.662C54.6068 229.474 55.5704 228.533 56.7579 228.533H65.8329C59.5365 225.979 55.055 219.906 54.8309 212.758H54.4276V212.221H73.1826C72.7568 211.279 72.2191 210.338 71.5917 209.666C71.5244 209.599 71.4348 209.487 71.3004 209.375C70.9867 209.084 70.785 208.882 70.6281 208.725C69.687 207.829 68.3874 206.664 67.7376 206.551C67.5135 209.084 62.6287 211.279 59.6037 211.728C56.5787 212.176 57.5198 210.943 58.5505 209.106C59.5813 207.269 62.8752 206.439 63.637 205.588C64.3765 204.736 62.8304 204.736 61.0154 205.566C59.2004 206.395 58.9539 208.613 56.0409 210.002C53.128 211.391 48.7361 206.551 48.7361 206.551C51.0665 206.439 54.3828 203.907 54.2483 203.146C54.1363 202.384 48.6241 204.468 47.683 204.58C46.7418 204.692 44.5907 203.504 44.277 199.717C43.9409 195.93 50.1702 194.855 50.1702 194.855C50.1702 194.855 51.6042 195.93 53.2176 197.006C53.5313 196.603 54.0467 196.132 54.6741 195.617C54.1363 195.146 53.6657 194.743 53.352 194.474C52.747 194.631 52.0972 194.765 51.3802 194.832C46.3385 195.303 42.5068 185.847 42.5068 185.847C45.98 186.923 52.2092 185.018 52.4557 183.808C52.7022 182.62 43.4704 182.732 42.0363 182.374C40.6022 182.015 38.0926 179.147 39.6387 173.389C41.2072 167.63 50.9096 169.445 50.9096 169.445C50.9096 169.445 57.4974 179.506 59.4244 179.752C61.3515 179.999 55.4807 170.05 55.4807 170.05C59.2004 169.691 68.6563 174.24 68.6563 174.24C68.6563 174.24 68.0513 185.981 69.9783 185.735C71.9053 185.489 69.9783 175.316 69.9783 175.316C73.5635 176.391 76.9246 180.581 76.9246 180.581C81.1148 187.416 72.1294 192.435 72.1294 192.435C72.1294 192.435 72.0174 196.513 74.527 201.174C74.527 201.174 77.6865 205.969 76.6781 212.198H79.4566C78.9189 207.717 81.1596 204.333 81.1596 204.333C83.0642 200.793 82.9746 197.701 82.9746 197.701C82.9746 197.701 76.1628 193.891 79.3446 188.693C79.3446 188.693 81.8991 185.511 84.6104 184.704C84.6104 184.704 83.1539 192.435 84.6104 192.614C86.0668 192.793 85.6187 183.898 85.6187 183.898C85.6187 183.898 92.7891 180.447 95.6124 180.716C95.6124 180.716 91.1533 188.267 92.6098 188.088C94.0663 187.909 99.0631 180.268 99.0631 180.268C99.0631 180.268 106.435 178.901 107.6 183.27C108.788 187.64 106.883 189.813 105.785 190.082C104.687 190.351 97.6963 190.261 97.8755 191.18C98.0548 192.099 102.783 193.533 105.427 192.726C105.427 192.726 102.514 199.896 98.7046 199.538C94.8953 199.179 93.7078 196.804 91.3326 196.625C88.9798 196.446 87.232 197.073 88.4196 197.723C89.6072 198.35 93.5957 197.925 95.5004 199.56C97.405 201.174 98.9511 202.182 95.4107 202.899C91.8703 203.616 85.5066 203.168 84.2294 200.434C83.5796 200.815 82.5937 202.63 81.9215 204.042C81.8318 204.288 81.675 204.602 81.4509 205.05C81.3613 205.252 81.2941 205.409 81.2268 205.543C80.4426 207.515 80.4202 210.361 80.4874 212.221H83.49H87.8594H90.5931V212.758H90.0105C89.7865 219.906 85.305 226.001 79.0085 228.533H88.0835C88.6885 228.533 89.2263 228.78 89.6296 229.161C90.0105 229.541 90.257 230.079 90.257 230.639H116.317L120.731 206.641C120.731 206.619 120.731 206.596 120.753 206.574L122.927 194.765H119.387C117.975 194.765 116.81 193.6 116.81 192.188V190.821V185.287C116.81 183.875 117.975 182.71 119.387 182.71H120.373C118.782 181.702 117.728 180.424 117.415 178.811C117.056 176.996 116.922 175.405 116.967 173.994C116.675 173.814 116.406 173.613 116.205 173.389C115.443 172.515 115.196 170.901 115.286 168.885C115.443 164.672 120.776 147.665 120.776 147.665C129.873 120.149 155.911 120.149 155.911 120.149C157.255 119.656 158.712 118.939 160.191 117.908C160.101 117.953 160.056 117.975 160.056 117.975C160.056 117.975 160.056 117.975 159.294 115.376C158.532 112.776 160.706 104.441 162.252 103.186C162.386 103.074 162.521 102.962 162.655 102.85C162.611 102.693 162.431 102.491 161.961 102.223C161.961 102.223 162.476 102.155 163.014 102.402C163.462 101.752 164.426 100.699 165.748 100.99C165.748 100.99 164.941 101.013 164.515 101.73C166.577 100.968 170.005 101.371 177.758 105.987C185.533 110.603 183.427 114.704 181.164 116.496C181.5 117.056 181.769 117.572 181.926 117.93C182.531 119.297 180.604 123.218 180.156 124.72C179.954 125.369 179.909 126.064 179.887 126.647C180.604 126.916 181.074 127.184 181.074 127.184C179.349 155.44 176.413 161.759 175.405 163.126C176.974 163.552 177.915 163.821 177.915 163.821C177.915 163.821 177.937 163.91 177.937 164.045C179.147 164.515 180.761 165.143 181.388 165.546C182.463 166.218 184.928 169.602 185.197 170.789C185.466 171.977 185.802 175.45 185.601 176.033C185.578 176.1 185.533 176.122 185.466 176.122C190.216 189.387 199.179 214.394 202.966 225.105C202.966 225.105 202.473 225.15 201.667 225.217C203.37 227.682 207.067 228.847 209.352 229.228C210.764 229.452 211.459 230.102 211.795 230.662H237.16C254.234 197.947 219.996 196.603 228.511 163.574Z" fill="#CEEBD3"/>
<path opacity="0.71" d="M156.673 89.7193C156.829 89.8537 156.986 89.9882 157.143 90.1002C157.233 90.1674 157.322 90.2571 157.434 90.3243C157.995 90.7724 158.577 91.1758 159.16 91.5791C159.541 91.848 159.944 92.0945 160.347 92.341C160.863 92.6547 161.401 92.9684 161.938 93.2597C162.185 93.3941 162.454 93.5285 162.7 93.6406C163.216 93.9095 163.731 94.1335 164.269 94.38C164.403 94.4473 164.538 94.4921 164.672 94.5593C165.434 94.873 166.196 95.1643 167.002 95.4332C167.137 95.478 167.294 95.5228 167.451 95.59C167.607 95.6348 167.764 95.6796 167.921 95.7469C168.19 95.8365 168.459 95.9037 168.728 95.9934C168.885 96.0382 169.041 96.083 169.198 96.1278C169.579 96.2398 169.96 96.3295 170.363 96.4191C170.52 96.4639 170.7 96.5087 170.879 96.5311C171.26 96.6208 171.641 96.7104 172.044 96.7776C172.223 96.8224 172.403 96.8448 172.582 96.8897C172.604 96.8897 172.627 96.8897 172.649 96.9121C172.671 96.9121 172.671 96.9121 172.671 96.9121C172.806 96.9345 172.94 96.9569 173.075 96.9793C173.254 97.0017 173.456 97.0465 173.635 97.0689C173.837 97.0913 174.038 97.1361 174.24 97.1585C174.442 97.181 174.643 97.2034 174.823 97.2482C174.935 97.2706 175.047 97.2706 175.159 97.293C175.36 97.3154 175.562 97.3378 175.764 97.3602C175.853 97.3602 175.921 97.3826 176.01 97.3826C176.212 97.405 176.436 97.4274 176.638 97.4498C176.66 97.4498 176.66 97.4498 176.682 97.4498C176.794 97.4498 176.929 97.4722 177.041 97.4722C177.265 97.4947 177.467 97.5171 177.691 97.5171C177.803 97.5171 177.937 97.5395 178.049 97.5395C178.273 97.5619 178.497 97.5619 178.721 97.5843C178.811 97.5843 178.901 97.5843 178.99 97.6067C179.237 97.6291 179.461 97.6291 179.707 97.6291C179.797 97.6291 179.887 97.6291 179.976 97.6291C180.424 97.6515 180.895 97.6515 181.366 97.6515C181.634 97.6515 181.903 97.6515 182.172 97.6515C182.441 97.6515 182.71 97.6515 182.979 97.6291C183.136 97.6291 183.27 97.6291 183.427 97.6067C183.696 97.6067 183.987 97.5843 184.278 97.5619C184.391 97.5619 184.503 97.5395 184.615 97.5395C184.839 97.5171 185.063 97.5171 185.287 97.4947C189.365 97.2258 193.667 96.5535 198.193 95.5004C199.067 95.2987 199.941 95.0747 200.838 94.8506C227.726 87.725 247.916 70.9867 228.175 46.7643C214.663 30.2052 184.906 18.3069 164.448 23.3934C160.146 24.4689 156.561 26.1719 153.603 28.3454C147.53 32.8269 144.169 39.325 142.847 46.5626C142.668 47.5261 142.533 48.5121 142.421 49.498C142.421 49.5876 142.399 49.6997 142.399 49.7893C142.018 53.7106 142.175 57.7663 142.758 61.7773C142.802 62.1134 142.87 62.4495 142.914 62.7856C143.206 64.4661 143.564 66.1467 143.99 67.7824C144.707 70.5161 145.603 73.1826 146.679 75.7147C146.881 76.2076 147.082 76.6782 147.306 77.1487C147.486 77.5521 147.665 77.933 147.866 78.3139C148.001 78.5828 148.135 78.8293 148.247 79.0982C149.054 80.6667 149.95 82.1232 150.914 83.49C151.34 84.095 151.765 84.6552 152.213 85.2154C152.796 85.9324 153.401 86.6271 154.051 87.2993C154.208 87.4785 154.387 87.6354 154.544 87.8147C154.97 88.2404 155.418 88.6661 155.888 89.0695C155.933 89.1143 155.978 89.1367 156 89.1815C156.202 89.3384 156.448 89.5176 156.673 89.7193ZM169.781 77.6417C169.848 78.2915 170.05 78.9413 170.431 79.5015L170.453 79.5463C170.879 80.2185 171.148 80.958 171.26 81.7422C171.327 82.9298 170.722 84.0278 169.691 84.6104C169.624 84.6552 169.534 84.6552 169.467 84.6552C169.198 84.6552 168.997 84.4311 168.997 84.1847C168.997 84.0054 169.086 83.8485 169.243 83.7589C169.938 83.378 170.363 82.6161 170.319 81.8095C170.207 81.1597 169.983 80.5547 169.624 79.9945L169.602 79.9497C169.153 79.255 168.907 78.4708 168.84 77.6417C168.75 76.5885 169.243 75.5802 170.139 75.02C170.363 74.8632 170.655 74.9304 170.812 75.1321C170.968 75.3561 170.901 75.6474 170.7 75.8043C170.027 76.1852 169.669 76.9247 169.781 77.6417ZM175.965 77.6417C176.033 78.2915 176.234 78.9413 176.615 79.5015L176.638 79.5463C177.063 80.2185 177.332 80.958 177.444 81.7422C177.511 82.9298 176.906 84.0278 175.876 84.6104C175.808 84.6552 175.719 84.6552 175.652 84.6552C175.383 84.6552 175.181 84.4311 175.181 84.1847C175.181 84.0054 175.271 83.8485 175.428 83.7589C176.122 83.378 176.548 82.6161 176.503 81.8095C176.391 81.1597 176.167 80.5547 175.808 79.9945L175.786 79.9497C175.338 79.255 175.091 78.4708 175.024 77.6417C174.935 76.5885 175.428 75.5802 176.324 75.02C176.548 74.8632 176.839 74.9304 176.996 75.1321C177.153 75.3561 177.086 75.6474 176.884 75.8043C176.234 76.1852 175.876 76.9247 175.965 77.6417ZM182.172 77.6417C182.239 78.2915 182.441 78.9413 182.8 79.5015L182.822 79.5463C183.248 80.2185 183.517 80.958 183.629 81.7422C183.696 82.9298 183.091 84.0278 182.06 84.6104C181.993 84.6552 181.903 84.6552 181.836 84.6552C181.567 84.6552 181.366 84.4311 181.366 84.1847C181.366 84.0054 181.455 83.8485 181.612 83.7589C182.307 83.378 182.732 82.6161 182.688 81.8095C182.576 81.1597 182.351 80.5547 181.993 79.9945L181.971 79.9497C181.522 79.255 181.276 78.4708 181.209 77.6417C181.119 76.5885 181.612 75.5802 182.508 75.02C182.732 74.8632 183.024 74.9304 183.181 75.1321C183.337 75.3561 183.27 75.6474 183.068 75.8043C182.419 76.1852 182.083 76.9247 182.172 77.6417ZM188.379 77.6417C188.446 78.2915 188.648 78.9413 189.029 79.5015L189.051 79.5463C189.477 80.2185 189.746 80.958 189.858 81.7422C189.925 82.9298 189.32 84.0278 188.289 84.6104C188.222 84.6552 188.133 84.6552 188.065 84.6552C187.796 84.6552 187.595 84.4311 187.595 84.1847C187.595 84.0054 187.684 83.8485 187.841 83.7589C188.536 83.378 188.962 82.6161 188.917 81.8095C188.805 81.1597 188.581 80.5547 188.222 79.9945L188.2 79.9497C187.752 79.255 187.505 78.4708 187.438 77.6417C187.348 76.5885 187.841 75.5802 188.738 75.02C188.962 74.8632 189.253 74.9304 189.41 75.1321C189.567 75.3561 189.499 75.6474 189.298 75.8043C188.626 76.1852 188.267 76.9247 188.379 77.6417ZM194.563 77.6417C194.631 78.2915 194.832 78.9413 195.213 79.5015L195.236 79.5463C195.661 80.2185 195.93 80.958 196.042 81.7422C196.11 82.9298 195.505 84.0278 194.474 84.6104C194.407 84.6552 194.317 84.6552 194.25 84.6552C193.981 84.6552 193.779 84.4311 193.779 84.1847C193.779 84.0054 193.869 83.8485 194.026 83.7589C194.72 83.378 195.146 82.6161 195.101 81.8095C194.989 81.1597 194.765 80.5547 194.407 79.9945L194.384 79.9497C193.936 79.255 193.69 78.4708 193.622 77.6417C193.533 76.5885 194.026 75.5802 194.922 75.02C195.146 74.8632 195.437 74.908 195.594 75.1321C195.751 75.3561 195.706 75.6474 195.482 75.8043C194.832 76.1852 194.474 76.9247 194.563 77.6417ZM200.681 84.6104C200.613 84.6552 200.524 84.6552 200.457 84.6552C200.188 84.6552 199.986 84.4311 199.986 84.1847C199.986 84.0054 200.076 83.8485 200.233 83.7589C200.927 83.378 201.353 82.6161 201.308 81.8095C201.196 81.1597 200.972 80.5547 200.613 79.9945L200.591 79.9497C200.143 79.255 199.896 78.4708 199.829 77.6417C199.74 76.5885 200.233 75.5802 201.129 75.02C201.353 74.8632 201.644 74.9304 201.801 75.1321C201.958 75.3561 201.891 75.6474 201.689 75.8043C201.039 76.1628 200.681 76.9022 200.793 77.6417C200.86 78.2915 201.062 78.9413 201.443 79.5015L201.465 79.5463C201.891 80.2185 202.16 80.958 202.272 81.7422C202.316 82.9298 201.711 84.0502 200.681 84.6104ZM206.865 84.6104C206.798 84.6552 206.708 84.6776 206.641 84.6776C206.372 84.6776 206.171 84.4535 206.171 84.2071C206.171 84.0278 206.26 83.8709 206.417 83.7813C207.112 83.4004 207.537 82.6385 207.493 81.8319C207.381 81.1821 207.156 80.5771 206.798 80.0169L206.776 79.9721C206.327 79.2774 206.081 78.4932 206.014 77.6641C205.924 76.611 206.417 75.6026 207.313 75.0424C207.537 74.8856 207.829 74.9304 207.986 75.1545C208.142 75.3785 208.098 75.6698 207.873 75.8267C207.224 76.1852 206.865 76.9247 206.977 77.6641C207.044 78.3139 207.246 78.9637 207.627 79.5015L207.649 79.5463C208.075 80.2185 208.344 80.958 208.456 81.7422C208.523 82.9298 207.896 84.0278 206.865 84.6104ZM154.835 64.5558V51.0889C154.835 49.2515 156.314 47.7726 158.151 47.7726H212.915C214.753 47.7726 216.231 49.2515 216.231 51.0889V64.5558V65.4297C216.231 68.97 213.341 71.8606 209.801 71.8606H161.266C157.726 71.8606 154.835 68.9924 154.835 65.4297V64.5558ZM163.417 80.0169L163.395 79.9721C162.947 79.2774 162.7 78.4932 162.633 77.6641C162.543 76.611 163.036 75.6026 163.933 75.0424C164.157 74.8856 164.448 74.9304 164.605 75.1545C164.762 75.3785 164.717 75.6698 164.493 75.8267C163.843 76.1852 163.484 76.9247 163.596 77.6641C163.664 78.3139 163.865 78.9637 164.246 79.5239L164.269 79.5687C164.694 80.241 164.963 80.9804 165.075 81.7647C165.143 82.9522 164.538 84.0502 163.507 84.6328C163.44 84.6776 163.35 84.6776 163.283 84.6776C163.014 84.6776 162.812 84.4535 162.812 84.2071C162.812 84.0278 162.902 83.8709 163.059 83.7813C163.753 83.4004 164.179 82.6385 164.134 81.8319C164 81.1821 163.753 80.5547 163.417 80.0169Z" fill="#CEEBD3"/>
<path d="M208.568 52.4557H155.843C155.664 52.7919 155.575 53.1504 155.575 53.5537V67.0206H211.414V55.2791C211.414 53.733 210.137 52.4557 208.568 52.4557ZM208.747 63.2561H161.871V62.2926H208.747V63.2561ZM208.747 60.3208H161.871V59.3572H208.747V60.3208ZM208.747 57.3854H161.871V56.4219H208.747V57.3854Z" fill="#F0F5F9"/>
<path d="M212.691 51.2009H157.927C157.031 51.2009 156.247 51.7163 155.844 52.4557H208.568C210.137 52.4557 211.414 53.733 211.414 55.3015V67.043H215.044V53.5537C215.044 52.2541 213.991 51.2009 212.691 51.2009Z" fill="#D9E2E9"/>
<path d="M155.575 67.0206V53.5537C155.575 53.1504 155.664 52.7919 155.843 52.4558C156.247 51.7163 157.031 51.2009 157.927 51.2009H212.691C213.991 51.2009 215.044 52.2541 215.044 53.5537V67.0206H216.007V53.5537C216.007 51.7163 214.528 50.2374 212.691 50.2374H157.927C156.09 50.2374 154.611 51.7163 154.611 53.5537V67.0206H155.575Z" fill="#2F3A5A"/>
<path d="M158.084 72.5104H205.453C206.865 72.5104 208.187 72.0174 209.218 71.1659H159.205C158.936 71.1659 158.734 70.9418 158.734 70.6954C158.734 70.4265 158.958 70.2248 159.205 70.2248H210.159C210.652 69.575 211.033 68.8355 211.235 68.0065H155.575C155.597 69.8887 156.605 71.5468 158.084 72.5104Z" fill="#9297AB"/>
<path d="M211.414 70.2024C211.683 70.2024 211.884 70.4265 211.884 70.673C211.884 70.9418 211.66 71.1435 211.414 71.1435H209.218C208.187 71.995 206.865 72.488 205.454 72.488H158.084C158.936 73.0257 159.944 73.3618 161.02 73.3618H209.554C212.534 73.3618 214.977 70.9643 215.021 67.9841H211.212C211.011 68.8131 210.63 69.5526 210.137 70.2024H211.414Z" fill="#707583"/>
<path d="M161.042 74.3254H209.576C213.117 74.3254 216.007 71.4572 216.007 67.8945V67.0206H215.044H211.414H155.575H154.611V67.8945C154.611 71.4572 157.502 74.3254 161.042 74.3254ZM211.235 67.9841H215.044C214.999 70.9643 212.557 73.3619 209.576 73.3619H161.042C159.966 73.3619 158.958 73.0482 158.107 72.488C156.605 71.5245 155.619 69.8663 155.575 67.9617H211.235V67.9841Z" fill="#2F3A5A"/>
<path d="M208.747 56.4219H161.871V57.3854H208.747V56.4219Z" fill="#D9E2E9"/>
<path d="M208.747 59.3572H161.871V60.3208H208.747V59.3572Z" fill="#D9E2E9"/>
<path d="M208.747 62.2926H161.871V63.2561H208.747V62.2926Z" fill="#D9E2E9"/>
<path d="M211.414 71.1659C211.683 71.1659 211.884 70.9418 211.884 70.6954C211.884 70.4265 211.66 70.2248 211.414 70.2248H210.159H159.205C158.936 70.2248 158.734 70.4489 158.734 70.6954C158.734 70.9642 158.958 71.1659 159.205 71.1659H209.218H211.414Z" fill="#2F3A5A"/>
<path d="M162.812 86.2237C162.655 86.3133 162.566 86.4702 162.566 86.6494C162.566 86.9183 162.79 87.12 163.036 87.12C163.126 87.12 163.193 87.0976 163.26 87.0752C164.291 86.515 164.896 85.3946 164.829 84.207C164.717 83.4228 164.448 82.6833 164.022 82.0111L164 81.9663C163.641 81.4061 163.417 80.7787 163.35 80.1065C163.238 79.367 163.596 78.65 164.246 78.2691C164.47 78.1122 164.515 77.8209 164.358 77.5969C164.201 77.3728 163.91 77.328 163.686 77.4848C162.79 78.045 162.274 79.0533 162.386 80.1065C162.431 80.9356 162.7 81.7198 163.148 82.4144L163.171 82.4593C163.529 82.997 163.753 83.6244 163.865 84.2743C163.91 85.0809 163.507 85.8428 162.812 86.2237Z" fill="#D9E2E9"/>
<path d="M170.453 78.2915C170.677 78.1346 170.722 77.8433 170.565 77.6193C170.408 77.3952 170.117 77.3504 169.893 77.5072C168.997 78.0674 168.481 79.0757 168.593 80.1289C168.638 80.958 168.907 81.7422 169.355 82.4368L169.378 82.4817C169.736 83.0194 169.96 83.6468 170.072 84.2967C170.117 85.1033 169.714 85.8428 168.997 86.2461C168.84 86.3357 168.75 86.4926 168.75 86.6718C168.75 86.9407 168.974 87.1424 169.221 87.1424C169.31 87.1424 169.378 87.12 169.445 87.0976C170.476 86.5374 171.081 85.417 171.013 84.2294C170.901 83.4452 170.632 82.7057 170.207 82.0335L170.184 81.9887C169.826 81.4285 169.602 80.8011 169.534 80.1289C169.445 79.3894 169.803 78.65 170.453 78.2915Z" fill="#D9E2E9"/>
<path d="M176.66 78.2915C176.884 78.1346 176.929 77.8433 176.772 77.6193C176.615 77.3952 176.324 77.3504 176.1 77.5072C175.204 78.0674 174.688 79.0757 174.8 80.1289C174.845 80.958 175.114 81.7422 175.562 82.4368L175.584 82.4817C175.943 83.0194 176.167 83.6468 176.279 84.2967C176.324 85.1033 175.921 85.8428 175.204 86.2461C175.047 86.3357 174.957 86.4926 174.957 86.6718C174.957 86.9407 175.181 87.1424 175.428 87.1424C175.517 87.1424 175.584 87.12 175.652 87.0976C176.682 86.5374 177.287 85.417 177.22 84.2294C177.108 83.4452 176.839 82.7057 176.414 82.0335L176.391 81.9887C176.033 81.4285 175.809 80.8011 175.741 80.1289C175.652 79.3894 176.01 78.65 176.66 78.2915Z" fill="#D9E2E9"/>
<path d="M182.844 78.2915C183.068 78.1346 183.113 77.8433 182.956 77.6193C182.8 77.3952 182.508 77.3504 182.284 77.5072C181.388 78.0674 180.873 79.0757 180.985 80.1289C181.029 80.958 181.298 81.7422 181.746 82.4368L181.769 82.4817C182.127 83.0194 182.351 83.6468 182.463 84.2967C182.508 85.1033 182.105 85.8428 181.388 86.2461C181.231 86.3357 181.141 86.4926 181.141 86.6718C181.141 86.9407 181.365 87.1424 181.612 87.1424C181.702 87.1424 181.769 87.12 181.836 87.0976C182.867 86.5374 183.472 85.417 183.405 84.2294C183.293 83.4452 183.024 82.7057 182.598 82.0335L182.575 81.9887C182.217 81.4285 181.993 80.8011 181.948 80.1289C181.858 79.3894 182.195 78.65 182.844 78.2915Z" fill="#D9E2E9"/>
<path d="M189.051 78.2915C189.275 78.1346 189.32 77.8433 189.163 77.6193C189.006 77.3952 188.715 77.3504 188.491 77.5072C187.595 78.0674 187.079 79.0757 187.191 80.1289C187.236 80.958 187.505 81.7422 187.953 82.4368L187.976 82.4817C188.334 83.0194 188.558 83.6468 188.67 84.2967C188.715 85.1033 188.312 85.8428 187.595 86.2461C187.438 86.3357 187.348 86.4926 187.348 86.6718C187.348 86.9407 187.572 87.1424 187.819 87.1424C187.908 87.1424 187.976 87.12 188.043 87.0976C189.074 86.5374 189.679 85.417 189.611 84.2294C189.499 83.4452 189.23 82.7057 188.805 82.0335L188.782 81.9887C188.424 81.4285 188.2 80.8011 188.133 80.1289C188.043 79.3894 188.401 78.65 189.051 78.2915Z" fill="#D9E2E9"/>
<path d="M195.236 78.2915C195.46 78.1346 195.505 77.8433 195.348 77.6193C195.191 77.3952 194.9 77.3504 194.676 77.5072C193.779 78.0674 193.264 79.0757 193.376 80.1289C193.421 80.958 193.69 81.7422 194.138 82.4368L194.16 82.4817C194.519 83.0194 194.743 83.6468 194.855 84.2967C194.9 85.1033 194.496 85.8428 193.779 86.2461C193.622 86.3357 193.533 86.4926 193.533 86.6718C193.533 86.9407 193.757 87.1424 194.003 87.1424C194.093 87.1424 194.16 87.12 194.227 87.0976C195.258 86.5374 195.863 85.417 195.796 84.2294C195.684 83.4452 195.415 82.7057 194.989 82.0335L194.967 81.9887C194.608 81.4285 194.384 80.8011 194.317 80.1289C194.25 79.3894 194.608 78.65 195.236 78.2915Z" fill="#D9E2E9"/>
<path d="M201.219 82.0111L201.196 81.9663C200.838 81.4061 200.614 80.7787 200.546 80.1065C200.434 79.367 200.793 78.65 201.443 78.2691C201.667 78.1122 201.712 77.8209 201.555 77.5969C201.398 77.3728 201.107 77.328 200.882 77.4848C199.986 78.045 199.471 79.0533 199.583 80.1065C199.628 80.9356 199.897 81.7198 200.345 82.4144L200.367 82.4593C200.726 82.997 200.95 83.6244 201.062 84.2743C201.107 85.0809 200.703 85.8204 199.986 86.2237C199.829 86.3133 199.74 86.4702 199.74 86.6494C199.74 86.9183 199.964 87.12 200.21 87.12C200.3 87.12 200.367 87.0976 200.434 87.0752C201.465 86.515 202.07 85.3946 202.003 84.207C201.913 83.4452 201.622 82.6833 201.219 82.0111Z" fill="#D9E2E9"/>
<path d="M207.403 82.0111L207.381 81.9663C207.022 81.4061 206.798 80.7787 206.731 80.1289C206.619 79.3894 206.977 78.6724 207.627 78.2915C207.851 78.1346 207.896 77.8433 207.739 77.6193C207.582 77.3952 207.291 77.3504 207.067 77.5072C206.171 78.0674 205.655 79.0757 205.767 80.1289C205.812 80.958 206.081 81.7422 206.529 82.4368L206.552 82.4817C206.91 83.0194 207.134 83.6468 207.246 84.2967C207.291 85.1033 206.888 85.8428 206.171 86.2461C206.014 86.3357 205.924 86.4926 205.924 86.6718C205.924 86.9407 206.148 87.1424 206.395 87.1424C206.484 87.1424 206.552 87.12 206.619 87.0752C207.65 86.515 208.255 85.3946 208.187 84.207C208.098 83.4228 207.829 82.6833 207.403 82.0111Z" fill="#D9E2E9"/>
<path d="M45.9128 42.35H86.6719V120.35H45.9128V42.35Z" fill="#F0F5F9"/>
<path d="M45.9128 42.35V45.4647H83.6245V75.7819H45.9128V78.65H83.6245V82.4593H46.5402V85.5739H83.6245V120.373H86.6719V42.35H45.9128Z" fill="#D9E2E9"/>
<path d="M86.6718 121.022H45.9128C45.5318 121.022 45.2405 120.731 45.2405 120.35V42.35C45.2405 41.9691 45.5318 41.6778 45.9128 41.6778H86.6718C87.0528 41.6778 87.3441 41.9691 87.3441 42.35V120.35C87.3441 120.731 87.0528 121.022 86.6718 121.022ZM46.585 119.678H85.9996V43.0222H46.585V119.678Z" fill="#2F3A5A"/>
<path d="M45.9128 78.65H86.6719V82.4593H45.9128V78.65Z" fill="#C1CDD3"/>
<path d="M86.6718 83.1091H45.9128C45.5318 83.1091 45.2405 82.8178 45.2405 82.4369V78.6276C45.2405 78.2467 45.5318 77.9554 45.9128 77.9554H86.6718C87.0528 77.9554 87.3441 78.2467 87.3441 78.6276V82.4369C87.3441 82.8178 87.0528 83.1091 86.6718 83.1091ZM46.585 81.7646H85.9996V79.2998H46.585V81.7646Z" fill="#2F3A5A"/>
<path d="M45.9128 119.902V121.874V123.846V127.05H50.1702V123.846H82.4144V127.05H86.6719V123.846V121.874V119.902H45.9128Z" fill="#C1CDD3"/>
<path d="M86.6718 127.722H82.4144C82.0335 127.722 81.7422 127.431 81.7422 127.05V124.518H50.8424V127.05C50.8424 127.431 50.5511 127.722 50.1702 127.722H45.9128C45.5318 127.722 45.2405 127.431 45.2405 127.05V119.902C45.2405 119.521 45.5318 119.23 45.9128 119.23H86.6718C87.0528 119.23 87.3441 119.521 87.3441 119.902V127.05C87.3441 127.431 87.0528 127.722 86.6718 127.722ZM83.0866 126.378H85.9996V120.574H46.585V126.378H49.4979V123.846C49.4979 123.465 49.7892 123.174 50.1702 123.174H82.4144C82.7954 123.174 83.0866 123.465 83.0866 123.846V126.378Z" fill="#2F3A5A"/>
<path d="M50.0134 72.8465C49.6324 72.8465 49.3411 72.5552 49.3411 72.1743V53.0832C49.3411 52.7022 49.6324 52.4109 50.0134 52.4109C50.3943 52.4109 50.6856 52.7022 50.6856 53.0832V72.1743C50.6856 72.5328 50.3943 72.8465 50.0134 72.8465Z" fill="#2F3A5A"/>
<path d="M50.0134 107.04C49.6324 107.04 49.3411 106.749 49.3411 106.368V87.2769C49.3411 86.896 49.6324 86.6047 50.0134 86.6047C50.3943 86.6047 50.6856 86.896 50.6856 87.2769V106.368C50.6856 106.727 50.3943 107.04 50.0134 107.04Z" fill="#2F3A5A"/>
</g>
<defs>
<clipPath id="clip0">
<rect width="242" height="242" fill="white"/>
</clipPath>
</defs>
</svg>