<svg width="242" height="242" viewBox="0 0 242 242" fill="none" xmlns="http://www.w3.org/2000/svg">
<g clip-path="url(#clip0)">
<path opacity="0.71" d="M28.2333 216.904C23.1244 207.537 9.27666 179.259 15.73 143.632C17.9259 131.621 24.312 96.4415 49.5204 84.7C77.3952 71.7037 95.9261 102.469 136.461 90.9741C156.941 85.1706 164.179 73.9221 183.494 76.2076C201.353 78.3139 213.498 90.0778 216.904 93.663C221.184 98.1445 224.298 102.872 236.174 157.972C240.7 178.968 243.12 191.583 236.174 203.459C234.561 206.238 231.401 210.697 226.27 214.282C210.966 224.948 189.992 219.436 184.346 218.114C162.454 213.005 116.855 211.392 28.2333 216.904Z" fill="#CEEBD3"/>
<path d="M242.448 206.148H0.448151V235.323H242.448V206.148Z" fill="#F4E3CB"/>
<path d="M72.4656 126.064C72.4656 126.064 82.9074 124.249 84.3863 112.104C85.8652 99.9594 83.2883 93.663 75.132 93.1252C75.132 93.1252 69.3733 83.3556 59.1331 86.022C48.893 88.7109 47.1676 98.8839 47.1676 98.8839C47.1676 98.8839 38.2046 103.836 37.2635 108.788C36.3224 113.74 36.3224 113.74 36.3224 113.74C36.3224 113.74 29.2193 122.143 29.757 127.184C30.2948 132.226 33.768 130.882 33.768 130.882L54.7861 129.403L72.4656 126.064Z" fill="#333333"/>
<path d="M39.1458 127.476C39.1458 127.476 29.8019 127.924 25.2308 131.039C20.6596 134.153 5.57946 155.821 4.21261 158.913C2.84575 162.006 1.03075 168.324 1.36687 172.111C1.85983 177.601 6.81187 182.352 11.6295 189.096C11.6295 189.096 16.94 181.859 24.4913 183.965C24.4913 183.965 19.5393 176.1 15.3491 171.349C15.3491 171.349 24.7378 153.11 28.8159 151.609C28.8159 151.609 28.6815 157.098 28.0765 161.849C27.4491 166.599 29.3089 178.587 29.0624 182.464C28.8159 186.34 21.7576 226.068 21.7576 226.068C21.7576 226.068 45.3078 230.796 64.5558 226.068C64.5558 226.068 64.3317 196.692 66.55 186.743C68.7684 176.794 70.4937 155.126 70.4937 155.126C70.4937 155.126 72.4656 159.608 72.4656 162.095C72.4656 164.582 72.1519 179.147 72.8689 182.755C73.81 187.416 79.8152 195.953 79.8152 195.953C79.8152 195.953 84.5432 188.245 91.9152 191.382C91.9152 191.382 85.2602 183.92 84.5208 180.962C83.7813 178.027 84.9913 154.88 84.1174 150.667C83.2435 146.455 79.9497 140.965 74.5271 137.671C69.1045 134.355 64.3093 127.386 63.9284 127.162C63.5698 126.96 39.1458 127.476 39.1458 127.476Z" fill="#3F3F3F"/>
<path d="M63.6595 127.162C63.2785 126.96 38.608 127.453 38.608 127.453C38.608 127.453 37.7117 127.498 36.3448 127.655C37.2635 130.523 42.3948 145.178 50.6632 146.724C58.5954 148.203 65.8554 135.386 67.6928 131.912C65.4073 129.448 63.8611 127.296 63.6595 127.162Z" fill="#FFE3FF"/>
<path d="M12.6826 187.46C12.6826 187.46 11.8535 188.2 11.4278 188.872C11.4278 188.872 11.9431 191.247 15.7972 190.597L12.6826 187.46Z" fill="#5351C1"/>
<path d="M81.6526 193.622C81.6526 193.622 79.7928 195.057 79.6808 195.953C79.6135 196.468 81.4285 198.037 84.0054 197.521L81.6526 193.622Z" fill="#5351C1"/>
<path d="M57.7663 141.189L57.8335 141.548C61.1498 140.965 67.5807 141.167 70.8746 141.436C71.3004 141.48 71.7261 141.503 72.1519 141.548C73.205 141.66 74.2806 141.749 75.3337 141.749C76.4989 141.749 77.6641 141.615 78.762 141.212C78.6724 141.122 78.5828 141.01 78.4707 140.92C76.4989 141.592 74.303 141.391 72.1743 141.189C71.7485 141.144 71.3228 141.1 70.897 141.077C67.6031 140.808 61.105 140.584 57.7663 141.189Z" fill="#FFE3FF"/>
<path d="M26.9113 140.338C30.138 140.674 33.4095 141.032 36.4793 141.032C38.6304 141.032 40.6695 140.853 42.5293 140.405L42.4396 140.046C38.003 141.144 32.3787 140.562 26.9561 139.979C23.595 139.621 20.1443 139.262 17.0072 139.307C16.9176 139.419 16.8056 139.553 16.7159 139.665C19.8978 139.598 23.4382 139.979 26.9113 140.338Z" fill="#FFE3FF"/>
<path d="M45.6439 219.593C47.9743 219.167 50.3719 218.719 52.6798 218.069C53.5985 217.8 54.5396 217.486 55.4583 217.195C58.3265 216.254 61.2843 215.29 64.2869 215.492L64.3093 215.134C61.2395 214.91 58.2369 215.895 55.3463 216.859C54.45 217.15 53.5089 217.464 52.5902 217.733C50.3046 218.383 47.9071 218.831 45.5991 219.257C45.0613 219.346 44.5459 219.458 44.0082 219.548C37.6445 220.758 31.3032 222.349 25.1187 224.298L25.2308 224.634C31.3928 222.685 37.7341 221.094 44.0754 219.884C44.5683 219.794 45.1061 219.705 45.6439 219.593Z" fill="#FFE3FF"/>
<path d="M42.7757 182.845C40.5798 182.329 38.0478 181.522 35.6278 180.761C33.163 179.976 30.6309 179.147 28.2781 178.609C28.2781 178.744 28.3005 178.856 28.3005 178.99C30.5861 179.528 33.0733 180.335 35.4933 181.097C37.9357 181.881 40.4454 182.688 42.6637 183.203C44.9941 183.741 47.3693 183.942 49.6772 183.942C53.1504 183.942 56.4667 183.494 59.2676 183.001C61.8668 182.553 65.0711 181.702 67.4015 180.492C67.4239 180.335 67.4463 180.2 67.4687 180.044C65.1607 181.298 61.8444 182.195 59.2004 182.643C54.6068 183.427 48.5344 184.144 42.7757 182.845Z" fill="#FFE3FF"/>
<path d="M58.9091 156.135C58.3489 156.292 57.8111 156.471 57.2509 156.628C55.0998 157.278 52.8815 157.927 50.6407 158.308C45.487 159.16 40.1765 158.465 35.0228 157.793C32.8717 157.502 30.6309 157.21 28.435 157.054L28.4126 157.412C30.6085 157.591 32.8269 157.883 34.978 158.152C38.4287 158.6 41.9691 159.07 45.487 159.07C47.2348 159.07 48.9826 158.958 50.708 158.667C52.9711 158.286 55.1894 157.636 57.363 156.986C57.9231 156.829 58.4609 156.65 59.0211 156.493C67.2222 154.118 75.7146 152.729 84.2519 152.393C84.2519 152.258 84.2294 152.146 84.2294 152.034C75.6698 152.37 67.155 153.76 58.9091 156.135Z" fill="#FFE3FF"/>
<path d="M83.1091 164.784C81.8767 165.143 80.6218 165.524 79.972 165.725C78.6052 166.173 74.5046 168.302 72.1967 169.669C72.1967 169.803 72.1967 169.96 72.1967 170.095C74.4374 168.728 78.7396 166.509 80.0841 166.061C80.7115 165.86 81.9887 165.479 83.1987 165.12C83.5796 165.008 83.9605 164.896 84.3415 164.784C84.3415 164.65 84.3415 164.538 84.3415 164.403C83.9381 164.538 83.5124 164.65 83.1091 164.784Z" fill="#FFE3FF"/>
<path d="M84.2295 177.198C81.5406 178.475 76.0508 180.559 72.488 181.343C72.5104 181.478 72.5104 181.59 72.5328 181.702C76.0956 180.94 81.4509 178.901 84.2295 177.579C84.2295 177.467 84.2295 177.332 84.2295 177.198Z" fill="#FFE3FF"/>
<path d="M58.7522 170.991C57.3182 170.901 55.8841 170.722 54.4724 170.543C52.2093 170.252 49.8565 169.938 47.5261 170.095C46.5178 170.162 45.5095 170.319 44.5235 170.476C43.8737 170.565 43.2015 170.677 42.5517 170.767C37.398 171.372 32.0202 170.386 27.4043 167.988C27.4043 168.123 27.4267 168.257 27.4267 168.414C32.065 170.767 37.4204 171.753 42.5965 171.148C43.2687 171.081 43.9409 170.969 44.5907 170.857C45.5543 170.7 46.5626 170.543 47.5709 170.476C49.8565 170.319 52.1869 170.632 54.45 170.924C55.8617 171.103 57.3182 171.305 58.7522 171.372C59.1556 171.394 59.5589 171.394 59.9622 171.394C62.9424 171.394 66.5052 170.812 68.9252 169.221C68.9476 169.064 68.97 168.907 68.97 168.728C66.3035 170.655 61.9789 171.193 58.7522 170.991Z" fill="#FFE3FF"/>
<path d="M2.1063 177.198C6.36371 175.853 12.5706 174.98 17.5002 175.002C17.4106 174.89 17.3209 174.755 17.2089 174.643C12.2344 174.666 6.20686 175.517 1.90463 176.884C1.99426 176.996 2.06148 177.108 2.1063 177.198Z" fill="#FFE3FF"/>
<path d="M65.0935 195.505C61.9565 197.566 58.0128 198.911 53.352 199.516C49.2067 200.053 44.9269 199.986 40.8039 199.919V200.277C42.238 200.3 43.6945 200.322 45.1509 200.322C47.907 200.322 50.6632 200.233 53.3969 199.874C58.0128 199.269 61.9565 197.925 65.1159 195.908C65.1159 195.796 65.1384 195.684 65.1384 195.572L65.0935 195.505Z" fill="#FFE3FF"/>
<path d="M6.85666 155.956C7.70814 155.776 8.44759 155.642 8.94055 155.508C11.2933 154.925 13.7581 154.925 16.1333 154.903H16.1557C17.7467 154.903 19.7185 155.418 21.6007 155.933C22.2506 156.113 22.878 156.269 23.483 156.426C23.5502 156.314 23.6398 156.202 23.707 156.113C23.0572 155.956 22.385 155.776 21.6904 155.597C19.7633 155.082 17.7691 154.522 16.1333 154.544C13.7357 154.544 11.2485 154.566 8.85092 155.149C8.35796 155.261 7.61852 155.418 6.76703 155.597C6.20685 155.709 5.62426 155.821 5.01925 155.956C4.92963 156.113 4.84 156.247 4.75037 156.381C5.4674 156.247 6.18444 156.09 6.85666 155.956Z" fill="#FFE3FF"/>
<path d="M21.6007 155.956C22.2506 156.135 22.878 156.292 23.483 156.449L21.6007 155.956Z" fill="#FFE3FF"/>
<path d="M108.25 222.371H53.0383V226.091H108.25V222.371Z" fill="#58324C"/>
<path d="M38.5856 127.476C38.4959 127.095 43.6496 127.252 44.8148 125.907C45.98 124.585 50.2822 116.631 50.1926 113.359C50.1254 110.088 49.6548 104.889 52.523 103.836C56.758 102.312 52.9487 112.261 54.2483 112.261C55.2567 112.261 58.8419 102.984 58.8419 102.984C58.8419 102.984 58.7746 111.006 78.1795 109.214C78.1795 109.214 74.3478 113.269 79.6584 117.549C79.6584 117.549 71.8606 128.708 64.2196 132.137C64.2196 132.137 58.8419 144.214 53.3072 144.461C47.795 144.707 40.3782 136.125 38.5856 127.476Z" fill="#FFC0BB"/>
<path d="M53.7778 105.942C53.7554 105.763 53.6881 105.561 53.5537 105.449C53.4193 105.337 53.24 105.27 53.0607 105.27C50.8872 105.27 50.9993 108.721 50.9993 109.483C50.9993 109.751 51.0441 110.065 51.2906 110.177C51.3354 110.2 51.4026 110.2 51.4474 110.177C51.5146 110.132 51.5146 109.998 51.5595 109.931C51.6043 109.819 51.7611 109.796 51.8732 109.819C51.9852 109.841 52.0972 109.886 52.2093 109.908C52.5006 109.953 52.7694 109.729 52.9711 109.505C53.3968 109.034 53.5313 108.541 53.5761 107.936C53.5985 107.242 53.8674 106.592 53.7778 105.942Z" fill="#FFA4A4"/>
<path d="M64.4661 124.003C63.6146 124.003 62.6735 123.33 62.5615 123.241C62.4495 123.151 62.4046 122.972 62.4943 122.86C62.5839 122.748 62.7632 122.703 62.8752 122.793C63.2113 123.039 64.2196 123.644 64.7798 123.398C65.0263 123.286 65.1608 122.994 65.2056 122.524C65.4072 120.104 67.8272 117.504 67.9393 117.392C68.0513 117.28 68.2082 117.28 68.3202 117.37C68.4322 117.482 68.4322 117.639 68.3426 117.751C68.3202 117.773 65.945 120.328 65.7658 122.546C65.6985 123.218 65.4521 123.667 65.0263 123.868C64.8247 123.98 64.6454 124.003 64.4661 124.003Z" fill="#58324C"/>
<path d="M61.5531 114.524C61.0154 115.107 60.3431 115.353 60.0743 115.084C59.783 114.816 59.9846 114.143 60.5224 113.561C61.0602 112.978 61.7324 112.732 62.0013 113.001C62.2926 113.269 62.0685 113.964 61.5531 114.524Z" fill="#58324C"/>
<path d="M71.502 119.992C70.9642 120.574 70.292 120.821 70.0231 120.552C69.7318 120.283 69.9335 119.611 70.4713 119.028C71.0091 118.446 71.6813 118.199 71.9502 118.468C72.2415 118.737 72.0398 119.409 71.502 119.992Z" fill="#58324C"/>
<path d="M60.1639 110.065C62.8304 110.356 64.6678 112.037 64.8246 112.104C64.3541 112.328 63.7267 112.328 63.2561 112.171C62.7632 112.015 62.3374 111.746 61.9117 111.454C61.598 111.253 61.3067 111.029 60.9706 110.872C60.2087 110.513 59.3124 110.513 58.4609 110.536C58.4833 110.334 58.7298 110.222 58.9315 110.155C59.3124 110.02 59.7382 110.02 60.1639 110.065Z" fill="#58324C"/>
<path d="M75.3113 117.549C73.4067 115.645 70.9643 115.286 70.8074 115.174C70.9194 115.667 71.3228 116.16 71.7485 116.451C72.1743 116.743 72.6672 116.899 73.1602 117.056C73.5187 117.168 73.8772 117.258 74.2133 117.437C74.9752 117.818 75.5354 118.513 76.0507 119.185C76.2076 119.028 76.1404 118.782 76.0507 118.602C75.8715 118.199 75.6026 117.841 75.3113 117.549Z" fill="#58324C"/>
<path d="M64.242 132.159C63.1889 132.473 61.7324 132.764 60.9929 132.854C58.7298 133.1 56.1978 132.876 54.3828 131.33C49.5652 127.184 50.7752 122.344 50.7752 122.344C50.5063 123.42 50.2822 124.496 50.1478 125.616C49.9909 127.005 49.9013 128.753 50.2598 130.12C50.6183 131.487 52.1196 132.697 52.9711 133.817C54.943 136.371 56.6907 139.15 57.5646 142.265C61.3291 138.679 64.242 132.159 64.242 132.159Z" fill="#FFA4A4"/>
<path d="M58.2817 125.773C58.2817 125.773 61.5755 125.101 62.0909 127.902C62.6063 130.702 61.3291 128.103 61.3291 128.103C61.3291 128.103 61.217 126.602 58.2817 125.773Z" fill="#58324C"/>
<path d="M45.1061 209.24L49.3411 207.717C48.1087 205.095 37.7789 198.776 34.0592 196.692C30.3396 194.631 23.7743 183.942 23.7743 183.942C23.7743 183.942 19.472 182.486 15.4611 185.063C15.4611 185.063 13.1083 186.43 12.0328 187.662C16.0661 191.382 27.9196 204.647 27.9196 204.647C28.8831 205.946 29.7346 206.708 30.8102 210.607C31.4824 213.094 32.1994 215.851 34.2385 217.442C34.6194 217.733 35.1572 217.755 35.6278 217.598C36.0759 217.442 36.5913 217.128 36.9722 216.837L37.8013 217.912C38.1822 218.36 38.8544 218.45 39.437 218.338C39.7955 218.271 40.1317 218.136 40.423 217.912C40.7142 217.688 40.9159 217.419 41.0055 217.083C41.2744 217.24 41.5881 217.307 41.8794 217.285C42.1931 217.262 42.4844 217.195 42.7757 217.105C43.067 217.016 43.3807 216.904 43.6048 216.68C43.8289 216.456 44.0081 216.142 43.8961 215.851C44.5235 216.052 45.2181 215.963 45.7783 215.649C46.0024 215.514 46.2265 215.358 46.3609 215.111C46.5626 214.797 46.585 214.394 46.5626 214.036C46.4954 212.377 45.8231 210.764 45.1061 209.24Z" fill="#FFC0BB"/>
<path d="M30.4741 193.376C30.2724 193.152 30.0707 192.905 29.8915 192.659C28.0317 192.659 26.1494 192.838 24.3344 193.331C22.6763 193.779 21.0629 194.541 19.7409 195.639C20.3683 196.334 20.9957 197.006 21.6231 197.678C21.6679 197.432 21.7352 197.208 21.8696 196.983C22.0265 196.692 22.2505 196.446 22.4746 196.199C23.2813 195.393 24.312 194.765 25.3876 194.407C26.5528 194.026 27.8076 193.936 28.9952 193.712C29.4209 193.667 30.0483 193.6 30.4741 193.376Z" fill="#FFA4A4"/>
<path d="M30.9894 196.737C31.5944 196.334 32.2891 196.177 32.9389 195.886C32.7372 195.706 32.5131 195.505 32.2891 195.303C32.177 195.325 32.065 195.348 31.9529 195.393C28.9055 196.222 26.2391 198.283 24.6257 200.972C25.0515 201.443 25.4548 201.891 25.8133 202.294C25.9478 201.868 26.127 201.443 26.3735 201.062C26.732 200.479 27.225 200.009 27.718 199.56C28.3902 198.933 29.0624 198.306 29.757 197.701C30.1604 197.364 30.5413 197.028 30.9894 196.737Z" fill="#FFA4A4"/>
<path d="M33.0509 194.474C31.1463 194.496 29.2865 195.258 27.7404 196.423C26.1943 197.566 24.917 199.067 23.7967 200.681L24.5809 201.936C25.7013 200.345 26.9785 198.821 28.5246 197.678C30.0707 196.535 31.9305 195.751 33.8352 195.729L33.0509 194.474Z" fill="#00D0FF"/>
<path d="M29.8691 191.718C25.9254 191.651 21.9593 192.816 18.6654 195.012L19.6065 196.67C22.9676 194.407 27.0457 193.242 31.1015 193.376L29.8691 191.718Z" fill="#FF5183"/>
<path d="M45.1061 209.24L73.7876 198.866C73.7876 198.866 74.4598 202.451 72.6 204.557C70.7402 206.641 55.4807 213.677 53.0831 213.901C50.6855 214.125 48.8257 212.4 48.8257 212.4L46.4281 212.893C46.4281 212.893 45.8007 210.562 45.1061 209.24Z" fill="#B2C8CF"/>
<path d="M73.7876 198.866L72.8913 199.202C72.8017 200.322 72.488 201.667 71.6141 202.653C69.7543 204.736 54.4948 211.772 52.0972 211.996C49.6996 212.221 47.8398 210.495 47.8398 210.495L45.8232 210.898C46.1817 211.929 46.4506 212.87 46.4506 212.87L48.8481 212.377C48.8481 212.377 50.708 214.103 53.1056 213.879C55.5031 213.655 70.7626 206.619 72.6224 204.535C74.4598 202.473 73.7876 198.866 73.7876 198.866Z" fill="#D0E1E7"/>
<path d="M48.8481 212.422C48.7585 211.436 48.4 210.002 47.2348 208.479L45.1285 209.24C45.8007 210.562 46.4505 212.893 46.4505 212.893L48.8481 212.422C48.8257 212.4 48.8257 212.422 48.8481 212.422Z" fill="#58324C"/>
<path d="M26.8665 220.265L34.2385 217.464C32.9613 216.5 31.9754 214.26 31.9754 214.26L25.4324 216.747C25.4548 216.747 24.4689 218.158 26.8665 220.265Z" fill="#58324C"/>
<path d="M41.252 217.016C41.2296 216.926 40.423 214.842 39.5491 213.767C39.4594 213.655 39.2802 213.632 39.1681 213.722C39.0561 213.812 39.0337 213.991 39.1233 214.103C39.9524 215.111 40.7367 217.173 40.7591 217.24L40.8711 217.419C40.9159 217.33 40.9831 217.218 41.0055 217.105C41.14 217.173 41.2744 217.24 41.4089 217.262L41.252 217.016Z" fill="#DB5963"/>
<path d="M44.1426 215.739C44.0305 215.402 43.3583 213.296 42.5965 212.288C42.5068 212.176 42.3276 212.153 42.2155 212.243C42.1035 212.333 42.0811 212.512 42.1707 212.624C42.9326 213.632 43.6272 215.918 43.6496 215.94L43.8961 216.299C43.9633 216.164 43.9633 216.007 43.9185 215.851C44.0529 215.895 44.165 215.918 44.2994 215.918L44.1426 215.739Z" fill="#DB5963"/>
<path d="M37.1963 216.725C37.1963 216.725 36.412 215.447 35.8742 214.551C35.807 214.417 35.6278 214.372 35.4933 214.461C35.3589 214.529 35.3141 214.708 35.4037 214.842C35.9191 215.716 36.7033 216.971 36.7033 216.971L36.7257 217.038C36.8154 216.993 36.8826 216.926 36.9498 216.881L37.51 217.621L37.1963 216.725Z" fill="#DB5963"/>
<path d="M23.7743 183.965C23.7743 183.965 19.472 182.508 15.4611 185.085C15.4611 185.085 13.1083 186.452 12.0328 187.684C13.3548 188.894 15.5283 191.158 17.8587 193.645C17.5002 192.816 17.0072 192.009 16.5815 191.202C16.0213 190.127 15.5283 188.939 15.6852 187.729C15.73 187.371 15.8196 187.012 16.0213 186.721C16.2902 186.318 16.7159 186.071 17.1417 185.847C18.15 185.309 19.2256 184.883 20.3235 184.547C21.1526 184.301 22.3402 183.83 23.2141 184.099C23.6174 184.234 23.9087 184.547 24.2672 184.771C23.9535 184.278 23.7743 183.965 23.7743 183.965Z" fill="#FFA4A4"/>
<path d="M45.98 208.434C45.6439 208.703 45.3078 208.949 45.4198 209.151L49.3411 207.739C49.2067 207.47 49.005 207.179 48.6913 206.843C48.2656 207.022 47.8398 207.246 47.4365 207.493C46.9659 207.761 46.4505 208.053 45.98 208.434Z" fill="#E66463"/>
<path d="M100.923 214.26C85.7531 212.557 76.9022 218.92 76.9022 218.92C76.9022 218.92 75.02 219.951 75.4233 221.027C75.8267 222.125 88.7557 222.886 95.0522 221.856C101.326 220.825 105.404 219.189 105.404 219.189L105.808 216.209L100.923 214.26Z" fill="#FF9E00"/>
<path d="M106.121 216.007C106.502 215.559 106.973 215.178 107.511 214.887C108.564 214.304 109.774 214.148 110.984 214.103C111.074 214.103 111.186 214.103 111.253 214.17C111.298 214.215 111.32 214.282 111.32 214.349C111.342 214.708 111.051 215.021 110.782 215.246C109.617 216.231 108.205 216.904 106.704 217.195C107.063 217.217 107.421 217.217 107.78 217.24C108.138 217.262 108.541 217.307 108.721 217.621C108.81 217.8 108.788 218.024 108.698 218.203C108.609 218.383 108.429 218.517 108.273 218.629C109.505 218.136 111.074 218.069 112.284 218.607C112.597 218.741 112.911 218.943 112.978 219.279C113.023 219.593 112.821 219.884 112.552 220.041C112.284 220.198 111.97 220.22 111.656 220.242C110.379 220.31 109.102 220.242 107.824 220.175C108.116 220.265 108.228 220.691 108.116 220.982C107.981 221.273 107.69 221.452 107.399 221.542C106.39 221.856 105.337 221.363 104.441 220.825C103.948 220.534 103.477 220.198 103.007 219.861L103.724 216.859C103.881 216.523 105.897 216.254 106.121 216.007Z" fill="#00AF51"/>
<path d="M91.9376 191.382C91.9376 191.382 95.3883 196.177 97.2033 200.389C98.7718 204.064 107.623 211.929 107.242 215.268C107.242 215.268 106.659 219.637 104.105 223.29C104.105 223.29 103.522 224.209 102.581 224.477C101.931 224.679 101.281 223.693 101.55 222.864C100.789 223.693 99.8698 224.321 98.8615 224.836C98.5254 225.015 98.1668 225.15 97.7859 225.127C97.2033 225.06 96.7104 224.477 96.7776 223.895C95.9261 224.477 94.9402 224.836 93.9318 225.038C93.6405 225.105 93.3268 225.127 93.058 225.038C92.7667 224.948 92.5202 224.702 92.4978 224.41C92.4978 224.253 92.565 224.097 92.6322 223.962C92.8115 223.648 93.0355 223.379 93.3268 223.155C92.7443 223.29 92.0944 223.312 91.6015 222.976C91.3998 222.842 91.2205 222.618 91.1533 222.371C91.1085 222.125 91.1981 221.833 91.4222 221.721C91.4222 221.721 96.1054 217.867 96.6431 215.851C97.1809 213.834 97.8083 211.123 96.4639 210.137C95.4107 209.352 93.4837 209.577 92.9683 210.406C92.4305 211.257 92.6098 214.215 92.6098 214.215C92.6098 214.215 90.0778 214.192 88.6661 214.461C88.6661 214.461 88.2628 209.935 88.823 207.986C89.3831 206.036 89.8985 205.274 89.8985 205.274C89.8985 205.274 84.2294 198.574 81.6526 193.6C81.6526 193.6 84.4759 190.62 88.0387 190.62C90.6828 190.642 91.9376 191.382 91.9376 191.382Z" fill="#FFC0BB"/>
<path d="M91.9376 203.594C91.9376 203.594 89.8761 203.549 88.3524 203.392C89.2711 204.557 89.8985 205.297 89.8985 205.297C89.8985 205.297 90.6828 204.042 91.9376 203.594Z" fill="#FFA4A4"/>
<path d="M100.43 220.803C101.371 219.481 102.648 215.873 102.693 215.716C102.738 215.582 102.671 215.425 102.536 215.358C102.402 215.313 102.245 215.38 102.178 215.514C102.155 215.559 100.856 219.189 99.9819 220.466C99.0856 221.744 96.6432 223.648 96.5984 223.693L96.0382 224.321C96.3071 224.186 96.5536 224.052 96.8001 223.872C96.7777 224.007 96.8001 224.119 96.8225 224.231L96.9569 224.074C97.0689 224.029 99.4889 222.125 100.43 220.803Z" fill="#DB5963"/>
<path d="M105.046 216.388C104.911 216.366 104.755 216.433 104.71 216.59C103.634 220.937 101.416 222.685 101.394 222.685L101.304 222.797L101.102 223.357C101.259 223.2 101.416 223.066 101.573 222.909C101.483 223.178 101.506 223.447 101.573 223.693L101.819 223.066C102.2 222.752 104.217 220.892 105.27 216.702C105.27 216.567 105.18 216.411 105.046 216.388Z" fill="#DB5963"/>
<path d="M92.8339 223.715L93.5061 223.402C93.6182 223.312 96.2846 221.452 97.3602 220.085C98.8391 218.181 99.8922 215.089 100.049 213.968C100.071 213.811 99.9594 213.677 99.8026 213.655C99.6457 213.632 99.5113 213.744 99.4889 213.901C99.3545 214.954 98.3237 217.957 96.912 219.749C95.9037 221.049 93.2148 222.931 93.2148 222.931L92.5202 223.267C92.7891 223.267 93.0804 223.245 93.3269 223.178C93.1476 223.312 92.9683 223.514 92.8339 223.715Z" fill="#DB5963"/>
<path d="M87.9491 191.628C89.2487 191.404 90.7052 191.651 92.072 191.583C91.9824 191.449 91.9152 191.382 91.9152 191.382C91.9152 191.382 90.6828 190.642 88.0387 190.642C84.4759 190.642 81.6526 193.622 81.6526 193.622C82.0559 194.429 82.5713 195.258 83.1091 196.132C83.1539 195.146 83.5796 194.16 84.2743 193.421C85.2378 192.412 86.5822 191.875 87.9491 191.628Z" fill="#FFA4A4"/>
<path d="M34.3282 175.584C35.6054 174.935 37.1291 174.688 38.1374 173.657C35.4709 172.604 32.2443 172.895 29.9811 171.125C29.1745 170.498 28.5694 169.624 28.1437 168.683C28.4126 172.783 28.9504 177.399 29.0624 180.424C30.7878 178.744 32.1995 176.66 34.3282 175.584Z" fill="#353535"/>
<path d="M68.365 175.697C66.5724 176.548 64.7798 177.422 62.8976 178.094C59.8502 179.17 56.4218 179.64 53.4417 178.385C55.167 179.304 56.1529 180.312 57.8783 181.231C59.6485 182.15 61.4635 183.136 62.6063 184.772C65.1383 188.402 63.4354 193.712 65.2504 197.656C65.5417 193.264 65.945 189.343 66.5276 186.743C67.2222 183.808 67.8272 179.819 68.365 175.697Z" fill="#353535"/>
<path d="M64.3989 195.93C64.4213 196.042 64.4661 196.177 64.4885 196.289C64.6902 196.177 64.9143 196.042 65.1159 195.93C65.1159 195.818 65.1383 195.706 65.1383 195.594L65.0935 195.527C64.8695 195.662 64.6454 195.796 64.3989 195.93Z" fill="#CDAAFF"/>
<path d="M59.8278 182.531C59.9846 182.62 60.1191 182.71 60.2535 182.822C62.6511 182.351 65.3848 181.545 67.4239 180.492C67.4239 180.424 67.4463 180.38 67.4463 180.312C67.4463 180.268 67.4463 180.245 67.4687 180.2C67.4687 180.155 67.4911 180.088 67.4911 180.043C65.3624 181.209 62.3598 182.06 59.8278 182.531Z" fill="#CDAAFF"/>
<path d="M30.2948 143.744C27.7404 146.701 25.903 150.197 24.1104 153.648C23.3485 155.104 22.5867 156.65 22.2505 158.219C24.4465 154.925 26.6648 152.169 28.1661 151.631C28.1661 151.631 28.0765 155.306 27.718 159.227C27.9868 158.308 27.9196 156.919 28.0989 156.09C28.5246 154.029 29.152 152.012 29.6226 149.95C29.8467 148.83 29.7346 144.393 30.2948 143.744Z" fill="#353535"/>
<path d="M23.4606 156.449C23.483 156.426 23.5054 156.404 23.5054 156.381C23.5726 156.292 23.6174 156.224 23.6846 156.135C23.4606 156.09 23.2141 156 22.9676 155.956C22.9228 156.068 22.878 156.18 22.8332 156.292C23.0572 156.336 23.2813 156.381 23.4606 156.449Z" fill="#CDAAFF"/>
<path d="M16.1781 163.507C16.5143 163.664 17.3881 164.403 17.7467 164.336C17.1865 163.664 16.6487 162.991 16.1109 162.409C16.1109 162.409 17.052 160.594 18.4861 158.062C18.0156 158.376 17.545 158.689 17.0744 158.958C16.0213 159.586 14.9233 160.123 13.7357 160.459C11.6294 161.064 9.34389 160.975 7.28241 161.692C9.72482 161.535 12.212 161.916 14.52 162.767C15.0578 162.992 15.6404 163.216 16.1781 163.507Z" fill="#353535"/>
<path d="M72.2415 164.963C72.9809 162.7 72.6448 159.989 72.0846 157.748C71.4348 155.171 70.3368 152.751 69.2389 150.354C68.2529 156.314 69.6646 162.611 67.7152 168.302C67.5135 168.885 67.2894 169.467 67.267 170.095C67.2446 170.588 67.3791 171.103 67.4911 171.574C67.7376 172.582 68.0065 173.59 68.2529 174.621C68.2754 174.375 68.3202 174.128 68.3426 173.882C68.365 173.456 68.4098 173.03 68.4994 172.582C69.575 163.731 70.2696 155.149 70.2696 155.149C70.2696 155.149 72.2639 159.63 72.2639 162.118C72.2639 162.611 72.2415 163.641 72.2415 164.963Z" fill="#353535"/>
<path d="M67.3118 169.647C67.2894 169.781 67.267 169.938 67.267 170.072C67.8496 169.826 68.4098 169.535 68.9028 169.221C68.9028 169.131 68.9252 169.042 68.9252 168.952C68.9252 168.885 68.9476 168.817 68.9476 168.75C68.4546 169.086 67.8944 169.378 67.3118 169.647Z" fill="#CDAAFF"/>
<path d="M68.8804 154.141C69.5078 154.029 70.1352 153.917 70.7626 153.804C70.7178 153.692 70.673 153.58 70.6282 153.468C70.0456 153.558 69.4854 153.67 68.9028 153.782C68.9028 153.894 68.8804 154.006 68.8804 154.141Z" fill="#CDAAFF"/>
<path d="M145.021 163.641C143.43 166.353 137.671 176.167 137.671 176.638C137.671 177.198 144.752 183.942 144.752 183.942L157.838 173.478C148.628 169.736 145.783 165.299 145.021 163.641Z" fill="#FF7E62"/>
<path d="M144.752 183.942L157.838 173.478C148.651 169.736 145.805 165.299 145.021 163.641C144.685 164.201 144.169 165.098 143.564 166.128C145.379 167.114 147.172 168.168 148.74 169.534C150.04 170.677 151.205 172.066 152.796 172.694C151.541 173.971 149.973 174.912 148.427 175.831C147.867 176.167 147.306 176.503 146.679 176.66C145.76 176.906 144.797 176.75 143.9 176.458C143.004 176.167 142.175 175.719 141.301 175.338C140.472 174.979 139.621 174.688 138.769 174.464C138.119 175.652 137.671 176.481 137.671 176.615C137.671 177.198 144.752 183.942 144.752 183.942Z" fill="#DF6363"/>
<path d="M154.9 172.384L124.782 198.703L127.289 201.571L157.407 175.253L154.9 172.384Z" fill="#CEDDE3"/>
<path d="M156.32 173.997L126.202 200.315L127.278 201.546L157.396 175.228L156.32 173.997Z" fill="#BCCEE4"/>
<path d="M143.273 182.531L140.405 179.394L137.671 181.455L140.136 185.287L143.273 182.531Z" fill="#97AAD1"/>
<path d="M139.531 180.805C139.531 180.671 139.867 180.402 139.979 180.313C140.158 180.156 140.382 180.044 140.539 179.887C140.606 179.82 140.651 179.73 140.651 179.663L140.405 179.394L137.671 181.455L140.158 185.287L140.27 185.197C140.27 185.108 140.226 185.018 140.203 184.928C140.001 184.391 139.755 183.853 139.464 183.338C139.396 183.203 139.307 183.069 139.262 182.934C139.15 182.643 139.15 182.329 139.195 182.015C139.217 181.567 139.307 181.164 139.531 180.805Z" fill="#7C9BC2"/>
<path d="M142.623 181.814C142.937 181.388 143.273 180.85 143.587 180.424C143.699 180.29 143.788 180.133 143.811 179.954C143.833 179.707 143.654 179.506 143.497 179.327C142.825 178.587 142.108 177.892 141.368 177.22C140.45 176.414 139.397 175.629 138.187 175.45C137.021 175.271 135.834 175.674 134.713 176.077C134.198 175.428 133.257 175.316 132.45 175.495C131.733 175.652 131.061 175.988 130.501 176.458C129.851 177.019 128.82 177.019 128.17 177.556C127.901 177.78 127.633 178.049 127.319 178.229C127.095 178.363 126.871 178.453 126.624 178.565C125.526 179.102 124.809 180.178 124.137 181.209C123.756 181.791 123.375 182.419 123.375 183.091C123.375 183.875 123.913 184.57 124.339 185.242C125.213 186.609 125.795 188.289 127.207 189.119C127.364 189.208 127.543 189.298 127.745 189.343C128.372 189.455 128.999 189.007 129.649 188.984C130.702 189.948 131.644 190.889 132.697 191.852C133.122 192.233 133.593 192.659 134.176 192.704C134.669 192.749 135.162 192.502 135.43 192.099C135.699 191.695 135.722 191.135 135.498 190.709C135.923 191.225 136.596 191.539 137.268 191.628C137.626 191.673 138.03 191.651 138.366 191.471C138.702 191.314 138.971 190.978 139.016 190.62C139.038 190.418 138.993 190.216 138.971 190.015C138.926 189.791 138.881 189.567 138.836 189.343C139.06 189.634 139.486 189.746 139.845 189.701C140.226 189.656 140.562 189.477 140.898 189.32C141.256 189.141 141.66 188.917 141.727 188.514C141.772 188.245 141.66 187.953 141.525 187.707C140.427 185.511 139.15 183.405 137.716 181.41C137.716 181.41 140.27 179.371 140.45 179.394C140.607 179.483 142.623 181.814 142.623 181.814Z" fill="#FF7E62"/>
<path d="M139.016 189.231C138.567 188.581 138.074 187.998 137.559 187.393C135.834 185.332 134.041 183.203 133.414 178.498C133.391 178.341 133.257 178.251 133.1 178.273C132.943 178.296 132.854 178.43 132.876 178.587C133.526 183.45 135.453 185.735 137.156 187.752C137.671 188.357 138.142 188.939 138.567 189.544L138.948 190.149C138.948 190.127 138.948 190.105 138.926 190.082C138.881 189.858 138.836 189.634 138.791 189.41C138.926 189.567 139.105 189.679 139.307 189.724L139.016 189.231Z" fill="#DB5963"/>
<path d="M135.677 190.575C131.307 184.323 131.285 184.256 130.008 180.111L129.829 179.551C129.784 179.416 129.627 179.327 129.492 179.371C129.358 179.416 129.268 179.573 129.313 179.708L129.492 180.268C130.77 184.391 130.814 184.57 135.229 190.866L135.61 191.494C135.632 191.225 135.587 190.956 135.453 190.71C135.632 190.911 135.856 191.09 136.08 191.225L135.677 190.575Z" fill="#DB5963"/>
<path d="M137.873 181.276C137.447 180.805 136.394 179.394 136.394 178.52C136.394 178.363 136.282 178.251 136.125 178.251C135.968 178.251 135.856 178.363 135.856 178.52C135.856 179.775 137.38 181.567 137.492 181.679L138.119 182.127C137.962 181.903 137.806 181.679 137.649 181.455C137.671 181.455 137.761 181.388 137.873 181.276Z" fill="#DB5963"/>
<path d="M129.604 189.007C129.739 189.119 129.851 189.231 129.985 189.365L129.851 188.872C129.829 188.827 127.207 184.391 126.736 182.083C126.714 181.926 126.557 181.836 126.423 181.881C126.266 181.903 126.176 182.06 126.221 182.195C126.714 184.503 129.111 188.648 129.358 189.051C129.425 189.007 129.515 189.007 129.604 189.007Z" fill="#DB5963"/>
<path d="M229.273 146.656C226.091 143.587 214.036 135.632 205.745 134.669L192.973 136.887L180.2 136.192C180.2 136.192 164.381 138.545 159.182 140.808C153.984 143.094 144.752 162.969 144.752 162.969C144.752 162.969 146.388 169.31 159.429 174.106C159.429 174.106 165.77 165.725 166.509 163.955C166.509 163.955 167.294 223.021 169.041 223.872C170.789 224.724 215.47 224.052 216.343 221.766C217.217 219.503 214.596 214.932 214.596 212.288C214.596 209.644 214.372 163.283 216.523 162.095C218.674 160.908 218.674 168.324 220.803 172.694C220.803 172.694 229.407 173.097 236.421 169.646C236.421 169.669 232.454 149.726 229.273 146.656Z" fill="#F9F9F9"/>
<path d="M170.901 175.428C175.181 169.445 176.1 136.304 176.1 136.304L177.019 137.962L178.811 165.255L170.901 175.428Z" fill="#5C9D69"/>
<path d="M195.886 162.252C207.515 158.846 207.986 138.679 207.986 138.679L209.397 139.733L208.299 161.871L195.886 162.252Z" fill="#009BD7"/>
<path d="M217.845 160.728C217.509 158.958 216.859 157.121 215.47 155.978C213.767 162.118 213.408 168.616 214.394 174.912C214.529 175.786 214.708 176.66 214.977 177.489C215.246 169.198 215.716 162.566 216.523 162.118C217.374 161.647 217.89 162.543 218.338 164.067C218.226 162.969 218.069 161.894 217.845 160.728Z" fill="#009BD7"/>
<path d="M168.078 159.966C165.546 158.712 159.608 169.153 157.883 173.523C158.376 173.725 158.891 173.926 159.429 174.128C159.429 174.128 165.77 165.748 166.509 163.977C166.509 163.977 166.599 170.946 166.801 180.133C167.137 180.245 167.316 180.335 167.316 180.335C167.316 180.335 171.125 161.445 168.078 159.966Z" fill="#009BD7"/>
<path d="M235.614 165.86C234.337 166.33 233.127 166.756 231.805 167.047C227.749 167.944 223.626 168.862 219.481 168.728C219.817 170.117 220.242 171.506 220.803 172.694C220.803 172.694 229.407 173.097 236.421 169.646C236.421 169.669 236.107 168.123 235.614 165.86Z" fill="#3F3F3F"/>
<path d="M192.973 136.887L180.2 136.192C180.2 136.192 179.304 136.327 177.892 136.551C178.587 139.441 181.769 149.816 192.39 149.368C204.468 148.852 207.358 138.5 207.986 135.072C207.224 134.893 206.462 134.758 205.745 134.669L192.973 136.887Z" fill="#3F3F3F"/>
<path d="M162.79 169.557C160.616 168.93 158.376 168.414 156.336 167.428C153.155 165.86 150.69 163.216 148.292 160.616C147.777 160.056 147.261 159.496 146.791 158.891C146.769 158.869 146.769 158.846 146.746 158.846C145.514 161.289 144.707 162.992 144.707 162.992C144.707 162.992 146.343 169.333 159.384 174.128C159.429 174.128 161.087 171.932 162.79 169.557Z" fill="#3F3F3F"/>
<path d="M162.79 169.557C161.916 169.31 161.02 169.064 160.146 168.817C159.16 170.588 158.353 172.291 157.86 173.523C158.062 173.613 158.286 173.702 158.51 173.769C158.801 173.881 159.115 173.993 159.429 174.128C159.429 174.128 159.474 174.061 159.563 173.949C159.989 173.366 161.378 171.529 162.79 169.557Z" fill="#FF9C00"/>
<path opacity="0.6" d="M178.229 135.834C178.161 135.542 176.1 136.304 176.1 136.304C176.1 136.304 176.996 151.093 176.996 155.104C176.996 160.684 176.167 172.156 166.778 178.52L165.456 179.618C165.456 179.618 165.882 205.991 165.456 210.092C165.031 214.192 166.509 228.824 165.456 230.258C164.403 231.693 216.702 232.118 218.764 229.228C220.825 226.337 217.352 225.284 216.904 222.595C216.456 219.884 216.904 171.596 216.904 171.596C216.904 171.596 210.943 164.313 210.316 155.194C209.689 146.074 210.383 134.669 210.383 134.669L207.717 133.974C207.717 133.974 209.33 156.023 207 160.437C207 160.437 186.878 162.073 180.223 159.406C180.2 159.406 178.968 139.374 178.229 135.834Z" fill="#0B641D"/>
<path d="M213.744 173.411C214.058 173.321 208.165 172.604 206.641 173.411C205.117 174.218 206.551 176.503 207.269 176.638C207.986 176.772 210.047 177.489 210.047 177.489C210.047 177.489 212.221 173.814 213.744 173.411Z" fill="#DF6363"/>
<path d="M222.909 186.183L222.886 187.169C222.797 190.037 221.228 192.636 218.741 194.071L217.89 194.564L200.367 186.049C200.076 185.914 199.941 185.601 200.008 185.287L200.098 184.951C201.129 180.985 203.302 177.422 206.372 174.711C206.596 174.509 206.955 174.486 207.201 174.666L222.909 186.183Z" fill="#00C8FF"/>
<path d="M222.909 186.183L212.87 178.833C211.772 179.685 210.786 180.693 209.957 181.814C208.344 183.965 207.291 186.519 206.731 189.141L208.142 189.836C212.512 189.006 216.881 188.2 221.251 187.46C221.699 187.393 222.281 187.348 222.886 187.281C222.886 187.236 222.886 187.214 222.909 187.169V186.183Z" fill="#12A8FF"/>
<path d="M235.703 169.983C235.703 169.983 242.941 192.368 237.944 194.944C232.746 197.633 229.653 192.771 227.413 188.177C227.413 188.177 224.634 183.158 222.909 183.203C222.573 183.203 220.534 184.435 220.153 184.458C220.153 184.458 217.038 186.474 215.895 186.766C214.887 187.035 214.439 185.78 214.932 185.264C214.932 185.264 213.094 188.021 211.84 187.752C210.899 187.572 211.369 186.474 211.369 186.474C211.369 186.474 210.226 189.858 209.106 189.679C208.366 189.567 207.918 188.917 208.187 188.133C208.366 187.572 208.658 186.967 208.658 186.967C208.658 186.967 206.888 187.102 206.888 185.802C206.888 184.503 208.03 181.052 208.434 180.133C208.859 179.214 211.705 174.061 213.946 173.276C216.187 172.492 219.256 173.299 221.385 174.598L221.094 172.694C221.116 172.716 229.9 172.246 235.703 169.983Z" fill="#FF7E62"/>
<path d="M221.385 174.621C221.385 174.621 230.057 179.282 235.905 184.391C235.905 184.391 229.878 177.377 222.909 174.576C222.304 174.33 221.766 174.105 221.273 173.904L221.385 174.621Z" fill="#DF6363"/>
<path d="M222.909 183.225C224.634 183.18 227.413 188.2 227.413 188.2C227.861 189.118 228.354 190.059 228.869 190.933C228.869 190.889 228.892 190.844 228.892 190.777C229.161 188.625 226.315 184.794 225.127 183.292C224.813 182.911 224.298 182.755 223.828 182.889C223.536 183.001 223.223 183.113 222.909 183.225Z" fill="#DF6363"/>
<path d="M220.578 180.469C220.511 180.38 220.399 180.357 220.332 180.424C220.332 180.424 219.413 181.052 217.845 181.858C216.209 182.71 214.865 185.085 214.797 185.175C214.775 185.22 214.573 185.578 214.349 186.093C214.73 185.645 214.977 185.264 214.977 185.264C214.797 185.466 214.73 185.757 214.797 186.026C214.999 185.623 215.133 185.354 215.133 185.354C215.156 185.332 216.478 182.979 218.024 182.172C219.637 181.343 220.556 180.716 220.556 180.716C220.623 180.648 220.646 180.536 220.578 180.469Z" fill="#DF6363"/>
<path d="M213.744 177.198C213.834 177.13 213.834 177.018 213.767 176.951C213.699 176.862 213.587 176.862 213.52 176.929C213.453 176.974 211.884 178.228 210.921 179.999C210.002 181.657 208.68 186.205 208.501 186.855L208.299 186.967C208.501 186.99 208.658 186.967 208.658 186.967C208.658 186.967 208.613 187.079 208.546 187.236L208.747 187.124C208.792 187.102 208.815 187.057 208.837 187.012C208.859 186.967 210.316 181.858 211.257 180.155C212.176 178.452 213.744 177.22 213.744 177.198Z" fill="#DF6363"/>
<path d="M214.103 181.231C215.066 180.133 217.128 178.542 217.15 178.542C217.24 178.475 217.24 178.363 217.172 178.296C217.105 178.206 216.993 178.206 216.926 178.273C216.836 178.34 214.82 179.909 213.834 181.007C212.848 182.127 211.302 186.273 211.235 186.452C211.212 186.497 211.078 186.99 210.943 187.662C211.167 187.191 211.302 186.788 211.369 186.609C211.324 186.766 211.235 187.124 211.369 187.416C211.481 186.923 211.571 186.564 211.571 186.564C211.571 186.497 213.139 182.307 214.103 181.231Z" fill="#DF6363"/>
<path d="M229.138 172.694C231.693 172.671 234.269 172.783 236.734 173.433C236.152 171.349 235.704 169.983 235.704 169.983C229.9 172.223 221.094 172.694 221.094 172.694L221.139 173.03C221.273 173.052 221.408 173.075 221.542 173.075C223.133 173.097 224.769 172.828 226.36 172.761C227.301 172.739 228.219 172.716 229.138 172.694Z" fill="#DF6363"/>
<path d="M204.58 121.403C205.834 120.798 207.112 120.171 208.21 119.297C209.285 118.401 210.181 117.213 210.428 115.824C210.674 114.435 210.249 113.023 210.316 111.611C210.406 109.55 211.504 107.556 211.078 105.539C210.742 103.97 209.442 102.671 207.874 102.335C207.874 102.335 210.719 94.7834 206.955 91.9376C203.19 89.0919 198.933 91.131 198.933 91.131C198.821 90.1898 197.745 89.6521 196.804 89.5624C195.863 89.4728 194.922 89.8761 194.16 90.4811C194.16 90.4811 190.172 84.4311 184.122 85.9997C178.99 87.3217 178.542 92.6547 178.542 92.6547C177.713 92.5202 176.951 92.2065 176.189 92.4978C175.405 92.7891 174.733 93.4613 174.599 94.268C174.487 94.9626 174.778 95.6797 174.643 96.3743C172.425 96.8 170.7 98.9736 170.7 101.237C170.7 101.685 170.767 102.111 170.834 102.559C171.058 104.194 171.349 105.942 172.425 107.197C171.887 108.429 171.82 109.976 171.82 111.342C171.842 113.606 172.47 116.138 174.419 117.325C175.584 118.042 176.996 118.132 178.341 118.199C180.223 118.311 182.127 118.401 184.032 118.334C186.43 118.222 188.827 117.818 191.202 118.087C193.869 118.401 196.334 119.544 198.933 120.216C200.703 120.642 202.787 121.359 204.58 121.403Z" fill="#333333"/>
<path d="M208.837 111.611C208.165 110.289 205.745 112.373 205.745 112.373C205.745 112.373 205.745 115.689 204.983 119.342C207.851 119.118 209.487 112.956 208.837 111.611Z" fill="#FFA4A4"/>
<path d="M174.038 111.611C174.711 110.289 177.131 112.373 177.131 112.373C177.131 112.373 177.131 115.689 177.892 119.342C175.002 119.118 173.389 112.956 174.038 111.611Z" fill="#FFA4A4"/>
<path d="M197.925 103.141C197.32 103.903 196.311 104.262 195.325 104.262C195.034 104.262 194.765 104.239 194.496 104.127C194.003 103.903 193.757 103.365 193.51 102.895C192.502 104.105 191.449 105.36 190.037 106.054C188.805 106.659 187.371 106.794 185.981 106.816C184.234 106.861 182.396 106.704 180.985 105.673C180.693 105.472 180.245 105.136 180.335 104.799C179.685 107.264 178.811 109.819 176.974 111.589C176.974 111.589 176.974 122.591 181.097 127.005C183.875 129.985 187.057 132.876 190.844 132.809C191.18 132.809 191.516 132.809 191.83 132.809C195.617 132.876 198.799 129.985 201.577 127.005C205.7 122.613 205.7 112.396 205.7 112.396C198.328 110.894 197.925 103.141 197.925 103.141Z" fill="#FFC0BB"/>
<path d="M190.62 122.412C190.485 122.412 190.351 122.322 190.284 122.188C190.194 122.008 190.284 121.784 190.463 121.695C191.001 121.448 191.202 120.754 191.18 120.193C191.158 119.7 190.978 119.207 190.799 118.692C190.732 118.513 190.687 118.334 190.62 118.154C190.441 117.572 190.329 116.967 190.261 116.362C190.239 116.16 190.396 115.981 190.575 115.958C190.777 115.936 190.956 116.093 190.978 116.272C191.046 116.832 191.158 117.392 191.314 117.93C191.359 118.109 191.426 118.266 191.494 118.446C191.673 118.983 191.875 119.544 191.897 120.149C191.942 120.978 191.606 121.964 190.754 122.367C190.732 122.389 190.687 122.412 190.62 122.412Z" fill="#58324C"/>
<path d="M184.48 116.317C184.876 116.317 185.197 115.615 185.197 114.748C185.197 113.882 184.876 113.18 184.48 113.18C184.084 113.18 183.763 113.882 183.763 114.748C183.763 115.615 184.084 116.317 184.48 116.317Z" fill="#58324C"/>
<path d="M197.32 114.748C197.32 115.622 197.006 116.317 196.603 116.317C196.199 116.317 195.886 115.622 195.886 114.748C195.886 113.874 196.199 113.18 196.603 113.18C197.006 113.18 197.32 113.897 197.32 114.748Z" fill="#58324C"/>
<path d="M181.298 112.239C181.097 112.306 180.917 112.396 180.716 112.373C180.514 112.373 180.29 112.261 180.223 112.059C180.178 111.903 180.223 111.746 180.29 111.611C180.604 111.029 181.321 110.827 181.971 110.715C183.629 110.424 185.466 110.469 187.102 110.984C188.11 111.298 187.079 111.634 186.564 111.567C185.735 111.499 184.883 111.499 184.054 111.589C183.091 111.701 182.172 111.925 181.298 112.239Z" fill="#58324C"/>
<path d="M199.874 112.239C200.076 112.306 200.255 112.396 200.457 112.373C200.658 112.373 200.882 112.261 200.95 112.059C200.994 111.903 200.95 111.746 200.882 111.611C200.569 111.029 199.852 110.827 199.202 110.715C197.544 110.424 195.706 110.469 194.071 110.984C193.062 111.298 194.093 111.634 194.608 111.567C195.437 111.499 196.289 111.499 197.118 111.589C198.081 111.701 199 111.925 199.874 112.239Z" fill="#58324C"/>
<path d="M206.932 112.866C207.112 112.844 207.291 112.844 207.425 112.911C207.537 112.978 207.605 113.068 207.672 113.157C207.874 113.494 207.896 113.919 207.874 114.3C207.851 114.591 207.829 114.883 207.784 115.174C207.627 115.981 207.246 116.72 206.664 117.325C206.596 117.392 206.507 117.482 206.417 117.504C206.327 117.549 206.193 117.549 206.126 117.46C206.059 117.415 206.036 117.303 205.946 117.303C205.902 117.303 205.879 117.303 205.834 117.303C205.745 117.28 205.745 117.168 205.745 117.079C205.834 116.362 205.902 115.645 205.946 114.928C205.969 114.592 205.991 114.233 206.014 113.897C206.014 113.695 206.014 113.538 206.126 113.359C206.327 113.135 206.619 112.933 206.932 112.866Z" fill="#FF8A8A"/>
<path d="M176.638 116.608C176.884 116.205 176.839 115.712 176.75 115.241C176.66 114.636 176.57 114.054 176.458 113.449L176.414 113.09C176.234 112.732 175.921 112.463 175.517 112.373C175.136 112.306 174.688 112.463 174.486 112.799C174.374 113.001 174.33 113.225 174.33 113.449C174.262 114.659 174.755 115.846 175.428 116.832C175.696 117.236 176.055 117.639 176.526 117.729C176.57 117.729 176.615 117.751 176.66 117.706C176.682 117.684 176.682 117.661 176.705 117.617C176.75 117.348 176.436 117.079 176.503 116.81C176.526 116.765 176.593 116.698 176.638 116.608Z" fill="#FF8A8A"/>
<path d="M190.575 127.655C190.575 127.655 193.085 124.585 196.692 125.549C200.3 126.512 192.099 129.044 190.575 127.655Z" fill="#58324C"/>
<path d="M200.994 127.655C198.373 130.389 195.393 132.854 191.875 132.786C191.539 132.786 191.202 132.786 190.889 132.786C188.11 132.831 185.668 131.285 183.449 129.291C183.875 131.151 183.763 133.862 183.561 134.579C183.315 135.475 180.2 136.192 180.2 136.192C180.447 141.324 183.113 146.567 193.667 146.657C203.302 146.724 205.745 134.669 205.745 134.669C205.745 134.669 201.487 134.019 200.994 133.593C200.479 133.167 200.994 127.655 200.994 127.655Z" fill="#FFC0BB"/>
<path d="M200.815 130.209C200.882 128.887 200.994 127.655 200.994 127.655C198.373 130.389 195.393 132.854 191.875 132.786C191.539 132.786 191.202 132.786 190.889 132.786C188.11 132.831 185.668 131.285 183.449 129.291C183.875 131.151 183.763 133.862 183.561 134.579C183.315 135.475 180.2 136.192 180.2 136.192C180.223 136.775 180.29 137.357 180.38 137.94C182.15 137.021 183.965 136.215 185.937 135.991C187.326 135.834 188.715 135.991 190.104 135.879C192.323 135.699 194.384 134.825 196.244 133.638C197.813 132.652 199.179 131.106 200.815 130.209Z" fill="#FFA4A4"/>
<path d="M204.266 166.487H183.561V167.966H204.266V166.487Z" fill="white"/>
<path d="M118.961 204.849C119.051 204.445 119.252 204.064 119.499 203.751C119.745 203.437 120.081 203.123 120.574 203.123C120.821 203.123 121.134 203.213 121.269 203.437C121.381 203.616 121.291 203.818 121.157 203.93C121.022 204.042 120.821 204.109 120.641 204.176C120.036 204.423 119.588 204.893 119.387 205.454C119.342 205.61 119.297 206.26 119.073 205.879C118.849 205.566 118.916 205.117 118.961 204.849Z" fill="#00AF51"/>
<path d="M118.692 205.924C118.625 205.834 117.616 202.048 118.67 201.689C119.7 201.308 118.692 205.924 118.692 205.924Z" fill="#007F55"/>
<path d="M119.028 205.857C119.028 205.857 116.855 202.16 114.748 202.697C112.642 203.235 114.412 204.445 115.488 204.356C116.563 204.266 118.266 206.305 118.647 206.081C119.028 205.857 119.028 205.857 119.028 205.857Z" fill="#00AF51"/>
<path d="M122.344 218.696C121.157 219.144 114.323 206.641 118.849 205.454C122.21 204.557 123.51 218.248 122.344 218.696Z" fill="#FF800F"/>
<path d="M119.857 207.941C120.081 207.896 120.305 207.851 120.529 207.806C120.574 207.806 120.619 207.784 120.664 207.829C120.709 207.896 120.619 207.963 120.552 207.986C119.745 208.322 118.871 208.367 117.997 208.322C117.84 208.322 117.482 208.277 117.549 208.03C117.616 207.829 117.953 207.896 118.087 207.918C118.692 208.03 119.275 208.03 119.857 207.941Z" fill="#DF6617"/>
<path d="M119.163 209.801C119.073 209.823 118.983 209.845 118.894 209.89C118.804 209.935 118.737 210.002 118.737 210.114C118.961 210.07 119.207 210.047 119.431 210.002C119.588 209.98 119.768 209.957 119.924 209.98C120.104 210.002 120.261 210.092 120.44 210.092C120.485 210.092 120.552 210.07 120.574 210.025C120.597 209.98 120.619 209.935 120.619 209.89C120.641 209.756 120.709 209.644 120.798 209.554C120.866 209.487 121.022 209.397 121.022 209.285C121.045 209.106 120.798 209.128 120.686 209.151C120.44 209.218 120.216 209.397 119.992 209.509C119.723 209.644 119.454 209.733 119.163 209.801Z" fill="#DF6617"/>
<path d="M116.989 218.674C116.989 218.674 111.925 206.439 113.18 205.655C114.457 204.848 120.731 215.223 121.157 215.739C121.583 216.254 123.017 219.817 120.462 220.31C117.93 220.78 116.989 218.674 116.989 218.674Z" fill="#FF9E00"/>
<path d="M113.606 209.375C113.65 209.554 113.718 209.733 113.762 209.913C113.83 209.868 113.897 209.801 113.964 209.756C114.098 209.644 114.278 209.599 114.457 209.532C114.659 209.464 114.838 209.397 115.04 209.352C115.196 209.308 115.353 209.24 115.421 209.083C115.062 209.083 114.703 209.151 114.345 209.24C114.121 209.285 113.852 209.308 113.606 209.375Z" fill="#FF7513"/>
<path d="M117.191 209.89C116.944 210.159 116.787 210.45 116.496 210.674C116.138 210.943 115.757 211.145 115.376 211.369C115.286 211.414 115.196 211.503 115.219 211.593C115.891 211.414 116.429 210.921 117.101 210.786C117.191 210.764 117.28 210.742 117.348 210.697C117.437 210.607 117.437 210.473 117.437 210.361C117.437 210.293 117.437 210.204 117.437 210.114C117.37 210.025 117.303 209.935 117.236 209.845C117.236 209.868 117.213 209.868 117.191 209.89Z" fill="#FF7513"/>
<path d="M117.997 213.162C118.087 213.139 118.244 213.162 118.221 213.274C118.221 213.318 118.177 213.363 118.132 213.386C117.975 213.475 117.796 213.498 117.616 213.52C117.011 213.61 116.384 213.699 115.779 213.789C115.51 213.834 115.533 213.587 115.734 213.498C115.869 213.453 116.115 213.498 116.272 213.453C116.855 213.341 117.415 213.229 117.997 213.162Z" fill="#FF7513"/>
<path d="M117.885 214.82C117.729 214.887 117.572 214.954 117.527 215.111C118.446 214.999 119.387 214.977 120.305 215.089C120.149 215.066 119.88 214.82 119.723 214.73C119.544 214.64 119.319 214.506 119.118 214.439C118.782 214.349 118.244 214.685 117.885 214.82Z" fill="#FF7513"/>
<path d="M120.104 218.047C120.104 218.047 121.403 204.871 122.905 204.781C124.406 204.669 125.033 216.769 125.19 217.442C125.325 218.091 124.899 221.901 122.412 221.139C119.924 220.332 120.104 218.047 120.104 218.047Z" fill="#FF9E00"/>
<path d="M123.644 209.778C123.756 209.778 123.868 209.756 123.958 209.823C124.047 209.89 124.092 210.025 124.003 210.092C123.98 210.114 123.935 210.114 123.913 210.137C123.644 210.204 121.695 210.585 121.695 210.226C121.695 209.689 123.353 209.801 123.644 209.778Z" fill="#FF7513"/>
<path d="M123.061 213.856C123.173 213.879 123.308 213.879 123.398 213.946C123.51 214.013 123.577 214.125 123.532 214.237C123.487 214.372 123.308 214.394 123.173 214.372C122.479 214.349 121.739 214.148 121.314 213.61C120.933 213.162 121.291 213.072 121.65 213.296C122.076 213.61 122.546 213.812 123.061 213.856Z" fill="#FF7513"/>
<path d="M133.593 206.372C133.324 206.036 133.078 205.633 133.1 205.207C133.122 204.916 133.279 204.624 133.571 204.557C133.839 204.49 134.131 204.669 134.31 204.871C134.781 205.409 134.848 206.171 134.893 206.865C134.893 206.977 134.982 207.313 134.848 207.403C134.736 207.47 134.512 207.246 134.422 207.179C134.108 206.91 133.817 206.664 133.593 206.372Z" fill="#00AF51"/>
<path d="M136.147 206.865C136.551 206.596 137.044 206.462 137.537 206.395C138.007 206.35 138.545 206.372 138.971 206.776C139.195 206.977 139.374 207.336 139.284 207.605C139.217 207.851 138.993 207.941 138.769 207.918C138.545 207.896 138.343 207.784 138.119 207.672C137.402 207.358 136.64 207.381 135.991 207.672C135.811 207.762 135.229 208.277 135.363 207.762C135.453 207.381 135.879 207.044 136.147 206.865Z" fill="#007F55"/>
<path d="M135.027 207.403C135.027 207.403 134.758 202.809 136.125 202.697C137.492 202.585 135.991 206.731 135.027 207.403Z" fill="#00AF51"/>
<path d="M135.005 207.537C135.027 207.381 137.38 203.37 138.59 203.975C139.777 204.557 135.005 207.537 135.005 207.537Z" fill="#007F55"/>
<path d="M127.184 221.34C125.818 220.713 130.747 204.423 135.52 207.291C139.105 209.397 128.551 221.968 127.184 221.34Z" fill="#FF9E00"/>
<path d="M132.562 208.187C132.921 208.255 133.302 208.277 133.683 208.255C133.75 208.255 133.839 208.232 133.817 208.165C133.817 208.143 133.795 208.12 133.772 208.098C133.683 208.008 133.571 207.941 133.458 207.874C133.346 207.806 133.078 207.627 132.809 207.493C132.607 207.627 132.405 207.806 132.204 208.008C132.293 208.12 132.428 208.165 132.562 208.187Z" fill="#FF7513"/>
<path d="M131.845 209.89C132.338 210.114 132.853 210.338 133.391 210.316C133.75 210.294 134.086 210.182 134.422 210.047C134.713 209.935 135.049 209.868 135.341 209.733C135.005 209.509 134.243 209.711 133.862 209.711C133.167 209.711 132.45 209.666 131.756 209.733C131.733 209.823 131.8 209.845 131.845 209.89Z" fill="#FF7513"/>
<path d="M130.68 214.237C131.218 214.282 131.756 214.327 132.293 214.372C132.361 214.372 132.428 214.372 132.495 214.349C132.562 214.327 132.607 214.26 132.585 214.193C132.585 214.148 132.54 214.125 132.517 214.103C132.338 213.946 132.114 213.901 131.89 213.879C131.442 213.834 130.904 213.744 130.456 213.789C129.941 213.856 130.366 214.193 130.68 214.237Z" fill="#FF7513"/>
<path d="M134.131 212.198C133.593 212.064 133.078 211.885 132.517 211.885C132.517 211.974 132.607 212.019 132.697 212.019C133.414 212.221 134.019 212.714 134.736 212.983C134.87 212.758 134.982 212.557 135.094 212.333C134.758 212.333 134.444 212.288 134.131 212.198Z" fill="#FF7513"/>
<path d="M126.266 206.417C125.885 206.193 125.526 205.902 125.392 205.498C125.302 205.23 125.347 204.871 125.594 204.714C125.818 204.557 126.154 204.625 126.4 204.759C127.028 205.095 127.341 205.79 127.655 206.417C127.7 206.529 127.879 206.82 127.789 206.933C127.7 207.045 127.409 206.888 127.296 206.865C126.938 206.753 126.579 206.596 126.266 206.417Z" fill="#007F55"/>
<path d="M127.857 204.49C127.879 203.773 127.924 203.056 128.215 202.406C128.372 202.048 128.708 201.689 129.089 201.801C129.425 201.891 129.56 202.317 129.582 202.675C129.672 203.863 129.291 205.05 128.708 206.081C128.484 206.484 128.148 207 127.901 206.305C127.722 205.767 127.857 205.028 127.857 204.49Z" fill="#00AF51"/>
<path d="M129.873 205.14C130.053 204.961 130.209 204.804 130.433 204.692C130.658 204.602 130.926 204.58 131.106 204.736C131.375 204.961 131.352 205.386 131.128 205.678C130.971 205.879 130.747 206.036 130.523 206.171C130.232 206.35 128.596 207.358 128.35 206.91C128.17 206.507 129.627 205.409 129.873 205.14Z" fill="#007F55"/>
<path d="M125.437 222.192C123.935 222.057 122.905 205.095 128.394 206.103C132.495 206.888 126.938 222.326 125.437 222.192Z" fill="#FF800F"/>
<path d="M128.462 209.084C128.686 209.128 128.91 209.151 129.089 209.285C128.775 209.397 128.417 209.33 128.081 209.308C127.386 209.24 126.691 209.24 125.997 209.352C125.93 209.375 125.84 209.375 125.773 209.33C125.728 209.308 125.706 209.263 125.683 209.218C125.616 209.039 125.392 208.568 125.616 208.434C125.795 208.322 126.288 208.613 126.467 208.658C127.14 208.86 127.789 208.994 128.462 209.084Z" fill="#DF6617"/>
<path d="M125.638 212.221C125.571 212.221 125.504 212.221 125.437 212.243C125.369 212.266 125.347 212.355 125.369 212.4C125.392 212.445 125.459 212.445 125.504 212.467C126.512 212.579 127.543 212.445 128.506 212.131C128.641 212.086 129.089 211.997 129.111 211.84C129.156 211.616 128.91 211.66 128.775 211.683C128.282 211.817 127.812 211.997 127.319 212.086C126.781 212.198 126.199 212.243 125.638 212.221Z" fill="#DF6617"/>
<path d="M127.162 213.968C127.229 214.08 127.296 214.192 127.296 214.304C127.095 214.304 126.893 214.215 126.759 214.036C126.691 213.924 126.647 213.811 126.535 213.722C126.445 213.655 125.661 213.274 126.221 213.274C126.624 213.318 126.96 213.699 127.162 213.968Z" fill="#DF6617"/>
<path d="M134.781 215.806H115.645C115.645 215.806 113.718 221.901 118.714 226.068H131.733C136.708 221.901 134.781 215.806 134.781 215.806Z" fill="#00EEFF"/>
<path d="M135.005 216.859C133.929 219.279 130.03 225.71 118.692 226.068C118.692 226.068 118.692 226.068 118.714 226.091H131.733C135.43 222.976 135.296 218.786 135.005 216.859Z" fill="#00C8FF"/>
<path d="M153.267 220.847H149.502L147.665 216.03L151.071 212.803H151.945L150.69 216.388L153.267 220.847Z" fill="#58324C"/>
<path d="M166.016 220.847H169.803L171.641 216.03L168.235 212.803H167.361L168.616 216.388L166.016 220.847Z" fill="#58324C"/>
<path d="M165.904 219.122H153.401V220.847H165.904V219.122Z" fill="#FF9E00"/>
<path d="M163.103 217.442H156.045V219.122H163.103V217.442Z" fill="#FF800F"/>
<path d="M156.381 216.388C156.404 216.254 156.426 216.097 156.471 215.963C156.516 216.075 156.628 216.187 156.717 216.276C156.807 216.187 156.919 216.142 157.054 216.097C157.076 216.097 157.098 216.075 157.121 216.097C157.143 216.097 157.166 216.119 157.166 216.142C157.21 216.187 157.255 216.254 157.278 216.299C157.278 216.209 157.39 216.164 157.479 216.142C157.569 216.119 157.681 216.12 157.771 216.097C157.883 216.232 157.995 216.366 158.107 216.5C158.353 216.388 158.577 216.276 158.779 216.12C158.824 216.232 158.913 216.344 159.003 216.411C159.249 216.388 159.496 216.276 159.698 216.142C159.765 216.299 159.877 216.433 160.034 216.5C160.101 216.366 160.258 216.232 160.392 216.164C160.459 216.299 160.549 216.411 160.639 216.523C160.751 216.344 160.908 216.164 161.042 216.03C161.109 216.187 161.289 216.388 161.423 216.5C161.49 216.433 161.557 216.344 161.625 216.276C161.647 216.344 161.714 216.433 161.781 216.478C161.871 216.276 162.006 216.12 162.185 215.985C162.252 216.12 162.364 216.276 162.431 216.411C162.454 216.433 162.454 216.456 162.476 216.456C162.521 216.478 162.543 216.411 162.588 216.388C162.678 216.321 162.79 216.388 162.835 216.478C162.879 216.568 162.857 216.68 162.835 216.792C160.639 216.949 158.42 216.904 156.224 216.702C156.292 216.612 156.426 216.411 156.381 216.388Z" fill="#00FFFF"/>
<path d="M200.322 220.847H196.558L194.72 216.03L198.126 212.803H199L197.723 216.388L200.322 220.847Z" fill="#58324C"/>
<path d="M213.072 220.847H216.836L218.696 216.03L215.29 212.803H214.416L215.671 216.388L213.072 220.847Z" fill="#58324C"/>
<path d="M212.96 219.122H200.457V220.847H212.96V219.122Z" fill="#FF9E00"/>
<path d="M210.159 217.442H203.101V219.122H210.159V217.442Z" fill="#FF800F"/>
<path d="M203.571 217.128C203.482 216.859 203.549 216.119 203.751 215.94C203.751 216.254 203.952 216.523 204.221 216.635C204.311 216.366 204.512 216.142 204.781 216.03C205.005 216.187 205.185 216.366 205.341 216.612C205.61 216.411 205.834 216.164 205.969 215.873C206.171 216.075 206.327 216.366 206.35 216.68C206.529 216.433 206.753 216.231 207.022 216.097C207.156 216.299 207.246 216.478 207.403 216.657C207.537 216.478 207.694 216.344 207.896 216.231C208.053 216.366 208.187 216.523 208.344 216.657C208.479 216.411 208.658 216.209 208.882 216.03C208.971 216.276 209.084 216.545 209.173 216.792C209.352 216.456 209.532 216.119 209.644 215.739C209.756 216.052 209.823 216.388 209.845 216.747C209.845 216.836 209.845 216.949 209.778 216.993C209.733 217.016 209.666 217.038 209.621 217.038C208.792 217.061 207.963 217.061 207.134 217.083C206.731 217.083 206.35 217.105 205.946 217.061C205.162 216.971 204.333 216.926 203.571 217.128Z" fill="#00FFFF"/>
<path d="M171.282 212.87H145.962C143.609 212.87 141.704 210.966 141.704 208.613V197.947H175.54V208.613C175.54 210.966 173.635 212.87 171.282 212.87Z" fill="#514A72"/>
<path d="M175.54 199.717C175.54 199.717 147.665 201.241 141.704 206.395V197.969H175.54V199.717Z" fill="#44385F"/>
<path d="M178.542 194.922H138.702V197.947H178.542V194.922Z" fill="#CEDDE3"/>
<path d="M141.704 197.969H136.999V199.493H141.704V197.969Z" fill="#514A72"/>
<path d="M180.245 197.969H175.54V199.493H180.245V197.969Z" fill="#514A72"/>
<path d="M184.906 205.274C184.906 205.274 184.906 210.54 188.289 212.803H225.127C228.511 210.54 228.511 205.274 228.511 205.274H184.906Z" fill="#FF376D"/>
<path d="M225.329 208.747C221.363 210.137 217.173 210.809 212.982 211.235C210.607 211.481 208.21 211.638 205.834 211.817C203.168 211.996 200.457 212.22 197.857 212.803H225.127C227.099 211.481 227.928 209.128 228.264 207.403C227.144 207.829 225.889 208.546 225.329 208.747Z" fill="#DA376D"/>
<path d="M185.242 207.851H228.152C228.488 206.417 228.488 205.274 228.488 205.274H184.906C184.906 205.274 184.906 206.417 185.242 207.851Z" fill="#FF8FA4"/>
<path d="M234.493 220.847H135.318V229.922H234.493V220.847Z" fill="#FFBF00"/>
<path d="M234.493 224.657H135.318V229.922H234.493V224.657Z" fill="#FFA800"/>
<path d="M239.087 226.629H131.263V230.662H239.087V226.629Z" fill="#FF800F"/>
<path d="M199.224 223.671H170.543V226.629H199.224V223.671Z" fill="white"/>
<path d="M168.661 194.922L176.503 180.536C176.75 180.066 177.31 179.842 177.803 179.999L178.834 180.335C179.909 180.693 180.312 181.971 179.663 182.889L179.551 183.024C179.102 183.629 178.341 183.942 177.579 183.763C177.175 183.673 176.794 183.853 176.57 184.189C175.204 186.497 170.184 194.9 170.095 194.9C170.005 194.922 168.661 194.922 168.661 194.922Z" fill="#FFBF00"/>
<path d="M178.856 182.105C178.856 182.62 178.43 183.046 177.915 183.046C177.399 183.046 176.974 182.62 176.974 182.105C176.974 181.59 177.399 181.164 177.915 181.164C178.43 181.164 178.856 181.59 178.856 182.105Z" fill="#FF9A00"/>
<path d="M145.446 185.533C144.886 186.004 144.573 186.766 144.64 187.505C144.707 188.177 145.043 188.782 145.2 189.432C145.446 190.508 145.088 191.695 144.281 192.457C144.998 192.368 145.648 191.807 145.939 191.135C146.231 190.463 146.208 189.701 146.007 188.984C145.895 188.581 145.715 188.2 145.603 187.796C145.446 187.035 145.379 186.34 145.446 185.533Z" fill="#EEF2EB"/>
<path d="M152.594 185.533C152.034 186.004 151.721 186.766 151.788 187.505C151.855 188.177 152.191 188.782 152.348 189.432C152.594 190.508 152.236 191.695 151.429 192.457C152.146 192.368 152.796 191.807 153.087 191.135C153.379 190.463 153.356 189.701 153.155 188.984C153.043 188.581 152.863 188.2 152.751 187.796C152.572 187.035 152.527 186.34 152.594 185.533Z" fill="#EEF2EB"/>
<path d="M148.964 188.11C148.606 188.402 148.404 188.894 148.449 189.343C148.494 189.768 148.718 190.149 148.808 190.553C148.964 191.225 148.74 191.987 148.225 192.457C148.673 192.412 149.099 192.054 149.278 191.628C149.457 191.202 149.457 190.732 149.323 190.284C149.256 190.037 149.144 189.791 149.076 189.544C148.964 189.051 148.92 188.603 148.964 188.11Z" fill="#EEF2EB"/>
<path d="M156.157 186.654C155.799 186.945 155.597 187.438 155.642 187.886C155.687 188.312 155.911 188.693 156 189.096C156.157 189.768 155.933 190.53 155.418 191.001C155.866 190.956 156.292 190.597 156.471 190.172C156.65 189.746 156.65 189.275 156.516 188.827C156.448 188.581 156.336 188.334 156.269 188.088C156.135 187.595 156.112 187.147 156.157 186.654Z" fill="#EEF2EB"/>
<path d="M162.902 188.648C162.543 188.939 162.342 189.432 162.386 189.88C162.431 190.306 162.655 190.687 162.745 191.09C162.902 191.763 162.678 192.524 162.162 192.995C162.611 192.95 163.036 192.592 163.216 192.166C163.395 191.74 163.395 191.27 163.26 190.821C163.193 190.575 163.081 190.328 163.014 190.082C162.879 189.589 162.857 189.141 162.902 188.648Z" fill="#EEF2EB"/>
<path d="M159.72 185.533C159.16 186.004 158.846 186.766 158.913 187.505C158.981 188.177 159.317 188.782 159.474 189.432C159.72 190.508 159.361 191.695 158.555 192.457C159.272 192.368 159.922 191.807 160.213 191.135C160.504 190.463 160.482 189.701 160.28 188.984C160.168 188.581 159.989 188.2 159.877 187.796C159.72 187.035 159.653 186.34 159.72 185.533Z" fill="#EEF2EB"/>
<path d="M166.868 185.533C166.308 186.004 165.994 186.766 166.061 187.505C166.128 188.177 166.465 188.782 166.621 189.432C166.868 190.508 166.509 191.695 165.703 192.457C166.42 192.368 167.07 191.807 167.361 191.135C167.652 190.463 167.63 189.701 167.428 188.984C167.316 188.581 167.137 188.2 167.025 187.796C166.846 187.035 166.801 186.34 166.868 185.533Z" fill="#EEF2EB"/>
<path d="M192.838 197.32C193.197 197.656 193.241 198.216 193.152 198.709C193.062 199.202 192.838 199.65 192.704 200.121C192.457 201.062 192.614 202.115 193.129 202.944C192.48 202.294 192.188 201.353 192.121 200.434C192.099 200.188 192.099 199.941 192.144 199.695C192.188 199.403 192.3 199.157 192.412 198.888C192.569 198.35 192.748 197.857 192.838 197.32Z" fill="#EEF2EB"/>
<path d="M200.076 197.32C200.434 197.656 200.479 198.216 200.389 198.709C200.3 199.202 200.076 199.65 199.941 200.121C199.695 201.062 199.852 202.115 200.367 202.944C199.717 202.294 199.426 201.353 199.359 200.434C199.336 200.188 199.336 199.941 199.381 199.695C199.426 199.403 199.538 199.157 199.65 198.888C199.829 198.35 200.009 197.857 200.076 197.32Z" fill="#EEF2EB"/>
<path d="M207.336 197.32C207.694 197.656 207.739 198.216 207.649 198.709C207.56 199.202 207.336 199.65 207.201 200.121C206.955 201.062 207.112 202.115 207.627 202.944C206.977 202.294 206.686 201.353 206.619 200.434C206.596 200.188 206.596 199.941 206.641 199.695C206.686 199.403 206.798 199.157 206.91 198.888C207.067 198.35 207.246 197.857 207.336 197.32Z" fill="#EEF2EB"/>
<path d="M214.573 197.32C214.932 197.656 214.977 198.216 214.887 198.709C214.797 199.202 214.573 199.65 214.439 200.121C214.192 201.062 214.349 202.115 214.865 202.944C214.215 202.294 213.923 201.353 213.856 200.434C213.834 200.188 213.834 199.941 213.879 199.695C213.923 199.403 214.036 199.157 214.148 198.888C214.327 198.35 214.484 197.857 214.573 197.32Z" fill="#EEF2EB"/>
<path d="M221.811 197.32C222.17 197.656 222.214 198.216 222.125 198.709C222.035 199.202 221.811 199.65 221.677 200.121C221.43 201.062 221.587 202.115 222.102 202.944C221.452 202.294 221.161 201.353 221.094 200.434C221.072 200.188 221.072 199.941 221.116 199.695C221.161 199.403 221.273 199.157 221.385 198.888C221.565 198.35 221.744 197.857 221.811 197.32Z" fill="#EEF2EB"/>
<path d="M196.132 200.681C196.154 200.367 196.266 200.076 196.468 199.829C196.468 199.829 196.58 200.277 196.58 200.322C196.603 200.501 196.603 200.703 196.58 200.882C196.58 201.062 196.558 201.263 196.558 201.443C196.558 201.599 196.647 201.868 196.625 202.025C196.603 202.137 196.647 202.137 196.513 202.092C196.423 202.07 196.311 201.891 196.266 201.823C196.132 201.51 196.087 201.039 196.132 200.681Z" fill="#EEF2EB"/>
<path d="M189.029 199.807C189.051 199.493 189.163 199.202 189.365 198.955C189.365 198.955 189.477 199.403 189.477 199.448C189.499 199.628 189.499 199.829 189.477 200.008C189.477 200.188 189.455 200.389 189.455 200.569C189.455 200.725 189.544 200.994 189.522 201.151C189.499 201.263 189.544 201.263 189.41 201.218C189.32 201.196 189.208 201.039 189.163 200.95C189.029 200.636 189.006 200.165 189.029 199.807Z" fill="#EEF2EB"/>
<path d="M203.258 200.681C203.28 200.367 203.392 200.076 203.594 199.829C203.594 199.829 203.706 200.277 203.706 200.322C203.728 200.501 203.728 200.703 203.706 200.882C203.706 201.062 203.683 201.263 203.683 201.443C203.683 201.599 203.773 201.868 203.751 202.025C203.728 202.137 203.773 202.137 203.639 202.092C203.549 202.07 203.437 201.891 203.392 201.823C203.258 201.51 203.235 201.039 203.258 200.681Z" fill="#EEF2EB"/>
<path d="M210.383 200.681C210.406 200.367 210.518 200.076 210.719 199.829C210.719 199.829 210.831 200.277 210.831 200.322C210.854 200.501 210.854 200.703 210.831 200.882C210.831 201.062 210.809 201.263 210.809 201.443C210.809 201.599 210.899 201.868 210.876 202.025C210.854 202.137 210.899 202.137 210.764 202.092C210.674 202.07 210.562 201.891 210.518 201.823C210.383 201.51 210.361 201.039 210.383 200.681Z" fill="#EEF2EB"/>
<path d="M217.509 200.681C217.531 200.367 217.643 200.076 217.845 199.829C217.845 199.829 217.957 200.277 217.957 200.322C217.979 200.501 217.979 200.703 217.957 200.882C217.957 201.062 217.934 201.263 217.934 201.443C217.934 201.599 218.024 201.868 218.002 202.025C217.979 202.137 218.024 202.137 217.89 202.092C217.8 202.07 217.688 201.891 217.643 201.823C217.509 201.51 217.486 201.039 217.509 200.681Z" fill="#EEF2EB"/>
<path d="M224.634 200.681C224.657 200.367 224.769 200.076 224.97 199.829C224.97 199.829 225.082 200.277 225.082 200.322C225.105 200.501 225.105 200.703 225.082 200.882C225.082 201.062 225.06 201.263 225.06 201.443C225.06 201.599 225.15 201.868 225.127 202.025C225.105 202.137 225.15 202.137 225.015 202.092C224.926 202.07 224.813 201.891 224.769 201.823C224.634 201.51 224.612 201.039 224.634 200.681Z" fill="#EEF2EB"/>
<path d="M8.53723 220.735L4.07816 212.176L6.16204 211.078L11.9432 222.169L10.3298 221.968C9.56797 221.901 8.89575 221.43 8.53723 220.735Z" fill="#63573F"/>
<path d="M10.8676 221.497C10.1057 221.408 9.43352 220.937 9.075 220.265L4.70556 211.862L4.10056 212.176L8.55963 220.735C8.91815 221.43 9.59037 221.878 10.3522 221.968L11.9656 222.169L11.6519 221.609L10.8676 221.497Z" fill="#767F5D"/>
<path d="M2.28556 206.171L5.1313 211.638L6.18445 211.1L3.33871 205.633C3.22667 205.431 3.0026 205.364 2.80093 205.454L2.46482 205.633C2.26315 205.745 2.17353 205.969 2.28556 206.171Z" fill="#58324C"/>
<path d="M11.8087 218.808L9.52316 214.484L12.9291 212.691L17.0072 220.422C15.125 221.408 12.7946 220.668 11.8087 218.808Z" fill="#B2C8CF"/>
<path d="M12.9186 212.667L10.8374 213.764L14.9123 221.495L16.9936 220.398L12.9186 212.667Z" fill="#9AADD1"/>
<path d="M11.5622 213.386C11.5622 213.386 11.3382 211.369 10.2402 210.092C9.14224 208.815 8.47001 209.128 8.31316 208.053C8.15631 207 9.41112 206.619 10.0161 207.156L12.9291 212.669L11.5622 213.386Z" fill="#58324C"/>
<path d="M17.0745 211.167L20.682 219.727C20.682 219.727 19.6065 219.996 18.9343 219.458C18.262 218.92 15.8869 214.394 15.7972 213.655C15.6852 212.938 16.1782 212.333 16.1782 212.333L15.9989 211.616C15.9989 211.638 16.6935 211.391 17.0745 211.167Z" fill="#B2C8CF"/>
<path d="M17.0969 211.212L17.0744 211.167C16.9624 211.235 16.828 211.302 16.6711 211.369C16.7607 211.347 16.9176 211.279 17.0969 211.212Z" fill="#D0E1E7"/>
<path d="M19.5841 219.211C18.9119 218.674 16.5367 214.147 16.4471 213.408C16.335 212.691 16.828 212.086 16.828 212.086L16.6487 211.369C16.3126 211.503 15.9989 211.615 15.9989 211.615L16.1782 212.332C16.1782 212.332 15.6852 212.937 15.7972 213.654C15.9093 214.371 18.2845 218.92 18.9343 219.458C19.6065 219.996 20.682 219.727 20.682 219.727L20.5924 219.525C20.2787 219.548 19.8978 219.458 19.5841 219.211Z" fill="#D0E1E7"/>
<path d="M16.1782 212.355C16.4695 212.31 16.9176 212.176 17.3433 211.795L15.5732 207.246C15.4163 207.336 15.2146 207.425 15.013 207.493C14.7217 207.605 14.5648 207.963 14.6769 208.254L16.1782 212.355Z" fill="#58324C"/>
<path d="M28.5695 219.144H6.90149L9.63519 225.777H31.3032L28.5695 219.144Z" fill="#FF9E00"/>
<path d="M9.6352 225.777H31.3032L30.1828 223.066H8.51483L9.6352 225.777Z" fill="#FF830D"/>
<path d="M9.6352 225.777H21.8248C13.6461 224.657 8.91817 221.385 7.23761 219.996L9.6352 225.777Z" fill="#FF9503"/>
<path d="M8.51483 223.066L9.6352 225.777H21.8248C17.8139 225.239 14.6545 224.164 12.2569 223.066H8.51483Z" fill="#F47214"/>
<path d="M242.448 225.508H0.448151V235.278H242.448V225.508Z" fill="#2E3552"/>
<path opacity="0.71" d="M101.685 23.6174C105.001 21.3991 106.659 20.3011 108.004 19.6513C115.914 15.9541 126.938 16.6039 135.341 21.8696C143.609 27.0233 146.589 34.8883 148.494 39.93C153.58 53.3072 151.205 66.7741 146.679 74.7511C144.326 78.8965 141.817 80.8011 140.719 81.5629C137.559 83.7141 133.727 84.7448 129.268 84.812C120.104 84.9465 113.202 80.1961 108.721 77.0591C108.676 77.0366 105.875 74.5942 100.251 69.7094C95.5452 65.6313 89.6297 60.4328 87.2993 55.2791C86.515 53.5761 85.9549 51.6939 85.9549 51.6939C85.4395 49.9461 84.8793 48.1535 84.8793 45.8455C84.8569 43.3807 85.4395 41.5209 85.7532 40.535C86.2686 38.9441 87.1649 36.8378 89.316 34.0817C90.2795 32.8044 93.0804 29.3761 101.685 23.6174Z" fill="#CEEBD3"/>
<path d="M128.26 71.883H115.981L115.107 76.2524H129.134L128.26 71.883Z" fill="#C9C6CA"/>
<path d="M115.981 71.883L115.107 76.2524H120.373L121.247 71.883H115.981Z" fill="#B7B2B8"/>
<path d="M128.26 28.9056H115.981C113.068 28.9056 110.715 31.2584 110.715 34.1713V67.4911C110.715 70.4041 113.068 72.7569 115.981 72.7569H128.26C131.173 72.7569 133.526 70.4041 133.526 67.4911V34.1713C133.526 31.2584 131.173 28.9056 128.26 28.9056Z" fill="#BE8282"/>
<path d="M118.603 67.4911V34.1713C118.603 31.2584 120.955 28.9056 123.868 28.9056H115.981C113.068 28.9056 110.715 31.2584 110.715 34.1713V67.4911C110.715 70.4041 113.068 72.7569 115.981 72.7569H123.868C120.978 72.7569 118.603 70.4041 118.603 67.4911Z" fill="#AF7373"/>
<path d="M129.963 28.323V22.6987H130.904C131.352 22.6987 131.733 22.3402 131.733 21.8697C131.733 21.3991 131.375 21.0406 130.904 21.0406H113.359C112.911 21.0406 112.53 21.3991 112.53 21.8697C112.53 22.3402 112.889 22.6987 113.359 22.6987H114.3V28.323C111.768 29.0624 109.908 31.3928 109.908 34.1713V67.4911C109.908 70.4937 112.104 73.0034 114.972 73.4963L114.323 76.0732C114.255 76.3197 114.323 76.5886 114.479 76.7678C114.636 76.9471 114.883 77.0815 115.129 77.0815H129.156C129.403 77.0815 129.649 76.9695 129.806 76.7678C129.963 76.5661 130.008 76.3197 129.963 76.0732L129.313 73.4963C132.181 73.0034 134.377 70.5161 134.377 67.4911V34.1713C134.332 31.3928 132.495 29.0624 129.963 28.323ZM115.914 22.6987H128.305V28.0765C128.282 28.0765 128.26 28.0765 128.238 28.0765H122.927V26.2167H124.294C124.742 26.2167 125.123 25.8582 125.123 25.3876C125.123 24.9395 124.764 24.5586 124.294 24.5586H119.902C119.454 24.5586 119.073 24.9171 119.073 25.3876C119.073 25.8358 119.432 26.2167 119.902 26.2167H121.269V28.0765H115.958C115.936 28.0765 115.914 28.0765 115.891 28.0765V22.6987H115.914ZM128.26 71.9278H121.247C120.798 71.9278 120.417 72.2863 120.417 72.7569C120.417 73.205 120.776 73.586 121.247 73.586H127.633L128.103 75.4458H116.182L116.653 73.586H117.773C118.222 73.586 118.602 73.2274 118.602 72.7569C118.602 72.3087 118.244 71.9278 117.773 71.9278H116.026C113.583 71.9278 111.589 69.9336 111.589 67.4911V51.6491H126.557C127.005 51.6491 127.386 51.2906 127.386 50.82C127.386 50.3719 127.028 49.991 126.557 49.991H111.589V34.1489C111.589 31.7065 113.583 29.7123 116.026 29.7123H128.305C130.747 29.7123 132.742 31.7065 132.742 34.1489V49.991H130.053C129.604 49.991 129.224 50.3495 129.224 50.82C129.224 51.2682 129.582 51.6491 130.053 51.6491H132.742V67.4911C132.697 69.9336 130.702 71.9278 128.26 71.9278Z" fill="black"/>
</g>
<defs>
<clipPath id="clip0">
<rect width="242" height="242" fill="white"/>
</clipPath>
</defs>
</svg>

