<svg width="242" height="242" viewBox="0 0 242 242" fill="none" xmlns="http://www.w3.org/2000/svg">
<path opacity="0.71" d="M17.7018 223.178C10.3074 208.59 -6.87909 169.557 4.2798 123.846C6.76703 113.65 18.3292 66.3259 51.7611 54.8981C56.1305 53.3968 63.7715 52.8591 79.0981 51.7611C103.276 50.0357 120.686 51.3802 133.996 52.4557C150.981 53.845 159.608 54.6068 166.487 58.0352C174.957 62.2478 177.355 66.3483 189.119 71.2555C198.911 75.3561 201.375 74.2357 208.165 77.7537C218.226 82.9746 223.559 91.1533 227.435 96.8C238.885 113.426 240.006 129.963 241.552 152.818C241.821 156.762 243.031 176.929 237.519 201.667C234.919 213.296 232.858 216.881 230.483 219.615C220.422 231.155 202.294 229.9 188.222 229.452C143.609 228.085 155.776 235.591 107.556 234.157C84.207 233.463 53.4192 230.863 17.7018 223.178Z" fill="#CEEBD3"/>
<path d="M70.4265 171.686C70.785 171.686 71.1435 171.73 71.4796 171.842V163.776C71.4796 162.678 71.0091 161.692 70.2472 161.02C69.5974 160.437 68.7235 160.078 67.7824 160.078H10.9572H9.52315C7.48407 160.078 5.82592 161.737 5.82592 163.776V171.686H70.4265Z" fill="#F99746"/>
<path d="M19.853 177.332H56.758L62.0013 177.243L62.0237 177.332H63.9283H67.7824C69.8215 177.332 71.4796 175.674 71.4796 173.635V171.842C71.1435 171.753 70.785 171.686 70.4265 171.686H5.82592V173.635C5.82592 175.674 7.48407 177.332 9.52315 177.332H14.5872L14.6096 177.243L19.853 177.332Z" fill="#ED7D2B"/>
<path d="M17.2313 187.281C17.0744 187.348 12.3017 189.835 11.495 194.227C11.495 194.272 11.4726 194.295 11.4726 194.339L5.1537 228.667H6.29648L17.2313 187.281Z" fill="#E8C6A7"/>
<path d="M17.2313 187.281L19.8529 177.332L14.6096 177.243L14.5872 177.332L11.4726 194.227C12.3017 189.836 17.0744 187.348 17.2313 187.281Z" fill="#C69D7B"/>
<path d="M69.7991 219.593L65.1607 194.339C65.1607 194.295 65.1383 194.272 65.1383 194.227L63.7939 186.945C62.8304 188.357 61.4859 191.001 61.4187 194.944L61.822 196.468L67.9617 219.705L70.3144 228.645H71.4572L69.7991 219.593Z" fill="#E8C6A7"/>
<path d="M59.402 187.281L61.4187 194.944C61.4859 191.001 62.8304 188.357 63.7939 186.945L63.1665 183.539L62.0237 177.332L62.0013 177.243L56.758 177.332L59.402 187.281Z" fill="#C69D7B"/>
<path d="M182.419 176.862C182.419 176.862 181.231 177.87 175.495 178.968C169.759 180.088 167.182 179.371 167.182 179.371C167.182 179.371 169.064 174.957 173.523 174.442C177.982 173.926 181.993 175.696 182.419 176.862Z" fill="#002254"/>
<path d="M149.166 176.189C149.166 176.189 149.726 173.164 156.762 173.68C162.7 174.106 163.686 177.198 163.865 178.139C163.776 178.273 162.342 180.044 155.664 178.385C148.696 176.682 149.166 176.189 149.166 176.189Z" fill="#002254"/>
<path d="M159.653 171.798C159.653 171.798 160.437 178.453 160.146 190.082C159.854 201.711 155.44 213.363 155.44 213.363L150.376 211.279C150.376 211.279 153.961 201.375 154.297 189.455C154.611 178.049 154.185 171.954 154.185 171.954L159.653 171.798Z" fill="#F4D9BF"/>
<path d="M154.387 177.646C154.32 173.904 154.185 171.954 154.185 171.954L159.675 171.775C159.675 171.775 159.944 174.038 160.101 178.206C158.264 177.422 156.336 177.355 154.387 177.646Z" fill="#EFCAA6"/>
<path d="M158.712 201.644C157.322 208.366 155.44 213.363 155.44 213.363L150.376 211.279C150.376 211.279 151.967 206.865 153.132 200.389C155.082 200.389 156.986 200.703 158.712 201.644Z" fill="#F3F4EF" stroke="#BFBFBE" stroke-width="0.1053" stroke-miterlimit="10"/>
<path d="M154.029 212.019C154.029 212.019 152.617 210.697 151.183 210.54C151.183 210.54 150.914 210.092 150.936 209.352C150.936 209.352 148.875 208.747 148.203 210.809C147.53 212.893 146.612 216.881 147.553 218.36C148.516 219.839 153.087 221.699 158.622 221.721C164.157 221.744 169.736 221.295 169.176 218.517C168.593 215.738 167.675 214.035 163.91 213.767C160.146 213.498 158.6 213.229 157.726 212.646C156.874 212.086 155.731 210.316 154.029 212.019Z" fill="#6E8D00"/>
<path d="M161.333 218.382C161.647 216.164 162.79 214.237 165.12 213.946C167.899 214.484 168.683 216.075 169.176 218.539C169.669 220.982 166.129 221.811 161.49 221.945C161.176 220.78 161.154 219.57 161.333 218.382Z" fill="#FFAB05"/>
<path d="M148.471 214.349C149.345 215.895 149.211 217.71 148.696 219.368C148.158 219.032 147.777 218.696 147.553 218.36C146.925 217.374 147.127 215.29 147.508 213.408C147.911 213.655 148.225 213.946 148.471 214.349Z" fill="#FF863E"/>
<path d="M158.958 213.923C158.398 214.484 158.151 215.133 157.815 215.828C157.569 216.344 157.076 216.612 156.695 216.097C156.292 215.582 156.941 214.416 157.233 214.036C157.546 213.632 157.927 213.296 158.331 213.005C158.712 213.162 160.101 213.475 160.885 213.565C160.527 213.699 159.249 213.655 158.958 213.923Z" fill="#FF863E"/>
<path d="M155.978 213.655C155.754 214.035 155.575 214.439 155.351 214.82C155.239 215.021 154.185 216.366 153.916 215.582C153.648 214.775 154.208 213.856 154.746 213.296C155.463 212.557 156.292 212.288 157.21 212.243C157.345 212.377 157.479 212.489 157.614 212.579C156.964 212.803 156.426 212.915 155.978 213.655Z" fill="#FF863E"/>
<path d="M151.071 210.293C150.555 210.898 149.973 211.414 149.121 211.19C148.785 211.1 148.494 210.966 148.225 210.786C148.897 208.747 150.936 209.352 150.936 209.352C150.936 209.778 151.004 210.092 151.071 210.293Z" fill="#FF863E"/>
<path d="M157.345 220.354C160.885 220.78 166.375 221.072 169.154 218.517V218.539C169.714 221.318 164.134 221.766 158.6 221.744C153.065 221.721 148.494 219.861 147.53 218.383C147.239 217.934 147.127 217.285 147.127 216.5C149.95 218.808 154.006 219.951 157.345 220.354Z" fill="#F3F4EF" stroke="#BFBFBE" stroke-width="0.2105" stroke-miterlimit="10"/>
<path d="M178.049 171.372C178.049 171.372 180.156 177.736 182.15 189.186C184.144 200.636 182.15 212.938 182.15 212.938L176.772 211.907C176.772 211.907 178.318 201.487 176.301 189.746C174.352 178.497 172.739 172.627 172.739 172.627L178.049 171.372Z" fill="#F4D9BF"/>
<path d="M174.038 178.139C173.232 174.486 172.716 172.604 172.716 172.604L178.049 171.349C178.049 171.349 178.766 173.5 179.752 177.556C177.803 177.153 175.898 177.467 174.038 178.139Z" fill="#EFCAA6"/>
<path d="M183.024 200.793C183.001 207.649 182.127 212.915 182.127 212.915L176.75 211.884C176.75 211.884 177.444 207.246 177.287 200.658C179.237 200.3 181.141 200.233 183.024 200.793Z" fill="#F3F4EF" stroke="#BFBFBE" stroke-width="0.1053" stroke-miterlimit="10"/>
<path d="M180.492 211.907C180.492 211.907 178.856 210.898 177.399 211.033C177.399 211.033 177.063 210.652 176.929 209.912C176.929 209.912 174.778 209.711 174.531 211.884C174.285 214.058 174.173 218.158 175.405 219.413C176.638 220.668 184.099 221.026 189.522 219.951C194.944 218.875 199.381 217.307 198.283 214.685C197.185 212.064 195.93 210.607 192.188 211.078C188.446 211.571 185.197 212.22 184.234 211.817C183.293 211.414 181.836 209.89 180.492 211.907Z" fill="#6E8D00"/>
<path d="M187.684 212.467C187.46 212.87 187.236 213.386 186.9 213.699C186.116 214.372 185.085 213.543 185.713 212.713C185.937 212.4 186.273 212.176 186.586 211.952C186.654 211.907 186.699 211.884 186.766 211.84C187.281 211.772 187.864 211.705 188.491 211.615C188.177 211.84 187.886 212.131 187.684 212.467Z" fill="#FF863E"/>
<path d="M184.637 212.601C184.435 212.893 184.211 213.206 183.965 213.453C183.786 213.61 183.584 213.811 183.36 213.879C182.822 213.767 182.643 213.498 182.777 213.072C182.934 212.4 183.337 211.952 183.808 211.571C183.965 211.66 184.122 211.75 184.279 211.817C184.48 211.907 184.816 211.952 185.242 211.952C184.996 212.131 184.816 212.355 184.637 212.601Z" fill="#FF863E"/>
<path d="M190.597 216.075C190.463 213.834 191.202 211.728 193.421 210.988C196.244 210.966 197.342 212.377 198.306 214.685C199.291 216.993 195.975 218.495 191.449 219.548C190.911 218.45 190.665 217.285 190.597 216.075Z" fill="#FFAB05"/>
<path d="M175.495 215.29C176.66 216.635 176.906 218.45 176.727 220.175C176.145 219.951 175.696 219.682 175.405 219.413C174.599 218.584 174.374 216.5 174.397 214.551C174.823 214.708 175.204 214.932 175.495 215.29Z" fill="#FF863E"/>
<path d="M177.265 210.809C176.884 211.504 176.414 212.131 175.54 212.086C175.204 212.064 174.89 211.974 174.576 211.862C174.845 209.733 176.951 209.935 176.951 209.935C177.019 210.316 177.153 210.607 177.265 210.809Z" fill="#FF863E"/>
<path d="M191.964 153.827C191.964 153.827 198.194 151.183 196.558 141.749C196.558 141.749 190.53 145.088 191.964 153.827Z" fill="#203600"/>
<path d="M158.51 128.82C158.51 128.82 155.418 131.845 157.883 138.007C157.883 138.007 160.728 136.752 160.684 133.033C160.616 129.336 158.51 128.82 158.51 128.82Z" fill="#203600"/>
<path d="M179.909 163.91C179.909 163.91 179.326 165.905 178.699 167.115C178.699 167.115 182.015 173.859 182.419 176.884C182.419 176.884 178.251 173.568 167.182 179.394L165.299 171.125C165.299 171.125 164.739 170.789 164.627 171.977C164.515 173.187 163.888 178.43 163.888 178.43C163.888 178.43 161.669 175.741 157.39 175.405C153.11 175.069 149.166 176.212 149.166 176.212C149.166 176.212 147.799 160.28 152.415 155.373L179.909 163.91Z" fill="#3F3F3F"/>
<path d="M156.919 159.967C156.18 161.266 154.97 162.252 153.536 162.7C152.236 163.104 150.847 163.193 149.502 162.969C149.973 159.877 150.847 156.986 152.393 155.351L157.905 157.054C157.681 158.084 157.412 159.093 156.919 159.967Z" fill="#005587"/>
<path opacity="0.5" d="M163.507 174.442C163.641 173.545 164.179 171.977 163.664 171.081C163.462 170.722 163.081 170.476 162.7 170.252C165.927 170.7 169.198 169.983 172.223 168.75C171.349 169.602 170.319 170.296 169.198 170.767C169.109 170.812 169.042 170.879 169.086 170.969C169.602 172.38 169.938 173.904 170.184 175.383C170.296 176.033 170.386 176.66 170.431 177.31C170.453 177.444 170.476 177.624 170.498 177.803C169.467 178.229 168.369 178.744 167.204 179.371L165.322 171.103C165.322 171.103 164.762 170.767 164.65 171.955C164.538 173.165 163.91 178.408 163.91 178.408C163.91 178.408 163.597 178.049 163.014 177.579C163.171 176.526 163.35 175.472 163.507 174.442Z" fill="#005587"/>
<path opacity="0.5" d="M180.536 171.125C180.268 170.632 179.976 170.139 179.663 169.669C179.035 168.683 178.139 167.697 177.87 166.532C177.848 166.442 177.736 166.375 177.668 166.42C176.436 166.846 175.069 167.047 173.769 166.89C175.204 166.532 177.175 166.644 177.713 165.098C177.736 165.008 177.668 164.919 177.601 164.896C176.75 164.605 175.876 164.56 174.957 164.515C173.837 164.47 172.784 164.291 171.686 164.022C169.915 163.597 168.19 163.036 166.509 162.364C163.709 161.266 161.109 159.832 159.249 157.502L179.909 163.933C179.909 163.933 179.326 165.927 178.699 167.137C178.721 167.114 179.618 168.929 180.536 171.125Z" fill="#005587"/>
<path d="M161.199 129.246C161.199 129.246 151.519 127.7 134.915 136.17C134.915 136.17 132.854 134.713 128.238 136.17C123.622 137.626 124.563 139.755 125.661 139.262C125.661 139.262 123.017 141.436 123.599 142.556C124.204 143.676 124.966 142.466 125.818 141.861C126.669 141.256 128.462 140.539 129.582 140.651C129.582 140.651 127.274 141.346 125.907 143.609C124.54 145.872 125.056 146.522 125.661 146.858C126.266 147.194 127.364 145.693 128.103 144.326C128.82 142.959 130.882 142.825 130.882 142.825C130.882 142.825 129.851 142.959 129.044 146.679C128.238 150.398 129.806 150.107 130.59 148.696C131.352 147.284 131.352 144.886 132.988 144.505C134.624 144.124 136.842 144.326 136.461 145.267C136.08 146.208 134.87 146.858 135.811 147.799C136.752 148.74 138.388 146.813 138.926 144.707C139.486 142.601 139.486 141.66 138.186 140.203C138.186 140.203 147.037 133.951 160.437 134.086L161.199 129.246Z" fill="#EFCAA6" stroke="#C9976D" stroke-width="0.1579" stroke-miterlimit="10"/>
<path d="M124.563 140.136C126.221 138.097 128.731 137.357 131.263 137.761C131.307 137.761 131.307 137.828 131.263 137.828C130.03 137.694 128.753 137.918 127.588 138.321C126.423 138.724 125.616 139.531 124.608 140.181C124.585 140.226 124.54 140.181 124.563 140.136Z" fill="#EFCAA6" stroke="#C9976D" stroke-width="0.1579" stroke-miterlimit="10"/>
<path d="M197.79 143.318C197.79 143.318 192.144 147.015 191.964 153.827L185.354 150.242C185.354 150.242 183.808 158.981 181.186 165.479C181.186 165.479 179.752 164.336 175.069 163.888C170.386 163.44 159.72 164.291 151.721 155.552C151.721 155.552 157.031 143.564 162.857 138.321C162.857 138.321 160.123 137.582 157.883 138.03C157.883 138.03 161.02 132.831 158.51 128.843C158.51 128.843 169.064 127.185 178.565 135.005C178.565 135.005 181.567 138.097 184.973 138.097C188.424 138.074 192.749 139.553 197.79 143.318Z" fill="#54B669"/>
<path d="M186.004 140.831C183.83 141.01 181.612 140.898 179.528 140.136C178.072 139.598 176.615 138.859 175.45 137.828C174.285 136.797 173.411 135.453 172.604 134.153C171.82 132.921 171.013 131.688 170.207 130.456C170.162 130.366 170.095 130.299 170.05 130.209C172.783 131.151 175.741 132.629 178.587 134.982C178.587 134.982 181.59 138.074 184.996 138.074C186.676 138.074 188.581 138.433 190.665 139.24C189.544 140.405 187.483 140.719 186.004 140.831Z" fill="#00BD7E"/>
<path d="M182.508 158.398C183.405 155.732 184.122 153.02 184.704 150.264C185.242 147.71 185.802 145.178 185.959 142.578C186.161 143.609 186.206 144.707 186.183 145.738C186.161 146.612 186.228 147.037 186.923 147.62C188.558 149.009 190.306 150.421 192.278 151.317C192.099 152.102 191.987 152.931 191.942 153.804L185.332 150.219C185.332 150.219 183.786 158.958 181.164 165.456C181.164 165.456 180.805 165.165 179.842 164.829C180.895 162.745 181.769 160.594 182.508 158.398Z" fill="#00BD7E"/>
<path d="M162.857 138.299C162.857 138.299 160.123 137.559 157.883 138.007C157.883 138.007 158.6 136.82 159.07 135.139C159.518 135.251 159.966 135.363 160.437 135.475C162.252 135.856 164.134 136.103 165.994 135.879C167.316 135.722 168.593 135.318 169.871 134.982C168.324 136.237 167.137 137.962 166.039 139.598C164.358 142.108 162.655 144.617 161.109 147.217C159.339 150.197 157.591 153.222 155.866 156.247C155.485 156.942 155.104 157.636 154.723 158.331C153.692 157.524 152.684 156.628 151.698 155.552C151.721 155.53 157.031 143.542 162.857 138.299Z" fill="#50A562"/>
<path d="M183.36 138.231C183.36 138.231 181.814 141.66 178.654 140.45C175.495 139.262 178.565 134.96 178.565 134.96L183.36 138.231Z" fill="#C9976D"/>
<path d="M166.353 116.586C166.935 118.827 168.145 120.597 169.602 122.367C170.61 123.577 171.641 124.787 172.582 126.042C172.604 126.131 172.649 126.199 172.671 126.288C173.613 128.708 175.091 130.994 177.063 132.719C177.265 135.184 178.587 137.626 180.85 138.657C182.844 139.553 185.04 139.083 186.945 138.119C188.827 138.59 190.866 138.747 192.771 138.702C194.877 138.657 197.073 138.478 199.112 137.94C200.86 137.492 202.563 136.752 203.907 135.52C205.364 134.198 206.193 132.495 206.664 130.613C207.156 128.641 207.425 126.535 208.456 124.742C209.375 123.129 210.831 121.852 211.548 120.171C216.164 109.371 204.176 99.1304 195.953 96.2847C193.466 95.4108 190.015 94.8954 187.393 94.5817C179.999 93.7078 173.366 98.2341 169.019 104.553C166.666 107.959 165.277 112.485 166.353 116.586Z" fill="#F4D9BF"/>
<path d="M183.92 128.35C186.519 127.274 191.135 125.706 192.771 128.977C192.838 129.111 192.637 129.246 192.547 129.134C192.524 129.111 192.502 129.089 192.502 129.067C192.569 129.223 192.614 129.38 192.637 129.537C192.749 130.411 191.897 131.375 191.471 132.047C190.911 132.943 190.665 133.929 190.194 134.87C189.791 135.677 189.141 136.349 188.424 136.864C185.713 138.814 181.635 137.469 179.775 134.982C177.422 131.868 181.478 129.358 183.92 128.35Z" fill="#333333"/>
<path d="M191.001 128.977C190.553 129.38 190.06 129.985 189.455 130.142C188.357 130.433 186.9 129.985 185.825 129.672C184.906 129.403 183.987 129.089 183.113 128.708C183.405 128.574 183.674 128.439 183.92 128.35C186.161 127.408 189.903 126.131 191.942 127.901C191.673 128.282 191.359 128.641 191.001 128.977Z" fill="white"/>
<path d="M180.828 131.554C182.083 131.845 183.315 132.473 184.054 133.571C184.951 134.893 185.085 136.304 184.951 137.806C182.934 137.671 180.917 136.551 179.752 135.005C178.744 133.66 178.923 132.428 179.663 131.375C180.044 131.397 180.447 131.464 180.828 131.554Z" fill="#F9CBC0"/>
<path d="M160.773 111.992C160.908 113.068 161.109 114.211 161.871 115.017C161.871 115.017 161.871 115.017 161.871 115.04C161.871 115.084 161.916 115.084 161.938 115.107L161.961 115.129C162.028 115.197 162.118 115.107 162.073 115.04C162.073 115.017 162.05 115.017 162.05 114.995C162.14 113.874 162.543 113.001 163.059 112.172C162.723 113.269 162.588 114.412 162.79 115.577C163.104 117.213 163.91 118.737 164.874 120.081C165.927 121.538 167.137 122.882 168.459 124.115C169.198 124.787 169.96 125.526 170.812 126.064C171.551 126.535 172.335 126.916 173.12 127.297C173.142 127.297 173.142 127.297 173.164 127.297C173.187 127.319 173.187 127.319 173.209 127.341C173.276 127.409 173.389 127.319 173.321 127.252C171.686 124.787 171.574 121.515 171.551 118.647C171.798 118.423 172.022 118.177 172.223 117.953C172.313 117.863 172.201 117.751 172.111 117.818C171.125 118.49 170.095 119.499 169.355 117.908C169.086 117.348 168.974 116.72 168.907 116.093C168.773 114.591 168.907 112.754 169.803 111.477C170.229 110.849 170.879 110.289 171.686 110.312C172.537 110.334 173.389 110.625 173.792 111.41C174.464 112.754 174.106 114.412 173.59 115.757C173.568 115.824 173.657 115.891 173.702 115.824C173.859 115.6 174.016 115.353 174.15 115.084C174.173 115.869 174.374 116.72 174.397 117.437C174.397 117.504 174.486 117.527 174.531 117.46C174.576 117.46 174.599 117.46 174.621 117.415C175.248 115.421 176.548 113.718 177.668 111.97C178.453 110.737 179.102 109.46 179.73 108.138C179.775 108.967 179.819 109.796 180.088 110.558C180.111 110.625 180.223 110.603 180.223 110.536C180.223 110.513 180.223 110.513 180.223 110.513C180.962 109.707 181.478 108.676 182.06 107.757C182.643 106.816 183.203 105.897 183.674 104.912C184.211 103.814 184.659 102.693 184.906 101.528C184.996 102.335 185.152 103.097 185.421 103.791C185.466 103.903 185.645 103.836 185.623 103.724C185.623 103.679 185.601 103.612 185.601 103.567C186.34 102.581 187.191 101.304 187.64 100.004C188.088 100.542 188.536 101.057 189.006 101.528C189.836 102.379 190.777 103.029 191.763 103.701C191.852 103.746 191.942 103.657 191.875 103.567C191.875 103.567 191.875 103.567 191.875 103.545C191.763 102.984 191.74 102.357 191.628 101.752C192.188 102.223 192.749 102.693 193.286 103.209C194.295 104.194 195.281 105.203 196.266 106.234C198.306 108.34 200.277 110.558 202.518 112.485C202.585 112.552 202.675 112.44 202.63 112.373C202.653 112.351 202.675 112.328 202.653 112.284C202.473 111.006 202.63 109.684 202.384 108.407C202.272 107.824 202.137 107.242 201.958 106.682C202.003 106.727 202.07 106.794 202.115 106.839C203.101 107.824 204.042 108.833 205.005 109.841C205.969 110.849 206.91 111.88 207.761 113.001C208.613 114.099 209.33 115.286 210.114 116.451C210.181 116.563 210.338 116.451 210.294 116.339C210.294 116.317 210.271 116.294 210.271 116.272C210.294 116.272 210.316 116.25 210.316 116.227C210.518 114.323 210.361 112.239 209.823 110.312C210.383 110.872 210.921 111.432 211.436 112.037C212.87 113.695 214.215 115.421 215.761 116.967C215.851 117.056 215.985 116.944 215.918 116.855C215.895 116.832 215.873 116.787 215.851 116.765C215.716 114.883 215.29 113.045 214.551 111.32C214.282 110.67 213.968 109.953 213.632 109.281C213.677 109.326 213.722 109.348 213.744 109.371C214.551 110.065 215.313 110.782 216.052 111.544C217.441 113.023 218.696 114.614 219.951 116.227C219.974 116.339 219.974 116.429 219.996 116.541C220.018 116.608 220.13 116.608 220.13 116.541C220.287 113.718 219.727 110.715 218.562 108.116C217.867 106.57 216.836 105.046 215.604 103.724C216.03 103.993 216.433 104.262 216.859 104.553C217.867 105.248 218.584 106.234 219.57 106.951C219.615 107.018 219.682 107.107 219.727 107.175C219.772 107.242 219.861 107.175 219.839 107.107C219.839 107.085 219.817 107.085 219.817 107.063C219.839 107.04 219.861 106.995 219.817 106.973C219.772 106.951 219.749 106.906 219.705 106.883C218.002 103.634 215.671 100.677 213.184 98.01C210.697 95.3211 207.918 92.8563 204.826 90.8845C201.711 88.935 198.261 87.3217 194.541 87.008C191.382 86.7391 188.245 87.2993 185.489 88.823C185.601 88.442 185.668 88.0611 185.713 87.7474C185.892 86.5822 185.825 85.3946 186.004 84.207V84.1846C186.049 84.1174 185.959 84.0054 185.869 84.0726C185.04 84.8793 184.211 85.7308 183.674 86.7839C183.382 87.3665 183.024 88.1059 182.934 88.823C182.217 87.9491 180.85 87.5233 179.864 87.1872C178.609 86.7615 177.332 86.6046 176.01 86.6046C174.935 86.6046 173.769 86.5822 172.784 87.0304C172.739 87.0528 172.716 87.0976 172.716 87.1648C172.716 87.2096 172.739 87.2545 172.784 87.2545C174.173 87.5009 175.36 88.3524 176.481 89.2039C175.047 88.8678 173.456 89.1815 172.022 89.6969C170.767 90.145 169.557 90.75 168.436 91.4895C167.406 92.1841 166.577 93.058 165.613 93.8198C165.591 93.8422 165.568 93.8871 165.568 93.9095C165.546 93.9319 165.501 93.9543 165.479 93.9767C165.389 94.0439 165.479 94.1784 165.591 94.1335C166.509 93.7526 167.652 93.9319 168.638 93.9319C168.795 93.9319 168.952 93.9319 169.109 93.9319C167.742 94.4248 166.532 95.3659 165.568 96.4639C164.672 97.4722 163.955 98.615 163.305 99.8026C162.723 100.811 162.006 101.864 161.804 103.052C161.804 103.097 161.826 103.119 161.871 103.141C161.894 103.164 161.916 103.186 161.961 103.164C162.095 103.074 162.23 103.007 162.364 102.94C162.543 102.917 162.723 102.85 162.924 102.805C161.58 104.15 160.908 106.099 160.751 108.071C160.549 109.281 160.594 110.648 160.773 111.992Z" fill="#333333"/>
<path d="M160.661 107.936C160.818 105.987 161.49 104.015 162.835 102.671C162.655 102.738 162.476 102.783 162.274 102.805C162.118 102.872 161.983 102.94 161.871 103.029C161.849 103.052 161.804 103.029 161.781 103.007C161.737 103.007 161.714 102.962 161.714 102.917C161.916 101.752 162.655 100.699 163.216 99.6681C163.865 98.503 164.582 97.3378 165.479 96.3294C166.442 95.2315 167.675 94.2904 169.019 93.7974C168.862 93.7974 168.705 93.7974 168.549 93.7974C167.563 93.7974 166.42 93.5957 165.501 93.9991C165.479 94.0215 165.434 93.9991 165.411 93.9991C168.28 92.7219 171.439 92.072 174.554 92.6322C173.456 92.8787 172.268 92.9011 171.26 93.3941C170.117 93.9319 169.041 94.6265 168.1 95.4556C166.554 96.8224 164.806 98.4806 164.515 100.632C164.493 100.789 164.717 100.856 164.806 100.744C166.465 98.9511 168.481 97.4722 170.744 96.5311C168.817 99.4441 166.442 102.245 166.397 105.92C166.397 106.032 166.509 106.121 166.599 106.077C167.518 105.696 168.28 105.068 169.019 104.419C169.826 103.701 170.655 103.029 171.484 102.357C172.985 101.147 174.33 99.8026 175.293 98.1444C175.338 101.057 175.181 103.993 175.629 106.883C175.652 107.04 175.876 107.04 175.943 106.928C177.825 103.948 179.304 100.632 179.64 97.0913C180.066 99.6457 180.29 102.223 180.581 104.777C180.604 104.934 180.805 105.024 180.895 104.867C183.136 100.99 183.718 96.7552 183.405 92.3633C184.279 94.492 184.906 96.7104 185.287 98.9959C185.309 99.1752 185.578 99.1528 185.623 98.9959C185.937 97.4274 186.161 95.8365 186.318 94.2456C187.102 96.6432 187.886 99.22 189.858 100.878C189.992 100.99 190.172 100.878 190.149 100.721C189.88 98.8839 189.163 97.1361 189.051 95.2987C190.53 97.6067 191.875 100.049 193.667 102.133C195.818 104.62 198.373 106.794 200.905 108.922C201.039 109.034 201.219 108.922 201.196 108.766C200.726 106.166 199.74 103.724 199.067 101.192C201.734 105.606 205.633 109.124 209.285 112.709C209.397 112.799 209.599 112.732 209.577 112.597C209.397 109.819 208.165 107.511 206.843 105.158C209.375 107.331 211.1 110.312 213.789 112.306C213.924 112.396 214.058 112.239 214.036 112.104C213.319 108.945 211.481 106.458 209.644 103.903C212.893 105.696 215.447 108.362 218.114 110.894C218.248 111.006 218.45 110.894 218.405 110.737C217.307 106.883 215.313 103.5 212.646 100.564C215.29 102.357 217.576 104.553 219.682 106.951C219.705 107.018 219.615 107.085 219.57 107.018C219.503 106.951 219.458 106.861 219.413 106.794C218.427 106.099 217.71 105.091 216.702 104.396C216.276 104.105 215.873 103.836 215.447 103.567C216.68 104.889 217.71 106.413 218.405 107.959C219.57 110.558 220.13 113.538 219.974 116.384C219.974 116.451 219.862 116.451 219.839 116.384C219.839 116.272 219.817 116.182 219.794 116.07C218.539 114.457 217.285 112.866 215.895 111.387C215.178 110.625 214.394 109.886 213.587 109.214C213.543 109.191 213.498 109.146 213.475 109.124C213.812 109.819 214.125 110.513 214.394 111.163C215.134 112.911 215.559 114.726 215.694 116.608C215.716 116.631 215.739 116.675 215.761 116.698C215.828 116.787 215.694 116.899 215.604 116.81C214.058 115.264 212.714 113.538 211.279 111.88C210.764 111.275 210.226 110.715 209.666 110.155C210.204 112.082 210.361 114.166 210.159 116.07C210.159 116.093 210.137 116.115 210.114 116.115C210.114 116.138 210.137 116.16 210.137 116.182C210.182 116.294 210.025 116.406 209.957 116.294C209.173 115.129 208.456 113.964 207.605 112.844C206.753 111.746 205.79 110.715 204.849 109.684C203.885 108.676 202.944 107.668 201.958 106.682C201.913 106.637 201.846 106.57 201.801 106.525C201.98 107.085 202.115 107.69 202.227 108.25C202.473 109.527 202.294 110.849 202.496 112.127C202.496 112.171 202.496 112.194 202.473 112.216C202.518 112.284 202.429 112.396 202.361 112.328C200.143 110.401 198.149 108.205 196.11 106.077C195.124 105.068 194.138 104.038 193.129 103.052C192.592 102.536 192.032 102.066 191.471 101.595C191.583 102.2 191.606 102.828 191.718 103.388C191.718 103.388 191.718 103.388 191.718 103.41C191.785 103.477 191.673 103.589 191.606 103.545C190.642 102.895 189.679 102.223 188.85 101.371C188.379 100.901 187.931 100.363 187.483 99.8474C187.057 101.147 186.206 102.424 185.444 103.41C185.444 103.455 185.466 103.522 185.466 103.567C185.489 103.679 185.309 103.746 185.264 103.634C184.996 102.94 184.839 102.155 184.749 101.371C184.503 102.536 184.054 103.657 183.517 104.755C183.046 105.741 182.464 106.682 181.903 107.6C181.343 108.519 180.828 109.55 180.066 110.356V110.379C180.066 110.446 179.954 110.469 179.931 110.401C179.663 109.617 179.618 108.788 179.573 107.981C178.946 109.281 178.296 110.558 177.511 111.813C176.391 113.561 175.114 115.264 174.464 117.258C174.442 117.303 174.419 117.325 174.374 117.303C174.352 117.37 174.262 117.348 174.24 117.28C174.24 116.563 174.016 115.712 173.994 114.928C173.859 115.196 173.725 115.443 173.545 115.667C173.501 115.734 173.389 115.689 173.433 115.6C173.971 114.255 174.307 112.62 173.635 111.253C173.232 110.446 172.38 110.177 171.529 110.155C170.722 110.132 170.072 110.67 169.646 111.32C168.75 112.597 168.638 114.435 168.75 115.936C168.795 116.563 168.929 117.191 169.198 117.751C169.938 119.342 170.969 118.333 171.954 117.661C172.044 117.594 172.156 117.706 172.066 117.796C171.865 118.02 171.641 118.266 171.394 118.49C171.394 121.358 171.529 124.63 173.164 127.095C173.209 127.184 173.12 127.274 173.052 127.184C173.03 127.162 173.03 127.162 173.008 127.14C172.985 127.14 172.985 127.14 172.963 127.14C172.179 126.759 171.394 126.378 170.655 125.907C169.803 125.369 169.041 124.63 168.302 123.958C166.98 122.748 165.748 121.403 164.717 119.924C163.753 118.58 162.947 117.056 162.633 115.421C162.409 114.278 162.543 113.113 162.902 112.015C162.386 112.844 161.983 113.718 161.894 114.838C161.894 114.86 161.916 114.86 161.916 114.883C161.961 114.95 161.871 115.017 161.804 114.972L161.781 114.95C161.759 114.95 161.714 114.928 161.714 114.883C161.714 114.883 161.714 114.883 161.714 114.86C160.952 114.054 160.751 112.889 160.616 111.835C160.594 110.648 160.549 109.281 160.661 107.936Z" fill="#333333"/>
<path d="M179.752 134.982C181.634 137.469 185.713 138.814 188.401 136.864C189.119 136.349 189.768 135.654 190.172 134.87C190.642 133.952 190.889 132.943 191.449 132.047C191.875 131.375 192.726 130.411 192.614 129.537C192.592 129.358 192.547 129.201 192.48 129.067C192.502 129.089 192.524 129.112 192.524 129.134C192.614 129.246 192.838 129.134 192.749 128.977C191.113 125.683 186.497 127.274 183.898 128.35C181.478 129.358 177.422 131.868 179.752 134.982ZM184.547 128.619C185.802 128.148 187.124 127.677 188.469 127.565C189.88 127.431 190.978 127.677 191.942 128.507C192.054 128.663 192.166 128.82 192.233 128.977C192.547 129.717 192.256 130.322 191.83 130.949C191.404 131.576 190.889 132.159 190.553 132.854C189.836 134.31 189.32 135.856 187.796 136.685C185.332 138.03 181.702 137.021 180.133 134.691C178.049 131.644 182.217 129.492 184.547 128.619Z" fill="#C39368"/>
<path d="M182.71 139.06C183.875 139.06 184.816 138.948 185.914 138.59C186.811 138.298 187.64 137.761 188.648 137.133C188.67 137.111 188.334 137.38 188.312 137.425C186.811 138.881 184.279 139.441 182.284 139.105C182.217 139.083 182.643 139.06 182.71 139.06Z" fill="#C39368"/>
<path d="M177.534 130.545C177.556 130.478 177.825 130.165 177.803 130.232C177.041 132.517 177.131 134.31 178.699 136.82C178.744 136.909 179.304 137.626 179.237 137.559C177.399 135.923 176.526 132.764 177.534 130.545Z" fill="#C39368"/>
<path d="M197.611 129.044C197.611 129.044 198.283 128.305 197.32 125.28C196.356 122.255 194.922 122.367 194.003 122.837C193.085 123.286 189.432 126.669 193.555 128.663C195.437 129.56 196.894 129.627 197.611 129.044Z" fill="url(#paint0_radial)"/>
<path d="M193.354 128.305C194.093 128.551 194.855 128.708 195.617 128.865C196.132 128.977 196.782 129.067 197.252 128.731C197.857 128.305 197.589 127.162 197.499 126.58C197.364 125.594 197.14 124.675 196.782 123.734C196.759 123.667 196.871 123.577 196.916 123.644C197.521 124.608 197.902 125.638 198.081 126.759C198.194 127.409 198.306 128.372 197.79 128.91C196.692 130.053 194.384 129.022 193.309 128.35C193.264 128.35 193.309 128.282 193.354 128.305Z" fill="#C39368"/>
<path d="M186.9 117.303C188.155 116.72 189.858 116.899 191.158 117.191C192.502 117.504 193.69 118.065 194.676 119.006C194.25 118.109 193.712 117.303 193.017 116.586C192.144 115.689 191.113 115.353 190.037 114.838C189.836 114.748 189.88 114.412 190.127 114.435C191.225 114.502 192.412 115.376 193.174 116.115C194.071 116.989 194.832 118.02 195.034 119.297C195.034 119.364 194.989 119.409 194.944 119.409C194.944 119.409 194.944 119.409 194.922 119.409C194.877 119.409 194.855 119.387 194.832 119.364C193.757 118.468 192.412 117.975 191.046 117.706C189.679 117.437 188.334 117.684 186.967 117.594C186.811 117.572 186.766 117.37 186.9 117.303Z" fill="#3D1A0B"/>
<path d="M202.473 122.255C203.997 121.672 207.269 120.933 208.03 123.039C208.098 123.218 207.896 123.465 207.717 123.308C207.358 122.972 207.089 122.591 206.619 122.367C206.193 122.165 205.7 122.12 205.252 122.12C204.871 122.12 204.512 122.165 204.131 122.21C205.274 122.322 206.395 122.77 206.843 123.846C206.932 124.047 206.686 124.249 206.507 124.115C205.902 123.711 205.498 123.174 204.804 122.882C204.109 122.591 203.325 122.501 202.563 122.389C202.541 122.389 202.518 122.367 202.518 122.367C202.496 122.367 202.496 122.367 202.473 122.367C202.451 122.367 202.429 122.277 202.473 122.255Z" fill="#3D1A0B"/>
<path d="M187.236 108.25C191.83 104.307 198.238 109.931 197.499 115.084C197.476 115.197 197.32 115.197 197.297 115.084C196.916 112.777 195.953 110.693 194.071 109.259C191.942 107.645 189.813 108.407 187.483 108.788C187.169 108.855 186.99 108.452 187.236 108.25Z" fill="#333333"/>
<path d="M204.512 118.782C205.252 117.549 206.776 116.474 208.21 116.362C210.137 116.205 210.831 119.028 209.352 120.059C209.196 120.171 208.904 120.126 208.882 119.88C208.815 119.14 209.106 118.378 208.815 117.684C208.613 117.236 207.829 117.415 207.47 117.482C206.507 117.684 205.341 118.222 204.647 118.916C204.58 119.006 204.468 118.871 204.512 118.782Z" fill="#333333"/>
<path d="M172.447 112.709C173.164 114.255 172.223 115.981 171.036 116.944C170.991 116.989 170.946 116.922 170.969 116.877C171.282 116.294 171.641 115.712 171.865 115.084C171.842 115.084 171.82 115.107 171.798 115.107C171.529 115.241 171.215 115.353 170.946 115.51C170.879 115.555 170.789 115.443 170.856 115.376C171.103 115.174 171.327 114.972 171.596 114.793C171.708 114.704 171.865 114.591 171.999 114.547C172.044 114.39 172.066 114.211 172.066 114.031C172.089 113.65 172.044 113.269 171.932 112.911C171.596 111.903 170.632 112.866 170.386 113.449C170.341 113.516 170.229 113.516 170.229 113.426C170.364 112.261 171.82 111.365 172.447 112.709Z" fill="#C39368"/>
<path d="M192.569 121.627C192.457 122.681 190.194 123.241 187.528 122.86C184.861 122.501 182.777 121.359 182.889 120.305C183.001 119.252 185.242 118.692 187.931 119.051C190.597 119.454 192.681 120.597 192.569 121.627Z" fill="#F9CBC0"/>
<path d="M188.939 144.371C188.939 144.438 188.939 144.505 189.007 144.55C190.62 145.76 192.614 146.679 194.407 147.62C196.177 148.539 197.969 149.413 199.807 150.174C202.653 151.362 206.955 153.468 209.778 151.116C212.243 149.054 211.795 145.514 211.772 142.646C211.772 140.562 211.75 138.478 211.436 136.416C211.235 135.072 210.966 133.727 210.652 132.383C210.943 129.985 210.114 127.588 208.501 125.75C206.776 123.801 203.952 122.3 201.286 122.86C201.219 122.882 201.174 122.905 201.151 122.972C200.009 123.106 198.955 123.778 198.283 124.72C197.566 125.728 196.872 127.498 197.835 128.529C197.835 128.618 197.857 128.708 197.857 128.798C197.925 129.223 198.014 129.896 198.35 130.254C198.328 130.456 198.328 130.68 198.35 130.859C198.395 131.263 198.507 131.868 198.843 132.114C198.731 132.741 198.776 133.324 199.179 133.727C199.605 134.153 200.345 133.75 200.681 133.436C201.196 132.921 201.555 132.293 201.801 131.621C202.025 131.688 202.272 131.756 202.496 131.8C202.944 131.89 203.392 132.047 203.863 132.069C203.818 133.1 204.019 134.288 204.692 134.848C205.095 135.184 205.678 135.43 206.215 135.318C206.148 135.766 206.081 136.215 206.014 136.685C205.857 137.783 205.655 138.881 205.566 139.979C205.476 141.077 205.409 142.175 205.341 143.273C205.319 143.497 205.319 143.743 205.297 143.99C203.034 143.811 200.86 143.116 198.686 142.466C197.387 142.063 196.11 141.66 194.832 141.167C193.667 140.718 192.524 140.113 191.337 139.733C191.27 139.71 191.225 139.733 191.18 139.755C190.104 139.688 189.32 140.606 188.962 141.57C188.76 142.175 188.222 143.766 188.939 144.371Z" fill="#EFCAA6" stroke="#C9976D" stroke-width="0.1579" stroke-miterlimit="10"/>
<path d="M204.176 132.809C204.266 133.458 204.311 134.131 204.826 134.624C205.162 134.937 205.655 135.049 206.103 135.049C207.156 135.094 207.986 134.444 208.411 133.526C208.434 133.503 208.479 133.503 208.479 133.548C208.434 134.601 207.246 135.363 206.26 135.408C204.669 135.453 204.087 134.243 204.042 132.831C204.042 132.741 204.154 132.741 204.176 132.809Z" fill="#C39368"/>
<path d="M200.031 129.336C200.457 128.932 201.196 128.955 201.734 128.955C202.742 128.955 203.818 129.089 204.759 129.492C204.804 129.515 204.781 129.56 204.737 129.56C203.459 129.38 202.272 129.179 200.95 129.336C199.404 129.537 198.843 131.935 198.978 133.19C198.978 133.257 198.888 133.302 198.866 133.234C198.418 131.957 199.067 130.209 200.031 129.336Z" fill="#C39368"/>
<path d="M199.336 127.453C200.389 126.198 202.608 126.423 203.952 126.96C203.997 126.983 203.975 127.028 203.93 127.028C202.451 126.736 200.524 126.535 199.426 127.767C198.574 128.753 198.485 130.389 198.53 131.599C198.53 131.643 198.462 131.643 198.44 131.621C197.947 130.389 198.507 128.439 199.336 127.453Z" fill="#C39368"/>
<path d="M198.283 125.974C199 124.608 201.308 124.54 202.563 124.966C202.63 124.989 202.608 125.078 202.541 125.078C201.174 124.899 199.448 124.899 198.552 126.154C197.925 127.028 197.79 128.865 198.037 129.873C198.059 129.941 197.947 129.963 197.925 129.918C197.544 128.708 197.723 127.095 198.283 125.974Z" fill="#C39368"/>
<path d="M188.76 137.716C190.956 134.489 194.765 128.35 197.566 126.198C197.32 126.916 197.275 127.655 197.79 128.238C197.745 128.887 197.947 129.56 198.328 130.097C198.238 130.837 198.328 131.621 198.888 132.047C198.843 132.473 198.843 132.898 198.911 133.324C198.978 133.75 199.493 133.974 199.874 133.884C200.86 133.615 201.51 132.629 201.868 131.621C202.473 131.8 203.101 131.935 203.728 132.024C203.773 133.257 204.109 134.556 205.073 135.139C205.341 139.912 206.327 146.589 208.142 149.121C208.142 149.121 209.352 151.81 206.596 152.326C206.596 152.326 205.005 150.735 204.647 148.897C204.647 148.897 203.907 149.928 203.101 151.071C202.294 152.213 199.762 155.261 196.871 152.393C196.177 151.698 195.617 150.107 194.653 149.256C193.69 148.404 192.121 148.628 191.18 150.062C191.068 150.242 192.547 151.093 190.373 150.869C188.2 150.645 186.318 149.726 185.399 147.441C184.48 145.155 183.629 143.9 183.225 143.676C183.293 143.654 186.183 141.48 188.76 137.716Z" fill="#EDECE2" stroke="#A3A29F" stroke-width="0.2105" stroke-miterlimit="10"/>
<path d="M204.938 148.404C205.991 147.486 207.044 147.978 207.896 148.74C207.986 148.875 208.053 149.009 208.142 149.144C208.142 149.144 209.352 151.833 206.596 152.348C206.596 152.348 205.005 150.757 204.647 148.92C204.647 148.92 204.244 149.48 203.728 150.219C204.087 149.525 204.4 148.875 204.938 148.404Z" fill="#B5B4AA"/>
<path opacity="0.4" d="M204.557 139.083C204.49 138.388 204.423 137.649 204.288 136.932C204.221 136.237 204.176 135.542 204.154 134.87C204.154 134.624 204.154 134.332 204.131 134.019C204.333 134.489 204.647 134.893 205.073 135.139C205.297 139.128 206.014 144.461 207.313 147.575C206.574 146.925 206.148 145.85 205.812 144.998C205.454 144.08 205.162 143.161 204.826 142.242C204.019 140.046 202.944 137.425 203.37 135.027C203.661 137.604 204.58 139.284 204.557 139.083Z" fill="#B5B4AA"/>
<path opacity="0.4" d="M191.449 139.621C192.502 137.066 193.555 134.422 195.056 132.092C195.729 131.038 196.468 130.008 196.961 128.865C197.32 128.036 197.14 127.095 197.521 126.288C197.544 126.266 197.566 126.266 197.589 126.243C197.342 126.96 197.297 127.7 197.813 128.282C197.768 128.932 197.969 129.604 198.35 130.142C198.261 130.882 198.35 131.666 198.911 132.092C198.866 132.517 198.866 132.943 198.933 133.369C199 133.795 199.516 134.019 199.896 133.929C200.882 133.66 201.532 132.674 201.891 131.666C202.496 131.845 203.123 131.98 203.751 132.069C203.773 132.383 203.773 132.674 203.84 132.966C203.773 132.853 203.683 132.764 203.594 132.697C202.989 132.248 202.316 132.54 201.846 133.055C201.106 133.862 200.748 134.579 199.493 134.489C199.426 134.489 199.336 134.534 199.336 134.624C198.686 138.657 198.552 142.668 198.507 146.746C198.485 149.009 198.485 151.295 198.731 153.536C198.149 153.379 197.544 153.043 196.939 152.415C196.737 152.213 196.535 151.9 196.311 151.564C196.535 149.726 196.446 147.866 196.603 146.029C196.804 143.676 197.073 141.301 197.454 138.971C197.633 137.873 197.835 136.752 198.104 135.654C198.283 134.848 198.507 134.019 198.53 133.19C198.552 132.585 198.395 130.747 197.32 131.263C196.199 131.778 195.482 133.279 195.034 134.355C194.227 136.237 193.779 138.209 193.331 140.203C192.861 142.421 192.368 144.617 191.875 146.813C191.673 147.732 191.27 148.83 191.404 149.838C191.337 149.928 191.27 149.995 191.225 150.085C191.113 150.264 192.592 151.116 190.418 150.891C189.029 150.735 187.752 150.309 186.788 149.435C188.827 146.432 190.082 142.937 191.449 139.621Z" fill="#B5B4AA"/>
<path d="M176.996 217.329C179.394 216.657 189.611 215.134 191.83 214.708C193.376 214.416 196.244 213.789 198.194 214.439C198.216 214.506 198.261 214.596 198.283 214.663C199.404 217.285 194.944 218.853 189.522 219.929C184.099 221.004 176.615 220.646 175.405 219.391C175.226 219.212 175.092 218.965 174.957 218.696C175.069 217.8 176.279 217.531 176.996 217.329Z" fill="#BF4D00"/>
<path d="M191.897 215.694C190.149 215.918 188.446 216.299 186.721 216.635C184.727 217.038 182.688 217.285 180.693 217.71C179.214 218.024 176.862 218.338 175.54 219.503C175.495 219.481 175.45 219.436 175.428 219.413C175.248 219.234 175.114 218.988 174.979 218.719C175.069 217.778 176.279 217.531 176.996 217.329C179.394 216.657 189.611 215.134 191.83 214.708C193.376 214.416 196.244 213.789 198.193 214.439C198.216 214.506 198.261 214.596 198.283 214.663C198.485 215.111 198.507 215.537 198.373 215.94C196.759 215.111 192.995 215.559 191.897 215.694Z" fill="#F3F4EF" stroke="#BFBFBE" stroke-width="0.2105" stroke-miterlimit="10"/>
<path d="M210.943 89.5624C214.237 92.4978 216.949 95.8365 219.301 99.5786C221.789 103.545 224.096 107.623 225.979 111.903C229.698 120.417 231.401 129.896 230.953 139.172C230.953 139.262 230.819 139.24 230.819 139.15C230.639 129.873 229.205 120.686 225.486 112.127C223.693 107.937 221.408 103.993 219.032 100.094C216.702 96.2399 214.08 92.8115 210.854 89.6521C210.809 89.6073 210.899 89.5176 210.943 89.5624Z" fill="#3D1A0B"/>
<path d="M218.764 95.0075C222.035 98.6151 224.948 102.536 227.323 106.794C229.743 111.141 231.603 115.891 233.171 120.619C236.286 129.941 237.922 140.002 235.636 149.704C235.479 150.376 235.278 151.071 235.054 151.743C235.031 151.833 234.874 151.788 234.897 151.698C237.474 141.66 235.972 131.195 232.813 121.471C231.267 116.72 229.385 112.015 227.054 107.578C224.724 103.119 221.721 99.0856 218.539 95.1867C218.472 95.0523 218.652 94.8954 218.764 95.0075Z" fill="#3D1A0B"/>
<path d="M189.88 157.367C190.777 159.205 191.964 160.818 193.085 162.499C194.138 164.067 195.191 165.636 196.311 167.159C198.597 170.296 201.174 173.389 204.221 175.831C204.288 175.898 204.221 176.01 204.132 175.943C200.927 173.725 198.373 170.857 196.065 167.742C194.922 166.196 193.914 164.605 192.928 162.969C191.83 161.154 190.441 159.451 189.701 157.457C189.634 157.322 189.813 157.233 189.88 157.367Z" fill="#3D1A0B"/>
<path d="M189.41 162.969C191.673 168.571 195.325 174.173 200.434 177.556C200.501 177.601 200.434 177.691 200.367 177.646C197.611 176.077 195.415 173.859 193.533 171.327C191.673 168.84 190.127 165.994 189.253 162.992C189.231 162.924 189.365 162.88 189.41 162.969Z" fill="#3D1A0B"/>
<path opacity="0.71" d="M149.928 11.0692C152.079 10.3746 154.253 9.88165 156.359 9.52313C162.879 8.44758 169.848 7.95461 176.436 8.67165C190.418 10.1954 204.109 15.3715 213.386 26.2615C219.548 33.5215 225.934 43.6496 223.828 53.5537C222.125 61.5531 217.128 66.3259 209.375 68.7459C202.339 70.9418 193.107 70.18 186.542 67.0653C179.304 63.637 174.061 56.87 166.487 54.1139C162.991 52.8367 159.16 52.7022 155.597 51.7611C150.779 50.5287 146.276 47.5933 142.534 44.4115C137.671 40.2885 131.195 33.4318 132.831 26.5304C134.781 18.3741 142.175 13.5341 149.928 11.0692Z" fill="#CEEBD3"/>
<path opacity="0.56" d="M37.5772 119.073C37.5772 119.073 39.0113 124.451 42.5965 125.526L48.3328 121.224L42.955 112.508L36.8602 117.997L37.5772 119.073Z" fill="#40774C"/>
<path d="M32.1098 134.265C32.1098 134.265 23.6846 165.008 53.733 162.633C83.7813 160.258 72.9809 158.241 71.6365 162.633C70.2921 167.025 74.6839 212.624 74.6839 214.977C74.6839 217.329 74.6839 222.08 74.6839 222.08L90.2122 220.735L93.5958 158.577C93.5958 158.577 100.094 137.29 78.2691 134.265C56.4443 131.24 32.1098 134.265 32.1098 134.265Z" fill="#232222"/>
<path opacity="0.96" d="M78.4035 134.265C78.4035 134.265 102.379 132.249 106.099 138.657C109.819 145.066 118.938 213.632 118.938 213.632L103.746 217.016L93.4165 162.14L78.4035 134.265Z" fill="#232222"/>
<path d="M62.4943 107.376L65.2952 113.987L47.6606 121.09L42.5965 113.987L45.4198 109.371L62.4943 107.376Z" fill="#54B669"/>
<path d="M64.4213 90.3915C64.4213 90.3915 59.8278 82.5937 59.1556 82.2576L64.4213 90.3915Z" stroke="#FFF8F8" stroke-miterlimit="10"/>
<path d="M69.7319 82.3473C69.2837 82.9074 68.8132 83.4004 68.2978 83.871C67.5359 84.588 66.7293 85.2154 65.8778 85.798C65.0487 86.3806 64.1748 86.9184 63.301 87.4337C62.9424 87.6354 62.5839 87.8147 62.2254 88.0163C62.1582 88.0836 62.1358 88.1284 62.1358 88.1284C62.1358 88.1284 62.3374 88.4421 62.7632 88.935C63.7267 90.1002 65.7658 92.2065 68.7684 93.5061C69.5526 93.8423 70.4265 94.156 71.3452 94.3576C74.3926 95.0299 81.4285 92.6771 87.5233 90.2347C93.3045 87.9267 98.2341 85.5291 98.2341 85.5291C99.9594 85.3723 101.73 85.4395 102.267 86.2461C103.365 87.9715 105.158 85.5067 105.382 84.5432C105.606 83.5797 105.561 80.9356 103.612 79.1206C101.954 77.5969 97.3154 79.6584 95.9261 80.3082C95.8589 80.353 88.1508 82.056 81.8543 83.378C77.7313 84.2519 74.2358 84.9465 73.8996 84.9241C71.8158 84.7897 70.3369 83.1539 69.7319 82.3473Z" fill="#FFC0BB"/>
<path d="M105.113 79.7704C105.113 79.7704 111.522 78.8293 111.163 80.0393C110.805 81.2493 110.401 81.7871 106.951 81.8543C106.951 81.8543 113.874 81.7199 112.104 82.7282C110.334 83.7366 107.623 83.8038 107.175 83.6693C107.175 83.6693 112.552 83.7366 111.589 84.5432C110.625 85.3499 107.892 85.4171 107.892 85.4171C107.892 85.4171 111.23 85.7532 109.864 86.2238C108.497 86.6943 106.032 86.4254 105.942 86.4479C104.62 86.7392 102.245 87.2321 100.721 87.2321C98.503 87.2321 95.8365 79.6808 97.6515 79.3447L100.833 78.538C100.833 78.538 105.763 77.6193 105.606 78.2019C105.315 79.2103 103.209 79.6808 103.209 79.6808L102.76 78.6725L103.791 78.538L103.903 79.0086L103.388 79.0758" fill="#FFC0BB"/>
<g opacity="0.19">
<path d="M101.371 80.8908C101.371 80.8908 103.746 78.5156 104.755 79.5463L101.371 80.8908Z" fill="#FFC0BB"/>
<path d="M101.371 80.8908C101.371 80.8908 103.746 78.5156 104.755 79.5463" stroke="black" stroke-width="0.25" stroke-miterlimit="10"/>
</g>
<g opacity="0.19">
<path d="M104.755 77.8657C104.755 77.8657 105.427 79.5463 106.771 79.8824L104.755 77.8657Z" fill="#FFC0BB"/>
<path d="M104.755 77.8657C104.755 77.8657 105.427 79.5463 106.771 79.8824" stroke="black" stroke-width="0.25" stroke-miterlimit="10"/>
</g>
<path d="M47.078 36.0087C50.0582 35.8743 52.8367 36.5689 55.055 37.7565C59.402 40.0869 62.0013 48.176 60.0519 52.8143H60.0295V52.8367C60.388 52.7471 60.7689 52.7471 61.1274 52.8815C62.2478 53.2849 62.7408 54.7637 62.2254 56.153C61.7548 57.4302 60.612 58.1921 59.5589 57.9904C59.402 58.9315 59.178 59.8726 58.8867 60.8137C58.685 61.486 58.4161 62.1134 58.08 62.7184C57.6767 63.4802 57.2061 64.1973 56.6459 64.8471C56.5115 64.9815 56.3995 65.116 56.265 65.228C55.7945 65.6986 55.3015 66.1243 54.7637 66.5052C54.3604 69.7991 53.7106 72.0174 52.9487 73.5636C53.1504 73.5636 53.3745 73.5636 53.5761 73.5636C54.0243 73.5187 54.45 73.4739 54.8757 73.4291C56.8924 73.1826 58.9539 72.8465 60.6793 71.7934C61.9341 71.0315 62.92 69.956 63.9283 68.8804C64.3989 68.365 64.8919 67.8273 65.0935 67.1774C65.4745 65.9226 64.735 64.4886 65.2728 63.301C65.4969 62.7856 65.9674 62.3823 66.1691 61.8445C66.6845 60.5 65.4969 59.1556 65.1383 57.7439C64.8022 56.4667 65.1608 55.1447 65.0935 53.8226C64.9143 50.3047 61.6428 47.2124 62.3374 43.7393C62.427 43.336 62.5615 42.9326 62.5391 42.5069C62.4943 41.7226 61.8893 41.1176 61.4187 40.4902C60.1639 38.8769 59.29 36.6361 57.3182 36.1208C56.2202 35.8519 55.055 36.188 53.9795 35.9415C52.9935 35.7174 52.1645 35.0228 51.2009 34.6419C49.7445 34.0593 48.1535 34.2834 46.697 34.7987C45.6215 35.1797 44.4339 35.6502 43.4032 36.1432C43.2687 36.2104 43.1791 36.2776 43.0895 36.3449C43.4032 36.2552 43.7169 36.1656 44.0306 36.0984C45.375 35.7847 46.2713 35.6726 47.078 36.0087Z" fill="#333333"/>
<path d="M25.9702 54.6293C28.9056 49.5652 36.5913 40.4454 36.5913 40.4454C37.0843 39.8404 37.6445 39.3027 38.3391 38.8545C41.2521 36.9723 44.2546 36.1208 47.078 35.9864C46.2713 35.6503 45.375 35.7623 43.9858 36.076C43.672 36.1432 43.3583 36.2328 43.0446 36.3225C41.2745 36.8378 39.5939 37.6445 38.0926 38.7425C37.1963 39.3923 36.3672 40.1541 35.3813 40.6471C33.4543 41.633 31.1911 41.5882 29.0624 41.9243C26.9337 42.2604 24.6258 43.2912 23.9535 45.3302C23.6846 46.1369 23.7295 47.0108 23.483 47.8175C22.8108 50.0806 20.2787 51.3354 19.36 53.5089C18.4413 55.7049 19.3824 58.2817 18.755 60.5897C18.5085 61.4412 18.0604 62.2254 17.9259 63.0993C17.7243 64.3093 18.15 65.5193 18.5982 66.6621C19.5393 68.9925 20.7269 71.3004 22.5867 72.9586C19.7633 66.8862 23.5054 58.8867 25.9702 54.6293Z" fill="#333333"/>
<path d="M33.8576 74.4374C33.8576 74.4374 37.7565 74.1013 42.6189 73.81L42.5293 66.6172C42.5069 66.438 42.5069 66.2587 42.4845 66.1019C40.2885 64.3765 38.72 61.7996 38.3167 58.8195C38.1598 58.9539 38.003 59.0659 37.8237 59.1556C36.4793 59.8054 34.7315 58.9763 33.9024 57.2958C33.0733 55.6152 33.4991 53.733 34.8435 53.0832C34.8435 53.0832 32.8717 44.9941 36.5689 40.4454C36.5689 40.4454 28.8832 49.5652 25.9478 54.6293C23.483 58.8643 19.7633 66.8637 22.6091 72.981C23.5502 74.9752 25.1859 76.7902 27.7852 78.1795C29.1745 76.3645 31.4824 75.1993 33.8576 74.4374Z" fill="#333333"/>
<path d="M52.3885 70.4265L52.523 73.5187C52.6574 73.5187 52.7919 73.5187 52.9487 73.5187C53.7106 71.9726 54.3604 69.7543 54.7637 66.4604C54.0243 66.9758 53.24 67.4015 52.3885 67.7152C52.3661 68.4322 52.3661 69.6871 52.3885 70.4265Z" fill="#333333"/>
<path d="M37.0843 53.1952C37.0843 53.1952 36.7482 52.9487 36.1208 52.9039C36.4569 52.9487 36.7706 53.0384 37.0843 53.1952Z" fill="#333333"/>
<path d="M52.523 73.5187L52.6126 75.8939L51.1785 78.1795L42.6637 76.0284L42.6413 73.81C37.7789 74.0789 33.88 74.4374 33.88 74.4374C37.4204 76.9695 46.9211 83.5349 51.1337 83.8486C55.0998 84.1399 57.3181 77.1263 58.1696 73.7652C56.8924 73.6308 55.3239 73.5411 53.5985 73.5187C53.3969 73.5187 53.1952 73.5187 52.9711 73.5187C52.8143 73.5187 52.6574 73.5187 52.523 73.5187Z" fill="#FFC0BB"/>
<path d="M38.4959 105.292C39.5939 108.25 40.9159 111.186 42.5741 113.987C44.1202 112.508 45.7559 111.029 47.078 109.908C42.9326 108.766 39.93 106.547 38.4959 105.292Z" fill="#54B669"/>
<path d="M62.9648 115.241C62.9648 115.241 55.4359 115.465 54.2931 115.981C53.6881 116.25 50.5511 118.804 47.7502 121.134C48.7809 122.277 49.8789 123.375 51.0665 124.428C51.0665 124.428 50.4391 128.372 50.4391 133.929H79.5239C76.4765 127.633 73.4963 122.681 71.0091 120.843C68.253 118.804 66.3035 116.093 64.9143 113.292C63.7715 114.412 62.9648 115.241 62.9648 115.241Z" fill="#54B669"/>
<path d="M45.2182 95.6348C44.6132 96.2622 43.9634 96.8448 43.2911 97.3826C42.2604 98.1893 41.1848 98.9063 40.0645 99.5337C38.9441 100.184 37.7789 100.766 36.6137 101.326C36.1432 101.55 35.6502 101.752 35.1796 101.954C35.09 102.021 35.0676 102.066 35.0676 102.066C35.0676 102.066 35.3365 102.469 35.8519 103.074C37.0619 104.531 39.7059 107.175 43.6272 108.945C44.658 109.415 45.7784 109.819 46.9884 110.132C50.9993 111.118 60.2984 108.766 68.4098 106.211C76.0732 103.814 82.661 101.259 82.661 101.259C84.9465 101.169 87.2769 101.371 87.9267 102.379C89.316 104.531 91.7584 101.662 92.0721 100.542C92.4082 99.3993 92.4306 96.2174 89.8986 93.9319C87.7698 91.9824 81.5854 94.1559 79.748 94.873C79.6808 94.9402 69.463 96.4639 61.1498 97.6515C55.7048 98.4358 51.0665 99.0408 50.6184 98.9959C47.8622 98.7046 45.98 96.6432 45.2182 95.6348Z" fill="#FFC0BB"/>
<path d="M38.9889 103.433C40.0645 102.716 41.1176 101.954 42.1259 101.147C43.1343 100.34 44.0978 99.4666 44.9941 98.5255C45.5767 97.8981 46.1369 97.2258 46.6298 96.5088C46.8763 96.1503 47.1228 95.7694 47.3245 95.3884L47.3917 95.254L47.3021 95.1195C46.3833 93.8871 45.4646 92.6323 44.5459 91.3999C43.6272 90.1675 42.6861 88.9351 41.745 87.7251C40.8039 86.5151 39.8404 85.3051 38.8545 84.1175C37.8685 82.9299 36.8826 81.7423 35.8295 80.6219C36.8154 81.8095 37.7565 83.0195 38.6976 84.252C39.6163 85.4844 40.5574 86.7168 41.4537 87.9492C42.3724 89.1816 43.2911 90.4364 44.1874 91.6688C45.0613 92.8788 45.9352 94.0664 46.8091 95.2764C46.2041 96.3295 45.4422 97.2931 44.6132 98.167C44.1874 98.6375 43.7169 99.0632 43.2463 99.5114C42.7758 99.9371 42.2828 100.363 41.7898 100.766C40.8039 101.573 39.7732 102.335 38.6976 103.052C38.4287 103.231 38.1598 103.41 37.8909 103.59C37.1515 104.083 36.3896 104.553 35.6278 104.979L35.4709 104.755C35.3813 104.62 35.2917 104.508 35.2021 104.374C35.0452 104.105 34.8659 103.858 34.7091 103.59L34.2385 102.783L33.7904 101.954C33.2078 100.856 32.67 99.7355 32.1322 98.5927C31.6169 97.4723 31.0791 96.3295 30.5861 95.1868C30.0932 94.044 29.6002 92.9012 29.1072 91.7584C29.533 92.9236 29.9811 94.0888 30.4517 95.254C30.9222 96.4192 31.3928 97.562 31.8858 98.7047C32.3787 99.8475 32.8941 100.99 33.4543 102.111L33.88 102.94L34.3282 103.769C34.485 104.038 34.6419 104.307 34.8211 104.575C34.8883 104.71 35.0004 104.844 35.09 104.979L35.3589 105.36L35.4709 105.517L35.6502 105.427C36.3224 105.046 36.9946 104.665 37.6445 104.262C38.115 104.015 38.5632 103.724 38.9889 103.433Z" fill="white"/>
<path d="M51.1785 78.2019L52.6126 75.9163L52.523 73.5411L52.3885 70.4489C51.6267 70.785 45.7783 71.9502 42.6637 68.5443C42.6189 67.872 42.5741 67.2222 42.5293 66.6844L42.6189 73.8772L42.6413 76.0956L51.1785 78.2019Z" fill="#FFC0BB"/>
<path d="M35.8967 51.6491L36.0759 49.4084L37.0843 47.3245C37.0843 47.3245 41.028 41.745 41.1624 41.6106C41.2969 41.4761 44.2995 39.6611 44.4787 39.5715C44.658 39.4819 48.8706 40.1765 48.8706 40.1765C48.8706 40.1765 56.265 38.5856 55.0102 42.7085C54.9654 42.8878 54.8982 43.0447 54.8309 43.2015C57.1837 44.7476 58.9763 47.1452 59.6934 49.991C59.9398 50.9545 60.0295 51.8956 60.0295 52.8143H60.0519C62.0013 48.1759 59.4021 40.0869 55.055 37.7565C52.8143 36.5689 50.0582 35.8743 47.078 36.0087C44.2546 36.1432 41.2521 36.9946 38.3391 38.8769C37.6445 39.325 37.0619 39.8628 36.5913 40.4678C32.8941 45.0165 34.8659 53.1056 34.8659 53.1056L35.6502 51.6715L35.8967 51.6491Z" fill="#333333"/>
<path d="M52.3885 70.4266C52.3661 69.6871 52.3661 68.4547 52.3885 67.7153C51.4474 68.0738 50.4167 68.2754 49.3635 68.3427C46.7867 68.4771 44.3891 67.6256 42.4845 66.1467C42.5069 66.3036 42.5069 66.4828 42.5293 66.6621C42.5741 67.2223 42.6189 67.8497 42.6637 68.5219C45.7783 71.9279 51.6267 70.7403 52.3885 70.4266Z" fill="#F99893"/>
<path d="M59.9623 54.4052C59.9174 54.7637 59.8726 55.0999 59.8502 55.4584C59.8054 56.2426 59.7158 57.0941 59.5589 57.968C60.6121 58.1697 61.7548 57.4078 62.2254 56.1306C62.7408 54.7413 62.2478 53.2849 61.1274 52.8591C60.7689 52.7247 60.4104 52.7247 60.0295 52.8143C60.0519 53.3521 60.0295 53.8899 59.9623 54.4052Z" fill="#F99893"/>
<path d="M49.3635 68.3427C50.4167 68.2978 51.425 68.0738 52.3885 67.7153C53.24 67.4015 54.0243 66.9758 54.7637 66.4604C55.3015 66.0795 55.7945 65.6538 56.265 65.1832C56.3771 65.0712 56.5115 64.9591 56.6459 64.8023C57.2285 64.1749 57.6991 63.4578 58.08 62.6736C58.3937 62.0686 58.6626 61.4412 58.8867 60.769C59.2004 59.8503 59.4245 58.8867 59.5589 57.9456C59.6933 57.0717 59.783 56.2203 59.8502 55.436C59.8726 55.0775 59.9174 54.7414 59.9622 54.3828C60.0295 53.8675 60.0519 53.3297 60.0519 52.7919V52.7695C60.0519 51.8508 59.9622 50.9097 59.7158 49.9462C58.9987 47.1004 57.2061 44.7028 54.8533 43.1567C53.3521 46.966 48.3776 48.9378 48.1087 48.7586C48.9826 47.8399 49.0722 45.1958 49.0722 45.1958C44.9045 49.991 37.1067 53.1504 37.1067 53.1504C36.793 52.9936 36.4569 52.8815 36.1432 52.8591C35.807 52.8367 35.3813 52.8815 34.8659 53.0608C33.5215 53.7106 33.0958 55.6153 33.9248 57.2734C34.7539 58.954 36.5017 59.783 37.8461 59.1332C38.0254 59.0436 38.2046 58.9315 38.3391 58.7971C38.7424 61.7997 40.3109 64.3765 42.5069 66.0795C44.3891 67.6256 46.7867 68.4547 49.3635 68.3427ZM45.5767 54.8982C45.5543 54.2932 46.0024 53.8003 46.6074 53.7554C47.2124 53.733 47.7054 54.1812 47.7502 54.7862C47.7726 55.3912 47.3245 55.8841 46.7195 55.929C46.1145 55.9514 45.6215 55.4808 45.5767 54.8982ZM46.6074 62.6288C49.3411 65.5417 58.7746 60.9258 53.3521 63.413C47.9295 65.8778 46.6074 62.6288 46.6074 62.6288ZM52.9935 57.6319C53.0608 57.6767 53.128 57.7215 53.1728 57.7888C53.24 57.856 53.2848 57.9008 53.3296 57.9904C53.3745 58.0577 53.4193 58.1473 53.4417 58.2145C53.5537 58.5506 53.4641 58.8867 53.2848 59.1332C52.9487 59.6262 52.3885 59.8503 51.8732 59.8727C52.3437 59.6486 52.7695 59.3573 52.9487 58.954C53.0383 58.7523 53.0608 58.5506 52.9935 58.3938C52.9711 58.3041 52.9039 58.2369 52.8367 58.1697C52.8143 58.1249 52.7471 58.1025 52.7246 58.0801L52.635 58.0128L52.5454 57.9456C52.3213 57.7215 52.1869 57.4751 52.0748 57.2062C51.9852 56.9597 51.8956 56.6908 51.8508 56.4443C51.7611 55.929 51.7163 55.3912 51.7611 54.8758C51.918 55.3688 52.0524 55.8617 52.2317 56.3323C52.3213 56.5564 52.3885 56.8028 52.5006 57.0269C52.6126 57.2286 52.7246 57.4527 52.8815 57.5871L52.9263 57.6319C52.9263 57.6095 52.9487 57.6095 52.9935 57.6319ZM56.3098 55.9065C55.7048 55.929 55.2119 55.4808 55.1671 54.8758C55.1446 54.2708 55.5928 53.7778 56.1978 53.733C56.8028 53.7106 57.2958 54.1588 57.3406 54.7638C57.363 55.3688 56.8924 55.8841 56.3098 55.9065ZM56.9596 51.4699C57.2285 51.5819 57.475 51.7164 57.7215 51.8732C57.968 52.0301 58.1696 52.2317 58.3713 52.4334C58.7522 52.8591 59.0435 53.3521 59.2452 53.8675C58.9091 53.4193 58.573 52.9936 58.1696 52.6351C58.1248 52.5903 58.08 52.5454 58.0128 52.5006C57.968 52.4558 57.9008 52.411 57.8559 52.3662C57.7439 52.299 57.6543 52.2093 57.5198 52.1421C57.2958 52.0077 57.0717 51.8732 56.8252 51.7836C56.3322 51.5819 55.8169 51.4699 55.2791 51.4475C54.7413 51.4251 54.2035 51.4699 53.6658 51.5819C53.9122 51.4475 54.1811 51.3578 54.45 51.2906C54.7189 51.2234 55.0102 51.1786 55.2791 51.1562C55.8393 51.1562 56.4219 51.2458 56.9596 51.4699ZM43.8737 52.3886C44.0754 52.1869 44.2995 52.0077 44.5459 51.8732C44.7924 51.7164 45.0613 51.6043 45.3302 51.5147C45.8904 51.3354 46.473 51.2906 47.0332 51.3578C47.3245 51.3803 47.5933 51.4475 47.8622 51.5371C48.1311 51.6267 48.4 51.7388 48.6241 51.8956C48.0863 51.7612 47.5485 51.6716 47.0108 51.6716C46.473 51.6716 45.9576 51.7388 45.4422 51.8956C45.1958 51.9853 44.9493 52.0749 44.7252 52.2093C44.6132 52.2765 44.5011 52.3438 44.3891 52.411C44.3219 52.4558 44.277 52.4782 44.2322 52.523C44.1874 52.5678 44.1202 52.5903 44.0754 52.6351C43.6496 52.9712 43.2687 53.3521 42.9102 53.7778C43.1343 53.2401 43.4704 52.7695 43.8737 52.3886Z" fill="#FFC0BB"/>
<path d="M47.7502 54.7862C47.7278 54.1812 47.2124 53.733 46.6074 53.7554C46.0024 53.7779 45.5543 54.2932 45.5767 54.8982C45.5991 55.5032 46.1145 55.9514 46.7195 55.929C47.3245 55.8841 47.7726 55.3688 47.7502 54.7862Z" fill="#333333"/>
<path d="M56.1978 53.7554C55.5928 53.7779 55.1446 54.2932 55.167 54.8982C55.1894 55.5032 55.7048 55.9514 56.3098 55.929C56.9148 55.9066 57.363 55.3912 57.3406 54.7862C57.2957 54.1812 56.7804 53.733 56.1978 53.7554Z" fill="#333333"/>
<path d="M44.0754 52.6127C44.1202 52.5679 44.1874 52.5231 44.2322 52.5006C44.2771 52.4558 44.3443 52.411 44.3891 52.3886C44.5011 52.3214 44.6132 52.2542 44.7252 52.1869C44.9493 52.0525 45.1958 51.9629 45.4422 51.8732C45.9352 51.7164 46.473 51.6268 47.0108 51.6492C47.5485 51.6716 48.0863 51.7388 48.6241 51.8732C48.4 51.7164 48.1311 51.6043 47.8622 51.5147C47.5934 51.4251 47.3245 51.3579 47.0332 51.3355C46.473 51.2682 45.8904 51.313 45.3302 51.4923C45.0613 51.5819 44.7924 51.694 44.5459 51.8508C44.2995 52.0077 44.0754 52.1869 43.8737 52.3662C43.4704 52.7695 43.1343 53.2401 42.9102 53.7331C43.2687 53.3297 43.6496 52.9488 44.0754 52.6127Z" fill="#333333"/>
<path d="M54.4276 51.313C54.1587 51.3802 53.8898 51.4698 53.6433 51.6043C54.1811 51.4922 54.7413 51.4474 55.2567 51.4698C55.7944 51.4922 56.3098 51.6043 56.8028 51.806C57.0493 51.8956 57.2733 52.03 57.4974 52.1645C57.6094 52.2317 57.7215 52.3213 57.8335 52.3885C57.8783 52.4334 57.9456 52.4782 57.9904 52.523C58.0352 52.5678 58.1024 52.6126 58.1472 52.6574C58.5506 53.016 58.8867 53.4417 59.2228 53.8898C59.0435 53.3745 58.7298 52.8815 58.3489 52.4558C58.1472 52.2541 57.9456 52.0524 57.6991 51.8956C57.4526 51.7387 57.2061 51.5819 56.9372 51.4922C56.3994 51.2682 55.8169 51.1785 55.2567 51.2234C54.9878 51.201 54.6965 51.2458 54.4276 51.313Z" fill="#333333"/>
<path d="M36.1208 52.9039C36.7482 52.9487 37.0843 53.1952 37.0843 53.1952C37.0843 53.1952 44.9045 50.0358 49.0498 45.2406C49.0498 45.2406 48.9602 47.8623 48.0863 48.8034C48.3552 48.9826 53.3297 47.0108 54.8309 43.2015C54.8982 43.0447 54.9654 42.8878 55.0102 42.7086C56.265 38.5856 48.8706 40.1765 48.8706 40.1765C48.8706 40.1765 44.658 39.4819 44.4787 39.5715C44.2995 39.6612 41.2969 41.4537 41.1624 41.6106C41.028 41.745 37.0843 47.3245 37.0843 47.3245L36.0759 49.4084L35.8967 51.6491L35.6278 51.6715L34.8435 53.1056C35.3589 52.9263 35.7846 52.8815 36.1208 52.9039Z" fill="#333333"/>
<path d="M52.5006 56.9821C52.3885 56.7804 52.3213 56.534 52.2317 56.2875C52.0748 55.8169 51.918 55.324 51.7611 54.831C51.7163 55.3464 51.7387 55.8841 51.8508 56.3995C51.8956 56.6684 51.9628 56.9149 52.0748 57.1614C52.1869 57.4078 52.2989 57.6767 52.5454 57.9008L52.635 57.968L52.7246 58.0352C52.7695 58.0577 52.8143 58.0801 52.8367 58.1249C52.9039 58.1921 52.9711 58.2593 52.9935 58.3489C53.0608 58.5058 53.0383 58.7075 52.9487 58.9091C52.7695 59.3125 52.3437 59.6038 51.8732 59.8278C52.3885 59.8054 52.9487 59.6038 53.2848 59.0884C53.4417 58.8419 53.5313 58.5058 53.4417 58.1697C53.4193 58.0801 53.3745 58.0128 53.3296 57.9456C53.2848 57.8784 53.24 57.8112 53.1728 57.744C53.128 57.6767 53.0608 57.6543 52.9935 57.5871C52.9487 57.5647 52.9487 57.5423 52.9263 57.5423L52.8815 57.4975C52.7246 57.4078 52.5902 57.2062 52.5006 56.9821Z" fill="#F99893"/>
<path d="M46.6074 62.6287C46.6074 62.6287 47.9295 65.8778 53.3521 63.413C58.7746 60.9258 49.3411 65.5417 46.6074 62.6287Z" fill="#F99893"/>
<path d="M51.1113 83.8485C46.9211 83.5348 37.4204 76.9695 33.8576 74.4374C33.8576 74.4374 32.9389 88.8902 37.8909 103.567C38.1598 103.388 38.4287 103.209 38.6976 103.029C39.7508 102.312 40.8039 101.55 41.7898 100.744C42.2828 100.34 42.7758 99.9371 43.2463 99.4889C43.7169 99.0632 44.1874 98.615 44.6132 98.1445C45.4422 97.2706 46.2041 96.3071 46.8091 95.2539C45.9352 94.0439 45.0837 92.8339 44.1874 91.6463C43.2911 90.3915 42.3724 89.1591 41.4537 87.9267C40.535 86.6943 39.6163 85.4619 38.6976 84.2295C37.7565 82.9971 36.8154 81.7871 35.8295 80.5995C36.8826 81.7198 37.8685 82.9074 38.8545 84.095C39.8404 85.2826 40.7815 86.4926 41.745 87.7026C42.6861 88.9126 43.6272 90.145 44.5459 91.3774C45.4646 92.6098 46.3834 93.8422 47.3021 95.0971L47.3917 95.2315L47.3245 95.366C47.1228 95.7469 46.8763 96.1278 46.6298 96.4863C47.5261 97.3378 49.7221 99.108 52.5006 98.996C52.9487 98.9735 57.4302 97.6515 62.6959 96.0382C64.4661 90.8845 67.4687 80.5771 64.5782 77.1711C63.0097 75.3337 60.5224 74.303 58.1248 73.7428C57.2958 77.1487 55.055 84.1398 51.1113 83.8485Z" fill="#54B669"/>
<path opacity="0.56" d="M51.0665 124.428C49.8789 123.398 48.781 122.3 47.7502 121.134C45.263 123.196 43.0222 125.101 43.0222 125.101C39.1682 122.86 38.115 119.073 38.115 119.073C38.9217 117.684 40.6695 115.824 42.5741 113.987C40.9384 111.186 39.5939 108.25 38.4959 105.292C37.8909 104.755 37.5548 104.419 37.5548 104.419C37.5548 104.419 37.5997 104.374 37.6669 104.284C37.0171 104.687 36.3448 105.091 35.6726 105.449L35.4934 105.539L35.3813 105.382L35.1124 105.001C35.0228 104.867 34.9332 104.732 34.8435 104.598C34.6867 104.329 34.5074 104.06 34.3506 103.791L33.9024 102.962L33.4767 102.133C32.9165 101.013 32.4011 99.8699 31.9082 98.7271C31.4152 97.5843 30.9446 96.4191 30.4741 95.2763C30.0035 94.1111 29.5554 92.946 29.1296 91.7808C29.6226 92.9236 30.1156 94.0663 30.6085 95.2091C31.1015 96.3519 31.6393 97.4723 32.1546 98.615C32.6924 99.7354 33.2302 100.856 33.8128 101.976L34.2609 102.805L34.7315 103.612C34.8884 103.881 35.0676 104.127 35.2245 104.396C35.3141 104.531 35.4037 104.643 35.4934 104.777L35.6502 105.001C36.4121 104.575 37.1739 104.082 37.9134 103.612C32.9613 88.935 33.88 74.4822 33.88 74.4822C31.5048 75.2441 29.1969 76.4093 27.83 78.2243C27.3146 78.9189 26.9113 79.7256 26.7321 80.6443C25.2308 87.9491 35.4709 119.073 35.4709 119.073C35.4709 119.073 32.9389 125.123 29.8019 133.929H50.4391C50.4391 128.372 51.0665 124.428 51.0665 124.428Z" fill="#40774C"/>
<path d="M55.0998 61.9789H46.3161V65.0264H55.0998V61.9789Z" fill="#FFC0BB"/>
<path d="M50.103 63.1441C50.103 63.1441 51.918 62.2926 53.8226 63.2785C53.8226 63.2785 51.7387 63.0096 50.2822 63.3906C48.8258 63.7715 50.1478 63.0993 50.1478 63.0993" fill="#FFC0BB"/>
<path d="M50.103 63.1441C50.103 63.1441 51.918 62.2926 53.8226 63.2785C53.8226 63.2785 51.7387 63.0096 50.2822 63.3906C48.8258 63.7715 50.1478 63.0993 50.1478 63.0993" stroke="black" stroke-miterlimit="10"/>
<path d="M63.2337 75.9611C63.2337 75.9611 71.995 79.5463 72.3311 80.577C72.6672 81.5854 63.8835 90.3691 63.8835 90.3691C63.8835 90.3691 62.5391 82.9298 60.8361 81.9215C59.1332 80.9132 63.2337 75.9611 63.2337 75.9611Z" fill="#54B669"/>
<path d="M64.4213 90.3915C64.4213 90.3915 61.5308 83.9382 59.1556 80.8907L64.4213 90.3915Z" fill="white"/>
<path d="M72.6224 80.4651C72.6224 80.4651 66.662 77.1712 63.2113 76.1628L72.6224 80.4651Z" fill="white"/>
<path d="M64.0628 89.8313C64.0628 89.8313 69.8663 84.4535 72.3087 80.5546L64.0628 89.8313Z" fill="white"/>
<path d="M74.4374 220.063C74.4374 220.063 87.0304 222.08 89.9209 220.063C92.8115 218.047 105.091 224.791 105.091 228.175C105.091 231.558 105.091 230.191 105.091 230.191L74.4374 230.528C74.4374 230.528 71.2107 228.847 74.4374 220.063Z" fill="#FFC81A"/>
<path d="M105.091 229.519H73.4739V230.527H105.091V229.519Z" fill="#070211"/>
<path d="M94.6041 220.735C94.6041 222.55 92.6098 224.029 90.1674 224.029" stroke="black" stroke-miterlimit="10"/>
<path d="M97.1137 221.721C97.3602 223.223 95.6348 224.746 93.2596 225.127" stroke="black" stroke-miterlimit="10"/>
<path d="M103.119 213.162C103.119 213.162 114.883 215.044 117.617 213.251C120.35 211.459 131.8 217.576 131.778 220.601C131.756 223.626 131.756 222.416 131.756 222.416L103.052 222.528C103.052 222.528 100.027 221.004 103.119 213.162Z" fill="#FFC81A"/>
<path d="M131.761 221.822L102.138 221.63L102.133 222.526L131.755 222.718L131.761 221.822Z" fill="#070211"/>
<path d="M122.434 213.901C122.434 215.537 120.641 216.836 118.446 216.814" stroke="black" stroke-miterlimit="10"/>
<path d="M124.675 214.797C124.876 216.142 123.33 217.486 121.202 217.822" stroke="black" stroke-miterlimit="10"/>
<path d="M170.512 24.1523H182.816V30.3047H170.512V24.1523Z" fill="#C3DAFD"/>
<path d="M176.664 24.1523H182.816V30.3047H176.664V24.1523Z" fill="#A1B8D8"/>
<path d="M166.41 28.2539H186.918V53H166.41V28.2539Z" fill="#E4F3FF"/>
<path d="M176.664 28.2539H186.918V53H176.664V28.2539Z" fill="#E4F3FF"/>
<path d="M168.461 18H184.867V26.2031H168.461V18Z" fill="#457899"/>
<path d="M176.664 18H184.867V26.2031H176.664V18Z" fill="#365C75"/>
<path d="M166.41 32.7656H186.918V48.4883H166.41V32.7656Z" fill="#FF5C5C"/>
<path d="M176.664 32.7656H186.918V48.4883H176.664V32.7656Z" fill="#FF3838"/>
<path d="M178.715 18H180.766V22.0738H178.715V18Z" fill="#274254"/>
<path d="M172.562 18H174.613V22.0738H172.562V18Z" fill="#365C75"/>
<path d="M180.424 39.6016H177.689V36.8672H175.639V39.6016H172.904V41.6523H175.639V44.3867H177.689V41.6523H180.424V39.6016Z" fill="#E4F3FF"/>
<path d="M177.689 39.6016V36.8672H176.664V44.3867H177.689V41.6523H180.424V39.6016H177.689Z" fill="#C3DAFD"/>
<path d="M196.83 51.4961H188.627C186.554 51.4961 184.867 49.8095 184.867 47.7363C184.867 45.6632 186.554 43.9766 188.627 43.9766H196.83C198.903 43.9766 200.59 45.6632 200.59 47.7363C200.59 49.8095 198.903 51.4961 196.83 51.4961Z" fill="#E4F3FF"/>
<path d="M188.627 51.4961H196.83C198.903 51.4961 200.59 49.8095 200.59 47.7363H184.867C184.867 49.8095 186.554 51.4961 188.627 51.4961Z" fill="#C3DAFD"/>
<path d="M196.83 43.9766H192.729V51.4961H196.83C198.903 51.4961 200.59 49.8095 200.59 47.7363C200.59 45.6632 198.903 43.9766 196.83 43.9766Z" fill="#FF5C5C"/>
<path d="M192.729 51.4961H196.83C198.903 51.4961 200.59 49.8095 200.59 47.7363H192.729V51.4961Z" fill="#FF3838"/>
<path d="M197.086 35.5609L191.286 41.3615C189.82 42.8274 187.434 42.8274 185.968 41.3615C184.503 39.8956 184.503 37.5102 185.968 36.0444L191.769 30.2439C193.235 28.778 195.62 28.778 197.086 30.2439C198.552 31.7098 198.552 34.095 197.086 35.5609Z" fill="#E4F3FF"/>
<path d="M191.286 41.3614L197.086 35.5608C198.552 34.095 198.552 31.7097 197.086 30.2438L185.968 41.3614C187.434 42.8274 189.82 42.8274 191.286 41.3614Z" fill="#C3DAFD"/>
<path d="M191.769 30.2438L188.869 33.1441L194.186 38.4611L197.086 35.5608C198.552 34.095 198.552 31.7097 197.086 30.2438C195.62 28.7779 193.235 28.7779 191.769 30.2438Z" fill="#5CA2FA"/>
<path d="M194.186 38.4611L197.086 35.5608C198.552 34.095 198.552 31.7097 197.086 30.2438L191.527 35.8025L194.186 38.4611Z" fill="#3D6DEF"/>
<defs>
<radialGradient id="paint0_radial" cx="0" cy="0" r="1" gradientUnits="userSpaceOnUse" gradientTransform="translate(197.663 128.364) rotate(180) scale(6.81625)">
<stop offset="0.335" stop-color="#F9CBC0"/>
<stop offset="0.9437" stop-color="white"/>
</radialGradient>
</defs>
</svg>