<svg width="242" height="242" viewBox="0 0 242 242" fill="none" xmlns="http://www.w3.org/2000/svg">
<path opacity="0.71" d="M25.2083 236.241C25.2083 236.241 -13.4445 184.346 12.6826 126.512C23.2589 103.074 35.0004 74.6167 52.4109 46.7642C69.7991 18.9118 142.377 -6.22928 180.962 25.5444C219.503 57.3405 210.025 107.354 223.895 127.498C234.426 142.78 252.285 205.633 223.85 232.32C214.82 240.79 202.204 237.026 181.791 238.079C97.0465 242.381 25.2083 236.241 25.2083 236.241Z" fill="#CEEBD3"/>
<g opacity="0.3">
<path opacity="0.3" d="M68.7683 106.525C68.7683 106.525 98.5926 76.6782 86.9183 68.4098C86.9183 68.4098 85.2378 64.4661 74.0565 75.8043C74.0565 75.8043 68.1185 76.7454 68.858 70.18C69.575 63.5922 80.4202 55.1446 75.4458 48.5345C70.4489 41.9243 65.7658 51.6267 61.3067 52.9039C56.8476 54.1811 62.9872 28.435 57.6767 24.7154C52.3661 20.9957 49.1395 31.0119 45.7335 31.7065C42.3052 32.3787 37.6444 0.515368 21.3319 3.67481C5.01926 6.83426 20.7941 21.0406 27.0682 29.2417C33.3422 37.4652 18.6878 31.0791 15.6628 39.818C12.6154 48.5569 41.0504 45.6887 37.1739 54.0243C33.2974 62.3822 26.2839 56.1306 23.7967 62.427C19.7409 72.6 48.3776 66.7965 46.6074 73.9669C45.1957 79.6807 36.0087 74.303 34.2385 78.6276C32.4459 82.9298 46.8315 101.707 68.7683 106.525Z" fill="#07085B"/>
<path opacity="0.1" d="M87.7026 69.0372C87.613 68.9476 87.5009 68.8579 87.3889 68.7683C86.6943 70.0903 85.8876 71.502 84.9241 72.9585C81.4285 78.3363 75.2665 85.3722 65.8106 88.442C64.3541 83.2659 62.4046 77.7537 59.9846 71.9726C64.4213 59.1555 70.2248 52.5229 74.3254 49.2066C74.6839 48.9153 75.02 48.6465 75.3785 48.4C75.2889 48.2879 75.1993 48.1759 75.1321 48.0863C74.7959 48.3328 74.4598 48.5792 74.1237 48.8705C70.0232 52.1644 64.242 58.7522 59.783 71.4124C59.783 71.39 59.7606 71.3676 59.7606 71.3452C57.2509 65.4072 54.2259 59.1779 50.7304 52.7022C50.7528 52.0972 50.8648 46.4281 51.9852 39.7507C52.7919 34.9555 54.2259 28.9279 56.7804 24.1552C56.6459 24.1103 56.5339 24.0431 56.3995 24.0207C53.845 28.8383 52.3885 34.8883 51.5819 39.6835C50.6408 45.2629 50.3943 50.1478 50.327 51.9852C47.6382 47.0555 44.6804 41.9915 41.4761 36.7929C32.5132 22.3178 23.5726 10.3298 18.8894 4.25739C18.755 4.3022 18.6206 4.34701 18.4861 4.39183C23.1469 10.4194 32.1098 22.4522 41.1176 36.9946C42.6413 39.437 44.1874 42.0139 45.7559 44.7028C44.2995 44.2098 39.93 42.7757 34.1265 41.5657C29.2417 40.5574 22.5867 39.5715 15.6628 39.7059C15.6628 39.7283 15.6404 39.7507 15.6404 39.7731C15.5956 39.8852 15.5732 39.9972 15.5283 40.1092C22.4522 39.9748 29.1296 40.9607 34.0145 41.9691C40.647 43.3359 45.3974 45.0165 46.0472 45.2405C49.498 51.2009 52.9935 57.699 56.153 64.3989C46.8539 61.6876 31.2135 62.5391 23.5054 63.1889C23.4606 63.3233 23.4382 63.4578 23.4157 63.5922C31.1687 62.9424 47.1452 62.0461 56.377 64.8694C60.8585 74.4374 64.6678 84.4087 66.7965 93.9766C58.6402 93.999 49.7893 88.9574 43.7617 84.7C40.042 82.0783 36.905 79.4118 34.8883 77.5744C34.7987 77.6641 34.6867 77.7537 34.6194 77.8657C36.6585 79.7031 39.7956 82.3696 43.5376 85.0361C49.6324 89.3383 58.6178 94.4472 66.9085 94.38C67.8048 98.5029 68.3874 102.514 68.5891 106.39C68.6563 106.413 68.7235 106.413 68.7908 106.435C68.7908 106.435 68.858 106.368 68.9924 106.233C68.7235 100.901 67.7152 95.0522 65.9674 88.7557C66.5948 88.554 67.1998 88.33 67.8048 88.1059C71.3228 86.7166 74.6167 84.7 77.6193 82.0783C80.465 79.5911 83.0643 76.5661 85.3274 73.0929C86.2237 71.7261 87.0304 70.3368 87.7026 69.0372Z" fill="white"/>
</g>
<path opacity="0.3" d="M73.4067 122.658C73.4067 122.658 66.7068 97.2705 37.017 83.6917L38.5183 93.2148L33.6335 82.7057C33.6335 82.7057 16.0437 75.5354 2.46481 73.8324C2.46481 73.8324 20.57 99.3768 26.2167 103.701L35.807 105.449L28.1437 109.393C28.1437 109.393 37.8909 123.846 52.6574 129.403C67.4239 134.96 73.4067 122.658 73.4067 122.658Z" fill="#B1B5B5"/>
<g opacity="0.3">
<g opacity="0.3">
<g opacity="0.3">
<path opacity="0.3" d="M4.34704 120.328C8.7613 128.215 14.2511 133.727 20.1891 137.492C23.3037 135.251 27.0682 132.652 27.0682 132.652L24.4017 139.822C48.3552 151.474 77.4848 138.635 77.4848 138.635C68.0513 121.134 57.2285 112.889 46.8763 109.796C45.263 112.037 42.9102 115.376 42.9102 115.376L43.4928 108.967C38.3391 107.959 33.3422 108.138 28.7263 108.967C28.435 112.306 28.0317 116.07 28.0317 116.07L24.3344 109.976C12.593 113.337 4.34704 120.328 4.34704 120.328Z" fill="#B1B5B5"/>
</g>
<g opacity="0.3">
<path opacity="0.3" d="M46.8763 109.819C45.263 112.059 42.9102 115.398 42.9102 115.398L43.4928 108.99C38.3391 107.981 33.3422 108.161 28.7263 108.99C28.435 112.328 28.0317 116.093 28.0317 116.093L24.3344 109.998C12.593 113.337 4.34704 120.328 4.34704 120.328C31.1911 136.483 77.5072 138.635 77.5072 138.635C68.0513 121.134 57.2509 112.911 46.8763 109.819Z" fill="#B1B5B5"/>
</g>
</g>
</g>
<g opacity="0.3">
<g opacity="0.3">
<path opacity="0.3" d="M198.686 68.6339C193.914 70.5385 190.373 73.2274 187.819 76.2972C188.85 78.2242 190.037 80.5546 190.037 80.5546L186.183 78.5155C177.825 91.1757 182.889 108.586 182.889 108.586C193.466 104.575 198.933 99.0855 201.465 93.4613C200.322 92.3857 198.619 90.7948 198.619 90.7948L202.204 91.6014C203.168 88.7557 203.437 85.9324 203.302 83.2659C201.443 82.8626 199.336 82.3472 199.336 82.3472L203.056 80.7114C202.025 73.81 198.686 68.6339 198.686 68.6339Z" fill="#55769F"/>
<path opacity="0.3" d="M201.443 93.4165C200.3 92.3409 198.597 90.75 198.597 90.75L202.182 91.5566C203.146 88.7109 203.414 85.8876 203.28 83.2211C201.42 82.8178 199.314 82.3024 199.314 82.3024L203.034 80.6666C202.025 73.7876 198.709 68.5891 198.709 68.5891C187.572 82.5265 182.912 108.519 182.912 108.519C193.466 104.531 198.911 99.0407 201.443 93.4165Z" fill="#07085B"/>
</g>
<g opacity="0.3">
<path opacity="0.3" d="M239.737 79.6583C229.004 78.045 219.772 79.1429 211.84 82.0111C211.66 86.6046 211.324 92.0944 211.324 92.0944L206.507 84.2742C177.825 98.3685 168.504 135.386 168.504 135.386C192.009 139.352 207.784 135.184 218.338 127.655C217.419 124.496 215.985 119.79 215.985 119.79L221.609 125.078C226.382 120.933 229.9 116.093 232.477 111.118C229.541 108.385 226.27 105.225 226.27 105.225L234.74 106.211C240.297 92.6098 239.737 79.6583 239.737 79.6583Z" fill="#02CCC0"/>
<path opacity="0.3" d="M218.36 127.655C217.441 124.496 216.007 119.79 216.007 119.79L221.632 125.078C226.404 120.933 229.922 116.093 232.499 111.118C229.564 108.385 226.292 105.225 226.292 105.225L234.762 106.211C240.275 92.6322 239.737 79.6583 239.737 79.6583C204.669 93.1476 168.504 135.386 168.504 135.386C192.031 139.352 207.784 135.184 218.36 127.655Z" fill="#06BFAD"/>
</g>
<g opacity="0.3">
<path opacity="0.3" d="M232.051 129.134C226.382 124.697 220.668 122.322 215.156 121.381C213.543 123.98 211.571 127.05 211.571 127.05L211.347 120.955C190.172 119.745 172.716 138.119 172.716 138.119C185.018 148.091 195.482 150.824 204.042 149.906C204.535 147.777 205.252 144.595 205.252 144.595L206.776 149.48C210.876 148.651 214.506 146.97 217.621 144.954C216.814 142.422 215.963 139.509 215.963 139.509L220.534 142.847C228.152 136.797 232.051 129.134 232.051 129.134Z" fill="#FEB546"/>
<path opacity="0.3" d="M204.042 149.906C204.535 147.777 205.252 144.595 205.252 144.595L206.776 149.48C210.876 148.651 214.506 146.97 217.621 144.953C216.814 142.421 215.963 139.508 215.963 139.508L220.534 142.847C228.152 136.797 232.074 129.134 232.074 129.134C207.403 125.504 172.739 138.119 172.739 138.119C185.018 148.068 195.482 150.802 204.042 149.906Z" fill="#F4A640"/>
</g>
</g>
<path d="M231.401 229.138H14.5424V230.729H231.401V229.138Z" fill="#333333"/>
<path d="M110.2 225.418L101.954 220.287L94.8057 224.567L97.293 226.36L105.942 227.614C105.942 227.614 109.326 227.189 109.46 227.099C109.617 226.987 110.2 225.418 110.2 225.418Z" fill="#FFC0BB"/>
<path d="M90.3243 150.891C90.3243 150.891 91.4222 179.349 91.6239 184.278C91.8256 189.208 94.6713 225.777 95.3435 228.824L101.461 228.399C101.461 228.399 105.629 157.793 104.329 150.891C102.984 144.012 90.3243 150.891 90.3243 150.891Z" fill="#FFC0BB"/>
<path d="M110.2 225.419L112.284 226.785C113.247 227.413 112.821 228.892 111.656 228.892H95.7917C95.2315 228.892 94.7833 228.444 94.7833 227.883V224.567C105.36 227.928 109.012 226.897 110.2 225.419Z" fill="#07085B"/>
<path d="M90.2794 225.418L82.0335 220.287L74.8856 224.567L77.3728 226.36L86.022 227.614C86.022 227.614 89.4056 227.189 89.54 227.099C89.6969 226.987 90.2794 225.418 90.2794 225.418Z" fill="#FFC0BB"/>
<path d="M70.4041 150.891C70.4041 150.891 71.502 179.349 71.7037 184.278C71.9054 189.208 74.7511 225.777 75.4233 228.824L81.5406 228.399C81.5406 228.399 85.7083 157.793 84.4087 150.891C83.0867 144.012 70.4041 150.891 70.4041 150.891Z" fill="#FFC0BB"/>
<path d="M90.2795 225.419L92.3633 226.785C93.3269 227.413 92.9011 228.892 91.7359 228.892H75.8715C75.3113 228.892 74.8632 228.444 74.8632 227.883V224.567C85.4619 227.928 89.0919 226.897 90.2795 225.419Z" fill="#07085B"/>
<path d="M85.91 170.251H70.0231V220.018H85.91V170.251Z" fill="#EFEFEF"/>
<path d="M85.2154 217.598H70.3593V217.934H85.2154V217.598Z" fill="#353535"/>
<path d="M105.248 170.251H89.3607V220.018H105.248V170.251Z" fill="#EFEFEF"/>
<path d="M104.911 217.598H90.0554V217.934H104.911V217.598Z" fill="#353535"/>
<path d="M102.604 86.2461C102.671 86.3806 101.528 88.218 101.707 88.1956C101.909 88.1956 103.164 86.6495 103.231 86.7391C103.321 86.8287 102.178 88.5765 102.424 88.7109C102.671 88.8454 103.836 86.8959 103.993 87.0976C104.15 87.2993 102.895 89.2487 103.119 89.3383C103.321 89.4056 104.777 87.2545 105.225 86.5598C105.292 86.4702 105.427 86.4926 105.472 86.5822C106.121 88.1059 106.256 88.1732 106.413 88.0611C106.502 87.9939 106.48 86.0669 106.435 84.6776C110.446 76.7454 119.163 69.4406 119.163 69.4406C119.163 69.4406 120.149 59.5813 115.645 62.9648C111.679 65.9226 105.629 79.0534 104.217 82.2576L103.589 83.3556C103.365 83.6245 103.141 83.8485 103.141 83.8485C101.057 86.8511 101.147 86.9183 101.237 87.008C101.326 87.0976 102.536 86.0893 102.604 86.2461Z" fill="#FCB9B6"/>
<path d="M145.446 222.349V217.867L140.315 216.433L139.172 216.949L138.971 222.349L140.584 227.054L145.446 222.349Z" fill="#FFC0BB"/>
<path d="M128.574 229.093L146.858 229.273C147.015 229.273 147.149 229.138 147.149 228.981L147.172 227.682C147.172 227.525 147.037 227.39 146.881 227.39L128.596 227.211C128.439 227.211 128.305 227.346 128.305 227.502L128.282 228.802C128.305 228.959 128.417 229.093 128.574 229.093Z" fill="white"/>
<path d="M146.365 221.721L146.948 226.942C147.015 227.592 146.656 228.175 146.163 228.152L129.56 227.995C129.134 227.995 128.708 227.726 128.484 227.211C128.26 226.696 128.215 225.934 128.977 224.903C130.456 222.886 135.206 222.394 137.649 220.735C137.738 220.668 137.828 220.646 137.94 220.646L145.514 220.713C145.917 220.691 146.298 221.139 146.365 221.721Z" fill="#FF5B7E"/>
<path d="M138.904 223.648C139.016 223.581 139.06 223.379 138.993 223.223C138.679 222.506 137.671 220.758 135.587 221.094C135.475 221.116 135.386 221.273 135.408 221.43C135.43 221.587 135.542 221.699 135.654 221.676C137.514 221.385 138.366 222.909 138.635 223.514C138.679 223.671 138.791 223.716 138.904 223.648Z" fill="#333333"/>
<path d="M137.178 224.298C137.29 224.231 137.335 224.029 137.268 223.872C136.954 223.155 135.946 221.408 133.862 221.744C133.75 221.766 133.66 221.923 133.683 222.08C133.705 222.237 133.817 222.349 133.929 222.326C135.789 222.035 136.64 223.559 136.909 224.164C136.954 224.321 137.066 224.365 137.178 224.298Z" fill="#333333"/>
<path opacity="0.3" d="M141.951 227.413C143.139 224.321 144.886 223.626 146.074 223.559C146.343 223.536 146.567 223.76 146.612 224.007L146.925 226.92C146.993 227.57 146.634 228.152 146.141 228.13L142.421 228.085C142.085 228.107 141.839 227.749 141.951 227.413Z" fill="#E87B50"/>
<path d="M184.794 223.043V218.562L179.663 217.128L178.52 217.621L178.318 223.043L179.932 227.749L184.794 223.043Z" fill="#FFC0BB"/>
<path d="M167.899 229.474L186.183 229.654C186.34 229.654 186.474 229.519 186.474 229.362L186.497 228.063C186.497 227.906 186.362 227.771 186.206 227.771L167.921 227.592C167.764 227.592 167.63 227.726 167.63 227.883L167.607 229.183C167.63 229.34 167.742 229.474 167.899 229.474Z" fill="white"/>
<path d="M185.69 222.08L186.273 227.301C186.34 227.951 185.981 228.533 185.489 228.511L168.885 228.354C168.459 228.354 168.033 228.085 167.809 227.57C167.585 227.054 167.54 226.292 168.302 225.262C169.781 223.245 174.531 222.752 176.974 221.094C177.063 221.027 177.153 221.004 177.265 221.004L184.839 221.071C185.264 221.071 185.623 221.497 185.69 222.08Z" fill="#FF5B7E"/>
<path d="M178.229 224.029C178.341 223.962 178.385 223.76 178.318 223.604C178.004 222.886 176.996 221.139 174.912 221.475C174.8 221.497 174.711 221.654 174.733 221.811C174.755 221.968 174.867 222.08 174.979 222.057C176.839 221.766 177.691 223.29 177.96 223.895C178.004 224.029 178.139 224.096 178.229 224.029Z" fill="#333333"/>
<path d="M176.503 224.679C176.615 224.612 176.66 224.41 176.593 224.253C176.279 223.536 175.271 221.788 173.187 222.125C173.075 222.147 172.985 222.304 173.008 222.461C173.03 222.618 173.142 222.73 173.254 222.707C175.114 222.416 175.965 223.94 176.234 224.545C176.279 224.679 176.391 224.746 176.503 224.679Z" fill="#333333"/>
<path d="M174.89 225.284C175.002 225.217 175.047 225.015 174.979 224.858C174.666 224.141 173.657 222.394 171.574 222.73C171.461 222.752 171.372 222.909 171.394 223.066C171.417 223.223 171.529 223.335 171.641 223.312C173.501 223.021 174.352 224.545 174.621 225.15C174.666 225.307 174.778 225.351 174.89 225.284Z" fill="#333333"/>
<path d="M132.517 122.748C139.486 130.725 153.401 142.242 153.401 142.242L146.993 219.57C146.993 219.57 137.694 220.332 134.489 218.45C134.489 218.45 132.047 145.155 132.517 122.748Z" fill="#353535"/>
<path d="M135.139 125.706C135.161 124.585 132.45 127.901 132.495 127.005C133.571 108.228 167.383 123.98 167.383 123.98L174.486 122.837L187.55 219.256C187.55 219.256 179.058 220.691 174.195 219.256L153.401 143.183C153.401 143.183 145.962 140.763 135.139 125.706Z" fill="#353535"/>
<path d="M144.707 58.5505H156.269L156.807 63.8387C156.807 63.8387 153.065 64.847 152.706 64.6006C152.348 64.3541 146.119 62.8304 146.119 62.6959C146.119 62.5615 142.87 61.8669 143.026 61.7772C143.161 61.6876 143.273 58.5505 143.273 58.5505H144.707Z" fill="#FCB2AE"/>
<path d="M161.311 54.2484L161.894 59.4917L161.557 59.895C159.429 62.5615 156.068 63.9508 152.684 63.5698L153.894 54.6069L161.311 54.2484Z" fill="#FFC0BB"/>
<path d="M153.155 60.3208L153.939 54.6069L161.333 54.2484L161.669 57.1389C160.28 58.3041 157.569 60.0295 153.155 60.3208Z" fill="#F99893"/>
<path d="M148.449 45.2181C148.808 46.473 148.292 47.7278 147.284 48.0191C146.276 48.3104 145.155 47.5261 144.797 46.2713C144.438 45.0165 144.954 43.7617 145.962 43.4704C146.993 43.1791 148.091 43.9633 148.449 45.2181Z" fill="#F99893"/>
<path d="M148.046 52.3213C147.799 51.7611 147.598 51.1785 147.463 50.5959C147.06 48.9826 146.948 47.3021 146.948 45.8456C146.948 45.5319 146.925 45.2182 146.925 44.9045C146.836 43.6496 146.993 42.35 147.418 41.028C148.83 36.8154 152.908 33.9472 157.367 34.1041C163.372 34.3058 167.787 39.5267 167.159 45.3302C167.831 45.0389 168.549 45.0389 169.131 45.3974C170.274 46.0697 170.52 47.7502 169.691 49.1843C168.862 50.6184 167.271 51.2234 166.129 50.5511C165.972 50.4615 165.837 50.3495 165.703 50.215C164.672 55.0998 160.191 58.461 155.351 57.856C152.975 57.5647 150.936 56.3547 149.48 54.6293C149.39 54.5172 149.278 54.4052 149.166 54.2708C148.718 53.6882 148.337 53.0159 148.046 52.3213Z" fill="#FFC0BB"/>
<path d="M157.659 45.7111C157.591 46.2041 157.95 46.6298 158.42 46.6971C158.913 46.7643 159.339 46.4058 159.406 45.9352C159.474 45.4422 159.115 45.0165 158.644 44.9493C158.151 44.8821 157.703 45.2406 157.659 45.7111Z" fill="#333333"/>
<path d="M150.018 45.263C149.95 45.7559 150.309 46.2041 150.779 46.2489C151.272 46.3161 151.721 45.9576 151.765 45.487C151.833 44.9941 151.474 44.5459 151.004 44.5011C150.511 44.4339 150.085 44.77 150.018 45.263Z" fill="#333333"/>
<path d="M157.166 42.6189C157.636 42.6189 158.084 42.6189 158.488 42.6862C158.913 42.7534 159.317 42.8654 159.675 43.0223C160.034 43.2015 160.392 43.4032 160.706 43.6945L160.84 43.7841C160.885 43.8289 160.908 43.8513 160.952 43.8961L161.199 44.1202C161.356 44.2771 161.49 44.4563 161.669 44.6132C161.625 44.3891 161.557 44.165 161.468 43.941C161.356 43.7393 161.266 43.5152 161.087 43.336C160.796 42.9326 160.392 42.6413 159.944 42.4397C159.496 42.238 158.981 42.1484 158.51 42.1932C158.017 42.238 157.546 42.3725 157.166 42.6189Z" fill="#333333"/>
<path d="M152.819 41.857C152.438 41.5882 151.967 41.4537 151.474 41.4089C151.004 41.3641 150.488 41.4537 150.04 41.6554C149.592 41.857 149.166 42.1483 148.875 42.5517C148.718 42.7309 148.606 42.955 148.494 43.1567C148.404 43.3807 148.337 43.6048 148.27 43.8289C148.449 43.672 148.584 43.4928 148.74 43.3359L148.987 43.1118C149.032 43.067 149.054 43.0446 149.099 42.9998L149.233 42.9102C149.547 42.6189 149.906 42.4172 150.286 42.2604C150.667 42.1035 151.071 41.9915 151.474 41.9243C151.922 41.857 152.37 41.8346 152.819 41.857Z" fill="#333333"/>
<path d="M154.634 43.5824C154.746 44.2098 154.768 44.8596 154.701 45.487C154.678 45.8007 154.611 46.1368 154.521 46.4505C154.432 46.7643 154.297 47.1004 154.029 47.3917L153.916 47.5037L153.827 47.5933C153.782 47.6381 153.737 47.6605 153.692 47.7054C153.603 47.795 153.558 47.8846 153.536 47.9967C153.468 48.1983 153.513 48.4448 153.648 48.6913C153.916 49.1618 154.477 49.4756 155.059 49.6996C154.432 49.722 153.715 49.5428 153.244 48.9602C153.02 48.6913 152.863 48.2656 152.953 47.8622C152.975 47.7726 152.998 47.6606 153.065 47.5709C153.11 47.4813 153.177 47.3917 153.222 47.3244C153.289 47.2348 153.356 47.19 153.424 47.1228C153.468 47.078 153.468 47.078 153.491 47.0555L153.558 46.9883C153.715 46.8091 153.849 46.5402 153.939 46.2713C154.051 46.0024 154.118 45.7111 154.208 45.3974C154.365 44.8148 154.499 44.2098 154.634 43.5824Z" fill="#F99893"/>
<path d="M147.082 31.0119C149.032 29.8243 152.684 28.7263 156.404 28.6143C155.53 28.0317 154.992 27.5611 155.216 27.4043C156.986 26.0598 162.79 29.3761 164.65 30.4965C164.986 30.0259 166.196 28.5919 167.451 29.2417C168.952 30.0035 166.151 31.2583 166.151 31.2583C166.151 31.2583 168.168 31.46 168.661 32.5356C169.019 33.3198 167.787 33.1854 167.114 33.0733C167.316 33.1406 167.63 33.2974 167.944 33.5439C167.944 33.5439 170.767 35.7846 170.52 37.1291C170.453 37.4428 170.184 37.4876 169.803 37.3532C170.162 38.72 170.744 41.3193 170.252 41.6554C169.983 41.857 169.691 41.7002 169.49 41.4537C169.154 43.56 168.593 45.1957 168.593 45.1957C166.173 44.8372 164.179 47.4589 164.179 47.4589C164.694 44.2098 162.23 38.0926 162.23 38.0926C162.23 38.0926 153.02 42.0587 154.521 39.325C154.521 39.325 143.721 43.0895 145.939 37.8461C145.939 37.8461 141.816 37.5996 146.634 33.4767C146.612 33.4543 143.587 33.1406 147.082 31.0119Z" fill="#333333"/>
<path d="M122.21 57.4974L125.93 57.0717L133.033 57.2509L134.422 60.5224L132.181 62.427C132.181 62.427 130.814 63.7043 129.111 63.3906C127.408 63.0769 131.195 63.637 127.117 62.9424C123.039 62.2478 122.277 62.4943 122.344 61.7548C122.412 61.0154 122.031 60.4776 122.098 59.8054C122.12 59.1555 122.21 57.4974 122.21 57.4974Z" fill="#FFC0BB"/>
<path d="M162.924 58.5505C162.924 58.5505 179.371 59.9846 182.038 66.3707C184.704 72.7568 176.615 87.9939 176.615 87.9939L177.579 131.33C177.579 131.33 154.477 144.192 132.024 133.055L132.741 87.2768L135.61 66.7965L139.083 67.7152C139.083 67.7152 139.71 61.2394 144.573 60.612C149.435 59.9846 152.101 60.1415 152.101 60.1415C152.101 60.1415 157.3 64.7798 162.924 58.5505Z" fill="#5C9D69"/>
<path d="M142.534 90.4139C142.534 90.4139 141.032 89.2039 140.696 89.3383C140.382 89.4728 133.638 89.652 133.66 91.7807C133.683 93.9318 135.094 101.886 135.094 101.886L129.515 104.553L128.574 106.077L128.238 111.074C128.238 111.074 128.641 112.978 128.708 113.045C128.775 113.135 129.739 113.359 129.739 113.359L132.159 108.788C134.019 108.452 140.494 107.175 142.511 104.777C144.886 102.021 142.534 90.4139 142.534 90.4139Z" fill="#FCB2AE"/>
<path d="M134.131 102.379L129.515 104.575L128.574 106.099L128.238 111.096C128.238 111.096 128.641 113.001 128.708 113.068C128.775 113.157 129.739 113.381 129.739 113.381L132.159 108.81C132.809 108.698 133.996 108.474 135.363 108.116C134.467 106.054 134.198 103.858 134.131 102.379Z" fill="#FEE4CB"/>
<path d="M129.761 113.381L129.067 114.659C128.753 115.241 127.834 115.084 127.789 114.435L127.028 105.404C127.005 105.091 127.252 104.799 127.588 104.777L129.56 104.598C128.036 110.782 128.82 112.799 129.761 113.381Z" fill="#09083C"/>
<path d="M135.968 90.4139C135.968 90.4139 134.467 89.2039 134.131 89.3383C133.817 89.4728 127.072 89.652 127.095 91.7807C127.117 93.9318 128.529 101.886 128.529 101.886L122.949 104.531L122.008 106.054L121.672 111.051C121.672 111.051 122.076 112.956 122.143 113.023C122.21 113.113 123.174 113.337 123.174 113.337L125.594 108.766C127.453 108.429 133.929 107.152 135.946 104.755C138.321 102.021 135.968 90.4139 135.968 90.4139Z" fill="#FFC0BB"/>
<path d="M127.565 102.379L122.949 104.575L122.008 106.099L121.672 111.096C121.672 111.096 122.076 113.001 122.143 113.068C122.21 113.157 123.174 113.381 123.174 113.381L125.594 108.81C126.243 108.698 127.431 108.474 128.798 108.116C127.879 106.054 127.633 103.858 127.565 102.379Z" fill="#FEE4CB"/>
<path d="M123.196 113.381L122.501 114.659C122.188 115.241 121.269 115.084 121.224 114.435L120.462 105.404C120.44 105.091 120.686 104.799 121.022 104.777L122.994 104.598C121.471 110.782 122.255 112.799 123.196 113.381Z" fill="#09083C"/>
<path d="M158.286 51.2233C157.434 51.0216 156.628 51.0216 155.844 51.1785C155.463 51.2681 155.059 51.3802 154.678 51.537C154.589 51.5594 154.499 51.6266 154.387 51.649L154.096 51.7835C153.894 51.8731 153.715 51.9851 153.513 52.0524C153.648 51.8731 153.782 51.7163 153.939 51.5594C154.118 51.425 154.275 51.2681 154.454 51.1561C154.835 50.9096 155.261 50.7303 155.687 50.6407C156.135 50.5511 156.605 50.5511 157.031 50.6407C157.524 50.7527 157.972 50.932 158.286 51.2233Z" fill="#F99893"/>
<path d="M122.21 57.4974C121.426 57.587 120.619 57.7215 119.835 57.9231C116.72 58.6626 111.32 66.1018 111.32 66.1018C111.32 66.1018 112.216 70.3817 117.415 71.5244C117.415 71.5244 113.538 93.3268 124.316 95.8813C137.895 99.1304 148.606 91.1085 148.606 91.1085L143.295 83.9606C143.295 83.9606 138.904 74.8407 139.105 67.6704C139.105 67.6704 139.598 61.6652 144.214 60.6344L144.752 58.5281L133.055 57.2509C133.055 57.2509 133.167 61.8444 128.484 61.9565C122.725 62.1133 122.21 57.4974 122.21 57.4974Z" fill="#353535"/>
<g opacity="0.3">
<path opacity="0.3" d="M141.055 78.4035C121.695 77.8209 118.961 64.9366 118.961 64.9366L117.415 71.5244C117.415 71.5244 113.538 93.3268 124.316 95.8813C137.895 99.1304 148.606 91.1085 148.606 91.1085L143.295 83.9605C143.251 83.983 142.13 81.6302 141.055 78.4035Z" fill="#FA5371"/>
</g>
<path d="M163.036 83.9158C163.036 83.9158 160.213 87.2321 156.336 87.0528C155.126 87.008 126.557 78.0898 126.445 77.9778C124.63 76.9247 118.49 73.6532 115.958 75.3337C112.933 77.328 112.463 80.6667 112.62 81.9215C112.776 83.1539 114.86 86.5598 116.675 84.5208C117.527 83.5572 120.014 83.7365 122.389 84.2071C122.389 84.2071 149.883 100.071 158.376 99.3096C166.868 98.5478 172.201 92.7891 172.201 92.7891C172.201 92.7891 167.159 86.2237 163.036 83.9158Z" fill="#FFC0BB"/>
<path d="M121.112 89.5176C118.871 89.4952 117.437 91.8704 118.468 93.8646C118.983 94.873 119.812 96.083 120.955 96.9345C123.263 98.6374 128.26 98.9735 130.075 96.8896C131.89 94.8057 131.128 94.8057 131.128 94.8057C131.128 94.8057 132.204 93.5061 131.397 92.9235C131.397 92.9235 131.778 91.8256 131.039 91.6239C131.039 91.6239 130.546 91.5118 130.097 91.7583C130.097 91.7583 130.142 91.0637 129.336 91.0413C128.529 91.0413 125.011 92.8115 122.479 92.4978C120.485 92.2513 122.479 90.9517 123.42 90.4139C123.846 90.1674 124.204 89.7865 124.361 89.3159C124.406 89.1815 124.451 89.047 124.451 88.9126C124.473 88.5989 124.092 88.4196 123.868 88.6437C123.442 89.0246 122.748 89.5624 122.076 89.5624C121.874 89.54 121.515 89.5176 121.112 89.5176Z" fill="#FFC0BB"/>
<path opacity="0.3" d="M132.271 117.034L132.024 133.033C154.477 144.169 177.579 131.307 177.579 131.307L176.615 87.9715C176.615 87.9715 168.28 126.131 132.271 117.034Z" fill="#606060"/>
<path d="M118.961 64.9366C118.782 65.7657 118.602 66.5948 118.401 67.4463C118.311 67.872 118.222 68.2754 118.132 68.7011C118.042 69.1044 117.953 69.5302 117.863 69.9559L117.729 70.5833L117.617 71.2107C117.527 71.6365 117.46 72.0398 117.37 72.4655C117.213 73.2946 117.101 74.1461 116.967 74.9976C116.922 74.1461 116.967 73.2722 117.056 72.4207C117.079 72.1966 117.101 71.995 117.124 71.7709C117.146 71.5692 117.191 71.3452 117.213 71.1435C117.258 70.9418 117.28 70.7178 117.325 70.5161L117.437 69.8887C117.482 69.687 117.527 69.4629 117.572 69.2613C117.617 69.0596 117.661 68.8355 117.729 68.6339C117.841 68.2305 117.953 67.8048 118.065 67.4015C118.334 66.5276 118.602 65.7209 118.961 64.9366Z" fill="white"/>
<path d="M117.572 40.7591C117.572 40.7591 114.39 37.8237 110.581 40.6919C106.771 43.56 110.244 47.683 107.645 49.9461C107.645 49.9461 113.09 49.9013 114.726 46.0696C115.958 43.1791 117.012 42.4845 117.437 42.3276C117.706 42.238 117.93 42.0587 118.02 41.7898C118.177 41.5209 118.154 41.14 117.572 40.7591Z" fill="#333333"/>
<path d="M118.468 40.0869C118.042 40.0196 117.661 40.3109 117.594 40.7367L117.325 42.5741C117.258 43.0222 117.594 43.448 118.065 43.4704C118.49 43.4928 118.849 43.2015 118.894 42.7757L119.118 40.9383C119.163 40.535 118.871 40.1541 118.468 40.0869Z" fill="#FEE4CB"/>
<path d="M134.31 37.5548C134.31 37.5548 137.492 34.6194 141.301 37.4876C145.11 40.3557 141.637 44.4787 144.237 46.7418C144.237 46.7418 138.791 46.697 137.156 42.8654C135.923 39.9748 134.87 39.2802 134.444 39.1233C134.176 39.0337 133.951 38.8544 133.862 38.5855C133.705 38.3166 133.727 37.9357 134.31 37.5548Z" fill="#333333"/>
<path d="M132.831 37.4428C133.19 37.1963 133.66 37.3083 133.907 37.6445L134.937 39.1906C135.184 39.5715 135.072 40.0869 134.669 40.3109C134.31 40.5126 133.839 40.4006 133.615 40.042L132.629 38.4735C132.383 38.1374 132.495 37.6893 132.831 37.4428Z" fill="#FEE4CB"/>
<path d="M125.124 58.9344H130.524V53.5342H125.124V58.9344Z" fill="#FFC0BB"/>
<path d="M125.123 56.7804V53.5537H130.523V56.3098C129.358 56.9148 127.633 57.2733 125.123 56.7804Z" fill="#F99893"/>
<path d="M119.23 47.3469C119.23 47.3469 116.81 41.2969 120.283 38.4287C123.756 35.583 127.812 35.2917 130.725 36.3448C133.638 37.3756 135.946 42.0811 135.094 45.0389L125.661 43.5824L119.23 47.3469Z" fill="#333333"/>
<path d="M134.041 46.3161C133.839 47.2124 134.265 48.0415 134.982 48.1983C135.722 48.3552 136.484 47.7502 136.685 46.8763C136.887 45.98 136.461 45.1509 135.744 44.9941C135.027 44.8372 134.243 45.4198 134.041 46.3161Z" fill="#F99893"/>
<path d="M134.624 51.2009C134.781 50.7976 134.893 50.3943 134.982 49.9685C135.206 48.8257 135.229 47.6606 135.161 46.6746C135.139 46.4506 135.139 46.2489 135.139 46.0248C135.139 45.1509 134.982 44.2546 134.624 43.3807C133.459 40.535 130.411 38.7424 127.229 39.0337C122.927 39.437 119.969 43.2463 120.664 47.2348C120.171 47.078 119.656 47.1004 119.252 47.3693C118.468 47.8846 118.356 49.0498 119.006 50.0133C119.656 50.9545 120.821 51.313 121.627 50.7976C121.739 50.7304 121.829 50.6408 121.919 50.5511C122.86 53.8674 126.199 55.9961 129.649 55.3687C131.33 55.055 132.764 54.1363 133.727 52.8815C133.795 52.8143 133.862 52.7246 133.929 52.6126C134.198 52.1645 134.444 51.6939 134.624 51.2009Z" fill="#FFC0BB"/>
<path d="M127.901 46.1144C127.565 46.0024 127.229 45.9352 126.893 45.8904C126.557 45.868 126.221 45.868 125.885 45.9576C125.728 46.0024 125.571 46.0472 125.414 46.1144C125.347 46.1369 125.257 46.1817 125.19 46.2265C125.145 46.2489 125.123 46.2713 125.078 46.2937C125.033 46.3161 125.011 46.3385 124.966 46.3609C124.675 46.5402 124.428 46.7643 124.159 47.0107C124.339 46.7194 124.563 46.4506 124.854 46.2265C124.989 46.1144 125.145 46.0248 125.325 45.9352C125.482 45.8456 125.661 45.8007 125.84 45.7559C126.199 45.6663 126.579 45.6663 126.916 45.7335C127.095 45.7783 127.274 45.8232 127.431 45.8904C127.61 45.9352 127.767 46.0024 127.901 46.1144Z" fill="#333333"/>
<path d="M130.635 45.7559C130.747 45.6215 130.882 45.5094 131.016 45.3974C131.151 45.2854 131.307 45.1957 131.464 45.1061C131.778 44.9493 132.136 44.8372 132.517 44.8372C132.697 44.8372 132.876 44.8372 133.055 44.882C133.234 44.9044 133.414 44.9717 133.571 45.0389C133.907 45.1733 134.198 45.375 134.444 45.6215C134.131 45.4646 133.817 45.3078 133.503 45.2181C133.459 45.1957 133.414 45.1957 133.391 45.1957C133.346 45.1957 133.302 45.1733 133.279 45.1733C133.19 45.1509 133.122 45.1285 133.033 45.1285C132.876 45.1061 132.697 45.1061 132.54 45.1061C132.204 45.1285 131.868 45.1957 131.554 45.3078C131.24 45.3974 130.926 45.5543 130.635 45.7559Z" fill="#333333"/>
<path d="M120.641 47.2348C120.641 47.2348 125.302 44.658 127.543 41.4089C127.543 41.4089 127.7 42.9998 127.229 43.6497C127.409 43.7393 130.635 41.9915 131.106 39.3698C131.554 36.7706 127.028 38.3615 127.028 38.3615C127.028 38.3615 124.316 38.2943 124.227 38.3615C124.115 38.4287 122.367 39.7732 122.3 39.8628C122.232 39.9524 120.193 43.6721 120.193 43.6721L119.723 45.0165L119.252 47.3693L120.641 47.2348Z" fill="#333333"/>
<path d="M130.299 46.5178C130.254 46.9211 130.299 47.302 130.366 47.7054C130.411 47.907 130.456 48.0863 130.523 48.2879C130.613 48.4896 130.702 48.6689 130.882 48.8481L130.949 48.9154L131.016 48.9602C131.039 48.9826 131.083 49.005 131.106 49.0274C131.151 49.0722 131.195 49.1394 131.218 49.1842C131.285 49.2963 131.24 49.4531 131.195 49.61C131.061 49.9237 130.725 50.1478 130.389 50.3046C130.77 50.2822 131.195 50.1254 131.464 49.7444C131.599 49.5652 131.666 49.2963 131.576 49.0498C131.554 48.9826 131.531 48.9378 131.487 48.8705C131.464 48.8257 131.419 48.7809 131.375 48.7361C131.33 48.6913 131.285 48.6689 131.24 48.6241C131.218 48.6016 131.195 48.6016 131.195 48.5792L131.151 48.5568C131.039 48.4672 130.949 48.3104 130.882 48.1311C130.792 47.9742 130.747 47.795 130.68 47.6157C130.523 47.2572 130.434 46.8763 130.299 46.5178Z" fill="#F99893"/>
<path d="M175.719 89.4728L174.823 90.9741C174.262 91.9152 173.702 92.8563 173.164 93.8198L172.739 93.2372L172.47 92.8563L172.179 92.4754L171.596 91.7359L170.991 91.0189L170.677 90.6604L170.364 90.3019L169.736 89.6072C169.31 89.1591 168.862 88.6885 168.414 88.2628C167.518 87.3665 166.599 86.5374 165.636 85.7084C164.739 84.9241 163.798 84.2071 162.835 83.5124C162.991 83.266 163.171 83.0419 163.328 82.7954L163.888 81.8767L164.403 80.9356C164.582 80.6219 164.717 80.3082 164.896 79.9721C165.524 78.6948 166.106 77.3952 166.666 76.0732C166.801 75.7371 166.935 75.4234 167.07 75.0872C167.204 74.7511 167.339 74.4374 167.473 74.1013L167.854 73.1154L168.235 72.1071C168.728 70.7626 169.221 69.4406 169.669 68.0961C169.131 69.4182 168.616 70.7402 168.056 72.0398C167.495 73.3619 166.935 74.6615 166.353 75.9611C165.77 77.2608 165.165 78.538 164.538 79.8152C163.888 81.07 163.216 82.3248 162.409 83.4676L162.274 83.6469L162.454 83.7813C163.462 84.4984 164.426 85.2826 165.389 86.0893C166.353 86.896 167.271 87.7474 168.145 88.5989C168.593 89.0247 169.019 89.4728 169.467 89.9209L170.095 90.6156L170.408 90.9517L170.722 91.3102L171.327 92.0048L171.91 92.7219L172.201 93.0804L172.492 93.4613L173.052 94.2008L173.187 94.38L173.276 94.2008C173.837 93.17 174.397 92.1617 174.935 91.131L175.764 89.5848C176.033 89.0695 176.301 88.5541 176.593 88.0387C176.301 88.4869 176.01 88.9798 175.719 89.4728Z" fill="white"/>
<path d="M132.181 51.6491C130.725 49.005 126.311 54.3827 130.747 52.3661C131.106 52.2765 131.442 52.3213 131.711 52.3437C132.092 52.3885 132.361 51.9852 132.181 51.6491Z" fill="#F99893"/>
<path d="M133.638 47.1004C133.459 47.0779 133.257 47.0779 133.078 47.1004C132.898 47.1228 132.697 47.1452 132.517 47.1676C132.473 47.1676 132.405 47.19 132.361 47.19L132.383 47.1676C132.495 47.0779 132.607 46.9883 132.741 46.9211C132.988 46.7642 133.257 46.6522 133.548 46.5178C133.391 46.5402 133.257 46.5626 133.1 46.6074C132.943 46.6522 132.809 46.697 132.674 46.7642C132.383 46.8987 132.114 47.0779 131.912 47.3244L131.688 47.5933L132.024 47.5037C132.204 47.4589 132.383 47.4141 132.54 47.3692C132.719 47.3244 132.898 47.2796 133.078 47.2572C133.436 47.19 133.795 47.1676 134.176 47.2124C133.996 47.1676 133.817 47.1228 133.638 47.1004Z" fill="#333333"/>
<path d="M126.714 48.2655C126.893 48.1759 127.072 48.1311 127.274 48.0863C127.476 48.0415 127.655 47.9966 127.857 47.9742C127.901 47.9742 127.969 47.9518 128.014 47.9518C128.014 47.9518 127.991 47.9518 127.991 47.9294C127.857 47.8846 127.7 47.8398 127.543 47.795C127.252 47.7278 126.938 47.6829 126.624 47.6605C126.781 47.6381 126.938 47.6157 127.095 47.6157C127.252 47.6157 127.409 47.6157 127.588 47.6381C127.901 47.6829 128.238 47.7502 128.529 47.9518L128.82 48.1535L128.462 48.1759C128.282 48.1759 128.081 48.1983 127.901 48.2207C127.722 48.2431 127.521 48.2655 127.341 48.2879C126.96 48.3552 126.602 48.4448 126.243 48.6016C126.378 48.4448 126.535 48.3328 126.714 48.2655Z" fill="#333333"/>
<path d="M135.005 224.679C135.117 224.612 135.161 224.41 135.094 224.253C134.781 223.536 133.772 221.788 131.688 222.125C131.576 222.147 131.487 222.304 131.509 222.461C131.531 222.618 131.644 222.73 131.756 222.707C133.346 222.461 134.825 224.746 134.736 224.545C134.781 224.679 134.893 224.746 135.005 224.679Z" fill="#333333"/>
<path d="M93.3044 75.02L82.3248 73.8997L83.0643 76.6334L95.9037 79.8376L93.3044 75.02Z" fill="#FCB2AE"/>
<path d="M145.133 68.9028C145.155 68.7235 147.351 67.5807 147.149 67.4687C146.948 67.3567 144.797 68.1633 144.774 68.0289C144.752 67.8944 146.881 66.8189 146.724 66.5276C146.567 66.2587 144.259 67.4911 144.237 67.2222C144.192 66.9533 146.589 65.7209 146.41 65.4969C146.253 65.2952 143.542 66.6172 142.69 67.0206C142.578 67.0654 142.444 66.9757 142.466 66.8637C142.713 64.9815 142.623 64.8246 142.399 64.847C142.265 64.8694 141.189 66.7965 140.405 68.2081C131.823 73.7652 118.894 75.9387 118.894 75.9387C118.894 75.9387 112.171 85.1705 118.625 84.4311C124.294 83.8037 137.918 74.2581 141.189 71.9054L142.444 71.1883C142.825 71.0539 143.161 70.9418 143.161 70.9418C146.97 69.1493 146.925 69.0596 146.881 68.9028C146.881 68.8131 145.11 69.082 145.133 68.9028Z" fill="#FFC0BB"/>
<path d="M82.6161 42.8206C83.4228 43.1343 84.1174 43.7393 84.9689 43.9185C85.8876 44.1202 86.8959 43.8289 87.8146 44.0754C89.4952 44.5011 90.2346 46.4058 91.3102 47.7726C91.7135 48.288 92.2289 48.8258 92.2737 49.498C92.2961 49.8565 92.1841 50.1926 92.0944 50.5511C91.4894 53.4865 94.2904 56.1082 94.4248 59.1108C94.492 60.2311 94.1783 61.3515 94.4472 62.4495C94.7609 63.6371 95.7693 64.7798 95.3211 65.9226C95.1418 66.3708 94.7609 66.7293 94.5593 67.1774C94.1111 68.1858 94.7161 69.3958 94.4024 70.4713C94.2456 71.0315 93.8198 71.5021 93.4165 71.9278C92.5874 72.8465 91.7135 73.7652 90.6604 74.3926C89.1815 75.2889 87.4337 75.5802 85.7307 75.7819C83.7365 76.0284 81.563 76.1404 79.8824 75.0424C79.1654 74.5719 78.5828 73.9445 78.1122 73.2274C77.6865 72.6 77.3056 71.9054 77.3056 71.1659C77.3056 70.2696 77.8209 69.4406 78.1346 68.5891C78.6052 67.2671 78.4931 65.7658 77.8657 64.5333C76.947 62.7183 74.9528 61.3515 74.8407 59.3124C74.7959 58.3713 75.1768 57.4526 75.1768 56.5339C75.1544 54.8309 73.8324 53.2848 73.9893 51.5819C74.1685 49.7445 76.118 48.2432 75.625 46.3161C75.4233 45.4646 74.9752 44.6356 75.9611 44.165C76.835 43.7393 77.8433 43.3359 78.762 43.0222C80.0168 42.5293 81.3613 42.3276 82.6161 42.8206Z" fill="#333333"/>
<path d="M71.5245 46.3161C70.7626 46.8763 70.0456 47.5037 69.2165 47.9518C67.5807 48.7809 65.6537 48.7361 63.8611 49.0274C62.0461 49.3187 60.0743 50.1926 59.5141 51.9179C59.29 52.5902 59.3124 53.3296 59.1107 54.0242C58.5506 55.9513 56.377 57.0044 55.6152 58.8642C54.8309 60.7241 55.6376 62.92 55.0998 64.8694C54.8981 65.5865 54.5172 66.2587 54.4052 66.9981C54.2483 68.0289 54.5844 69.0596 54.9878 70.0231C55.8169 72.0622 56.8476 74.0789 58.5057 75.513C60.1639 76.947 62.5839 77.6641 64.623 76.8574C66.8413 75.9835 68.0289 73.6531 69.3733 71.6813C71.7933 68.1185 75.1993 65.1383 76.723 61.105C77.8658 58.08 77.8209 54.6741 79.2774 51.7835C79.8152 50.7079 80.5546 49.722 80.9804 48.6016C81.4061 47.4813 81.4509 46.092 80.6667 45.1733C79.3446 43.6048 78.5604 43.56 76.5437 44.0305C74.7287 44.4563 73.0033 45.2405 71.5245 46.3161Z" fill="#333333"/>
<path d="M109.303 72.8017L109.976 77.6641C109.976 77.6641 106.346 80.1737 104.15 77.3056L104.508 72.2639L109.303 72.8017Z" fill="#FFC0BB"/>
<path d="M101.192 64.8023C101.618 65.9898 101.214 67.2222 100.273 67.5808C99.332 67.9393 98.2117 67.2446 97.7635 66.0795C97.3378 64.8919 97.7411 63.6595 98.6822 63.301C99.6457 62.9424 100.766 63.6147 101.192 64.8023Z" fill="#F99893"/>
<path d="M104.262 75.4682L104.486 72.2863L109.281 72.8017L109.55 74.8408C108.654 75.2217 106.951 75.6922 104.262 75.4682Z" fill="#F99893"/>
<path d="M99.8698 68.1857C99.7802 66.7741 99.6681 65.34 99.7578 64.1076C99.7802 63.8387 99.7802 63.5698 99.7802 63.3009C99.8026 62.2254 99.9818 61.105 100.43 60.007C101.819 56.4667 105.248 54.2035 108.766 54.5172C113.516 54.943 116.698 59.6037 115.824 64.5333C116.384 64.3317 116.944 64.3541 117.392 64.6678C118.266 65.2952 118.356 66.7293 117.594 67.9169C116.855 69.1044 115.533 69.5526 114.681 68.9252C114.569 68.8356 114.457 68.7459 114.367 68.6115C113.225 72.7344 108.564 74.7959 104.755 74.0789C102.895 73.7428 100.161 72.5776 99.8698 68.1857Z" fill="#FFC0BB"/>
<path d="M104.777 64.13C104.822 64.5333 104.777 64.9143 104.71 65.3176C104.665 65.5193 104.62 65.6985 104.553 65.9002C104.463 66.1019 104.374 66.2811 104.194 66.4604L104.127 66.5276L104.06 66.5724C104.038 66.5948 103.993 66.6172 103.97 66.6396C103.926 66.6844 103.881 66.7517 103.858 66.7965C103.791 66.9085 103.836 67.0654 103.881 67.2222C104.015 67.5359 104.351 67.76 104.71 67.9168C104.329 67.8944 103.881 67.7376 103.634 67.3567C103.5 67.1774 103.433 66.9085 103.522 66.662C103.545 66.5948 103.567 66.55 103.612 66.4828C103.634 66.4156 103.679 66.3931 103.724 66.3483C103.769 66.3035 103.814 66.2811 103.858 66.2363C103.881 66.2139 103.903 66.2139 103.903 66.1915L103.948 66.1691C104.06 66.0794 104.15 65.9226 104.239 65.7433C104.329 65.5865 104.374 65.4072 104.441 65.228C104.553 64.8919 104.643 64.5109 104.777 64.13Z" fill="#F99893"/>
<path d="M107.219 64.1748C107.533 63.9059 107.824 63.6818 108.116 63.4802C108.429 63.2785 108.743 63.1216 109.057 63.032C109.393 62.9424 109.729 62.8528 110.088 62.8528C110.267 62.8304 110.446 62.8528 110.648 62.8528C110.849 62.8528 111.029 62.8976 111.23 62.8976C111.074 62.7855 110.894 62.6735 110.715 62.5839C110.536 62.5166 110.334 62.427 110.132 62.4046C109.729 62.315 109.281 62.3598 108.878 62.4718C108.474 62.6063 108.093 62.8304 107.802 63.1441C107.533 63.4129 107.309 63.7715 107.219 64.1748Z" fill="#333333"/>
<path d="M103.926 63.8387C103.634 63.5474 103.343 63.301 103.052 63.0993C102.76 62.8752 102.447 62.7184 102.133 62.6063C101.819 62.4943 101.461 62.4047 101.102 62.3822C100.923 62.3598 100.744 62.3822 100.542 62.3598C100.34 62.3598 100.161 62.3822 99.9594 62.3598C100.116 62.2478 100.296 62.1358 100.497 62.0685C100.699 62.0013 100.878 61.9341 101.102 61.9117C101.506 61.8445 101.954 61.9117 102.357 62.0461C102.76 62.203 103.119 62.4495 103.388 62.7632C103.657 63.0769 103.858 63.4354 103.926 63.8387Z" fill="#333333"/>
<path d="M108.183 58.4161C102.469 58.3041 102.491 54.831 102.491 54.831L102.648 54.9878C103.074 55.2791 103.97 55.3463 103.97 55.3463C102.984 52.8815 105.942 52.3885 105.942 52.3885C105.942 52.3885 103.97 54.3604 108.407 54.3604C112.844 54.3604 113.83 55.8393 113.83 55.8393C113.897 55.9737 113.919 56.1082 113.919 56.2202C113.919 56.2202 113.986 56.4443 113.852 56.758C113.762 57.0269 113.606 57.2509 113.449 57.475C113.225 57.7439 112.956 57.968 112.664 58.1472C112.082 58.5282 111.432 58.7746 110.76 58.9091C110.603 58.9539 110.424 58.9763 110.267 58.9987C110.088 59.0211 109.931 59.0435 109.751 59.0659L109.236 59.0884C109.057 59.0884 108.9 59.1108 108.721 59.0884C108.385 59.0659 108.049 59.0659 107.712 59.0211C107.376 58.9763 107.04 58.9315 106.726 58.8419C107.063 58.7971 107.399 58.7971 107.735 58.7746C107.892 58.7746 108.071 58.7522 108.228 58.7298C108.385 58.7074 108.564 58.7074 108.721 58.685C109.057 58.6626 109.371 58.6178 109.707 58.573L110.177 58.4834C110.334 58.4609 110.491 58.4385 110.648 58.3937L111.118 58.2817L111.589 58.1472C111.701 58.1248 111.813 58.0576 111.925 58.0128C111.096 58.3041 109.886 58.461 108.183 58.4161Z" fill="#333333"/>
<path d="M70.2248 47.7726C70.2248 47.7726 63.7043 55.5255 61.217 59.8278C58.4609 64.6005 53.7554 75.02 62.7856 79.8376C68.3874 82.8402 78.0674 81.8767 80.1065 79.86C82.1232 77.8433 86.9632 78.65 85.8652 57.4078C85.8652 57.4078 72.6672 49.9461 72.5328 49.9013C72.3983 49.8565 70.2248 47.7726 70.2248 47.7726Z" fill="#333333"/>
<path d="M67.9168 76.6333C67.9168 76.6333 82.3472 75.3561 88.5317 76.0508C88.5317 76.0508 88.6661 79.9496 88.3972 80.1289C88.1507 80.3306 85.3498 85.9772 85.1257 86.1789C84.9017 86.3805 81.3837 87.2096 81.3837 87.2096C81.3837 87.2096 79.1878 86.2237 78.2243 85.91C77.2831 85.5739 75.2665 84.7896 74.6839 84.095C74.1013 83.3779 70.068 81.1148 69.8663 81.1148C69.687 81.1372 67.9168 76.6333 67.9168 76.6333Z" fill="#FFC0BB"/>
<path d="M121.65 74.8184C118.961 75.0648 110.715 76.6334 110.715 76.6334C106.278 79.2102 103.455 75.7819 103.455 75.7819C101.842 75.6474 93.282 74.796 93.282 74.796L93.4165 78.3587L91.0637 79.2774L89.9657 93.1252V101.057C101.707 104.463 116.429 101.55 116.429 101.55C116.967 94.2456 116.182 85.1706 116.182 85.1706C121.314 84.6552 123.734 83.0195 123.734 83.0195C123.935 80.2858 121.65 74.8184 121.65 74.8184Z" fill="#EFEFEF"/>
<path opacity="0.31" d="M121.65 74.8184C119.992 74.9752 116.205 75.625 113.561 76.118C112.104 81.9439 106.234 92.8339 90.0554 92.0497L89.9657 93.1476V101.057C101.707 104.463 116.429 101.55 116.429 101.55C116.967 94.2456 116.182 85.1706 116.182 85.1706C121.314 84.6552 123.734 83.0195 123.734 83.0195C123.935 80.2858 121.65 74.8184 121.65 74.8184Z" fill="#353535"/>
<path d="M113.426 105.696C115.689 106.144 116.631 108.81 115.196 110.603C114.457 111.499 113.404 112.552 112.059 113.18C109.393 114.412 104.329 113.74 102.917 111.253C101.528 108.788 102.29 108.945 102.29 108.945C102.29 108.945 101.483 107.421 102.424 106.995C102.424 106.995 102.267 105.83 103.052 105.763C103.052 105.763 103.567 105.763 103.97 106.099C103.97 106.099 104.06 105.382 104.889 105.539C105.696 105.696 108.855 108.205 111.454 108.407C113.494 108.564 111.768 106.861 110.917 106.121C110.536 105.785 110.267 105.337 110.2 104.822C110.177 104.687 110.177 104.531 110.2 104.396C110.244 104.082 110.648 103.97 110.827 104.239C111.163 104.71 111.768 105.404 112.418 105.516C112.664 105.584 113.023 105.629 113.426 105.696Z" fill="#FFC0BB"/>
<path d="M75.2665 69.6198L75.3785 78.0002L82.6161 79.8376L83.8485 77.8881L83.5348 70.0456L76.1404 67.4463L75.2665 69.6198Z" fill="#FFC0BB"/>
<path d="M68.7459 58.5282C68.7459 58.5282 66.5948 49.7445 71.7037 46.4506C76.8126 43.1567 82.2352 43.5152 85.91 45.4871C89.6072 47.4589 91.8032 54.338 90.145 58.2817L77.9105 54.5173L68.7459 58.5282Z" fill="#333333"/>
<path d="M75.132 68.2754C75.132 68.2754 75.2889 69.7543 75.4009 71.5917C78.045 74.4823 82.997 73.4963 83.6693 73.205C83.6244 72.2863 83.6693 70.4041 83.6693 70.4041L75.132 68.2754Z" fill="#F99893"/>
<path d="M88.5765 59.8054C88.1507 60.993 88.5541 62.2254 89.4952 62.5839C90.4363 62.9424 91.5567 62.2478 92.0048 61.0826C92.4306 59.895 92.0272 58.6626 91.0861 58.3041C90.145 57.9456 89.0246 58.6402 88.5765 59.8054Z" fill="#F99893"/>
<path d="M88.4869 66.662C88.7557 66.1467 88.9798 65.6089 89.1591 65.0487C89.6744 63.525 89.8985 61.9341 89.9882 60.5224C90.0106 60.2311 90.033 59.9174 90.0778 59.6261C90.2346 58.4161 90.1898 57.1613 89.8761 55.8841C88.823 51.7387 85.1033 48.7137 80.8235 48.5344C75.0648 48.3103 70.4713 53.0159 70.6506 58.6178C70.0231 58.3041 69.3509 58.2368 68.7459 58.5281C67.6031 59.0883 67.2446 60.6792 67.9393 62.1133C68.6339 63.5474 70.1128 64.242 71.2556 63.6818C71.4124 63.6146 71.5468 63.5026 71.6813 63.3905C72.3311 68.1409 76.3644 71.7037 81.07 71.4572C83.3556 71.3452 85.417 70.3368 86.9183 68.7907C87.0304 68.7011 87.12 68.5891 87.232 68.477C87.7474 67.9168 88.1507 67.3118 88.4869 66.662Z" fill="#FFC0BB"/>
<path d="M79.7032 59.9398C79.7256 60.4552 79.3446 60.881 78.8293 60.9034C78.3139 60.9258 77.8881 60.5448 77.8657 60.0295C77.8433 59.5141 78.2243 59.0883 78.7396 59.0659C79.255 59.0435 79.6808 59.4245 79.7032 59.9398Z" fill="#333333"/>
<path d="M87.837 59.9398C87.8594 60.4552 87.4785 60.881 86.9632 60.9034C86.4478 60.9258 86.022 60.5448 85.9996 60.0295C85.9772 59.5141 86.3582 59.0883 86.8735 59.0659C87.3889 59.0435 87.8146 59.4245 87.837 59.9398Z" fill="#333333"/>
<path d="M80.465 57.4526C80.0169 57.3181 79.5463 57.2733 79.0982 57.2509C78.65 57.2509 78.2019 57.2957 77.7761 57.4526C77.5744 57.5198 77.3504 57.6094 77.1711 57.7215C77.0815 57.7663 76.9694 57.8335 76.8798 57.9007C76.835 57.9231 76.7902 57.968 76.7454 57.9904C76.7006 58.0128 76.6557 58.0576 76.6109 58.08C76.2524 58.3713 75.9387 58.685 75.625 59.0659C75.8043 58.6402 76.0956 58.2368 76.4317 57.9007C76.6109 57.7215 76.7902 57.587 77.0143 57.4526C77.2159 57.3181 77.44 57.2285 77.6865 57.1389C78.157 56.982 78.65 56.9372 79.143 57.0044C79.3894 57.0268 79.6135 57.0941 79.8376 57.1613C80.0393 57.2509 80.2633 57.3405 80.465 57.4526Z" fill="#333333"/>
<path d="M84.7224 57.2509C84.9241 57.1389 85.1481 57.0493 85.3946 57.0044C85.6187 56.9372 85.8652 56.9148 86.1117 56.8924C86.6046 56.87 87.0976 56.9372 87.5457 57.1165C87.7698 57.2061 87.9939 57.3181 88.1956 57.475C88.3972 57.6094 88.5765 57.7887 88.7333 57.968C89.0694 58.3265 89.3159 58.7522 89.4728 59.1779C89.1815 58.797 88.8902 58.4385 88.5541 58.1472C88.5093 58.1024 88.4644 58.08 88.4196 58.0352C88.3748 57.9904 88.33 57.968 88.2852 57.9231C88.1956 57.8559 88.1059 57.7887 88.0163 57.7215C87.837 57.6094 87.6354 57.4974 87.4113 57.4078C87.008 57.2509 86.5598 57.1613 86.1117 57.1165C85.6411 57.1165 85.193 57.1613 84.7224 57.2509Z" fill="#333333"/>
<path d="M69.4181 57.2958L69.6422 57.2734L69.7991 55.3687L70.6506 53.5985C70.6506 53.5985 73.9893 48.8482 74.1013 48.7361C74.2133 48.6241 76.7678 47.1004 76.9246 47.0108C77.0815 46.9211 80.6443 47.5261 80.6443 47.5261C80.6443 47.5261 86.9183 46.1817 85.8652 49.6772C84.812 53.1952 80.2185 55.0102 79.972 54.8534C80.7115 54.0691 80.8011 51.8284 80.8011 51.8284C77.2607 55.9065 70.6282 58.5954 70.6282 58.5954C70.6282 58.5954 69.9335 58.0576 68.7235 58.5058L69.4181 57.2958Z" fill="#333333"/>
<path d="M103.612 70.0456C104.911 66.438 111.544 72.2639 105.561 70.6506C105.091 70.6058 104.687 70.7402 104.351 70.8298C103.881 70.9643 103.455 70.5161 103.612 70.0456Z" fill="#F99893"/>
<path d="M83.1091 59.9846C83.0643 60.4328 83.1091 60.8809 83.1763 61.3067C83.2211 61.5307 83.2884 61.7548 83.3556 61.9565C83.4452 62.1805 83.5572 62.3822 83.7589 62.5839L83.8485 62.6511L83.9158 62.6959C83.9382 62.7183 83.983 62.7407 84.0054 62.7631C84.0726 62.8079 84.1174 62.8752 84.1398 62.9424C84.207 63.0768 84.1846 63.2561 84.095 63.4129C83.9382 63.7491 83.5797 64.0179 83.1763 64.1972C83.6245 64.1748 84.095 63.9955 84.3863 63.5698C84.5207 63.3681 84.6104 63.0768 84.5207 62.7855C84.4983 62.7183 84.4759 62.6511 84.4311 62.5839C84.3863 62.5166 84.3415 62.4718 84.2967 62.427C84.2519 62.3822 84.1846 62.3374 84.1398 62.2926C84.1174 62.2702 84.095 62.2702 84.0726 62.2478L84.0278 62.2029C83.9158 62.0909 83.8037 61.9117 83.7141 61.7324C83.6245 61.5531 83.5572 61.3515 83.4676 61.1498C83.378 60.8361 83.2435 60.4104 83.1091 59.9846Z" fill="#F99893"/>
<path d="M117.521 51.5069L115.261 54.2031L115.364 54.2894L117.624 51.5933L117.521 51.5069Z" fill="#FA5371"/>
<path d="M120.589 54.2563L117.072 55.398L117.114 55.5259L120.63 54.3842L120.589 54.2563Z" fill="#FA5371"/>
<path d="M116.98 57.6482L116.925 57.7708L119.804 59.0705L119.86 58.948L116.98 57.6482Z" fill="#FA5371"/>
<path d="M109.774 65.6313C109.55 65.5641 109.303 65.5193 109.057 65.4745C108.81 65.452 108.564 65.4296 108.317 65.4296C108.25 65.4296 108.183 65.4296 108.116 65.4296C108.138 65.4296 108.138 65.4072 108.161 65.4072C108.34 65.3176 108.497 65.2504 108.698 65.1832C109.057 65.0711 109.438 64.9815 109.841 64.8919C109.639 64.8695 109.438 64.8695 109.236 64.8919C109.034 64.9143 108.833 64.9367 108.631 64.9815C108.25 65.0711 107.847 65.228 107.511 65.4969L107.175 65.7882L107.623 65.7433C107.847 65.7209 108.093 65.7209 108.34 65.7209C108.586 65.7209 108.81 65.7209 109.057 65.7209C109.527 65.7433 109.998 65.8106 110.469 65.9674C110.244 65.8106 109.998 65.6985 109.774 65.6313Z" fill="#333333"/>
<path d="M101.057 65.4521C101.281 65.3848 101.528 65.34 101.774 65.2952C102.021 65.2728 102.267 65.2504 102.514 65.2504C102.581 65.2504 102.648 65.2504 102.716 65.2504C102.693 65.2504 102.693 65.228 102.671 65.228C102.491 65.1384 102.335 65.0711 102.133 65.0039C101.774 64.8919 101.394 64.8022 100.99 64.7126C101.192 64.6902 101.394 64.6902 101.595 64.7126C101.797 64.735 101.999 64.7574 102.2 64.8022C102.581 64.8919 102.984 65.0487 103.321 65.3176L103.657 65.6089L103.209 65.5641C102.984 65.5417 102.738 65.5417 102.491 65.5417C102.245 65.5417 102.021 65.5417 101.774 65.5417C101.304 65.5641 100.833 65.6313 100.363 65.7882C100.587 65.6313 100.811 65.5193 101.057 65.4521Z" fill="#333333"/>
<path d="M81.4285 66.7069C81.4285 66.7069 83.4004 65.228 84.588 65.9674C85.7756 66.7069 84.1398 66.55 83.2435 66.7069C82.6385 66.8189 80.4874 67.6704 81.4285 66.7069Z" fill="#F99893"/>
<path d="M99.4665 116.048C91.3998 110.065 91.467 97.5619 91.467 97.5619C91.467 97.5619 97.3154 82.9074 93.9991 79.0085C92.6546 77.44 90.5707 76.5661 88.5317 76.0956C87.8146 78.9637 85.91 84.9241 82.5489 84.6776C78.9861 84.4087 70.9194 78.8517 67.8944 76.6782C65.0935 77.5521 62.4046 79.143 61.822 81.9215C60.5448 88.1284 69.2389 114.547 69.2389 114.547C69.2389 114.547 56.0633 146.612 54.1139 166.33C54.1139 166.33 82.7954 180.962 121.627 166.33C121.65 166.285 107.533 122.031 99.4665 116.048Z" fill="#3F3F3F"/>
<path opacity="0.3" d="M82.5265 119.095C66.1467 104.755 67.9169 76.6558 67.9169 76.6558C65.1159 77.5297 62.427 79.1206 61.8444 81.8991C60.5672 88.1059 69.2613 114.524 69.2613 114.524C69.2613 114.524 56.0857 146.589 54.1363 166.308C54.1363 166.308 82.8178 180.94 121.65 166.308C121.65 166.308 120.149 161.602 117.841 155.059C74.8856 166.98 82.5265 119.095 82.5265 119.095Z" fill="#606060"/>
<path d="M64.9591 116.384L72.5776 122.636C72.6896 122.725 72.8465 122.703 72.9585 122.591L73.317 122.165C73.4067 122.053 73.3842 121.896 73.2722 121.784L65.6537 115.533C65.5417 115.443 65.3848 115.465 65.2728 115.577L64.9143 116.003C64.8246 116.115 64.847 116.294 64.9591 116.384Z" fill="white"/>
<path d="M75.1769 119.163L73.5411 121.695C73.3395 122.008 72.9809 122.143 72.7793 121.964L65.6985 116.16C65.5193 116.003 65.4296 115.734 65.5193 115.443C65.6089 115.129 65.8778 114.771 66.5724 114.569C67.9393 114.188 70.1352 115.6 71.7933 115.712C71.8606 115.712 71.9054 115.734 71.9502 115.779L75.1769 118.423C75.3561 118.558 75.3561 118.871 75.1769 119.163Z" fill="#318FF1"/>
<path d="M71.278 117.46C71.3452 117.46 71.4572 117.392 71.4796 117.303C71.5917 116.877 71.7933 115.757 70.785 115.174C70.7178 115.152 70.6281 115.174 70.5833 115.264C70.5385 115.331 70.5385 115.421 70.6057 115.465C71.502 115.981 71.3228 116.967 71.2107 117.303C71.1883 117.37 71.2107 117.437 71.278 117.46Z" fill="white"/>
<path d="M70.292 117.146C70.3593 117.146 70.4713 117.079 70.4937 116.989C70.6057 116.563 70.8074 115.443 69.7991 114.86C69.7319 114.838 69.6422 114.86 69.5974 114.95C69.5526 115.017 69.5526 115.107 69.6198 115.152C70.5161 115.667 70.3369 116.653 70.2248 116.989C70.2024 117.079 70.2248 117.146 70.292 117.146Z" fill="white"/>
<path d="M69.3733 116.855C69.4406 116.855 69.5526 116.787 69.575 116.698C69.687 116.272 69.8887 115.152 68.8804 114.569C68.8131 114.547 68.7235 114.569 68.6787 114.659C68.6339 114.726 68.6339 114.816 68.7011 114.86C69.5974 115.376 69.4181 116.362 69.3061 116.698C69.2837 116.787 69.3285 116.855 69.3733 116.855Z" fill="white"/>
<path opacity="0.3" d="M71.2331 120.171C72.8689 119.207 73.8548 119.499 74.3926 119.88C74.5046 119.969 74.527 120.126 74.4598 120.261L73.5411 121.672C73.3394 121.986 72.9809 122.12 72.7792 121.941L71.1883 120.641C71.0315 120.529 71.0539 120.283 71.2331 120.171Z" fill="#E87B50"/>
<path d="M81.3613 104.911C81.3613 104.911 73.4067 111.342 71.5244 114.569C71.5244 114.569 72.4207 117.796 75.6922 119.678C75.6922 119.678 84.2743 112.373 85.2602 111.925C86.2461 111.477 92.6322 111.298 92.6322 111.298C92.6322 111.298 100.094 103.836 100.094 103.791C100.094 103.746 99.6457 100.721 99.3096 100.721C98.9735 100.721 87.0752 100.049 87.0752 100.049L82.773 103.5L81.3613 104.911Z" fill="#232222"/>
<path d="M86.8735 125.459L96.6208 126.871C96.7552 126.893 96.8896 126.781 96.912 126.647L97.0017 126.109C97.0241 125.974 96.9345 125.84 96.7776 125.818L87.0304 124.406C86.8959 124.383 86.7615 124.496 86.7391 124.63L86.6494 125.168C86.6494 125.302 86.7391 125.437 86.8735 125.459Z" fill="white"/>
<path d="M97.0689 122.568L96.9793 125.571C96.9569 125.952 96.7104 126.243 96.4639 126.198L87.4113 124.876C87.1648 124.832 86.9632 124.652 86.8735 124.361C86.7839 124.047 86.8287 123.622 87.3217 123.084C88.2852 122.053 90.9069 122.12 92.3857 121.358C92.4306 121.336 92.4978 121.314 92.565 121.336L96.688 121.941C96.912 121.963 97.0689 122.232 97.0689 122.568Z" fill="#318FF1"/>
<path d="M92.8339 123.106C92.9011 123.084 92.9459 122.972 92.9235 122.882C92.8115 122.456 92.3857 121.381 91.243 121.426C91.1757 121.426 91.1085 121.515 91.1085 121.605C91.1085 121.695 91.1533 121.762 91.2206 121.762C92.2513 121.739 92.6098 122.658 92.6995 123.039C92.7219 123.106 92.7891 123.129 92.8339 123.106Z" fill="white"/>
<path d="M91.848 123.353C91.9152 123.33 91.96 123.218 91.9376 123.129C91.8256 122.703 91.3998 121.627 90.257 121.672C90.1898 121.672 90.1226 121.762 90.1226 121.851C90.1226 121.941 90.1674 122.008 90.2346 122.008C91.2654 121.986 91.6239 122.905 91.7135 123.286C91.7359 123.353 91.7808 123.375 91.848 123.353Z" fill="white"/>
<path d="M90.9069 123.577C90.9741 123.554 91.0189 123.442 90.9965 123.353C90.8845 122.927 90.4587 121.851 89.3159 121.896C89.2487 121.896 89.1815 121.986 89.1815 122.076C89.1815 122.165 89.2263 122.232 89.2935 122.232C90.3243 122.21 90.6828 123.129 90.7724 123.51C90.7948 123.577 90.8621 123.599 90.9069 123.577Z" fill="white"/>
<path opacity="0.3" d="M94.2232 125.459C95.1195 123.778 96.1278 123.532 96.7776 123.577C96.9345 123.599 97.0241 123.711 97.0241 123.868L96.9793 125.549C96.9569 125.93 96.7104 126.221 96.4639 126.176L94.4472 125.885C94.2232 125.862 94.1111 125.638 94.2232 125.459Z" fill="#E87B50"/>
<path d="M116.451 101.55C116.451 101.55 118.042 109.012 110.782 110.177C103.522 111.342 100.632 111.589 100.632 111.589L98.0996 122.927C98.0996 122.927 94.4024 122.591 91.2654 121.224C91.2654 121.224 88.2852 106.256 98.1893 101.281C108.093 96.3294 116.451 101.55 116.451 101.55Z" fill="#333333"/>
<path d="M79.3222 94.2008C78.538 93.1476 77.7761 92.0945 76.9918 91.0413C76.2076 89.9882 75.4009 88.9574 74.6167 87.9267C73.81 86.896 73.0033 85.8652 72.1743 84.8569C71.3452 83.8486 70.5161 82.8402 69.6198 81.8767C70.4489 82.885 71.2556 83.9158 72.0398 84.9465C72.8241 85.9997 73.6083 87.0304 74.3926 88.0836C75.1768 89.1367 75.9387 90.1899 76.7006 91.243C77.44 92.2513 78.1794 93.2821 78.9189 94.3128C78.4035 95.2091 77.7761 96.0158 77.0591 96.7776C76.7006 97.181 76.2972 97.5395 75.8939 97.9204C75.4906 98.2789 75.0872 98.6374 74.6615 98.9736C73.81 99.6682 72.9361 100.296 72.0398 100.901C71.1883 101.483 70.3144 102.021 69.4181 102.536L69.2837 102.357C69.2165 102.245 69.1269 102.155 69.0596 102.043C68.9252 101.819 68.7683 101.595 68.6339 101.371L68.2306 100.677L67.8496 99.9819C67.3567 99.0408 66.8861 98.0997 66.438 97.1361C65.9898 96.1726 65.5417 95.2091 65.1159 94.2456C64.6902 93.2821 64.2644 92.2962 63.8611 91.3326C64.2196 92.341 64.6006 93.3269 65.0039 94.3128C65.4072 95.2987 65.7882 96.2847 66.2139 97.2482C66.6396 98.2117 67.0878 99.1976 67.5583 100.139L67.9169 100.856L68.2978 101.55C68.4322 101.774 68.5667 102.021 68.7011 102.245C68.7683 102.357 68.858 102.469 68.9252 102.581L69.1493 102.917L69.2389 103.052L69.3957 102.962C70.3593 102.424 71.3004 101.864 72.2191 101.259C73.1378 100.654 74.0341 100.004 74.8856 99.3097C75.737 98.615 76.5661 97.8756 77.328 97.0689C78.0898 96.2623 78.7844 95.3884 79.2998 94.4024L79.367 94.2904L79.3222 94.2008Z" fill="white"/>
<path d="M116.048 88.1283C114.009 86.7839 109.102 89.4055 107.645 90.2346C107.556 90.3242 84.7 97.4722 83.7365 97.4946C81.2044 97.6066 79.2326 95.8589 78.5828 95.209C77.7089 96.3966 75.132 99.6233 71.39 101.64C71.1659 101.909 71.0539 102.088 71.0539 102.088C71.0539 102.088 75.3337 106.704 82.1231 107.309C88.9126 107.914 110.917 95.209 110.917 95.209C112.821 94.8505 114.816 94.6937 115.488 95.4779C116.944 97.0913 118.602 94.38 118.737 93.394C118.871 92.4081 118.468 89.7192 116.048 88.1283Z" fill="#FFC0BB"/>
<path d="M45.1221 228.84C46.9979 228.84 48.5184 227.422 48.5184 225.671C48.5184 223.921 46.9979 222.503 45.1221 222.503C43.2463 222.503 41.7256 223.921 41.7256 225.671C41.7256 227.422 43.2463 228.84 45.1221 228.84Z" fill="#3C354C"/>
<path d="M27.3964 228.84C29.2722 228.84 30.7928 227.422 30.7928 225.671C30.7928 223.921 29.2722 222.503 27.3964 222.503C25.5206 222.503 24 223.921 24 225.671C24 227.422 25.5206 228.84 27.3964 228.84Z" fill="#3C354C"/>
<path d="M32.6753 149.331H31.1699V188.21H32.6753V149.331Z" fill="#3C354C"/>
<path d="M40.7798 149.331H39.2744V188.21H40.7798V149.331Z" fill="#3C354C"/>
<path d="M31.5355 150.381L31.1592 149.322C31.1592 149.322 35.3082 144.753 41.1555 148.433L40.7792 150.022H39.2738C39.2738 150.022 36.8228 148.101 32.6737 150.292L31.5355 150.381Z" fill="#3C354C"/>
<path d="M30.5988 185.742C30.5988 185.742 25.5042 185.921 24.7515 191.37C23.9988 196.82 24.7515 222.153 24.7515 222.153C24.7515 222.153 30.5988 226.201 37.768 225.672C44.9371 225.142 56.4389 223.212 56.4389 223.212V193.507C56.4389 189.072 52.4734 185.455 47.7276 185.715C47.6175 185.715 47.489 185.724 47.388 185.742H30.5988Z" fill="#3C354C"/>
<path d="M37.9529 229.72C39.8287 229.72 41.3494 228.301 41.3494 226.551C41.3494 224.801 39.8287 223.382 37.9529 223.382C36.0771 223.382 34.5566 224.801 34.5566 226.551C34.5566 228.301 36.0771 229.72 37.9529 229.72Z" fill="#3C354C"/>
<path d="M56.4402 228.311C58.3159 228.311 59.8369 226.892 59.8369 225.142C59.8369 223.392 58.3159 221.973 56.4402 221.973C54.5645 221.973 53.0439 223.392 53.0439 225.142C53.0439 226.892 54.5645 228.311 56.4402 228.311Z" fill="#3C354C"/>
</svg>