<svg width="242" height="242" viewBox="0 0 242 242" fill="none" xmlns="http://www.w3.org/2000/svg">
<path opacity="0.71" d="M150.376 50.7976C141.368 51.8955 132.764 56.7355 125.862 65.0935C115.6 77.5072 108.519 94.38 111.387 110.155C114.009 124.563 123.913 136.618 131.576 148.987C139.374 161.58 141.861 174.442 139.15 188.67C136.73 201.375 135.766 213.834 150.421 220.108C197.678 240.297 219.839 165.77 217.934 134.848C216.299 108.116 199.964 78.8516 179.259 60.7241C170.274 52.8142 160.101 49.61 150.376 50.7976Z" fill="#CEEBD3"/>
<path opacity="0.71" d="M47.2124 206.126C43.9409 203.504 40.9159 200.658 38.2046 197.768C29.8019 188.782 21.8696 178.497 16.2006 167.563C4.12296 144.304 -1.97185 117.796 5.35537 92.2065C10.2178 75.1769 19.3376 54.8309 36.8602 47.907C50.9993 42.3052 63.5474 45.1061 75.2889 54.6069C85.9324 63.2337 94.268 78.3363 96.2398 91.7135C98.3909 106.435 93.3269 121.538 96.8672 136.103C98.503 142.825 102.223 148.897 104.463 155.373C107.511 164.089 107.623 174.106 106.57 183.158C105.203 194.944 101.259 212.041 88.8902 216.612C74.1461 222.057 59.0435 215.582 47.2124 206.126Z" fill="#CEEBD3"/>
<path opacity="0.54" d="M89.7641 230.034C89.7641 231.693 79.0085 233.037 65.7209 233.037C52.4333 233.037 41.6778 231.693 41.6778 230.034C41.6778 228.376 52.4333 227.032 65.7209 227.032C79.0085 227.032 89.7641 228.376 89.7641 230.034Z" fill="#D5CFD0"/>
<path opacity="0.38" d="M182.934 230.034C182.934 231.693 172.179 233.037 158.891 233.037C145.603 233.037 134.848 231.693 134.848 230.034C134.848 228.376 145.603 227.032 158.891 227.032C172.179 227.032 182.934 228.376 182.934 230.034Z" fill="#D5CFD0"/>
<path d="M73.8548 225.419C73.5411 226.203 73.4515 228.712 73.7876 229.833C74.1237 230.976 83.3107 230.617 84.7896 230.348C86.2685 230.057 85.529 225.015 78.8292 225.531L76.4541 223.604L73.8548 225.419Z" fill="#813528"/>
<path d="M71.995 211.862C71.995 211.862 73.6307 224.343 73.8772 225.418C74.1013 226.494 78.5828 226.203 78.8741 225.531C79.1654 224.858 80.0617 212.713 80.0617 211.347C80.0617 209.98 76.0283 210.047 75.8715 210.047C75.6698 210.047 71.995 211.862 71.995 211.862Z" fill="#FFC0BB"/>
<path d="M47.8398 225.419C47.5261 226.203 47.4365 228.712 47.7726 229.833C48.1087 230.976 57.2957 230.617 58.7746 230.348C60.2535 230.057 59.5141 225.015 52.8143 225.531L50.4391 223.604L47.8398 225.419Z" fill="#813528"/>
<path d="M45.9576 211.862C45.9576 211.862 47.5933 224.343 47.8398 225.418C48.0639 226.494 52.5454 226.203 52.8367 225.531C53.1279 224.858 54.0242 212.713 54.0242 211.347C54.0242 209.98 49.9909 210.047 49.8341 210.047C49.6548 210.047 45.9576 211.862 45.9576 211.862Z" fill="#FFC0BB"/>
<path d="M42.7757 130.702C42.7757 130.702 42.7757 130.792 42.7533 130.994C42.5965 133.705 41.3641 154.634 40.8039 168.056C40.1989 182.419 44.8148 211.235 44.882 212.288C44.9493 213.341 53.8898 214.484 54.562 212.96C55.2343 211.459 61.822 165.479 62.6511 160.863C62.6511 160.863 70.897 210.764 71.278 212.131C71.6589 213.498 79.8152 213.408 80.577 212.131C81.3389 210.854 82.773 138.635 81.7198 129.873C80.6667 121.112 67.5135 121.627 66.6844 121.941C65.8554 122.232 55.0326 124.518 53.4641 124.899" fill="#B07F69"/>
<path d="M53.6433 72.8689C53.4193 72.9361 43.8065 75.513 40.042 78.9189C36.2552 82.3248 35.807 97.7411 35.2693 103.029C34.7315 108.317 40.647 112.171 43.2015 112.261C43.2015 112.261 42.2156 129.649 41.7002 131.307C41.7002 131.307 63.3233 139.016 82.5937 130.77C82.5937 130.77 80.7115 114.278 80.8459 109.976C80.8459 109.976 84.3191 109.371 85.1482 104.374C85.9772 99.3769 79.5463 81.6078 77.6641 77.9778C75.7819 74.3478 64.3541 72.9137 64.3541 72.9137C64.3541 72.9137 59.2228 72.3759 58.8419 72.2415C58.4833 72.1071 53.6433 72.8689 53.6433 72.8689Z" fill="#5C9D69"/>
<path d="M54.5172 66.2811L53.6433 72.8689C53.6433 72.8689 59.6261 76.8798 64.3765 72.9361C64.3765 72.9361 63.7267 67.043 63.5922 66.1243C63.4578 65.228 54.5172 66.2811 54.5172 66.2811Z" fill="#FFC0BB"/>
<path d="M68.1857 63.1889C68.1857 63.1889 73.3394 59.6261 73.4515 51.1113C73.5635 42.5965 70.0007 38.9217 66.8189 37.51C66.8189 37.51 63.7491 32.1771 54.2259 34.1713C51.2457 34.7987 51.2681 37.8461 51.2681 37.8461C51.2681 37.8461 43.6048 40.6919 42.7533 46.3609C41.9018 52.03 43.4255 53.3969 43.4255 53.3969C43.4255 53.3969 45.1733 64.3317 54.0915 66.2587C63.032 68.1633 68.1857 63.1889 68.1857 63.1889Z" fill="#333333"/>
<path d="M69.082 97.6515C69.082 97.6515 70.292 100.968 71.3452 102.111C71.3452 102.111 73.0033 100.072 74.1461 99.3993C75.2889 98.7271 76.8574 98.2565 77.5521 97.5843C78.2243 96.9121 77.5521 96.083 77.5521 96.083C77.5521 96.083 78.7621 95.3211 77.6193 94.5817C76.4765 93.7974 73.317 93.5734 69.082 97.6515Z" fill="#FFC0BB"/>
<path d="M53.128 100.766L53.6657 97.7411C53.6657 97.7411 49.7444 96.688 47.9294 97.3602C46.1144 98.0324 45.7335 99.5561 45.7335 99.5561C45.7335 99.5561 48.6689 101.281 53.128 100.766Z" fill="#FFC0BB"/>
<path d="M63.9732 69.2613C63.8163 67.872 63.6595 66.5276 63.5922 66.1467C63.4578 65.2504 54.5172 66.3035 54.5172 66.3035L53.8898 71.0987C55.1895 71.3452 56.5787 71.1659 57.8783 71.0539C59.3796 70.9194 61.0602 70.8522 62.4719 70.2472C63.032 70.0007 63.525 69.6422 63.9732 69.2613Z" fill="#ED7550"/>
<path d="M69.1492 51.3354C70.897 57.6766 69.8215 68.6787 61.4411 69.5302C53.0383 70.3816 50.215 60.2311 50.215 60.2311C49.3187 60.3431 46.9211 59.5589 47.1004 56.7804C47.2796 54.0018 49.4755 54.5172 49.4755 54.5172C49.4755 54.5172 62.0013 50.7752 64.3316 47.5485C64.3316 47.5261 66.9309 51.1113 69.1492 51.3354Z" fill="#FFC0BB"/>
<path d="M50.1478 57.9904C50.0806 57.5646 49.9461 57.1389 49.7893 56.7355C49.61 56.3322 49.3187 55.9737 48.9154 55.8168C48.5568 55.6824 47.9743 55.7272 47.795 56.1081C47.7054 56.3098 47.907 56.5339 48.1087 56.4218C48.2655 56.3322 48.3776 56.265 48.5568 56.2874C48.7137 56.3098 48.8481 56.377 48.9602 56.4891C49.117 56.6459 49.2291 56.87 49.2963 57.0941C48.9378 57.0941 48.6241 57.4078 48.6465 57.8111C48.6465 57.8559 48.6689 57.8783 48.6689 57.9231C48.6465 57.968 48.6465 58.0128 48.6465 58.0576C48.5793 58.5281 48.9154 59.1556 49.4531 59.1107C49.6996 59.0883 49.9461 58.9539 50.0581 58.7298C50.1702 58.5057 50.1702 58.2368 50.1478 57.9904Z" fill="#ED7550"/>
<path opacity="0.64" d="M72.2639 51.4922C71.9054 51.2681 71.4796 51.3129 71.0987 51.2905C70.673 51.2681 70.2696 51.1561 69.8663 51.0216C69.1268 50.7752 68.4546 50.4166 67.8048 50.0133C67.1998 49.61 66.6172 49.1618 66.1018 48.6689C65.833 48.4224 65.5865 48.1535 65.3624 47.8846C65.1607 47.6381 64.9591 47.3692 64.735 47.1452C64.7574 47.0107 64.735 46.8987 64.7574 46.7642C64.7798 46.6074 64.623 46.5178 64.5109 46.6074C64.4885 46.6298 64.4437 46.6522 64.4213 46.697C64.1748 46.7418 64.018 46.8315 63.8163 46.9883C63.5698 47.1676 63.3009 47.3244 63.032 47.5037C62.4718 47.8846 61.8893 48.2655 61.3291 48.624C60.2087 49.3635 59.0659 50.0805 57.8783 50.7303C55.548 52.03 53.0383 53.0383 50.3943 53.464C49.6548 53.5761 48.9154 53.6657 48.1759 53.7329C47.4365 53.8002 46.697 53.6433 45.98 53.8226C45.8904 53.845 45.8904 53.957 45.9576 54.0018C46.5402 54.3603 47.2348 54.3827 47.907 54.4276C48.6017 54.4724 49.2739 54.5172 49.9685 54.4276C51.3802 54.2707 52.747 53.9346 54.0915 53.464C56.7804 52.5229 59.2452 51.0889 61.6204 49.5428C62.2702 49.117 62.92 48.6913 63.5698 48.2655C63.8611 48.0863 64.13 47.8846 64.3765 47.6605C64.5109 47.8846 64.6678 48.0863 64.8246 48.2879C65.0711 48.6016 65.34 48.8929 65.6089 49.1842C66.1691 49.7668 66.7965 50.2822 67.4687 50.7303C68.1409 51.1785 68.9028 51.5818 69.6646 51.8731C70.0904 52.03 70.5609 52.1196 71.0091 52.1644C71.4572 52.2092 72.0174 52.2092 72.3535 51.8507C72.4207 51.7611 72.3983 51.5818 72.2639 51.4922Z" fill="#3D3D3D"/>
<path opacity="0.64" d="M71.6589 54.3604C71.6589 54.0243 71.6813 53.5089 71.39 53.2849H71.3676C71.0987 53.5089 71.1435 53.9795 71.1435 54.3156C71.1435 54.7189 71.1211 55.0998 71.0763 55.5032C70.9867 56.2202 70.7626 56.9373 70.6954 57.6543C70.6954 57.7215 70.785 57.7439 70.8074 57.6991C71.3228 57.1165 71.502 56.3323 71.6141 55.5704C71.6589 55.1895 71.6589 54.7637 71.6589 54.3604Z" fill="#3D3D3D"/>
<path opacity="0.64" d="M48.4 61.5756C47.9743 61.2843 47.6606 60.7689 47.4141 60.3432C47.1228 59.8502 46.8987 59.3349 46.697 58.8195C46.4506 58.2369 46.2489 57.6543 46.0472 57.0717C45.9352 56.758 45.8456 56.4667 45.7335 56.153C45.6439 55.9065 45.5767 55.66 45.375 55.4808C45.3526 55.4808 45.3302 55.4584 45.3302 55.4808C45.2182 55.7273 45.2854 55.9513 45.3302 56.1978C45.3974 56.5563 45.4871 56.8925 45.5991 57.251C45.8008 57.9008 46.0472 58.5506 46.2937 59.178C46.5178 59.7158 46.7643 60.3208 47.1004 60.7913C47.4365 61.2619 47.795 61.5308 48.3552 61.6876C48.4224 61.71 48.4672 61.598 48.4 61.5756Z" fill="#3D3D3D"/>
<path opacity="0.64" d="M50.1926 62.1582C50.1702 62.1358 50.1702 62.0909 50.1702 62.0685C50.1702 62.0461 50.1478 62.0013 50.1478 61.9789C50.1478 61.9565 50.1478 61.9117 50.1254 61.8893C50.1254 61.8669 50.103 61.8221 50.0806 61.7996C50.0358 61.6876 49.9909 61.5756 49.9461 61.4635C49.9013 61.3515 49.8565 61.2395 49.8117 61.1274C49.7669 60.993 49.6772 60.9034 49.6324 60.7689C49.6324 60.7465 49.5652 60.7241 49.5652 60.7689C49.5652 60.8361 49.5428 60.8809 49.5428 60.9482C49.5428 60.993 49.5204 61.0154 49.5204 61.0602C49.5204 61.0826 49.5204 61.1274 49.5204 61.1498C49.5204 61.2843 49.5652 61.4411 49.61 61.5756C49.6548 61.71 49.7221 61.8445 49.7893 61.9565C49.8117 61.9789 49.8341 62.0013 49.8565 62.0461C49.8789 62.0909 49.9237 62.1134 49.9461 62.1358C49.9685 62.1582 49.9909 62.1806 50.0133 62.203C50.0358 62.2254 50.0806 62.2478 50.103 62.2702C50.1254 62.2702 50.215 62.2254 50.1926 62.1582Z" fill="#3D3D3D"/>
<path opacity="0.64" d="M63.4802 42.5068C62.8304 43.6272 61.7548 44.5459 60.7913 45.375C59.7606 46.2264 58.6626 47.0107 57.4974 47.6605C55.167 49.005 52.6798 50.0133 50.0357 50.5511C49.2963 50.7079 48.5344 50.82 47.7726 50.8872C47.4141 50.932 47.0555 50.9544 46.697 50.9992C46.3385 51.044 46.0024 51.044 45.6663 51.2009C45.5991 51.2233 45.5991 51.3577 45.6663 51.4026C46.2713 51.6714 47.0331 51.5818 47.683 51.537C48.3552 51.4922 49.0498 51.4026 49.722 51.2905C51.1113 51.0664 52.4781 50.7079 53.8226 50.2822C56.4891 49.4083 58.9539 48.0414 61.1274 46.2937C62.3374 45.3302 63.4578 44.2098 63.6819 42.5965C63.6819 42.462 63.5474 42.3948 63.4802 42.5068Z" fill="#3D3D3D"/>
<path opacity="0.64" d="M62.5615 39.1457C62.1581 39.6387 61.7324 40.1317 61.3067 40.6022C60.8809 41.0952 60.4776 41.6106 60.0294 42.1035C59.1555 43.0894 58.192 43.9633 57.1389 44.7476C54.9205 46.4057 52.3885 47.4589 49.6772 47.9519C48.7585 48.1087 47.8398 48.2207 46.8987 48.288C46.4281 48.3328 45.9576 48.3552 45.487 48.4C45.0165 48.4448 44.6356 48.5344 44.1874 48.6465C44.165 48.6465 44.1426 48.7137 44.1874 48.7137C44.5907 48.8033 44.9493 48.893 45.375 48.893C45.8007 48.9154 46.2489 48.9154 46.6746 48.893C47.5261 48.8706 48.4 48.8257 49.2515 48.7137C50.7304 48.5344 52.1868 48.1983 53.5761 47.6606C56.153 46.6746 58.5057 45.1285 60.388 43.1119C60.9033 42.5517 61.3963 41.9691 61.7996 41.3193C62.2029 40.6694 62.4718 39.9524 62.7183 39.213C62.7407 39.1457 62.6063 39.0561 62.5615 39.1457Z" fill="#3D3D3D"/>
<path opacity="0.64" d="M61.6652 35.9191C61.1946 37.017 60.3656 37.9581 59.5141 38.8096C58.6402 39.6835 57.6767 40.4678 56.6684 41.1848C54.6517 42.6189 52.4109 43.7617 50.0358 44.5011C49.3859 44.7028 48.7137 44.882 48.0415 45.0389C47.7054 45.1061 47.3693 45.1957 47.0332 45.263C46.6747 45.3302 46.361 45.487 46.0024 45.5767C45.9128 45.5991 45.9352 45.7335 46.0248 45.7335C46.3385 45.7335 46.6298 45.8007 46.9435 45.7559C47.2797 45.7335 47.6158 45.6663 47.9295 45.5991C48.5569 45.487 49.1843 45.3302 49.7893 45.1509C51.0217 44.7924 52.2317 44.3442 53.3969 43.8065C55.7048 42.7533 57.968 41.2968 59.7382 39.4594C60.7017 38.4511 61.4187 37.3307 61.7548 35.9639C61.7996 35.8966 61.6876 35.8518 61.6652 35.9191Z" fill="#3D3D3D"/>
<path opacity="0.64" d="M71.0539 47.1676C69.8439 47.5261 68.7459 46.9211 67.8944 46.092C67.4239 45.6439 66.9757 45.1285 66.5948 44.5907C66.3931 44.2994 66.1915 44.0081 66.0122 43.7168C65.8554 43.4704 65.6985 43.2015 65.452 43.0446C65.4296 43.0222 65.3848 43.0446 65.3848 43.0894C65.34 43.4255 65.5192 43.7841 65.6761 44.0978C65.8554 44.4563 66.057 44.7924 66.2811 45.1285C66.7068 45.7559 67.1998 46.3609 67.76 46.8763C68.2753 47.3468 68.9028 47.7726 69.5974 47.907C70.1576 48.0191 70.9194 47.907 71.1659 47.302C71.2107 47.2124 71.1211 47.1452 71.0539 47.1676Z" fill="#3D3D3D"/>
<path opacity="0.64" d="M70.5385 44.3219C70.3144 44.165 70.068 44.0306 69.8439 43.8737C69.3957 43.5824 68.97 43.2463 68.5891 42.8878C68.1857 42.5293 67.8272 42.1259 67.4911 41.7002C67.1774 41.2969 66.9309 40.7367 66.5052 40.423C66.4828 40.4006 66.438 40.423 66.438 40.4454C66.4155 40.9832 66.7741 41.5209 67.0654 41.9467C67.3791 42.4396 67.76 42.8878 68.1633 43.3135C68.5667 43.7169 69.0148 44.0978 69.5078 44.4115C69.7543 44.5683 70.0007 44.7252 70.2472 44.8372C70.4937 44.9493 70.7402 45.0389 71.0091 44.9269C71.0539 44.9044 71.0539 44.8596 71.0539 44.8148C70.9642 44.5907 70.7402 44.4563 70.5385 44.3219Z" fill="#3D3D3D"/>
<path d="M58.685 54.8981C58.6402 54.8981 58.5954 54.8981 58.5505 54.8757C58.4161 54.8085 58.2593 54.8085 58.1248 54.7637C57.968 54.7189 57.8111 54.6517 57.6767 54.562C57.3406 54.3828 57.0493 54.1811 56.6907 54.0467C56.3322 53.9346 55.9289 53.9122 55.5928 54.1139C55.4135 54.2259 55.2791 54.3828 55.167 54.5396C55.055 54.6965 54.943 54.8533 54.9878 55.055C55.0102 55.1222 55.0774 55.1894 55.1446 55.2119C55.4807 55.2791 55.6824 54.943 55.9737 54.8309C56.2426 54.7413 56.5115 54.8533 56.7356 54.9878C57.0268 55.1446 57.2957 55.3463 57.6094 55.4807C57.9231 55.6152 58.3937 55.7496 58.6626 55.5031C58.7298 55.4807 58.7746 55.4359 58.8418 55.3911C58.9763 55.2567 58.9315 54.943 58.685 54.8981Z" fill="#663233"/>
<path d="M58.3937 57.1164C58.3937 57.094 58.3937 57.094 58.3937 57.0716C58.3937 56.9148 58.3713 56.7579 58.3041 56.6235C58.2593 56.4666 58.1921 56.3098 58.08 56.1753C57.7887 55.884 57.3182 55.9737 57.0941 56.3098C56.9597 56.5115 56.9148 56.8027 56.8924 57.0492C56.8476 57.4526 56.8924 58.2144 57.1837 58.5281C57.7663 59.1331 58.3937 58.5281 58.3937 57.8111C58.3937 57.699 58.3937 57.6094 58.3937 57.4974C58.3937 57.3629 58.3937 57.2285 58.3937 57.1164Z" fill="#663233"/>
<path d="M63.9283 54.5844C63.9732 54.5844 64.018 54.5844 64.0628 54.562C64.1972 54.4948 64.3541 54.4948 64.4885 54.45C64.6454 54.4052 64.8022 54.338 64.9367 54.2483C65.2728 54.0691 65.5641 53.8674 65.9226 53.7329C66.2811 53.6209 66.6845 53.5985 67.0206 53.8002C67.1998 53.9122 67.3343 54.0691 67.4463 54.2259C67.5583 54.3828 67.6704 54.5396 67.6256 54.7413C67.6032 54.8085 67.5359 54.8757 67.4687 54.8981C67.1326 54.9654 66.9309 54.6293 66.6396 54.5172C66.3707 54.4276 66.1019 54.5396 65.8778 54.6741C65.5865 54.8309 65.3176 55.0326 65.0039 55.167C64.6902 55.3015 64.2196 55.4359 63.9508 55.1894C63.8835 55.167 63.8387 55.1222 63.7715 55.0774C63.6371 54.943 63.7043 54.6293 63.9283 54.5844Z" fill="#663233"/>
<path d="M64.9143 56.6459C64.9143 56.6235 64.9143 56.6235 64.9143 56.6011C64.9143 56.4443 64.9367 56.2874 65.0039 56.153C65.0487 55.9961 65.1159 55.8393 65.228 55.7048C65.5193 55.4135 65.9898 55.5032 66.2139 55.8393C66.3483 56.0409 66.3931 56.3322 66.4155 56.5787C66.5052 57.2061 66.5052 58.4833 65.4968 58.2593C64.847 58.1248 64.9367 57.5198 64.9143 57.0269C64.8919 56.8924 64.8919 56.7804 64.9143 56.6459Z" fill="#663233"/>
<path d="M63.3009 59.3124C63.2785 59.2676 63.2561 59.2227 63.1889 59.2452C63.1441 59.2452 63.0993 59.2452 63.0544 59.2676C63.032 59.2676 62.9872 59.2676 62.9872 59.2676C62.9648 59.2676 62.9424 59.2676 62.9424 59.2676C62.8304 59.2676 62.7632 59.3124 62.6735 59.3572C62.5839 59.402 62.4943 59.4692 62.4046 59.514C62.3822 59.5365 62.2702 59.5813 62.3374 59.5589C62.2926 59.5813 62.2254 59.6037 62.1806 59.6037C62.1357 59.6261 62.0909 59.6261 62.0461 59.6261C62.0237 59.6261 62.0013 59.6261 61.9789 59.6485C61.9789 59.6485 61.9789 59.6485 61.9565 59.6485C61.8669 59.6485 61.7548 59.6485 61.6652 59.6485C61.6428 59.6485 61.6204 59.6485 61.6204 59.6485C61.598 59.6485 61.5756 59.6485 61.5532 59.6261C61.5083 59.6261 61.4635 59.6037 61.3963 59.5813C61.3067 59.5589 61.1946 59.514 61.105 59.4692C60.993 59.4244 60.9033 59.402 60.7913 59.4244C60.7689 59.4244 60.7465 59.4468 60.7241 59.4692C60.7017 59.6037 60.7241 59.7157 60.7913 59.8278C60.8809 59.9622 60.993 60.0518 61.1274 60.1415C61.3739 60.2983 61.6652 60.3879 61.9565 60.4103C62.2478 60.4328 62.5391 60.3431 62.808 60.2311C62.9424 60.1639 63.0769 60.0966 63.1889 59.9846C63.3233 59.8502 63.3682 59.6933 63.3458 59.514C63.3233 59.4244 63.3233 59.3796 63.3009 59.3124Z" fill="#ED7550"/>
<path d="M63.3457 63.1889C63.3009 63.0768 63.1665 62.9872 63.0544 62.92C62.92 62.8527 62.7856 62.8079 62.6287 62.7855C62.3598 62.7183 62.0909 62.6735 61.7996 62.6959C61.5532 62.7183 61.3291 62.7631 61.0826 62.8752C60.8809 62.9648 60.6793 63.1664 60.6345 63.3905C60.6345 63.4577 60.6793 63.5026 60.7241 63.4801C60.9033 63.4353 61.0826 63.3681 61.2843 63.3009C61.4635 63.2337 61.6652 63.2113 61.8669 63.2337C62.0909 63.2337 62.3374 63.2785 62.5615 63.3457C62.7856 63.4129 63.0544 63.5026 63.2785 63.3905C63.3681 63.3233 63.3681 63.2337 63.3457 63.1889Z" fill="#ED7550"/>
<path d="M63.9507 72.5104C63.5474 72.7345 63.2113 73.0034 62.808 73.2274C62.427 73.4291 62.0237 73.6084 61.6204 73.7428C60.7913 74.0341 59.9174 74.1685 59.0211 74.1685C58.1472 74.1685 57.2957 74.0341 56.4667 73.7652C56.0409 73.6308 55.6152 73.4515 55.2119 73.2498C54.8085 73.0482 54.45 72.7793 54.0467 72.5776C53.733 72.4208 53.3745 72.8241 53.6433 73.093C54.2932 73.7652 55.2791 74.1909 56.153 74.4822C57.0717 74.7959 58.0352 74.9528 59.0211 74.9528C59.9846 74.9528 60.9706 74.7959 61.8893 74.4822C62.3598 74.3254 62.808 74.1461 63.2337 73.9221C63.6595 73.698 64.1076 73.4515 64.4437 73.1378C64.7574 72.8241 64.3317 72.2863 63.9507 72.5104Z" fill="#64281B"/>
<path d="M80.5546 109.124C80.5098 109.034 80.3754 108.967 80.3081 109.057C80.2185 109.169 80.1513 109.259 80.0841 109.348C79.0533 109.371 78.0226 109.438 76.9918 109.438C75.8491 109.438 74.7287 109.371 73.6083 109.281C71.3676 109.079 69.1492 108.721 66.9533 108.228C66.0122 108.004 65.0487 107.78 64.1076 107.533C65.3176 107.018 66.5052 106.458 67.6704 105.808C68.5891 105.292 69.4629 104.71 70.3144 104.082C70.673 103.814 71.1211 103.545 71.2331 103.074C71.2555 103.007 71.2555 102.94 71.2331 102.872C71.2331 102.85 71.2555 102.85 71.2555 102.828C71.3676 102.536 71.3676 102.335 71.3228 102.021C71.278 101.752 71.2331 101.483 71.1659 101.214C71.0315 100.676 70.8522 100.161 70.6281 99.6681C70.2024 98.6598 69.575 97.7635 68.8355 96.9568C68.7459 96.8672 68.5667 96.8 68.4322 96.8448C66.6172 97.5394 64.7574 98.1892 62.8528 98.727V98.7046C62.8528 98.6374 62.7631 98.5926 62.7183 98.615C62.6735 98.5926 62.6511 98.5926 62.6511 98.5926C62.6063 98.5702 62.5391 98.5702 62.4942 98.5702C62.3374 98.5702 62.1805 98.5926 62.0237 98.5926C61.5979 98.5702 61.1946 98.5478 60.7689 98.503C59.9846 98.4357 59.2228 98.2789 58.4609 98.0772C56.9596 97.6963 55.4807 97.2033 53.9122 97.0465C53.7554 97.0241 53.5985 97.1585 53.5537 97.3154C53.4192 97.8531 53.3072 98.3685 53.2176 98.9063C53.1728 99.1752 53.1279 99.4217 53.1055 99.6905C53.0831 99.8026 53.0831 99.8922 53.0607 100.004C53.0383 100.184 53.0607 100.273 53.0831 100.43C51.8731 100.497 50.6631 100.497 49.4531 100.408C48.3328 100.34 47.2572 100.161 46.1816 99.8474C46.1144 99.825 46.0248 99.8026 45.98 99.7354C45.8007 99.5337 45.8007 98.7046 45.7783 98.4581C45.7559 97.8531 45.7559 97.2481 45.7335 96.6431C45.7335 95.4331 45.7335 94.2231 45.8007 93.0131C45.8455 91.8031 45.9352 90.5931 46.0472 89.3831C46.092 88.7781 46.1592 88.1731 46.2265 87.5905C46.2937 87.0079 46.3833 86.4702 46.2937 85.8876C46.2713 85.8204 46.1592 85.798 46.1368 85.8652C45.8679 86.3805 45.8007 86.9407 45.6887 87.5233C45.5991 88.1059 45.5094 88.6885 45.4422 89.2711C45.2854 90.4811 45.1733 91.6911 45.1061 92.9011C45.0389 94.1111 44.9941 95.3211 44.9941 96.5311C44.9941 97.1361 44.9941 97.7411 45.0165 98.3461C45.0165 98.7046 44.7924 99.2648 44.9492 99.6233C45.1509 100.139 45.98 100.452 46.4505 100.632C47.1004 100.901 47.795 101.035 48.4896 101.125C50.1029 101.326 51.7611 101.304 53.3968 101.237C56.7131 101.057 60.007 100.43 63.2113 99.5113C64.9591 99.0183 66.6844 98.4133 68.3874 97.7859C68.9924 98.4805 69.4854 99.2424 69.8663 100.094C70.068 100.542 70.2024 101.013 70.3368 101.483C70.4041 101.707 70.4489 101.954 70.4713 102.178C70.4937 102.312 70.4937 102.469 70.5161 102.581C70.4937 102.604 70.4937 102.626 70.4937 102.648C70.4713 102.693 70.4265 102.738 70.4265 102.783C70.4041 102.85 70.4041 102.895 70.3817 102.94C70.292 103.096 70.1352 103.186 70.0007 103.276C69.6422 103.567 69.2613 103.836 68.8804 104.082C68.1409 104.575 67.3791 105.024 66.5948 105.449C65.0487 106.278 63.4354 106.973 61.7772 107.578C58.2817 108.878 54.6517 109.931 51.0216 110.782C49.9461 111.029 48.8481 111.275 47.7726 111.477C47.2348 111.589 46.6746 111.679 46.1368 111.768C45.6439 111.858 45.1509 111.947 44.6803 112.149C44.5907 112.194 44.6355 112.306 44.7028 112.328C45.1733 112.463 45.6663 112.418 46.1592 112.373C46.6522 112.328 47.1676 112.261 47.6605 112.194C48.6913 112.037 49.7444 111.858 50.7752 111.634C52.8591 111.186 54.8981 110.625 56.9372 109.998C59.178 109.326 61.4411 108.609 63.637 107.712C63.9955 107.869 64.3317 108.026 64.6902 108.161C65.228 108.362 65.7881 108.541 66.3259 108.698C67.4015 109.012 68.4994 109.303 69.6198 109.527C71.8605 109.976 74.1461 110.2 76.4093 110.244C77.7089 110.267 79.0309 110.289 80.3306 110.132C80.5322 110.11 80.7563 109.976 80.7339 109.729C80.7115 109.505 80.6443 109.326 80.5546 109.124ZM53.5313 100.363C53.5537 100.296 53.5985 100.251 53.6209 100.161C53.6433 100.049 53.6657 99.937 53.6881 99.8026C53.7329 99.5561 53.8002 99.2872 53.845 99.0407C53.957 98.615 54.0466 98.1892 54.1587 97.7635C55.7048 97.9652 57.2061 98.5254 58.7298 98.9063C59.402 99.0855 60.0967 99.1752 60.7913 99.2424C58.3937 99.825 55.9737 100.228 53.5313 100.363Z" fill="#64281B"/>
<path d="M76.0059 92.8115C75.9611 92.4082 75.8939 92.0048 75.8267 91.6015C75.6922 90.7948 75.513 89.9882 75.3337 89.2039C75.1545 88.4197 74.9304 87.6578 74.6839 86.896C74.5719 86.515 74.4374 86.1117 74.2806 85.7308C74.1461 85.3947 74.0565 84.9913 73.81 84.7C73.7428 84.6104 73.6083 84.7 73.6083 84.7897C73.6083 85.1482 73.7428 85.5067 73.8324 85.8428C73.9444 86.2237 74.0341 86.6047 74.1237 86.9856C74.3254 87.7698 74.4822 88.5541 74.6391 89.3384C74.7959 90.1002 74.908 90.8845 75.02 91.6687C75.0648 92.0497 75.132 92.453 75.1769 92.8339C75.2217 93.1924 75.1993 93.6406 75.4233 93.9543C75.5578 94.1111 75.8491 94.1784 75.9611 93.9543C76.1628 93.551 76.0732 93.1924 76.0059 92.8115Z" fill="#64281B"/>
<path d="M76.7902 100.004C76.7454 99.8026 76.723 99.601 76.6333 99.3993C76.5885 99.3097 76.5437 99.22 76.4765 99.1528C76.4317 99.1304 76.4093 99.0856 76.3645 99.0632C76.2972 99.0408 76.2748 99.0184 76.3196 99.0408C76.2076 98.9511 76.0732 98.996 76.0059 99.1304C76.0059 99.1304 75.9163 99.2648 75.8939 99.3097C75.8715 99.3993 75.8715 99.5113 75.8715 99.6234C75.8715 99.825 75.9387 100.004 75.9835 100.206C76.0508 100.452 76.0732 100.721 76.1404 100.99C76.0956 101.013 76.0283 101.013 75.9835 101.035C75.8267 101.08 75.6698 101.102 75.513 101.147C75.2217 101.192 74.908 101.237 74.6167 101.237C74.303 101.237 73.9893 101.237 73.698 101.214C73.5411 101.192 73.3843 101.169 73.2274 101.169C73.0705 101.147 72.9361 101.169 72.8017 101.192C72.6896 101.214 72.6672 101.349 72.7344 101.416C72.8689 101.55 72.9809 101.618 73.1602 101.685C73.317 101.73 73.4739 101.774 73.6307 101.797C73.9669 101.864 74.303 101.909 74.6391 101.909C74.9752 101.909 75.3113 101.887 75.6474 101.842C75.8043 101.819 75.9611 101.797 76.118 101.752C76.2076 101.73 76.2972 101.707 76.3869 101.685C76.4541 101.662 76.5437 101.618 76.6109 101.618C76.8126 101.618 77.0143 101.438 76.9919 101.237C76.9919 100.811 76.8574 100.408 76.7902 100.004Z" fill="#64281B"/>
<path d="M81.9887 130.12C77.3055 132.361 72.1742 133.593 66.9981 133.727C64.2644 133.795 61.5307 133.727 58.8194 133.571C56.153 133.436 53.4641 133.19 50.82 132.786C49.3411 132.562 47.8846 132.271 46.4057 132.024C44.882 131.756 43.4031 131.33 41.9018 131.061C41.6778 131.016 41.6106 131.307 41.8122 131.397C43.067 131.935 44.4339 132.248 45.7559 132.585C47.0555 132.921 48.4 133.19 49.7444 133.414C52.4333 133.862 55.167 134.153 57.8783 134.332C60.6344 134.512 63.3905 134.601 66.1467 134.579C68.8131 134.556 71.4796 134.288 74.1013 133.727C76.9694 133.1 79.7704 132.136 82.4368 130.859C82.9298 130.635 82.4816 129.896 81.9887 130.12Z" fill="#64281B"/>
<path d="M50.82 134.646C50.5959 134.915 50.2822 135.049 50.0806 135.363C49.8789 135.654 49.6996 135.923 49.4531 136.192C49.005 136.73 48.4896 137.201 47.907 137.604C47.3244 138.007 46.697 138.321 46.0696 138.59C45.7559 138.724 45.4422 138.814 45.1285 138.926C44.7924 139.016 44.4115 139.06 44.1202 139.217C43.9409 139.307 43.9857 139.576 44.165 139.621C44.5011 139.71 44.9044 139.621 45.263 139.576C45.6439 139.509 46.0024 139.419 46.3609 139.284C47.0556 139.038 47.7502 138.679 48.3552 138.254C48.9602 137.828 49.5428 137.335 50.0357 136.752C50.2822 136.484 50.5063 136.17 50.708 135.879C50.7976 135.722 50.9096 135.565 50.9544 135.386C50.9769 135.184 50.9769 134.96 51.0217 134.758C51.0217 134.646 50.9096 134.557 50.82 134.646Z" fill="#936C59"/>
<path d="M63.2561 147.351C63.2113 146.208 63.2113 145.066 63.2113 143.945C63.2113 142.802 63.2561 141.66 63.3009 140.539C63.3233 139.979 63.3457 139.396 63.3905 138.836C63.413 138.231 63.5026 137.626 63.413 137.021C63.3681 136.73 62.9648 136.618 62.8528 136.954C62.6735 137.537 62.6511 138.142 62.6063 138.724C62.5615 139.284 62.5391 139.867 62.4943 140.427C62.427 141.615 62.4046 142.78 62.3822 143.968C62.3822 144.909 62.3822 145.85 62.4046 146.791C62.3374 146.724 62.2702 146.656 62.203 146.589C61.8893 146.253 61.6428 145.872 61.4187 145.469C60.9481 144.617 60.5672 143.676 60.2311 142.758C59.8278 141.704 59.5589 140.651 59.4692 139.509C59.4244 138.926 59.402 138.343 59.3572 137.738C59.3348 137.469 59.3348 137.178 59.2676 136.932C59.2004 136.663 58.9987 136.506 58.8867 136.259C58.8194 136.125 58.6178 136.192 58.6178 136.327C58.6178 136.416 58.6178 136.506 58.5954 136.596C58.4833 136.797 58.4833 137.021 58.5057 137.245C58.5281 137.559 58.5729 137.873 58.5729 138.186C58.5954 138.769 58.6178 139.352 58.685 139.957C58.797 141.122 59.1331 142.22 59.5813 143.318C59.9622 144.259 60.3431 145.222 60.8585 146.096C61.1946 146.656 61.7548 147.463 62.4494 147.754C62.4718 148.225 62.4718 148.696 62.5167 149.166C62.5391 149.771 62.5391 150.376 62.6511 150.981C62.7407 151.429 63.3457 151.272 63.3905 150.869H63.413C63.4354 150.286 63.3681 149.681 63.3233 149.099C63.3009 148.516 63.2785 147.934 63.2561 147.351Z" fill="#936C59"/>
<path d="M79.9944 139.24C79.9048 139.038 79.5463 139.016 79.3894 139.016C78.3587 138.993 77.5072 138.209 76.8798 137.469C76.5213 137.044 76.2076 136.551 75.9611 136.058C75.8267 135.811 75.7146 135.542 75.6026 135.296C75.4906 135.027 75.4233 134.713 75.132 134.579C75.0872 134.556 75.0424 134.579 75.02 134.601C74.7063 134.96 75.02 135.654 75.1769 136.035C75.3785 136.528 75.6026 136.999 75.8939 137.425C76.4765 138.276 77.2607 139.105 78.2243 139.508C78.4483 139.598 78.6724 139.665 78.8965 139.71C79.1654 139.755 79.5015 139.8 79.7479 139.643C79.8824 139.576 80.0841 139.396 79.9944 139.24Z" fill="#936C59"/>
<path d="M54.6965 213.139C54.4948 213.139 54.3156 213.094 54.1139 213.139C53.9346 213.162 53.7778 213.229 53.6209 213.274C53.24 213.363 52.8591 213.386 52.4781 213.408C51.6491 213.431 50.82 213.318 50.0133 213.184C49.1843 213.05 48.3552 212.87 47.5485 212.646C47.1452 212.534 46.7418 212.4 46.3385 212.265C45.9576 212.153 45.5543 211.907 45.1733 212.131C45.1285 212.153 45.1061 212.221 45.1285 212.265C45.263 212.691 45.7335 212.803 46.1144 212.96C46.5402 213.139 46.9883 213.274 47.4141 213.386C48.288 213.632 49.1843 213.834 50.103 213.968C50.9544 214.103 51.8283 214.215 52.7022 214.17C53.1056 214.148 53.5089 214.103 53.8898 214.013C54.0915 213.968 54.2931 213.923 54.4724 213.789C54.6293 213.677 54.7413 213.52 54.8533 213.363C54.8981 213.274 54.7861 213.139 54.6965 213.139Z" fill="#936C59"/>
<path d="M80.6891 212.512C80.5547 212.445 80.465 212.221 80.3754 212.086C80.3082 212.019 80.1961 212.041 80.1961 212.131C80.1737 212.243 80.1961 212.377 80.1961 212.489C79.5015 212.602 78.8069 212.736 78.0898 212.758C77.328 212.803 76.5437 212.758 75.7819 212.669C75.0424 212.579 74.2806 212.4 73.5635 212.176C73.1826 212.064 72.8241 211.907 72.4432 211.772C72.1519 211.66 71.7485 211.414 71.4348 211.571C71.3452 211.616 71.3004 211.728 71.3228 211.84C71.39 212.176 71.9054 212.355 72.1967 212.489C72.5776 212.646 72.9585 212.803 73.3619 212.915C74.1237 213.162 74.9304 213.341 75.7371 213.431C76.5437 213.543 77.3504 213.565 78.1571 213.543C78.9637 213.498 79.8376 213.431 80.5995 213.184C80.9132 213.139 81.0028 212.691 80.6891 212.512Z" fill="#936C59"/>
<path d="M54.2259 225.508C54.2035 225.351 54.0242 225.284 53.8674 225.307C53.5985 225.351 53.4417 225.687 53.2848 225.912C53.1504 226.113 53.0383 226.315 52.9263 226.517C52.8142 226.718 52.7022 226.92 52.6126 227.122C52.5454 227.256 52.523 227.368 52.5454 227.502C52.5678 227.682 52.6798 227.839 52.8591 227.883C53.1055 227.928 53.3072 227.794 53.3296 227.525C53.3296 227.503 53.3296 227.48 53.3296 227.435C53.3296 227.435 53.3296 227.413 53.352 227.413C53.3744 227.39 53.3744 227.368 53.3744 227.346C53.3968 227.301 53.4192 227.256 53.4417 227.211C53.5313 227.054 53.6209 226.875 53.7105 226.718C53.8002 226.561 53.8898 226.382 54.0018 226.225C54.0467 226.136 54.1139 226.046 54.1587 225.956C54.1811 225.912 54.2035 225.867 54.2259 225.822C54.2483 225.71 54.2483 225.62 54.2259 225.508Z" fill="#64281B"/>
<path d="M55.7496 225.598C55.548 225.687 55.3463 225.912 55.2343 226.091C55.0998 226.27 54.9878 226.449 54.8757 226.629C54.7637 226.808 54.6517 226.987 54.5396 227.166C54.4052 227.39 54.2035 227.704 54.3828 227.973C54.4276 228.063 54.5172 228.13 54.6293 228.13C54.8085 228.13 54.943 228.018 55.0326 227.861C55.0774 227.771 55.1222 227.682 55.1894 227.592C55.3015 227.413 55.3911 227.211 55.5032 227.032C55.6152 226.853 55.7272 226.673 55.8393 226.517C55.9065 226.427 55.9513 226.337 55.9961 226.248C56.0633 226.136 56.1082 226.024 56.1306 225.912C56.1754 225.643 55.9737 225.486 55.7496 225.598Z" fill="#64281B"/>
<path d="M80.3529 225.217C80.2185 225.15 80.0616 225.172 79.9272 225.262C79.7703 225.396 79.6583 225.598 79.5463 225.777C79.4566 225.956 79.367 226.136 79.2774 226.315C79.1205 226.696 78.9413 227.121 78.9189 227.525C78.8965 227.861 79.367 228.063 79.5911 227.794C79.6583 227.704 79.7031 227.614 79.7255 227.525C79.7703 227.368 79.7928 227.234 79.8376 227.077C79.8824 226.897 79.9496 226.718 80.0168 226.561C80.0168 226.539 80.0392 226.516 80.0392 226.516C80.0392 226.516 80.0392 226.516 80.0392 226.494C80.0616 226.449 80.0616 226.427 80.084 226.382C80.1289 226.292 80.1737 226.203 80.2185 226.113C80.3081 225.934 80.4202 225.755 80.4874 225.553C80.5546 225.463 80.465 225.284 80.3529 225.217Z" fill="#64281B"/>
<path d="M82.1904 225.755C82.1904 225.732 82.1904 225.732 82.1904 225.755C82.2128 225.575 82.056 225.486 81.8991 225.486C81.6751 225.486 81.4734 225.732 81.3838 225.889C81.2941 226.023 81.2045 226.18 81.1149 226.337C81.0252 226.494 80.958 226.651 80.8908 226.808C80.846 226.92 80.8011 227.009 80.7563 227.121C80.7115 227.278 80.7115 227.413 80.7787 227.57C80.8684 227.749 81.1149 227.771 81.2717 227.704C81.4734 227.614 81.5406 227.323 81.6302 227.121C81.6302 227.121 81.6302 227.121 81.6302 227.099C81.6302 227.077 81.6526 227.077 81.6526 227.054C81.6751 227.009 81.6975 226.965 81.6975 226.942C81.7423 226.875 81.7647 226.785 81.8095 226.718C81.8767 226.561 81.9664 226.427 82.0336 226.27C82.1456 226.113 82.2352 225.911 82.1904 225.755Z" fill="#64281B"/>
<path d="M49.6548 28.5919C49.5428 27.718 49.3635 26.8665 49.1619 26.015C48.9826 25.1859 48.7809 24.3793 48.6017 23.5726C48.4 22.7211 48.2656 21.8472 47.9967 21.0182C47.8622 20.6148 47.5037 20.2115 47.0332 20.1443C46.9211 20.0995 46.7867 20.0547 46.6746 19.9874C46.5626 19.9426 46.4282 19.9874 46.3385 20.0771C46.2489 20.1667 46.1593 20.2563 46.092 20.3684C45.8007 20.57 45.5767 21.0182 45.5991 21.3543C45.8232 23.1021 46.3609 24.8498 46.7867 26.5752C46.9883 27.3819 47.19 28.2109 47.4589 28.9952C47.683 29.7122 47.9967 30.855 48.7137 31.2359C49.005 31.3928 49.2963 31.2808 49.4756 31.0343C49.9685 30.3845 49.7444 29.2865 49.6548 28.5919Z" fill="#813528"/>
<path d="M60.0519 22.2057C60.0294 21.1302 60.0294 20.0546 59.9846 18.9791C59.9622 18.2396 59.8054 16.5366 58.7298 16.5591C57.6767 16.5591 57.5422 18.2396 57.5422 18.9791C57.5198 20.0546 57.5422 21.1302 57.5646 22.2057C57.587 23.2813 57.6094 24.3568 57.6542 25.4324C57.7215 26.5079 57.7887 27.8076 58.4161 28.7039C58.6402 29.04 59.1331 29.0624 59.3572 28.7039C59.9398 27.8076 59.9846 26.5752 60.0294 25.5444C60.0743 24.4465 60.0519 23.3261 60.0519 22.2057Z" fill="#813528"/>
<path d="M70.9418 18.4189C70.4265 18.2172 69.7542 18.3741 69.4854 18.8894C69.0372 19.7857 68.8131 20.8389 68.4994 21.8024C68.2305 22.6763 67.9392 23.5726 67.6704 24.4465C67.4015 25.3204 67.1102 26.2167 66.8861 27.113C66.662 28.0093 66.3483 29.152 66.5724 30.0483C66.7068 30.5637 67.3342 30.6757 67.6928 30.3396C68.3426 29.757 68.6787 28.7039 69.0148 27.9196C69.3733 27.0233 69.6646 26.1046 69.9559 25.1859C70.2472 24.312 70.5161 23.4157 70.785 22.5418C71.0763 21.6455 71.4796 20.7044 71.6141 19.7857C71.7037 19.2031 71.5244 18.643 70.9418 18.4189Z" fill="#813528"/>
<path d="M148.987 223.984C148.987 223.984 142.399 226.584 140.584 228.399C138.769 230.214 141.615 231.693 145.11 231.357C148.628 231.02 153.155 230.46 154.297 229.878C155.44 229.317 155.194 225.575 154.185 224.096C153.177 222.618 152.482 223.2 152.034 223.066C151.608 222.976 148.987 223.984 148.987 223.984Z" fill="#EA6551"/>
<path d="M143.99 186.34C143.99 186.34 149.435 222.394 148.987 223.984C148.539 225.575 144.685 226.584 144.461 228.175C144.236 229.766 153.199 227.39 154.096 225.911C154.992 224.433 156.135 189.858 155.463 187.46C154.768 185.085 143.99 186.34 143.99 186.34Z" fill="#F3A289"/>
<path d="M172.38 223.805C172.38 223.805 166.084 227.054 164.47 229.049C162.835 231.043 165.815 232.23 169.266 231.536C172.739 230.841 177.198 229.833 178.251 229.161C179.326 228.488 178.721 224.791 177.556 223.424C176.391 222.057 175.764 222.685 175.316 222.618C174.89 222.528 172.38 223.805 172.38 223.805Z" fill="#EA6551"/>
<path d="M163.686 186.833C163.686 186.833 172.672 222.169 172.38 223.805C172.089 225.441 168.347 226.83 168.28 228.421C168.212 230.034 176.884 226.763 177.646 225.217C178.408 223.671 176.1 189.119 175.204 186.833C174.285 184.525 163.686 186.833 163.686 186.833Z" fill="#F3A289"/>
<path d="M168.952 99.9146C168.952 99.9146 171.372 102.872 172.582 105.584C173.792 108.295 177.713 128.282 178.027 130.232C178.341 132.181 177.355 134.915 178.184 135.677C179.013 136.439 179.013 133.862 179.842 132.585C179.842 132.585 180.671 133.481 180.738 134.78C180.805 136.058 179.976 137.357 180.133 138.254C180.29 139.15 180.805 139.307 181.276 138.926C181.276 138.926 182.105 139.307 182.934 138.635C183.763 137.962 183.83 135.161 183.472 132.966C183.091 130.77 182.8 130.546 182.262 129.111C181.724 127.677 179.909 105.606 178.565 102.111C177.198 98.6374 174.711 94.4696 174.711 94.4696L169.714 96.2846L168.952 99.9146Z" fill="#F3A289"/>
<path d="M139.016 92.3633C139.016 92.3633 138.993 92.453 138.926 92.6098C138.478 93.8422 136.439 99.22 135.475 100.385C135.475 100.385 129.268 87.4561 126.333 83.2211C123.375 78.9861 123.689 79.5239 121.807 78.8293C119.924 78.157 116.362 78.2243 114.995 78.6724C113.628 79.1206 114.39 80.4874 115.891 80.6443C117.392 80.8011 119.073 81.182 119.073 81.182C119.073 81.182 118.692 82.8402 119.745 83.378C119.745 83.378 119.521 84.4311 120.417 85.193C120.417 85.193 120.126 86.022 121.179 86.7839C122.232 87.5457 122.322 87.3217 122.927 88.3748C123.532 89.428 129.425 109.774 134.265 110.536C139.105 111.298 141.525 105.158 142.668 102.514C143.811 99.8698 145.088 93.8198 144.707 93.5957C144.326 93.3717 142.892 91.848 142.13 91.7807C141.346 91.6911 139.016 92.3633 139.016 92.3633Z" fill="#F3A289"/>
<path d="M149.681 44.4339C137.559 47.2796 136.977 58.6402 137.806 64.9142C138.635 71.1883 135.834 73.1601 138.343 78.0674C140.831 82.9746 158.689 85.1705 166.846 78.9637C175.002 72.7568 173.792 68.9027 171.013 63.9283C168.19 58.9538 166.689 40.4229 149.681 44.4339Z" fill="#333333"/>
<path d="M148.606 75.3561C148.606 75.3561 149.502 78.9189 148.606 80.577C147.71 82.2352 145.581 82.9298 145.581 82.9298C145.581 82.9298 147.463 88.7557 154.051 88.5989C160.639 88.442 162.678 82.4592 162.678 82.4592C162.678 82.4592 158.981 81.2492 157.681 79.7479C156.785 78.6948 156.404 74.6166 156.247 74.3029C156.09 73.9892 148.606 75.3561 148.606 75.3561Z" fill="#F3A289"/>
<path d="M156.561 80.0393C156.964 80.0169 157.367 79.9272 157.771 79.8152C157.748 79.7928 157.726 79.7704 157.681 79.7256C156.785 78.6724 156.404 74.5943 156.247 74.2806C156.112 74.0341 150.914 74.9304 149.166 75.2441L148.673 75.6026C148.763 75.9611 148.897 76.6558 148.964 77.44C150.824 79.6135 153.513 80.2409 156.561 80.0393Z" fill="#EE8064"/>
<path d="M160.684 63.3009C160.684 63.3009 163.26 62.9872 163.417 65.3176C163.574 67.648 162.454 68.3426 160.84 68.7235C160.84 68.7235 160.347 77.1487 151.743 77.552C143.452 77.933 141.682 64.5109 141.749 62.6511C141.749 62.6511 142.713 60.4104 144.819 59.8054C146.903 59.1779 150.376 55.0774 150.376 55.0774C150.376 55.0774 152.303 58.0128 154.97 58.4833C157.614 58.9763 158.264 62.2926 160.684 63.3009Z" fill="#F3A289"/>
<path d="M162.207 66.0346C162.028 65.7881 161.692 65.6537 161.401 65.7657C161.401 65.7209 161.401 65.6985 161.401 65.6537C161.401 65.6313 161.423 65.5192 161.401 65.5864C161.445 65.3848 161.468 65.2727 161.58 65.1159C161.602 65.0711 161.647 65.0263 161.714 64.9814C161.804 64.9142 161.871 64.847 161.961 64.7574C162.118 64.5557 161.916 64.2644 161.669 64.2644C161.356 64.2644 161.064 64.5557 160.885 64.7798C160.706 65.0039 160.639 65.2727 160.594 65.564C160.549 65.8553 160.571 66.1466 160.616 66.4379C160.661 66.7068 160.684 66.9981 160.796 67.2446C160.93 67.5807 161.266 67.8272 161.647 67.7376C162.006 67.6479 162.162 67.2894 162.274 66.9757C162.409 66.662 162.409 66.3035 162.207 66.0346Z" fill="#EE8064"/>
<path d="M120.866 79.5911C121.224 79.3671 121.65 79.2774 122.053 79.2998C122.322 79.3222 122.591 79.4343 122.837 79.5239C122.949 79.5687 123.42 79.7928 123.442 79.5239C123.487 79.255 123.061 79.0758 122.86 78.9861C122.591 78.8741 122.322 78.7845 122.031 78.7621C121.515 78.7172 120.978 78.8741 120.529 79.143C120.104 79.4119 119.521 79.9272 119.79 80.4874C119.947 80.8235 120.238 81.0252 120.574 81.182C120.552 81.182 120.552 81.182 120.529 81.182C120.238 81.1596 119.992 81.0924 119.723 81.0028C119.678 80.9804 119.588 81.0028 119.544 81.0476C119.521 81.07 119.521 81.0924 119.499 81.1148C119.476 81.1821 119.521 81.2717 119.588 81.3165C120.283 81.7422 121.224 81.4733 121.919 81.9439C122.143 82.1008 122.322 82.3921 122.277 82.6833C122.21 83.0419 121.829 83.0643 121.538 83.0867C121.291 83.1091 121.022 83.1315 120.754 83.1539C120.619 83.1539 120.485 83.1539 120.373 83.1539C120.261 83.1539 120.149 83.1315 120.059 83.1315C120.036 83.1315 120.036 83.1315 120.014 83.1091C120.059 83.1315 120.059 83.1091 120.014 83.0867C119.992 83.0419 119.902 83.0195 119.88 83.0867C119.857 83.1539 119.79 83.1763 119.768 83.2435C119.7 83.3556 119.745 83.5124 119.857 83.5572C120.104 83.6693 120.395 83.6917 120.664 83.6693C120.933 83.6693 121.202 83.6245 121.471 83.6021C121.65 83.5796 121.874 83.5572 122.053 83.49C122.053 83.5124 122.053 83.5348 122.076 83.5572C122.098 83.6245 122.143 83.6917 122.165 83.7365C122.21 83.8485 122.255 83.9382 122.3 84.0502C122.322 84.095 122.344 84.1622 122.344 84.207C122.344 84.2295 122.367 84.2519 122.367 84.2743V84.2967C122.367 84.2967 122.367 84.2967 122.367 84.3191C122.367 84.3415 122.367 84.3639 122.367 84.3639V84.4087H122.344C122.322 84.4087 122.3 84.4311 122.255 84.4311C122.188 84.4535 122.143 84.4535 122.076 84.4535C121.941 84.4759 121.807 84.4983 121.672 84.5432L121.269 84.6328C121.134 84.6552 121.022 84.6776 120.91 84.7448C120.888 84.7448 120.866 84.7224 120.843 84.7224C120.798 84.7224 120.754 84.7448 120.731 84.7896C120.731 84.812 120.709 84.8345 120.709 84.8569C120.709 84.8569 120.709 84.8793 120.686 84.8793C120.686 84.8793 120.686 84.8793 120.686 84.9017C120.641 84.9913 120.664 85.1258 120.731 85.193C120.798 85.2602 120.888 85.305 120.978 85.3274C121.09 85.3498 121.202 85.3274 121.314 85.2826C121.471 85.2378 121.65 85.193 121.807 85.1482C121.964 85.1033 122.12 85.0809 122.255 85.0137C122.322 84.9913 122.389 84.9689 122.456 84.9465C122.479 85.0137 122.524 85.0585 122.569 85.1033C122.636 85.1706 122.703 85.2602 122.725 85.305C122.748 85.3498 122.77 85.3722 122.793 85.4171L122.815 85.4619C122.815 85.4843 122.815 85.4843 122.815 85.4619V85.4843C122.815 85.5515 122.793 85.6187 122.748 85.7083L122.725 85.7532C122.725 85.7532 122.703 85.7756 122.681 85.798L122.658 85.8204C122.636 85.8428 122.613 85.8652 122.591 85.8652C122.613 85.8428 122.613 85.8428 122.591 85.8652C122.546 85.8876 122.501 85.9324 122.434 85.9548C122.412 85.9772 122.389 85.9772 122.344 85.9996H122.322C122.21 86.0445 122.098 86.0893 121.986 86.1117C121.964 86.1117 121.941 86.1341 121.896 86.1341C121.896 86.1117 121.874 86.0893 121.851 86.0893C121.672 86.0445 121.583 86.2013 121.56 86.3582C121.56 86.3133 121.583 86.2909 121.583 86.2461C121.471 86.4478 121.627 86.6719 121.829 86.7391C122.008 86.8063 122.188 86.7391 122.367 86.6719C122.524 86.6046 122.658 86.5374 122.815 86.4478C122.972 86.3357 123.084 86.2237 123.174 86.0669C123.353 85.798 123.353 85.4619 123.196 85.1706C123.129 85.0585 123.039 84.9689 122.949 84.8569C122.882 84.7896 122.815 84.7224 122.748 84.6552C122.905 84.4311 122.882 84.1398 122.793 83.8933C122.725 83.7365 122.658 83.602 122.591 83.4452C122.546 83.378 122.524 83.3332 122.479 83.2659C122.456 83.2435 122.434 83.2211 122.412 83.1987C122.501 83.1315 122.591 83.0419 122.658 82.9074C122.837 82.5489 122.77 82.1008 122.546 81.7871C122.77 81.8543 123.017 81.8767 123.263 81.7871C123.353 81.7646 123.353 81.6526 123.286 81.6078C122.815 81.2941 122.255 81.1148 121.717 80.9356C121.291 80.7787 120.798 80.6443 120.462 80.3306C120.417 80.2633 120.305 80.1737 120.283 80.0841C120.283 80.0169 120.373 79.9272 120.417 79.86C120.529 79.8376 120.686 79.6808 120.866 79.5911Z" fill="#EE8064"/>
<path d="M136.573 101.752C136.528 101.55 136.439 101.371 136.349 101.192C136.17 100.856 135.946 100.52 135.587 100.318C135.453 100.251 135.296 100.385 135.386 100.52C135.565 100.811 135.789 101.08 135.946 101.393C136.013 101.528 136.08 101.685 136.125 101.842C136.147 101.931 136.192 102.021 136.237 102.11C136.259 102.133 136.282 102.178 136.304 102.2C136.327 102.245 136.349 102.267 136.371 102.29C136.416 102.335 136.484 102.335 136.506 102.267C136.528 102.223 136.551 102.133 136.573 102.043C136.596 101.954 136.596 101.864 136.573 101.752Z" fill="#EE8064"/>
<path d="M182.531 133.839C182.463 133.324 182.396 132.764 182.083 132.338C182.06 132.293 182.015 132.316 181.993 132.361C181.948 132.876 182.083 133.414 182.127 133.951C182.172 134.489 182.172 135.027 182.127 135.565C182.083 136.125 181.971 136.663 181.836 137.201C181.769 137.447 181.679 137.671 181.612 137.918C181.545 138.074 181.455 138.254 181.478 138.433C181.478 138.455 181.478 138.478 181.478 138.5C181.478 138.523 181.478 138.523 181.5 138.545C181.567 138.635 181.679 138.679 181.769 138.612C181.971 138.478 182.015 138.254 182.105 138.052C182.195 137.783 182.284 137.514 182.351 137.223C182.486 136.685 182.576 136.125 182.62 135.565C182.62 134.982 182.62 134.4 182.531 133.839Z" fill="#EE8064"/>
<path opacity="0.64" d="M167.271 60.4328C166.935 60.5896 166.577 60.6793 166.241 60.8585C165.882 61.0602 165.546 61.2619 165.165 61.4411C164.493 61.7772 163.798 62.0461 163.081 62.2254C161.804 62.5391 160.37 62.4719 159.249 61.7548C158.174 61.0602 157.614 59.8278 156.74 58.9539C156.269 58.4833 155.709 58.1472 155.082 57.9232C154.477 57.6991 153.849 57.5646 153.267 57.3182C152.572 57.0269 152.169 56.5563 151.676 56.0409C151.407 55.7272 150.869 55.055 150.376 55.0774C150.354 54.9878 150.242 54.943 150.152 54.9878C150.04 55.0326 149.928 55.0326 149.816 55.0774C149.726 55.1222 149.659 55.1895 149.592 55.2791C149.435 55.4584 149.278 55.66 149.121 55.8393C148.808 56.1978 148.494 56.5339 148.18 56.87C147.53 57.5422 146.813 58.1472 146.007 58.5954C145.178 59.0659 144.214 59.3348 143.43 59.895C142.668 60.4328 142.108 61.1722 141.48 61.822C140.741 62.5615 139.845 63.0769 138.769 63.0096C138.59 62.9872 138.545 63.2561 138.679 63.3458C139.486 63.8387 140.539 63.525 141.256 63.032C142.063 62.4719 142.623 61.6876 143.34 61.0378C144.102 60.2983 145.088 60.0071 146.007 59.5365C146.881 59.1108 147.665 58.5058 148.382 57.8335C148.808 57.4302 149.189 57.0269 149.569 56.6011C149.749 56.3995 149.928 56.1754 150.107 55.9737C150.174 55.8841 150.264 55.7945 150.331 55.6824C150.421 55.7721 150.533 55.8393 150.623 55.9513C150.847 56.1754 151.026 56.4443 151.228 56.6908C151.609 57.2061 152.079 57.6543 152.639 57.9456C153.827 58.5506 155.239 58.6402 156.202 59.6485C157.121 60.5896 157.681 61.8445 158.824 62.5615C160.011 63.3233 161.49 63.4578 162.857 63.2113C163.708 63.0769 164.515 62.7632 165.299 62.4046C165.68 62.2254 166.061 62.0237 166.42 61.822C166.621 61.71 166.801 61.6204 166.98 61.4859C167.182 61.3291 167.338 61.1722 167.54 61.0154C167.854 60.7241 167.607 60.2759 167.271 60.4328Z" fill="#3D3D3D"/>
<path opacity="0.64" d="M140.92 77.1487C140.741 76.7677 140.606 76.3868 140.494 75.9835C140.293 75.132 140.248 74.2357 140.293 73.3618C140.382 71.4572 140.853 69.575 140.831 67.6703C140.808 66.662 140.696 65.4072 140.024 64.6005C139.934 64.4885 139.688 64.5781 139.688 64.735C139.755 65.2055 139.889 65.6761 139.957 66.1467C140.024 66.6396 140.046 67.1326 140.046 67.6255C140.046 68.6563 139.912 69.687 139.777 70.7178C139.531 72.5328 139.284 74.3926 139.71 76.1852C139.822 76.6557 139.979 77.1039 140.203 77.5296C140.405 77.9105 140.696 78.3587 141.167 78.4259C141.234 78.4259 141.279 78.3587 141.301 78.2914C141.346 77.8657 141.077 77.4848 140.92 77.1487Z" fill="#3D3D3D"/>
<path opacity="0.64" d="M143.945 77.8882C143.744 77.4849 143.609 77.0367 143.519 76.5886C143.43 76.0732 143.34 75.5578 143.34 75.02C143.34 74.4822 143.43 73.9669 143.363 73.4291C143.363 73.3843 143.295 73.3619 143.273 73.3843C142.758 73.698 142.646 74.3478 142.601 74.908C142.556 75.5354 142.646 76.2076 142.78 76.835C142.892 77.3504 143.027 77.9106 143.295 78.3588C143.542 78.7621 143.968 79.1878 144.483 79.0982C144.528 79.0982 144.573 79.0086 144.55 78.9637C144.416 78.5828 144.125 78.2467 143.945 77.8882Z" fill="#3D3D3D"/>
<path opacity="0.64" d="M146.343 78.2691C146.32 78.2019 146.276 78.1347 146.253 78.0899L146.231 78.0226C146.208 77.9778 146.208 77.9554 146.186 77.9106C146.141 77.7537 146.096 77.6193 146.074 77.4624C146.074 77.44 146.052 77.3952 146.052 77.3728L146.029 77.2832C146.029 77.2608 146.029 77.2384 146.029 77.1935C146.029 77.1263 146.007 77.1039 145.984 77.0591C145.962 77.0143 145.962 76.9471 145.939 76.9023C145.917 76.8574 145.895 76.8126 145.872 76.7678C145.85 76.6782 145.715 76.6334 145.626 76.7006C145.581 76.7454 145.536 76.7902 145.491 76.835C145.447 76.8798 145.424 76.9471 145.402 76.9919C145.334 77.0815 145.334 77.1935 145.312 77.3056C145.312 77.3728 145.29 77.4624 145.29 77.5297C145.29 77.7313 145.334 77.933 145.379 78.1123C145.424 78.2915 145.491 78.4708 145.603 78.65C145.693 78.8069 145.872 79.031 146.096 79.0534C146.096 79.0534 146.096 79.0534 146.119 79.0534C146.164 79.0534 146.208 79.0534 146.231 79.0534C146.32 79.0758 146.455 79.0086 146.432 78.8965C146.432 78.8741 146.455 78.8293 146.455 78.7845V78.7621C146.5 78.6052 146.41 78.4036 146.343 78.2691Z" fill="#3D3D3D"/>
<path opacity="0.64" d="M170.207 68.0513C169.983 67.1774 169.669 66.3035 169.31 65.4744C169.019 64.735 168.683 63.9059 168.011 63.4354C167.899 63.3457 167.697 63.5026 167.742 63.637C168.033 64.3541 168.369 65.0487 168.616 65.7657C168.885 66.55 169.176 67.3343 169.4 68.1409C169.602 68.9252 169.736 69.7319 169.714 70.5609C169.714 70.9419 169.646 71.3004 169.579 71.6813C169.512 72.0398 169.378 72.4207 169.467 72.8017C169.49 72.9137 169.647 72.9585 169.736 72.9137C170.095 72.7345 170.252 72.3087 170.341 71.9502C170.453 71.5469 170.498 71.0987 170.52 70.673C170.565 69.7991 170.431 68.9028 170.207 68.0513Z" fill="#3D3D3D"/>
<path opacity="0.64" d="M167.63 70.897C167.518 69.8663 167.339 68.8355 167.137 67.8272C167.025 67.3118 166.913 66.8189 166.778 66.3035C166.644 65.7881 166.554 65.2503 166.285 64.7574C166.196 64.6005 165.972 64.6902 165.949 64.847C165.927 65.34 166.039 65.8553 166.129 66.3483C166.218 66.8189 166.285 67.3118 166.375 67.7824C166.554 68.7683 166.711 69.7766 166.801 70.785C166.913 71.7709 166.958 72.7792 166.935 73.7652C166.935 74.1909 166.935 74.6166 166.89 75.02C166.868 75.2216 166.868 75.4233 166.846 75.625C166.823 75.8714 166.734 76.0955 166.689 76.3196C166.666 76.4092 166.778 76.454 166.846 76.4092C167.54 75.8266 167.719 74.8407 167.764 73.9892C167.809 72.9809 167.742 71.9277 167.63 70.897Z" fill="#3D3D3D"/>
<path opacity="0.64" d="M164 71.7037C163.955 71.2332 163.888 70.7626 163.798 70.3145C163.731 69.9111 163.664 69.4406 163.417 69.1269C163.35 69.0372 163.216 69.1044 163.193 69.1941C163.059 69.575 163.171 70.0232 163.193 70.4041C163.216 70.8074 163.238 71.1883 163.26 71.5917C163.305 72.4432 163.305 73.3171 163.283 74.1685C163.26 75.02 163.171 75.8491 163.059 76.6782C162.969 77.3056 162.902 78.0002 162.566 78.538C162.521 78.6276 162.588 78.6949 162.678 78.6724C163.372 78.5604 163.641 77.821 163.776 77.216C163.955 76.3197 164.022 75.3785 164.067 74.4598C164.112 73.5411 164.112 72.6224 164 71.7037Z" fill="#3D3D3D"/>
<path opacity="0.64" d="M161.087 74.3478C161.064 74.2581 160.93 74.2357 160.885 74.3254C160.684 74.6839 160.639 75.132 160.571 75.5354C160.504 75.9387 160.437 76.342 160.37 76.7454C160.303 77.1487 160.235 77.552 160.168 77.9554C160.123 78.3587 160.056 78.7844 160.146 79.1878C160.168 79.2998 160.303 79.2998 160.37 79.2102C160.594 78.8516 160.661 78.4259 160.751 78.0226C160.818 77.6192 160.863 77.2159 160.93 76.835C160.975 76.4317 161.02 76.0283 161.064 75.625C161.132 75.1993 161.199 74.7511 161.087 74.3478Z" fill="#3D3D3D"/>
<path opacity="0.64" d="M149.681 51.1113C149.614 51.0217 149.48 51.0665 149.48 51.1561C149.48 51.4026 149.502 51.6715 149.39 51.918C149.278 52.1644 149.121 52.3885 149.009 52.6126C148.763 53.0607 148.471 53.4641 148.135 53.8674C147.508 54.6068 146.769 55.2567 145.939 55.7944C144.192 56.8924 141.996 57.1837 140.405 58.5505C139.643 59.2004 139.016 60.1415 139.016 61.1946C139.016 61.4635 139.419 61.5307 139.486 61.2618C140.001 59.1331 142.041 58.3041 143.9 57.6094C144.886 57.2509 145.85 56.8252 146.701 56.2426C147.53 55.66 148.292 54.9878 148.92 54.1811C149.278 53.733 149.637 53.2624 149.794 52.7022C149.928 52.2093 149.928 51.5146 149.681 51.1113Z" fill="#3D3D3D"/>
<path opacity="0.64" d="M148.561 47.7726C148.494 47.6381 148.315 47.7277 148.337 47.8622C148.404 48.3327 148.247 48.8705 148.023 49.2739C147.799 49.722 147.575 50.1477 147.284 50.5511C146.769 51.2905 146.186 52.0076 145.514 52.6126C144.797 53.2624 143.99 53.7329 143.094 54.069C142.22 54.4052 141.256 54.6516 140.494 55.2342C140.136 55.5031 139.8 55.8168 139.553 56.1977C139.329 56.5563 139.128 57.0716 139.262 57.475C139.307 57.6094 139.509 57.6542 139.576 57.5198C139.777 57.1389 139.867 56.7579 140.136 56.4218C140.405 56.0857 140.763 55.8168 141.122 55.5927C142.018 55.0774 143.049 54.8981 143.99 54.5172C145.738 53.8002 147.082 52.3213 148.113 50.7752C148.718 49.8565 149.099 48.8033 148.561 47.7726Z" fill="#3D3D3D"/>
<path opacity="0.64" d="M164.224 58.8194C163.753 58.8643 163.305 58.9987 162.857 59.0211C162.386 59.0659 161.916 58.9987 161.468 58.8194C161.02 58.6626 160.639 58.3713 160.325 58.0352C159.944 57.587 159.675 57.0269 159.294 56.5787C157.771 54.7189 155.127 54.6069 153.199 53.3969C152.662 53.0607 152.214 52.635 151.877 52.0972C151.721 51.8283 151.609 51.5594 151.519 51.2682C151.452 50.9993 151.474 50.708 151.34 50.4391C151.295 50.3719 151.205 50.3719 151.16 50.4167C150.802 50.7752 150.981 51.5146 151.138 51.9404C151.34 52.4782 151.653 52.9487 152.034 53.352C152.931 54.2932 154.163 54.7413 155.351 55.1894C156.493 55.6152 157.726 56.0633 158.577 57.0044C159.003 57.475 159.272 58.1024 159.698 58.5954C160.034 58.9987 160.482 59.3124 160.975 59.5365C161.983 59.9846 163.596 60.1863 164.381 59.2004C164.47 59.0659 164.426 58.797 164.224 58.8194Z" fill="#3D3D3D"/>
<path opacity="0.64" d="M166.33 56.4667C166.263 56.153 165.882 56.2202 165.658 56.2202C165.031 56.2426 164.493 56.0409 164 55.66C163.148 55.0102 162.566 54.0915 161.849 53.3296C161.02 52.4558 160.079 51.9404 158.846 51.8732C158.062 51.8284 157.278 51.918 156.538 51.6939C155.911 51.5146 155.373 51.1113 154.902 50.6632C154.409 50.1926 153.984 49.6548 153.603 49.0947C153.401 48.8034 153.177 48.4897 152.975 48.1984C152.751 47.8847 152.55 47.5485 152.213 47.3245C152.146 47.2797 152.057 47.3245 152.057 47.4141C152.101 47.7502 152.236 48.0191 152.393 48.3104C152.572 48.6241 152.751 48.9378 152.931 49.2515C153.244 49.7669 153.558 50.2374 153.939 50.708C154.678 51.6491 155.687 52.3885 156.897 52.5678C157.591 52.6798 158.308 52.6126 159.003 52.6798C159.608 52.7246 160.146 52.9263 160.639 53.3072C161.468 53.9571 162.028 54.8533 162.745 55.6152C163.484 56.3995 164.717 57.363 165.86 56.9821C166.084 56.9148 166.397 56.758 166.33 56.4667Z" fill="#3D3D3D"/>
<path d="M147.441 63.3681C147.329 63.2113 147.149 63.1216 146.993 63.032C146.836 62.9648 146.679 62.8528 146.544 62.7631C146.231 62.5615 145.917 62.3374 145.558 62.2029C144.954 61.9789 143.9 62.1581 143.878 62.9648C143.856 63.2561 144.214 63.3457 144.393 63.1889C144.573 63.032 144.662 62.9424 144.909 62.8976C144.909 62.8976 144.909 62.8976 144.931 62.8976C144.976 62.8976 144.998 62.8976 145.043 62.8976C145.088 62.8976 145.11 62.8976 145.178 62.92C145.312 62.9424 145.446 63.0096 145.581 63.0768C145.85 63.2113 146.096 63.4129 146.343 63.5698C146.612 63.7491 147.037 63.9955 147.351 63.7939C147.463 63.6818 147.508 63.5026 147.441 63.3681Z" fill="#663233"/>
<path d="M146.388 64.6678C146.298 64.4213 146.119 64.1972 145.85 64.13H145.827C145.671 64.0628 145.514 64.0628 145.379 64.1748C145.267 64.2196 145.178 64.3092 145.088 64.4213C144.976 64.5781 144.931 64.7798 144.886 64.9591C144.841 65.1383 144.819 65.3176 144.819 65.4968C144.819 65.9674 145.133 66.5724 145.693 66.4828C145.939 66.4379 146.141 66.1915 146.231 65.9898C146.32 65.7881 146.388 65.5641 146.388 65.34C146.388 65.3176 146.388 65.2952 146.388 65.2728C146.455 65.0487 146.432 64.8246 146.388 64.6678Z" fill="#663233"/>
<path d="M152.124 63.3681C152.236 63.2113 152.415 63.1216 152.572 63.032C152.729 62.9648 152.886 62.8528 153.02 62.7631C153.334 62.5615 153.648 62.3374 154.006 62.2029C154.611 61.9789 155.664 62.1581 155.687 62.9648C155.709 63.2561 155.351 63.3457 155.171 63.1889C154.992 63.032 154.902 62.9424 154.656 62.8976C154.656 62.8976 154.656 62.8976 154.633 62.8976C154.589 62.8976 154.566 62.8976 154.521 62.8976C154.477 62.8976 154.454 62.8976 154.387 62.92C154.253 62.9424 154.118 63.0096 153.984 63.0768C153.715 63.2113 153.468 63.4129 153.222 63.5698C152.953 63.7491 152.527 63.9955 152.213 63.7939C152.101 63.6818 152.034 63.5026 152.124 63.3681Z" fill="#663233"/>
<path d="M153.155 65.2504C153.155 65.2728 153.155 65.2952 153.155 65.3176C153.155 65.5417 153.222 65.7657 153.311 65.9674C153.423 66.1915 153.603 66.4156 153.849 66.4604C154.409 66.5724 154.701 65.945 154.723 65.4744C154.723 65.2952 154.701 65.1159 154.656 64.9367C154.611 64.7574 154.566 64.5557 154.454 64.3989C154.387 64.2868 154.275 64.2196 154.163 64.1524C154.028 64.0404 153.872 64.0404 153.715 64.1076H153.692C153.423 64.1748 153.244 64.3989 153.155 64.6454C153.11 64.8246 153.11 65.0487 153.155 65.2504Z" fill="#663233"/>
<path d="M150.779 67.5807C150.824 67.5583 150.824 67.5583 150.779 67.5807C150.735 67.5807 150.667 67.6255 150.623 67.6703L150.6 67.6927C150.6 67.6927 150.6 67.6927 150.578 67.7152C150.555 67.7152 150.443 67.7824 150.533 67.7376C150.511 67.76 150.466 67.76 150.443 67.7824C150.354 67.8048 150.264 67.8496 150.174 67.8496C150.13 67.8496 150.107 67.872 150.062 67.872H149.995C149.906 67.872 149.816 67.872 149.726 67.872C149.681 67.872 149.637 67.872 149.592 67.872C149.569 67.872 149.569 67.872 149.547 67.872C149.547 67.872 149.547 67.872 149.525 67.872C149.345 67.8496 149.144 67.76 148.964 67.7824C148.785 67.8048 148.651 67.984 148.763 68.1409C148.897 68.3426 149.144 68.4546 149.368 68.4994C149.592 68.5666 149.816 68.589 150.062 68.5666C150.488 68.5442 151.295 68.4098 151.272 67.8496C151.25 67.6031 151.003 67.4687 150.779 67.5807Z" fill="#EE8064"/>
<path d="M151.9 71.5245C151.967 70.673 151.026 70.3145 150.331 70.2921C149.614 70.2697 148.875 70.6954 148.718 71.4349C148.696 71.5693 148.696 71.6813 148.696 71.8158C148.651 72.1295 148.808 72.376 149.054 72.5328C149.301 72.7569 149.637 72.8689 149.95 72.9137C150.354 72.9361 150.757 72.8017 151.116 72.6224C151.16 72.6 151.183 72.5776 151.228 72.5552C151.496 72.3984 151.765 72.1967 151.833 71.883C151.855 71.8158 151.855 71.7261 151.833 71.6589C151.877 71.6141 151.9 71.5693 151.9 71.5245Z" fill="#E74C36"/>
<path d="M158.196 67.4687C157.995 67.043 157.434 66.8637 156.986 66.8413C156.561 66.8189 156.112 66.9757 155.799 67.267C154.275 68.6787 158.734 69.7543 158.263 67.648C158.241 67.6031 158.219 67.5359 158.196 67.4687Z" fill="#ED7F6F"/>
<path d="M145.715 67.6928C145.514 67.267 144.954 67.0878 144.505 67.0653C144.08 67.0429 143.631 67.1998 143.318 67.4911C141.794 68.9028 146.253 69.9783 145.783 67.872C145.76 67.8272 145.738 67.76 145.715 67.6928Z" fill="#ED7F6F"/>
<path d="M127.252 61.4859C126.669 60.8361 125.75 60.4776 125.033 60.0294C124.204 59.5141 123.398 58.9539 122.591 58.3937C121.717 57.7887 120.866 57.1613 119.992 56.5787C119.544 56.265 119.073 56.0633 118.558 55.8393C118.311 55.7496 118.065 55.6152 117.796 55.5704C117.527 55.5256 117.236 55.5704 116.967 55.5256C116.698 55.4807 116.429 55.7496 116.586 56.0185C116.72 56.2426 116.787 56.5115 116.899 56.7355C117.012 56.982 117.213 57.1837 117.392 57.3854C117.796 57.8335 118.199 58.2144 118.692 58.573C119.633 59.2452 120.597 59.895 121.538 60.5448C122.367 61.105 123.174 61.7324 124.092 62.1357C125.033 62.5615 126.154 62.9424 127.14 62.427C127.476 62.2478 127.498 61.7772 127.252 61.4859Z" fill="#ED7F6F"/>
<path d="M125.101 66.8861C124.518 65.9226 122.837 65.7657 121.829 65.5193C120.552 65.1832 119.297 64.8471 118.042 64.4661C116.877 64.13 115.689 63.6595 114.502 63.3906C113.964 63.2785 113.404 63.1665 112.866 63.0097C112.44 62.8752 111.903 62.7184 111.454 62.7632C111.298 62.7856 111.208 62.8752 111.186 63.0321C111.074 64.0628 112.351 64.9591 113.135 65.34C114.39 65.9226 115.712 66.2811 117.034 66.6844C118.356 67.0878 119.7 67.4463 121.067 67.6928C122.165 67.872 124.115 68.3874 124.989 67.4687C125.168 67.3118 125.213 67.0654 125.101 66.8861Z" fill="#ED7F6F"/>
<path d="M124.899 72.5552C124.518 72.3535 124.115 72.1518 123.667 72.1743C123.241 72.1967 122.815 72.3311 122.389 72.4207C121.538 72.6 120.709 72.7793 119.857 72.9585C119.006 73.1378 118.177 73.2946 117.325 73.4963C117.101 73.5635 116.855 73.6083 116.631 73.6755C116.586 73.6979 116.317 73.81 116.227 73.8324C116.048 73.8996 115.869 73.9444 115.689 74.0341C115.667 74.0341 115.645 74.0117 115.622 73.9893C115.488 73.8996 115.241 73.9444 115.152 74.1013C114.816 74.8183 115.465 75.5354 116.138 75.7146C117.168 76.0059 118.401 75.6698 119.409 75.4233C120.44 75.1992 121.493 74.8855 122.479 74.4822C122.994 74.2581 123.532 74.0789 124.003 73.81C124.496 73.5411 124.697 73.1154 124.899 72.6224C124.966 72.6448 124.944 72.5776 124.899 72.5552Z" fill="#ED7F6F"/>
<path opacity="0.71" d="M176.548 26.5752C177.937 25.522 179.394 24.5809 180.805 23.7742C185.242 21.287 190.127 19.1359 195.034 17.9707C205.431 15.5059 216.411 15.8196 225.531 21.5559C231.603 25.3652 238.482 31.2807 239.199 39.1905C239.782 45.5766 237.295 50.4391 232.275 54.2259C227.727 57.6767 220.915 59.4692 215.492 58.8418C209.532 58.1472 204.221 54.4724 198.171 54.3604C195.37 54.3155 192.592 55.1894 189.813 55.4135C186.071 55.7272 182.172 54.7189 178.766 53.3072C174.33 51.4922 168.123 48.0415 167.742 42.4844C167.339 35.9191 171.551 30.4292 176.548 26.5752Z" fill="#CEEBD3"/>
<path d="M155.172 185.409L143.367 186.48L146.719 223.434L158.524 222.363L155.172 185.409Z" fill="#AF5633"/>
<path d="M157.868 220.613L146.822 221.615L146.846 221.883L157.892 220.881L157.868 220.613Z" fill="white"/>
<path d="M175.359 185.173L163.646 186.986L169.319 223.655L181.033 221.842L175.359 185.173Z" fill="#AF5633"/>
<path d="M180.512 220.103L169.551 221.799L169.592 222.065L180.553 220.369L180.512 220.103Z" fill="white"/>
<path d="M145.581 82.9074C140.898 84.6552 137.783 90.9293 137.335 94.5593C137.335 94.5593 138.993 96.5984 140.898 96.7552C140.898 96.7552 139.15 101.371 140.136 105.987C141.122 110.603 146.029 117.101 146.119 125.862C146.208 134.624 140.069 179.909 138.478 185.13C138.478 185.13 145.357 191.18 160.549 190.799C175.741 190.418 181.41 186.026 181.41 186.026C181.41 186.026 182.396 157.457 177.332 138.926C172.268 120.417 168.952 107.107 168.952 99.9147C168.952 99.9147 174.464 97.2034 176.593 94.6937C176.593 94.6937 171.82 85.4843 162.678 82.4369C162.454 82.3697 154.589 84.1847 154.589 84.1847L145.581 82.9074Z" fill="#3F3F3F"/>
<path d="M162.588 82.3472C162.566 82.3472 162.566 82.3472 162.543 82.3697C162.14 82.5041 161.669 83.871 161.401 84.2295C160.997 84.7672 160.549 85.2378 160.034 85.686C159.025 86.5598 157.815 87.2321 156.538 87.613C153.894 88.4197 151.048 87.8819 148.763 86.3582C148.135 85.9324 147.575 85.4395 147.082 84.9017C146.836 84.6104 146.589 84.3191 146.365 84.0054C146.141 83.6693 145.962 83.3332 145.693 83.0195C145.469 82.7506 145.021 83.0419 145.11 83.3556C145.312 84.0502 145.85 84.6776 146.298 85.2154C146.769 85.7756 147.329 86.291 147.911 86.7391C149.077 87.6354 150.443 88.2852 151.877 88.5989C154.768 89.2487 157.771 88.5093 160.101 86.7167C160.751 86.2237 161.356 85.6411 161.871 84.9913C162.118 84.6776 162.364 84.3639 162.566 84.0054C162.767 83.6693 163.081 83.2435 163.148 82.8626C163.216 82.4593 162.902 82.28 162.588 82.3472Z" fill="#BB4933"/>
<path d="M176.66 94.7385L176.593 94.6713C176.324 94.4248 175.876 94.6489 175.876 94.9626C175.024 96.0606 173.971 97.0017 172.806 97.7635C172.201 98.1444 171.574 98.503 170.924 98.7718C170.341 99.0183 169.691 99.1752 169.131 99.4889C169.131 99.4441 169.131 99.3993 169.131 99.3544C169.176 98.9063 169.221 98.4581 169.266 98.0324C169.31 97.5843 169.333 97.1585 169.378 96.7104C169.4 96.5535 169.445 96.3967 169.467 96.2398C169.49 96.1726 169.512 95.9933 169.422 95.9485C169.086 95.7917 168.885 96.2398 168.817 96.4863C168.683 96.9344 168.616 97.3826 168.549 97.8307C168.459 98.3013 168.414 98.7943 168.369 99.2648C168.324 99.7578 168.235 100.251 168.369 100.721C168.459 101.035 168.862 100.99 168.974 100.721C169.064 100.52 169.086 100.296 169.109 100.071C169.848 100.139 170.61 99.8026 171.26 99.5113C171.977 99.1976 172.672 98.8391 173.321 98.4133C174.643 97.5619 175.786 96.4639 176.727 95.2315C176.839 95.1194 176.794 94.8506 176.66 94.7385Z" fill="#BB4933"/>
<path d="M141.817 95.7245C141.996 95.2315 142.265 94.7162 142.287 94.1784C142.287 94.1112 142.197 94.0215 142.108 94.0887C141.727 94.38 141.48 94.8282 141.279 95.2315C141.099 95.59 140.943 95.9486 140.808 96.3295C140.696 96.2847 140.584 96.2623 140.472 96.2175C140.315 96.1726 140.136 96.1054 139.979 96.0382C139.665 95.9038 139.352 95.7469 139.06 95.5452C138.769 95.366 138.478 95.1643 138.209 94.9402C137.918 94.7162 137.694 94.4473 137.38 94.2456C137.156 94.0888 136.977 94.38 137.044 94.5817C137.201 94.9178 137.492 95.2091 137.738 95.478C138.007 95.7469 138.321 95.9934 138.657 96.195C138.971 96.3967 139.284 96.576 139.621 96.7104C139.8 96.8 140.002 96.8673 140.203 96.9345C140.315 96.9793 140.405 97.0017 140.517 97.0465C140.226 97.898 140.024 98.7943 139.889 99.6682C139.553 101.73 139.553 103.836 139.889 105.92C140.069 107.063 140.293 108.295 140.987 109.236C141.077 109.371 141.324 109.348 141.324 109.147C141.256 108.138 140.943 107.197 140.741 106.234C140.562 105.248 140.45 104.262 140.427 103.276C140.382 101.282 140.651 99.2649 141.234 97.3378C141.436 96.8 141.615 96.2623 141.817 95.7245Z" fill="#BB4933"/>
<path d="M180.873 185.578C178.363 186.855 175.809 188.155 173.097 188.917C171.663 189.32 170.207 189.522 168.728 189.679C167.227 189.836 165.703 189.948 164.202 190.037C161.199 190.217 158.196 190.306 155.216 190.015C152.415 189.768 149.592 189.522 146.858 188.85C145.335 188.469 143.856 187.976 142.466 187.259C141.122 186.564 139.89 185.69 138.724 184.749C138.433 184.525 138.03 184.884 138.299 185.175C140.248 187.124 142.78 188.446 145.402 189.253C148.158 190.105 151.048 190.418 153.917 190.687C155.418 190.844 156.942 190.978 158.443 191.001C159.989 191.023 161.535 190.978 163.081 190.889C164.627 190.822 166.196 190.71 167.742 190.575C169.266 190.441 170.767 190.284 172.268 189.97C175.472 189.275 178.408 187.774 181.298 186.295C181.791 186.071 181.366 185.332 180.873 185.578Z" fill="#BB4933"/>
<path d="M164.851 106.144C164.963 105.606 164.358 105.27 163.955 105.628C163.865 105.696 163.641 105.741 163.529 105.785C163.283 105.897 163.059 106.009 162.835 106.166C162.387 106.48 162.073 106.928 161.625 107.264C160.93 107.78 160.123 108.161 159.294 108.362C158.286 108.609 157.21 108.564 156.224 108.295C155.261 108.026 154.477 107.466 153.58 107.063C152.572 106.592 151.496 106.413 150.421 106.771C149.39 107.107 148.494 107.78 147.441 108.093C146.522 108.385 145.514 108.452 144.64 107.981C143.721 107.511 143.071 106.637 142.085 106.278C141.48 106.054 141.167 106.861 141.525 107.264C142.668 108.586 143.99 109.931 145.805 110.177C146.701 110.312 147.642 110.222 148.516 109.976C149.368 109.729 150.107 109.236 150.959 108.99C151.743 108.743 152.348 108.99 153.043 109.371C153.872 109.841 154.701 110.289 155.642 110.558C157.412 111.051 159.384 110.984 161.087 110.312C162.05 109.931 162.902 109.415 163.686 108.721C164.045 108.407 164.403 108.071 164.627 107.645C164.762 107.376 164.851 107.063 164.896 106.749C164.874 106.592 164.807 106.346 164.851 106.144Z" fill="#E64A39"/>
<g clip-path="url(#clip0)">
<path d="M213.251 27.4156C212.528 28.1384 211.209 30.646 211.209 30.646L211.108 30.6009L206.928 28.7147C206.062 26.2471 206.348 24.0979 207.206 24.0979C208.05 24.0979 208.963 26.1919 208.992 26.2573C208.98 26.1778 208.511 23.081 209.922 23.081C210.567 23.081 210.921 23.5655 211.115 24.0973C211.351 24.744 211.351 25.4607 211.351 25.4607C211.351 25.4607 212.42 23.0308 213.709 23.388C214.997 23.7452 213.974 26.6928 213.251 27.4156Z" fill="#95D6A4"/>
<path d="M210.887 29.757C211.04 30.0899 211.109 30.3694 211.108 30.6009L206.928 28.7147C206.062 26.2471 206.348 24.0979 207.206 24.0979C208.05 24.0979 208.963 26.1919 208.992 26.2573C208.98 26.1778 208.511 23.081 209.922 23.081C210.567 23.081 210.921 23.5655 211.115 24.0973L211.115 24.0979C210.619 23.0809 209.171 26.0122 210.887 29.757Z" fill="#78C2A4"/>
<path d="M217.488 36.9183C221.561 32.8453 223.169 27.8498 221.08 25.7606C218.991 23.6715 213.996 25.2797 209.923 29.3528C205.85 33.4258 204.241 38.4213 206.331 40.5104C208.42 42.5996 213.415 40.9914 217.488 36.9183Z" fill="#E49542"/>
<path d="M206.333 40.5102C204.243 38.4208 205.852 33.4245 209.925 29.3512C213.999 25.2774 218.995 23.6688 221.085 25.7583C220.205 24.8787 216.19 27.4681 212.116 31.5418C208.043 35.6151 205.453 39.6307 206.333 40.5102Z" fill="#E28424"/>
<path d="M218.936 30.9771L215.866 27.9074C215.512 27.5538 214.939 27.5538 214.586 27.9074C214.232 28.2609 214.232 28.8342 214.586 29.1878L217.655 32.2575C218.009 32.6111 218.582 32.6111 218.936 32.2575C219.289 31.9039 219.289 31.3307 218.936 30.9771Z" fill="#E28424"/>
<path d="M215.426 34.4867L212.356 31.417C212.003 31.0635 211.43 31.0635 211.076 31.417C210.722 31.7706 210.722 32.3438 211.076 32.6974L214.146 35.7671C214.499 36.1207 215.072 36.1207 215.426 35.7671C215.78 35.4136 215.78 34.8404 215.426 34.4867Z" fill="#E28424"/>
<path d="M206.464 30.2364C206.425 30.8533 206.326 32.1141 206.105 33.2893C206.018 33.7485 205.706 34.1305 205.275 34.3102C204.888 34.4713 204.471 34.7389 204.471 35.1411C204.471 35.2696 204.496 35.3845 204.542 35.487H198.608C198.653 35.3845 198.678 35.2696 198.678 35.1411C198.678 34.7389 198.262 34.4713 197.875 34.3102C197.444 34.1305 197.131 33.7485 197.045 33.2893C196.824 32.1141 196.724 30.8533 196.686 30.2364C196.669 29.9688 196.729 29.7018 196.863 29.4691C197.856 27.7418 199.867 26.6505 199.867 26.6505V23.873H203.283V26.6505C203.283 26.6505 205.294 27.7418 206.287 29.4691C206.421 29.7018 206.481 29.9688 206.464 30.2364Z" fill="#80B4FB"/>
<path d="M199.867 24.7603H203.283V25.7706H199.867V24.7603Z" fill="#61A2F9"/>
<path d="M200.824 24.6174V26.6499C200.824 26.6499 199.373 27.7417 198.785 29.469C198.706 29.7011 198.67 29.9688 198.68 30.2363C198.703 30.8527 198.762 32.1135 198.893 33.2893C198.944 33.7479 199.129 34.1304 199.384 34.3101C199.613 34.4712 199.86 34.7389 199.86 35.1411C199.86 35.2696 199.845 35.3845 199.818 35.487H198.608C198.653 35.3845 198.678 35.2696 198.678 35.1411C198.678 34.7389 198.262 34.4712 197.875 34.3101C197.444 34.1304 197.131 33.7479 197.045 33.2893C196.823 32.114 196.724 30.8527 196.686 30.2363C196.669 29.9688 196.729 29.7011 196.863 29.469C197.856 27.7417 199.867 26.6499 199.867 26.6499V25.0657L200.824 24.6174Z" fill="#61A2F9"/>
<path d="M202.889 23.1294H200.261C199.851 23.1294 199.518 23.4623 199.518 23.8729V25.0658H203.632V23.8729C203.632 23.4623 203.299 23.1294 202.889 23.1294Z" fill="#DB5C6E"/>
<path d="M201.735 23.1296C201.324 23.1296 200.991 23.4621 200.991 23.8727V25.0658H199.518V23.8727C199.518 23.4621 199.851 23.1296 200.261 23.1296H201.735Z" fill="#D64553"/>
<path d="M220.392 38.0183C220.392 38.0183 220.367 38.8397 220.285 40.1174C220.167 41.9625 219.93 44.7591 219.478 47.4081C219.133 49.434 217.383 50.9191 215.328 50.9191H200.672C198.617 50.9191 196.867 49.434 196.522 47.4081C196.07 44.7591 195.833 41.9625 195.715 40.1174C195.633 38.8397 195.609 38.0183 195.609 38.0183H220.392Z" fill="#DB5C6E"/>
<path d="M220.392 38.0183C220.392 38.0183 220.367 38.8397 220.285 40.1174C220.155 40.1456 220.021 40.1614 219.884 40.1642C211.961 40.3163 204.039 40.3163 196.116 40.1642C195.979 40.1613 195.845 40.1456 195.715 40.1174C195.633 38.8397 195.609 38.0183 195.609 38.0183H220.392Z" fill="#D64553"/>
<path d="M202.483 50.9191H200.672C198.617 50.9191 196.867 49.4341 196.522 47.4082C195.757 42.9254 195.609 38.0183 195.609 38.0183H198.671C198.671 38.0183 198.783 42.9253 199.358 47.4081C199.618 49.4341 200.935 50.9191 202.483 50.9191Z" fill="#D64553"/>
<path d="M211.788 28.9762C208.928 28.6686 206.068 28.6326 203.207 28.868C202.827 28.8993 202.685 29.1733 202.305 29.2141C201.949 32.3814 201.711 35.3108 202.068 38.478C205.308 38.8265 208.548 38.8265 211.788 38.478C212.145 35.3108 212.145 32.1435 211.788 28.9762Z" fill="#EDEDED"/>
<path d="M203.207 38.5863C202.828 38.5553 202.447 38.5192 202.068 38.4781C201.711 35.3108 201.711 32.1435 202.068 28.9762C202.447 28.9356 202.828 28.8996 203.207 28.868C202.855 32.1075 202.855 35.3469 203.207 38.5863Z" fill="#DBDBDB"/>
<path d="M219.884 39.0205C211.961 39.1728 204.039 39.1728 196.116 39.0205C195.131 39.0016 194.291 38.3004 194.095 37.3348C193.969 36.7137 193.969 36.0925 194.095 35.4713C194.291 34.5057 195.131 33.8045 196.116 33.7856C204.039 33.6333 211.961 33.6333 219.884 33.7856C220.869 33.8045 221.71 34.5057 221.906 35.4713C222.032 36.0925 222.032 36.7137 221.906 37.3348C221.71 38.3004 220.869 39.0016 219.884 39.0205Z" fill="#FFD064"/>
<path d="M198.141 39.0555C197.467 39.0453 196.791 39.0335 196.116 39.0205C195.131 39.0014 194.29 38.3005 194.095 37.3349C193.968 36.7135 193.968 36.0927 194.095 35.4712C194.29 34.5056 195.131 33.8042 196.116 33.7856C196.791 33.7727 197.466 33.7608 198.141 33.7507C197.337 33.9501 196.698 34.5969 196.528 35.4358C196.397 36.0809 196.397 36.7253 196.528 37.3698C196.698 38.2087 197.338 38.856 198.141 39.0555Z" fill="#FFC250"/>
<path d="M202.414 41.426C202.405 41.426 202.396 41.426 202.387 41.426C201.653 41.4277 201.053 42.0204 201.031 42.7549C200.997 43.8975 200.997 45.04 201.031 46.1826C201.053 46.9171 201.653 47.5098 202.387 47.5115H202.414C203.149 47.5098 203.748 46.9171 203.77 46.1826C203.805 45.04 203.805 43.8975 203.77 42.7549C203.748 42.0204 203.149 41.4277 202.414 41.426Z" fill="#365E7D"/>
<path d="M208.013 41.426C208.004 41.426 207.996 41.426 207.987 41.426C207.252 41.4277 206.652 42.0204 206.63 42.7549C206.596 43.8975 206.596 45.04 206.63 46.1826C206.652 46.9171 207.252 47.5098 207.987 47.5115H208.013C208.748 47.5098 209.348 46.9171 209.37 46.1826C209.404 45.04 209.404 43.8975 209.37 42.7549C209.348 42.0204 208.748 41.4277 208.013 41.426Z" fill="#365E7D"/>
<path d="M213.613 41.426C213.604 41.426 213.595 41.426 213.586 41.426C212.851 41.4277 212.252 42.0204 212.23 42.7549C212.196 43.8975 212.196 45.04 212.23 46.1826C212.252 46.9171 212.851 47.5098 213.586 47.5115H213.613C214.347 47.5098 214.947 46.9171 214.969 46.1826C215.003 45.04 215.003 43.8975 214.969 42.7549C214.947 42.0204 214.347 41.4277 213.613 41.426Z" fill="#365E7D"/>
<path d="M200.928 35.6582C200.631 35.5081 200.321 35.3951 199.997 35.3192C199.328 35.1624 198.647 35.5318 198.396 36.1714C197.143 39.3653 195.97 42.5885 194.877 45.8408C194.658 46.4921 194.942 47.2125 195.555 47.5224C195.852 47.6725 196.163 47.7855 196.487 47.8614C197.156 48.0182 197.836 47.6489 198.087 47.0092C199.34 43.8153 200.514 40.5922 201.607 37.3398C201.825 36.6885 201.541 35.9681 200.928 35.6582Z" fill="#407093"/>
<path d="M195.942 47.6941C195.81 47.6438 195.681 47.5867 195.555 47.5228C194.942 47.2132 194.658 46.4924 194.877 45.8413C195.97 42.5892 197.143 39.3662 198.396 36.1717C198.647 35.5322 199.327 35.163 199.997 35.3196C200.134 35.3517 200.269 35.3911 200.402 35.437C199.967 35.5527 199.595 35.8712 199.421 36.3145C198.115 39.6434 196.893 43.0019 195.754 46.3907C195.602 46.8425 195.682 47.3263 195.942 47.6941Z" fill="#365E7D"/>
<path d="M216.004 35.3187C215.68 35.3946 215.37 35.5075 215.073 35.6577C214.459 35.9676 214.175 36.688 214.394 37.3393C215.487 40.5916 216.66 43.8147 217.914 47.0087C218.165 47.6483 218.845 48.0176 219.514 47.8609C219.838 47.785 220.149 47.672 220.446 47.5219C221.059 47.212 221.343 46.4916 221.124 45.8403C220.031 42.5879 218.858 39.3648 217.604 36.1708C217.354 35.5312 216.673 35.1619 216.004 35.3187Z" fill="#407093"/>
<path d="M219.92 47.7437C219.787 47.7898 219.651 47.8289 219.514 47.861C218.845 48.0181 218.164 47.6484 217.913 47.0088C216.66 43.8149 215.487 40.5919 214.394 37.3393C214.175 36.6882 214.459 35.9679 215.072 35.6578C215.198 35.5939 215.327 35.5375 215.458 35.4874C215.199 35.8555 215.119 36.3385 215.271 36.7899C216.41 40.1792 217.633 43.5377 218.938 46.866C219.112 47.3099 219.485 47.6287 219.92 47.7437Z" fill="#365E7D"/>
<path d="M203.552 25.476H199.598C199.372 25.476 199.188 25.2924 199.188 25.0659C199.188 24.8393 199.372 24.6557 199.598 24.6557H203.552C203.778 24.6557 203.962 24.8393 203.962 25.0659C203.962 25.2924 203.778 25.476 203.552 25.476Z" fill="#DB5C6E"/>
<path d="M200.83 25.476H199.598C199.371 25.476 199.188 25.2923 199.188 25.0659C199.188 24.8395 199.371 24.6557 199.598 24.6557H200.83C200.603 24.6557 200.42 24.8395 200.42 25.0659C200.42 25.2923 200.603 25.476 200.83 25.476Z" fill="#D64553"/>
</g>
<defs>
<clipPath id="clip0">
<rect width="28" height="28" fill="white" transform="translate(194 23)"/>
</clipPath>
</defs>
</svg>